<svg width="328" height="58" viewBox="0 0 328 58" fill="none" xmlns="http://www.w3.org/2000/svg">
    <g clip-path="url(#clip0_211_4243)">
        <g clip-path="url(#clip1_211_4243)">
            <rect width="328" height="58" rx="10" fill="#F4A261"/>
            <path d="M146.395 25.5576L143.558 34H141.568L145.287 24.0469H146.559L146.395 25.5576ZM148.767 34L145.916 25.5576L145.745 24.0469H147.023L150.763 34H148.767ZM148.637 30.3018V31.7852H143.298V30.3018H148.637ZM156.354 26.6035H157.995V33.7744C157.995 34.4443 157.849 35.0117 157.558 35.4766C157.271 35.946 156.867 36.3014 156.348 36.543C155.828 36.7891 155.224 36.9121 154.536 36.9121C154.24 36.9121 153.919 36.8711 153.572 36.7891C153.23 36.707 152.9 36.5771 152.581 36.3994C152.267 36.2262 152.005 36.0007 151.795 35.7227L152.608 34.6562C152.854 34.9434 153.132 35.1598 153.442 35.3057C153.752 35.4561 154.087 35.5312 154.447 35.5312C154.812 35.5312 155.122 35.4629 155.377 35.3262C155.637 35.194 155.835 34.998 155.972 34.7383C156.113 34.4831 156.184 34.1686 156.184 33.7949V28.292L156.354 26.6035ZM151.357 30.3906V30.2471C151.357 29.682 151.426 29.1693 151.562 28.709C151.699 28.2441 151.895 27.8454 152.15 27.5127C152.41 27.18 152.722 26.9225 153.087 26.7402C153.456 26.5579 153.871 26.4668 154.331 26.4668C154.819 26.4668 155.229 26.5557 155.562 26.7334C155.899 26.9111 156.177 27.1641 156.396 27.4922C156.619 27.8203 156.792 28.21 156.915 28.6611C157.043 29.1077 157.141 29.5999 157.209 30.1377V30.5273C157.145 31.0514 157.043 31.5322 156.901 31.9697C156.765 32.4072 156.582 32.79 156.354 33.1182C156.127 33.4417 155.844 33.6924 155.507 33.8701C155.17 34.0479 154.773 34.1367 154.317 34.1367C153.862 34.1367 153.451 34.0433 153.087 33.8564C152.722 33.6696 152.41 33.4076 152.15 33.0703C151.895 32.7331 151.699 32.3366 151.562 31.8809C151.426 31.4251 151.357 30.9284 151.357 30.3906ZM153.162 30.2471V30.3906C153.162 30.7096 153.194 31.0081 153.258 31.2861C153.322 31.5641 153.42 31.8102 153.552 32.0244C153.684 32.234 153.85 32.3981 154.051 32.5166C154.251 32.6351 154.491 32.6943 154.769 32.6943C155.142 32.6943 155.448 32.6169 155.685 32.4619C155.926 32.3024 156.108 32.0859 156.231 31.8125C156.359 31.5345 156.441 31.2223 156.478 30.876V29.8027C156.455 29.5293 156.405 29.2764 156.327 29.0439C156.254 28.8115 156.152 28.611 156.02 28.4424C155.887 28.2738 155.719 28.1416 155.514 28.0459C155.309 27.9502 155.065 27.9023 154.782 27.9023C154.509 27.9023 154.27 27.9639 154.064 28.0869C153.859 28.2054 153.691 28.3717 153.559 28.5859C153.426 28.8001 153.326 29.0485 153.258 29.3311C153.194 29.6136 153.162 29.9189 153.162 30.2471ZM162.944 34.1367C162.384 34.1367 161.88 34.0456 161.434 33.8633C160.987 33.681 160.606 33.4281 160.292 33.1045C159.982 32.7764 159.743 32.3958 159.574 31.9629C159.41 31.5254 159.328 31.056 159.328 30.5547V30.2812C159.328 29.7116 159.41 29.1943 159.574 28.7295C159.738 28.2601 159.971 27.8568 160.271 27.5195C160.572 27.1823 160.932 26.9225 161.352 26.7402C161.771 26.5579 162.233 26.4668 162.739 26.4668C163.263 26.4668 163.726 26.5557 164.127 26.7334C164.528 26.9066 164.863 27.1527 165.132 27.4717C165.401 27.7907 165.604 28.1735 165.74 28.6201C165.877 29.0622 165.945 29.5521 165.945 30.0898V30.8486H160.148V29.6045H164.168V29.4678C164.159 29.1807 164.104 28.9186 164.004 28.6816C163.904 28.4401 163.749 28.2487 163.539 28.1074C163.329 27.9616 163.058 27.8887 162.726 27.8887C162.457 27.8887 162.222 27.9479 162.021 28.0664C161.826 28.1803 161.661 28.3444 161.529 28.5586C161.402 28.7682 161.306 29.0189 161.242 29.3105C161.178 29.6022 161.146 29.9258 161.146 30.2812V30.5547C161.146 30.8646 161.188 31.1517 161.27 31.416C161.356 31.6803 161.481 31.9105 161.646 32.1064C161.814 32.2979 162.015 32.4482 162.247 32.5576C162.484 32.6624 162.753 32.7148 163.054 32.7148C163.432 32.7148 163.774 32.6419 164.079 32.4961C164.389 32.3457 164.658 32.1247 164.886 31.833L165.795 32.7764C165.64 33.0042 165.43 33.223 165.166 33.4326C164.906 33.6423 164.592 33.8132 164.223 33.9453C163.854 34.0729 163.427 34.1367 162.944 34.1367ZM168.926 28.1826V34H167.121V26.6035H168.816L168.926 28.1826ZM168.639 30.0352H168.105C168.11 29.4974 168.183 29.0098 168.324 28.5723C168.465 28.1348 168.664 27.7588 168.919 27.4443C169.179 27.1299 169.486 26.8883 169.842 26.7197C170.197 26.5511 170.594 26.4668 171.031 26.4668C171.387 26.4668 171.708 26.5169 171.995 26.6172C172.282 26.7174 172.528 26.877 172.733 27.0957C172.943 27.3145 173.103 27.6016 173.212 27.957C173.326 28.3079 173.383 28.7409 173.383 29.2559V34H171.564V29.2422C171.564 28.9049 171.514 28.6383 171.414 28.4424C171.318 28.2464 171.177 28.1074 170.99 28.0254C170.808 27.9434 170.582 27.9023 170.313 27.9023C170.035 27.9023 169.792 27.9593 169.582 28.0732C169.377 28.1826 169.204 28.3353 169.062 28.5312C168.926 28.7272 168.821 28.9528 168.748 29.208C168.675 29.4632 168.639 29.7389 168.639 30.0352ZM179.412 32.4277V23.5H181.23V34H179.59L179.412 32.4277ZM174.661 30.3906V30.2471C174.661 29.682 174.725 29.1693 174.853 28.709C174.985 28.2441 175.176 27.8454 175.427 27.5127C175.677 27.18 175.98 26.9225 176.336 26.7402C176.696 26.5579 177.104 26.4668 177.56 26.4668C178.002 26.4668 178.387 26.5557 178.715 26.7334C179.048 26.9111 179.33 27.1641 179.562 27.4922C179.799 27.8203 179.989 28.21 180.13 28.6611C180.271 29.1077 180.374 29.5999 180.438 30.1377V30.5273C180.374 31.0514 180.271 31.5322 180.13 31.9697C179.989 32.4072 179.799 32.79 179.562 33.1182C179.33 33.4417 179.048 33.6924 178.715 33.8701C178.382 34.0479 177.993 34.1367 177.546 34.1367C177.095 34.1367 176.689 34.0433 176.329 33.8564C175.974 33.6696 175.671 33.4076 175.42 33.0703C175.174 32.7331 174.985 32.3366 174.853 31.8809C174.725 31.4251 174.661 30.9284 174.661 30.3906ZM176.473 30.2471V30.3906C176.473 30.7096 176.5 31.0081 176.555 31.2861C176.609 31.5641 176.698 31.8102 176.821 32.0244C176.944 32.234 177.102 32.3981 177.293 32.5166C177.489 32.6351 177.726 32.6943 178.004 32.6943C178.359 32.6943 178.651 32.6169 178.879 32.4619C179.111 32.3024 179.291 32.0859 179.419 31.8125C179.547 31.5345 179.629 31.2223 179.665 30.876V29.8027C179.647 29.5293 179.599 29.2764 179.521 29.0439C179.449 28.8115 179.344 28.611 179.207 28.4424C179.075 28.2738 178.911 28.1416 178.715 28.0459C178.519 27.9502 178.286 27.9023 178.018 27.9023C177.74 27.9023 177.503 27.9639 177.307 28.0869C177.111 28.2054 176.951 28.3717 176.828 28.5859C176.705 28.8001 176.614 29.0485 176.555 29.3311C176.5 29.6136 176.473 29.9189 176.473 30.2471ZM186.938 32.4277V29.0166C186.938 28.766 186.895 28.5495 186.809 28.3672C186.722 28.1849 186.59 28.0436 186.412 27.9434C186.234 27.8431 186.009 27.793 185.735 27.793C185.494 27.793 185.282 27.834 185.1 27.916C184.922 27.998 184.785 28.1143 184.689 28.2646C184.594 28.4105 184.546 28.5791 184.546 28.7705H182.734C182.734 28.4652 182.807 28.1758 182.953 27.9023C183.099 27.6243 183.306 27.3783 183.575 27.1641C183.849 26.9453 184.174 26.7744 184.553 26.6514C184.936 26.5283 185.364 26.4668 185.838 26.4668C186.398 26.4668 186.897 26.5625 187.335 26.7539C187.777 26.9408 188.123 27.2233 188.374 27.6016C188.629 27.9798 188.757 28.4561 188.757 29.0303V32.2568C188.757 32.626 188.78 32.9427 188.825 33.207C188.875 33.4668 188.948 33.6924 189.044 33.8838V34H187.205C187.118 33.8132 187.052 33.5762 187.007 33.2891C186.961 32.9974 186.938 32.7103 186.938 32.4277ZM187.191 29.4951L187.205 30.5684H186.063C185.781 30.5684 185.533 30.598 185.318 30.6572C185.104 30.7119 184.929 30.7939 184.792 30.9033C184.655 31.0081 184.553 31.1357 184.484 31.2861C184.416 31.432 184.382 31.5983 184.382 31.7852C184.382 31.9674 184.423 32.1315 184.505 32.2773C184.591 32.4232 184.715 32.5394 184.874 32.626C185.038 32.708 185.229 32.749 185.448 32.749C185.767 32.749 186.045 32.6852 186.282 32.5576C186.519 32.4255 186.704 32.266 186.836 32.0791C186.968 31.8923 187.039 31.7145 187.048 31.5459L187.567 32.3252C187.504 32.512 187.408 32.7103 187.28 32.9199C187.153 33.1296 186.989 33.3255 186.788 33.5078C186.588 33.6901 186.346 33.8405 186.063 33.959C185.781 34.0775 185.453 34.1367 185.079 34.1367C184.601 34.1367 184.172 34.041 183.794 33.8496C183.416 33.6582 183.117 33.3962 182.898 33.0635C182.68 32.7308 182.57 32.3525 182.57 31.9287C182.57 31.5368 182.643 31.1904 182.789 30.8896C182.935 30.5889 183.151 30.3359 183.438 30.1309C183.726 29.9212 184.081 29.764 184.505 29.6592C184.933 29.5498 185.423 29.4951 185.975 29.4951H187.191Z" fill="white"/>
        </g>
        <path d="M21.8884 8.08069C19.5112 8.26545 16.8876 8.79509 14.6951 9.53412C4.1147 13.1184 -3.41109 22.3686 -4.85219 33.5895C-5.04927 35.1046 -5.04927 38.9845 -4.85219 40.5118C-4.15012 45.9683 -2.04388 51.006 1.29407 55.1692C9.25096 65.0845 22.6397 68.6811 34.5258 64.0992C43.8622 60.4902 50.7475 52.1269 52.5581 42.1992C53.1493 38.9229 53.1493 35.2031 52.5458 31.8405C52.2748 30.3255 52.1393 30.0299 51.5974 29.8082C51.2894 29.6727 51.0677 29.6973 50.2055 29.9313C49.5527 30.1038 49.0724 30.3132 48.8876 30.4979C48.5427 30.8428 48.555 31.0768 48.9369 33.3678C49.2202 35.1169 49.2325 38.9475 48.9369 40.7458C47.6682 48.7027 43.0246 55.3293 36.0162 59.2216C32.0377 61.4263 26.8029 62.5595 22.2333 62.2023C15.9392 61.7096 10.5443 59.2339 6.1224 54.7997C-1.57583 47.1138 -3.43572 35.3509 1.50346 25.6696C2.43957 23.822 3.10469 22.7874 4.37336 21.2231C8.30254 16.3332 13.8699 13.1307 20.2256 12.0961C22.0978 11.8005 25.8668 11.8005 27.739 12.0961C31.311 12.6873 34.3903 13.8328 37.3957 15.6927C38.4303 16.3455 40.8075 18.1808 41.2756 18.6981C41.5096 18.9568 41.5096 18.9691 41.2633 19.24C40.8445 19.6958 40.7213 20.016 40.8445 20.3486C40.9184 20.521 41.0662 20.6935 41.1894 20.7304C41.7436 20.8905 46.1532 21.7897 46.4242 21.7897C46.5966 21.7897 46.8306 21.6788 46.9538 21.5434C47.1755 21.297 47.1632 21.2231 46.6089 18.5626C46.2887 17.0722 45.9684 15.7666 45.8945 15.6804C45.6482 15.3848 45.057 15.471 44.6628 15.8775L44.2933 16.247L43.1601 15.2493C37.408 10.1623 29.4881 7.48947 21.8884 8.08069Z" fill="#FFBC87"/>
        <path d="M20.6199 15.2003C17.2573 15.7546 13.9316 17.1095 11.1726 19.0556C9.66989 20.1026 7.03402 22.7384 5.96243 24.2534C4.28729 26.6183 2.87082 29.9317 2.30423 32.8262C1.95935 34.5506 1.83618 37.79 2.05789 39.6253C3.15411 49.1095 10.1379 56.6845 19.6591 58.7045C21.0756 59.0125 21.4451 59.0371 23.9824 59.0371C26.5198 59.0371 26.8893 59.0125 28.2934 58.7045C32.5552 57.7931 36.0902 55.9701 39.1572 53.0879C42.8647 49.5898 45.3281 44.6999 45.907 39.6499C46.1287 37.827 46.0055 34.5383 45.6606 32.8262C45.0941 29.9193 43.6776 26.6183 42.0024 24.2534C40.9309 22.7507 38.295 20.1149 36.7923 19.0433C34.4274 17.3805 31.3112 16.0256 28.355 15.3851C26.7415 15.0279 22.3073 14.9293 20.6199 15.2003ZM27.9855 17.2327C36.6568 19.0925 43.0248 26.0271 44.0717 34.7723C44.2688 36.3858 44.1456 39.342 43.8254 40.9309C43.2834 43.5791 42.2488 46.0425 40.7215 48.3458C39.5021 50.1811 37.1125 52.5706 35.2773 53.8023C29.636 57.5467 22.763 58.2858 16.5306 55.8346C13.9193 54.8 11.9239 53.4574 9.7438 51.2896C7.28036 48.8262 5.76535 46.3874 4.73071 43.1603C4.13949 41.3373 3.90546 39.9209 3.81924 37.8516C3.68375 34.3781 4.31193 31.3112 5.81462 28.2442C8.74611 22.2211 14.2765 18.1441 20.9894 17.0479C22.6029 16.7892 26.3597 16.8878 27.9855 17.2327Z" fill="#FFBC87"/>
        <path d="M23.5142 19.2893C23.4279 19.3263 23.2801 19.511 23.1816 19.6958C22.9599 20.1269 22.9229 22.4795 23.1323 22.9475C23.4649 23.6743 24.5734 23.625 24.8321 22.8736C25.0415 22.2947 25.0045 20.1269 24.7828 19.7081C24.5488 19.2401 24.0438 19.0799 23.5142 19.2893Z" fill="#FFBC87"/>
        <path d="M18.0578 22.1593C17.9469 22.2209 17.7868 22.4426 17.7129 22.6397C17.5774 22.9599 17.7129 23.3787 19.4865 27.9607C20.5458 30.6951 21.6051 33.4418 21.8514 34.07L22.2949 35.1909L22.0362 35.5604C21.6174 36.1393 21.4573 36.9276 21.6174 37.5681C21.6913 37.8637 21.7406 38.11 21.7283 38.1224C21.716 38.1347 19.4373 39.6374 16.6782 41.4603L11.6528 44.7859L11.8869 45.0692L12.1209 45.3525L17.0724 42.0762C19.7945 40.2656 22.0732 38.7875 22.1347 38.7875C22.1963 38.7875 22.4427 38.923 22.689 39.0831C23.5635 39.6866 24.7213 39.6004 25.5343 38.886C26.0393 38.4426 26.1871 38.1839 26.3842 37.4449L26.5196 36.903L31.1263 34.8953C33.6636 33.799 35.8068 32.8013 35.893 32.6782C36.1024 32.3826 36.0901 31.8776 35.8684 31.5573C35.4742 30.9907 35.3141 31.04 30.3626 33.1832C25.8176 35.1539 25.6574 35.2155 25.3618 35.0184C25.2017 34.9076 24.8322 34.7598 24.5489 34.6736L24.0439 34.5258L22.2333 29.8575C21.2356 27.2833 20.1886 24.5735 19.9053 23.8345C19.622 23.0954 19.2895 22.3933 19.154 22.2579C18.92 22.0238 18.378 21.9746 18.0578 22.1593Z" fill="#FFBC87"/>
        <path d="M6.66427 36.2132C6.39329 36.3487 6.12231 36.8044 6.12231 37.1124C6.12231 37.1986 6.23317 37.4203 6.38097 37.605C6.62732 37.9253 6.65195 37.9253 8.27782 37.9253C9.81746 37.9253 9.95295 37.913 10.187 37.6543C10.4949 37.3218 10.5072 36.8044 10.1993 36.4349C9.97759 36.1516 9.87905 36.1393 8.43794 36.1147C7.55111 36.09 6.81208 36.1393 6.66427 36.2132Z" fill="#FFBC87"/>
        <path d="M38.0609 36.2009C37.5066 36.4226 37.3588 37.1986 37.7776 37.6543C38.0116 37.913 38.1471 37.9253 39.6867 37.9253C41.3126 37.9253 41.3372 37.9253 41.5836 37.605C41.7314 37.4203 41.8422 37.1986 41.8422 37.1124C41.8422 36.7921 41.5589 36.3487 41.2633 36.2132C40.9184 36.0531 38.455 36.0408 38.0609 36.2009Z" fill="#FFBC87"/>
        <path d="M23.354 50.8462C23.0707 51.0679 23.0583 51.1541 23.0583 52.6937C23.0583 54.1841 23.083 54.3196 23.3293 54.5659C23.4895 54.7384 23.7481 54.8369 23.9821 54.8369C24.2162 54.8369 24.4748 54.7384 24.6349 54.5659C24.8813 54.3196 24.9059 54.1841 24.9059 52.6937C24.9059 51.1541 24.8936 51.0679 24.6103 50.8462C24.4502 50.723 24.1669 50.6121 23.9821 50.6121C23.7974 50.6121 23.5141 50.723 23.354 50.8462Z" fill="#FFBC87"/>
    </g>
    <defs>
        <clipPath id="clip0_211_4243">
            <rect width="328" height="58" rx="10" fill="white"/>
        </clipPath>
        <clipPath id="clip1_211_4243">
            <rect width="328" height="58" fill="white"/>
        </clipPath>
    </defs>
</svg>
