<svg width="25" height="42" viewBox="0 0 25 42" fill="none" xmlns="http://www.w3.org/2000/svg">
    <path d="M10.7754 30.7246L7.95117 38.5H6.79688L10.0488 29.9688H10.793L10.7754 30.7246ZM13.1426 38.5L10.3125 30.7246L10.2949 29.9688H11.0391L14.3027 38.5H13.1426ZM12.9961 35.3418V36.2676H8.20312V35.3418H12.9961ZM16.459 32.1602V38.5H15.3691V32.1602H16.459ZM15.2871 30.4785C15.2871 30.3027 15.3398 30.1543 15.4453 30.0332C15.5547 29.9121 15.7148 29.8516 15.9258 29.8516C16.1328 29.8516 16.291 29.9121 16.4004 30.0332C16.5137 30.1543 16.5703 30.3027 16.5703 30.4785C16.5703 30.6465 16.5137 30.791 16.4004 30.9121C16.291 31.0293 16.1328 31.0879 15.9258 31.0879C15.7148 31.0879 15.5547 31.0293 15.4453 30.9121C15.3398 30.791 15.2871 30.6465 15.2871 30.4785Z" fill="#777E99"/>
    <path d="M9.607 5.948C10.205 4.198 12.623 4.145 13.332 5.789L13.392 5.949L14.199 8.309C14.3839 8.85023 14.6828 9.34551 15.0754 9.76142C15.4681 10.1773 15.9453 10.5042 16.475 10.72L16.692 10.801L19.052 11.607C20.802 12.205 20.855 14.623 19.212 15.332L19.052 15.392L16.692 16.199C16.1506 16.3838 15.6551 16.6826 15.239 17.0753C14.8229 17.4679 14.4959 17.9452 14.28 18.475L14.199 18.691L13.393 21.052C12.795 22.802 10.377 22.855 9.669 21.212L9.607 21.052L8.801 18.692C8.61618 18.1506 8.31737 17.6551 7.92474 17.239C7.53211 16.8229 7.05479 16.4959 6.525 16.28L6.309 16.199L3.949 15.393C2.198 14.795 2.145 12.377 3.789 11.669L3.949 11.607L6.309 10.801C6.85023 10.6161 7.34551 10.3172 7.76142 9.92457C8.17733 9.53195 8.50421 9.05469 8.72 8.525L8.801 8.309L9.607 5.948ZM11.5 6.594L10.694 8.954C10.4124 9.7793 9.95427 10.5333 9.35153 11.1635C8.7488 11.7937 8.01594 12.2849 7.204 12.603L6.954 12.694L4.594 13.5L6.954 14.306C7.7793 14.5876 8.5333 15.0457 9.16349 15.6485C9.79369 16.2512 10.2849 16.9841 10.603 17.796L10.694 18.046L11.5 20.406L12.306 18.046C12.5876 17.2207 13.0457 16.4667 13.6485 15.8365C14.2512 15.2063 14.9841 14.7151 15.796 14.397L16.046 14.307L18.406 13.5L16.046 12.694C15.2207 12.4124 14.4667 11.9543 13.8365 11.3515C13.2063 10.7488 12.7151 10.0159 12.397 9.204L12.307 8.954L11.5 6.594ZM19.5 2.5C19.6871 2.5 19.8704 2.55248 20.0292 2.65147C20.1879 2.75046 20.3157 2.892 20.398 3.06L20.446 3.177L20.796 4.203L21.823 4.553C22.0105 4.6167 22.1748 4.73462 22.2952 4.89182C22.4156 5.04902 22.4866 5.23842 22.4993 5.43602C22.5119 5.63362 22.4656 5.83053 22.3662 6.00179C22.2668 6.17304 22.1188 6.31094 21.941 6.398L21.823 6.446L20.797 6.796L20.447 7.823C20.3832 8.01043 20.2652 8.1747 20.1079 8.29499C19.9507 8.41529 19.7612 8.48619 19.5636 8.49872C19.366 8.51125 19.1692 8.46484 18.998 8.36538C18.8268 8.26591 18.689 8.11787 18.602 7.94L18.554 7.823L18.204 6.797L17.177 6.447C16.9895 6.3833 16.8252 6.26538 16.7048 6.10819C16.5844 5.95099 16.5134 5.76158 16.5007 5.56398C16.4881 5.36638 16.5344 5.16947 16.6338 4.99821C16.7332 4.82696 16.8812 4.68906 17.059 4.602L17.177 4.554L18.203 4.204L18.553 3.177C18.6204 2.97943 18.748 2.80791 18.9178 2.6865C19.0877 2.56509 19.2912 2.49987 19.5 2.5Z" fill="#777E99"/>
</svg>
