<svg width="27" height="26" viewBox="0 0 27 26" fill="none" xmlns="http://www.w3.org/2000/svg">
    <rect x="0.435484" y="0.435484" width="26.129" height="24.3871" rx="3.91935" stroke="#79A78D" stroke-width="0.870968"/>
    <path d="M12.8538 17.5574L11.6239 20.9435H11.1212L12.5374 17.2283H12.8614L12.8538 17.5574ZM13.8847 20.9435L12.6522 17.5574L12.6446 17.2283H12.9686L14.3899 20.9435H13.8847ZM13.8209 19.5681V19.9713H11.7336V19.5681H13.8209ZM15.3289 18.1826V20.9435H14.8543V18.1826H15.3289ZM14.8186 17.4503C14.8186 17.3737 14.8415 17.3091 14.8875 17.2563C14.9351 17.2036 15.0048 17.1772 15.0967 17.1772C15.1869 17.1772 15.2558 17.2036 15.3034 17.2563C15.3527 17.3091 15.3774 17.3737 15.3774 17.4503C15.3774 17.5234 15.3527 17.5863 15.3034 17.6391C15.2558 17.6901 15.1869 17.7156 15.0967 17.7156C15.0048 17.7156 14.9351 17.6901 14.8875 17.6391C14.8415 17.5863 14.8186 17.5234 14.8186 17.4503Z" fill="#79A78D"/>
    <path d="M12.2401 5.68697C12.5006 4.92488 13.5536 4.9018 13.8623 5.61773L13.8885 5.68741L14.2399 6.71515C14.3204 6.95085 14.4506 7.16653 14.6216 7.34766C14.7925 7.52878 15.0004 7.67113 15.2311 7.7651L15.3256 7.80038L16.3533 8.15138C17.1154 8.4118 17.1385 9.4648 16.423 9.77355L16.3533 9.79968L15.3256 10.1511C15.0898 10.2316 14.874 10.3617 14.6928 10.5327C14.5116 10.7037 14.3692 10.9116 14.2752 11.1423L14.2399 11.2363L13.8889 12.2645C13.6285 13.0266 12.5755 13.0497 12.2671 12.3342L12.2401 12.2645L11.8891 11.2368C11.8087 11.001 11.6785 10.7852 11.5076 10.604C11.3366 10.4228 11.1287 10.2804 10.898 10.1864L10.8039 10.1511L9.77618 9.80012C9.01365 9.5397 8.99057 8.4867 9.7065 8.17838L9.77618 8.15138L10.8039 7.80038C11.0396 7.71984 11.2553 7.58969 11.4364 7.41871C11.6176 7.24772 11.7599 7.03989 11.8539 6.80922L11.8891 6.71515L12.2401 5.68697ZM16.5484 4.18542C16.6299 4.18542 16.7097 4.20828 16.7788 4.25139C16.848 4.2945 16.9036 4.35614 16.9395 4.4293L16.9604 4.48025L17.1128 4.92705L17.56 5.07947C17.6417 5.10721 17.7132 5.15856 17.7657 5.22702C17.8181 5.29548 17.849 5.37796 17.8545 5.46401C17.86 5.55007 17.8399 5.63582 17.7966 5.7104C17.7533 5.78498 17.6889 5.84503 17.6114 5.88294L17.56 5.90384L17.1132 6.05626L16.9608 6.50351C16.933 6.58513 16.8816 6.65666 16.8131 6.70905C16.7446 6.76144 16.6622 6.79231 16.5761 6.79777C16.4901 6.80323 16.4043 6.78302 16.3298 6.7397C16.2552 6.69639 16.1952 6.63192 16.1573 6.55446L16.1364 6.50351L15.984 6.0567L15.5368 5.90428C15.4551 5.87654 15.3835 5.82519 15.3311 5.75673C15.2787 5.68827 15.2478 5.60579 15.2423 5.51974C15.2368 5.43369 15.2569 5.34794 15.3002 5.27336C15.3435 5.19878 15.4079 5.13873 15.4854 5.10081L15.5368 5.07991L15.9836 4.92749L16.136 4.48025C16.1654 4.39421 16.2209 4.31951 16.2949 4.26664C16.3688 4.21377 16.4575 4.18537 16.5484 4.18542Z" fill="#79A78D"/>
</svg>
