<svg width="24" height="23" viewBox="0 0 24 23" fill="none" xmlns="http://www.w3.org/2000/svg">
    <path d="M6.1875 0.428051C5.34375 0.751489 4.51406 1.20618 3.83437 1.71243C3.35625 2.07336 2.57343 2.82336 2.17968 3.2968C1.03593 4.67493 0.257808 6.50305 0.0468709 8.3218C-0.0468791 9.1093 0.00937093 10.5343 0.159371 11.2515C0.356246 12.189 0.496871 12.5734 0.721871 12.7937C0.862496 12.9343 0.965621 12.9952 1.11562 13.0187C1.55156 13.0843 1.95468 12.8406 2.06718 12.4327C2.11875 12.2452 2.10937 12.1749 1.99218 11.7343C1.425 9.58743 1.55156 7.85774 2.41406 6.02961C3.29062 4.17805 4.75781 2.79993 6.67968 2.03586C7.2 1.8343 7.34062 1.73586 7.45312 1.52024C7.64062 1.14993 7.52343 0.667113 7.19531 0.442114C6.9375 0.268676 6.61875 0.263988 6.1875 0.428051Z" fill="white"/>
    <path d="M16.8844 0.395215C16.5047 0.582715 16.3406 1.09834 16.5281 1.49678C16.6266 1.70772 16.7578 1.80147 17.1422 1.96084C18.6469 2.57959 19.6125 3.25928 20.5031 4.32803C22.2234 6.39053 22.7812 9.10459 22.0125 11.6874C21.8625 12.1796 21.8625 12.3155 21.9984 12.578C22.2375 13.0562 22.8375 13.178 23.25 12.8312C23.4328 12.6718 23.4937 12.5546 23.6391 12.039C24.0562 10.5765 24.1172 8.8374 23.8031 7.39834C23.2781 4.95615 21.8062 2.79053 19.7578 1.43584C18.9469 0.896778 17.6297 0.296778 17.2641 0.296778C17.1656 0.296778 16.9969 0.343653 16.8844 0.395215Z" fill="white"/>
    <path d="M11.4141 2.13895C11.2828 2.19988 11.0906 2.34988 10.9828 2.47176C10.6734 2.82332 10.6406 2.98269 10.6406 4.06551V5.00769L10.3453 5.09207C10.1859 5.13894 9.85781 5.2702 9.62344 5.38269C8.31563 5.99676 7.27969 7.12644 6.79688 8.44832C6.50625 9.24051 6.46875 9.53113 6.42188 11.3827C6.39375 12.5827 6.36563 13.0655 6.30469 13.328C6.02813 14.5608 5.55 15.4889 4.69688 16.4593C4.4625 16.7171 4.21406 17.0546 4.13906 17.2046C4.01719 17.453 4.00781 17.5186 4.00781 17.9968C4.00781 18.4983 4.0125 18.5218 4.18125 18.8686C4.45313 19.4124 4.875 19.7405 5.46563 19.8671C5.71406 19.9186 6.18281 19.9374 7.49063 19.9374H9.1875V20.0405C9.1875 20.1014 9.22031 20.2889 9.25781 20.4671C9.57656 21.9764 11.0109 22.9327 12.5438 22.6514C12.6938 22.6233 12.9984 22.5202 13.2141 22.4171C13.5281 22.2718 13.6734 22.1639 13.9641 21.8733C14.4656 21.3624 14.7 20.8796 14.7891 20.1577L14.8172 19.9374H16.5141C18.3703 19.9374 18.675 19.9046 19.0688 19.6749C19.3922 19.4827 19.6781 19.1686 19.8422 18.8218C20.0438 18.3858 20.0766 17.8233 19.9219 17.3921C19.7953 17.0405 19.725 16.9421 19.2563 16.403C18.3563 15.3858 17.8266 14.2608 17.625 12.953C17.5969 12.7608 17.5547 11.8936 17.5313 11.0311C17.4984 9.69051 17.4797 9.40457 17.4 9.08113C17.0484 7.69363 16.2047 6.50769 15.0328 5.74363C14.625 5.48113 14.0297 5.19988 13.6547 5.09676L13.3641 5.01707L13.35 4.00457C13.3359 3.04832 13.3313 2.97801 13.2281 2.78113C12.9656 2.27488 12.6328 2.06863 12.0469 2.0452C11.7 2.02645 11.6156 2.04051 11.4141 2.13895ZM12.8438 6.60613C14.0297 6.85457 15.1828 7.83894 15.6141 8.97332C15.8391 9.56394 15.8531 9.68113 15.8953 11.3358C15.9188 12.3577 15.9563 13.0749 16.0031 13.328C16.2891 14.9968 16.9547 16.3561 18.0891 17.6077C18.3891 17.9405 18.4219 18.0249 18.2953 18.1655C18.225 18.2452 17.9672 18.2499 12.0094 18.2499C6.29531 18.2499 5.78906 18.2452 5.70938 18.1702C5.6625 18.128 5.625 18.0577 5.625 18.0108C5.625 17.9639 5.77969 17.7483 5.96719 17.5374C6.73594 16.6655 7.2375 15.8499 7.59375 14.8655C7.97344 13.8296 8.05781 13.2483 8.10469 11.2889C8.15156 9.61551 8.16094 9.53113 8.4 8.93113C8.5875 8.48113 8.80313 8.14832 9.17813 7.74519C9.73125 7.15457 10.4016 6.7702 11.1609 6.60613C11.7797 6.47488 12.1969 6.47488 12.8438 6.60613ZM13.125 20.0452C13.125 20.2374 12.8766 20.6546 12.6703 20.8139C12.0188 21.3014 11.0203 20.9171 10.8938 20.1296L10.8609 19.9374H11.9953H13.125V20.0452Z" fill="white"/>
    <path d="M7.40625 3.22187C6.64219 3.52656 6.03281 3.91093 5.41406 4.47812C4.725 5.11093 4.26094 5.72968 3.88125 6.53124C3.42656 7.47812 3.25781 8.25155 3.25781 9.36718C3.25781 9.8453 3.28125 10.2953 3.32344 10.4922C3.42188 11.0078 3.6 11.6078 3.69375 11.7344C4.02656 12.1844 4.73906 12.175 5.04844 11.7203C5.21719 11.4766 5.22656 11.2469 5.09063 10.75C4.8 9.67655 4.82344 8.78124 5.17031 7.77343C5.42813 7.02812 5.78906 6.45624 6.37031 5.87031C6.84375 5.39687 7.22344 5.13437 7.77656 4.88593C8.47969 4.56718 8.59688 4.49218 8.70469 4.29999C8.925 3.92031 8.78906 3.39531 8.41875 3.17968C8.14219 3.02031 7.89844 3.02968 7.40625 3.22187Z" fill="white"/>
    <path d="M15.5859 3.17031C15.2063 3.38594 15.0703 3.91094 15.2953 4.30469C15.4031 4.49687 15.5203 4.57187 16.2234 4.88125C17.2031 5.31719 18.0984 6.19844 18.5859 7.20156C19.1344 8.34062 19.2422 9.475 18.9094 10.7312C18.7734 11.2516 18.7828 11.4578 18.9375 11.7109C19.0734 11.9359 19.3359 12.0625 19.6547 12.0625C20.0859 12.0625 20.325 11.8375 20.4844 11.2891C20.9625 9.6625 20.8078 7.92812 20.0625 6.42812C19.7438 5.79062 19.425 5.33594 18.9281 4.81562C18.225 4.08437 17.4984 3.5875 16.5703 3.21719C16.1156 3.03437 15.8484 3.02031 15.5859 3.17031Z" fill="white"/>
</svg>
