<svg width="328" height="58" viewBox="0 0 328 58" fill="none" xmlns="http://www.w3.org/2000/svg">
    <g clip-path="url(#clip0_132_6111)">
        <rect width="328" height="58" rx="10" fill="#9459D5"/>
        <path d="M276.187 14.406C275.983 14.6395 275.428 15.3692 274.961 16.0551C272.422 19.7622 270.612 22.2141 270.335 22.3454C269.941 22.5351 268.394 24.7097 267.708 26.0524C267.124 27.2054 265.869 29.0735 265.621 29.1465C265.445 29.2049 262.716 26.5632 261.986 25.6438C261.651 25.206 261.49 25.1038 261.271 25.1914C261.125 25.2497 260.454 26.14 259.783 27.1616C258.396 29.2924 256.616 31.7297 254.689 34.1524C253.025 36.2249 252.485 36.7503 252.223 36.5605C250.851 35.5535 250.428 35.32 249.917 35.32C249.289 35.32 249.479 35.1011 247.523 38.093C246.137 40.1946 244.006 42.8654 242.298 44.6459L240.97 46.0324L242.357 44.8795C243.116 44.2519 244.021 43.4784 244.356 43.1573C245.597 41.9751 245.611 43.0843 244.4 45.6092C243.539 47.4043 243.422 47.7254 243.641 47.7254C243.918 47.6962 245.641 44.4708 246.881 41.6249C247.392 40.4281 247.64 40.0487 248.019 39.8151C248.428 39.567 248.559 39.5524 248.924 39.6984C249.581 39.9757 249.698 40.18 249.435 40.6616C249.318 40.8951 249.216 41.2892 249.216 41.5227C249.216 41.873 248.851 42.4276 247.567 44.033C246.662 45.1714 245.29 46.9957 244.531 48.0757C243.772 49.1557 243.086 50.0459 242.984 50.0459C242.882 50.0605 242.838 50.1627 242.882 50.2795C242.941 50.3962 242.911 50.4984 242.838 50.4984C242.576 50.4984 242.503 50.3087 242.678 50.1043C242.809 49.9438 242.809 49.8708 242.663 49.7687C242.546 49.7103 242.503 49.5643 242.532 49.4622C242.649 49.1557 242.182 48.4551 241.875 48.4551C241.656 48.4551 241.612 48.3822 241.685 48.1049C241.729 47.9005 241.715 47.6962 241.627 47.6524C241.554 47.6087 241.481 47.6816 241.481 47.8422C241.481 48.0027 241.321 48.2508 241.116 48.3968C240.839 48.6011 240.766 48.7616 240.824 48.9951C240.883 49.2432 240.839 49.3308 240.664 49.3308C240.518 49.3308 240.459 49.4038 240.518 49.5497C240.576 49.6957 240.503 49.7687 240.314 49.7687C240.153 49.7687 240.022 49.827 240.022 49.9C240.022 49.973 239.919 50.0605 239.803 50.0897C239.613 50.1335 239.613 50.1919 239.817 50.5714C240.022 50.9654 240.022 51.0092 239.788 51.1843C239.642 51.2865 239.467 51.3741 239.394 51.3741C239.336 51.3741 239.379 51.4762 239.496 51.6076C239.628 51.7243 239.73 51.9286 239.73 52.0454C239.73 52.1622 239.803 52.2205 239.876 52.1768C239.963 52.133 240.022 52.1476 240.022 52.2351C240.022 52.3081 239.876 52.4249 239.715 52.4686C239.482 52.5416 239.452 52.6 239.598 52.6876C239.744 52.7897 239.744 52.8481 239.584 53.0524C239.482 53.1838 239.452 53.2714 239.525 53.2568C239.803 53.213 240.022 53.2714 240.022 53.4027C240.022 53.4757 239.876 53.5632 239.686 53.5924C239.511 53.6216 239.365 53.7384 239.365 53.8551C239.365 53.9719 239.306 54.1616 239.248 54.2492C239.161 54.3805 239.234 54.4389 239.496 54.4389C239.963 54.4389 239.978 54.6432 239.555 54.9497C239.321 55.1249 239.277 55.227 239.409 55.2708C239.686 55.373 239.613 55.6065 239.292 55.6065C239.131 55.6065 239 55.6649 239 55.7524C239 55.8254 239.248 55.8984 239.555 55.8984C240.314 55.8984 240.401 56.0297 239.919 56.4384L239.511 56.7886L240.168 56.7011C241.525 56.5259 241.408 56.453 241.452 57.533C241.496 58.4962 241.51 58.5254 241.875 58.5254H242.255L242.167 57.3724C242.123 56.7449 242.109 56.1903 242.152 56.1465C242.196 56.1173 242.488 56.2195 242.795 56.38C243.218 56.6135 243.32 56.7449 243.203 56.8762C242.97 57.1681 243.845 56.9492 244.823 56.4822C245.334 56.2341 245.67 56.1319 245.728 56.2341C245.786 56.307 245.903 56.2341 245.991 56.0589C246.239 55.6065 246.472 55.6649 246.297 56.1319C246.166 56.4822 246.181 56.5114 246.443 56.4384C246.604 56.3946 246.735 56.4384 246.735 56.5114C246.735 56.5989 246.823 56.5843 246.954 56.4822C247.144 56.3216 247.173 56.4238 247.173 57.2119V58.1314L245.392 58.0584C244.283 58.0146 243.816 58.0292 244.181 58.1022C245.363 58.3503 251.493 58.4962 254.835 58.3795C257.944 58.2481 260.629 58.0292 260.892 57.8686C261.009 57.7957 264.876 57.533 267.562 57.4016C268.831 57.3432 269.225 57.387 270.116 57.6497C270.699 57.8395 271.254 58.0292 271.342 58.1022C271.473 58.2043 272.363 58.4232 274.83 58.9195C275.53 59.0508 275.063 58.7589 274.173 58.4816C273.735 58.3649 273.108 58.2043 272.786 58.1459C272.159 58.0438 271.546 57.7227 271.546 57.5038C271.546 57.2703 272.859 57.3432 274.334 57.6497C275.092 57.8103 275.851 57.9416 276.041 57.9416C276.26 57.9416 276.421 58.073 276.508 58.3065C276.683 58.7589 276.946 58.7735 277.048 58.3649C277.121 58.0876 277.209 58.0584 277.807 58.1459C278.172 58.1897 279.033 58.2627 279.719 58.3065C280.872 58.3649 280.901 58.3649 280.171 58.2189C279.734 58.1459 278.843 58.0292 278.201 57.9708L277.019 57.8686L276.975 57.3141C276.946 57.0222 276.961 56.7741 277.004 56.7741C277.048 56.7741 277.296 56.9054 277.559 57.0659C278.128 57.4162 278.362 57.4454 278.114 57.1389C278.011 57.0222 277.851 56.92 277.734 56.92C277.632 56.92 277.501 56.847 277.442 56.7595C277.369 56.6281 277.501 56.6135 277.895 56.6865C278.259 56.7595 278.405 56.7449 278.332 56.6427C278.289 56.5551 278.157 56.4822 278.055 56.4822C277.938 56.4822 277.778 56.38 277.676 56.2632C277.515 56.0735 277.559 56.0589 277.953 56.1319L278.405 56.2341L278.186 55.8108C278.041 55.5335 278.026 55.373 278.128 55.3C278.23 55.2416 278.099 55.0957 277.836 54.9351C277.267 54.5995 277.252 54.4097 277.822 54.5995C278.055 54.687 278.332 54.7308 278.435 54.687C278.551 54.6432 278.522 54.5995 278.362 54.5995C278.216 54.5849 278.114 54.4973 278.143 54.3805C278.172 54.2638 278.055 54.0595 277.895 53.9427C277.734 53.8114 277.69 53.7092 277.792 53.7092C278.07 53.7092 277.997 53.4173 277.646 53.1108C277.398 52.9211 277.369 52.8481 277.53 52.8335C277.719 52.8335 277.719 52.8043 277.544 52.7022C277.428 52.6292 277.325 52.3811 277.296 52.1476C277.209 51.4032 277.092 51.0822 276.873 51.0822C276.742 51.0822 276.654 50.9362 276.639 50.7465C276.639 50.5422 276.596 50.4984 276.552 50.6443C276.494 50.7611 276.377 50.9508 276.26 51.053C276.158 51.1551 276.07 51.3741 276.07 51.5346C276.07 51.6805 275.997 51.8119 275.91 51.8119C275.837 51.8119 275.808 51.8703 275.851 51.9578C275.895 52.0308 275.851 52.1038 275.735 52.1038C275.457 52.1038 275.341 52.4249 275.443 52.8189C275.486 53.0086 275.443 53.1546 275.297 53.213C275.078 53.2859 275.078 53.3297 275.297 53.6654C275.443 53.8843 275.486 54.0595 275.399 54.1178C275.238 54.2346 275.224 54.4389 275.384 54.7016C275.457 54.8038 275.428 54.9059 275.311 54.9497C275.019 55.0665 275.019 55.6065 275.297 55.6065C275.501 55.6065 275.501 55.6357 275.282 55.8838C275.078 56.1027 275.063 56.1903 275.224 56.2778C275.355 56.3654 275.311 56.4238 275.049 56.4968C274.698 56.5989 274.713 56.5989 275.136 56.6135C275.72 56.6281 275.851 56.7741 275.486 57.0222C275.224 57.2119 275.078 57.1973 274.246 56.92C273.37 56.6281 273.297 56.5697 273.297 56.1757C273.297 55.767 273.326 55.7524 273.633 55.913C274.027 56.1319 274.071 56.1319 274.188 55.7962C274.246 55.6357 274.173 55.4168 273.983 55.2124C273.823 55.0227 273.75 54.8768 273.837 54.8768C273.91 54.8768 274.129 55.0373 274.319 55.2416C274.757 55.7086 275.049 55.4897 274.698 54.9643C274.567 54.7454 274.523 54.5849 274.611 54.5849C274.713 54.5849 274.684 54.4535 274.552 54.2638C274.421 54.0886 274.319 53.8259 274.319 53.6946C274.319 53.5632 274.217 53.4027 274.085 53.3589C273.954 53.3151 273.881 53.1838 273.925 53.067C273.969 52.9503 273.969 52.8189 273.91 52.7605C273.852 52.7022 273.808 52.6146 273.794 52.5708C273.764 52.2351 273.268 51.3595 273.078 51.2865C272.786 51.1697 272.042 51.8119 272.29 51.9578C272.392 52.0308 272.363 52.0892 272.203 52.1622C272.071 52.2059 272.013 52.3081 272.057 52.3957C272.188 52.6 271.706 52.7605 271.517 52.5708C271.415 52.4686 271.429 52.3227 271.546 52.1038C271.648 51.9286 271.663 51.8119 271.59 51.8557C271.4 51.9724 270.626 51.2719 270.729 51.0968C270.787 51.0238 270.699 50.8632 270.554 50.7611C270.408 50.6589 270.247 50.4692 270.189 50.3524C270.13 50.2065 270.101 50.2357 270.101 50.4546C270.086 50.6443 269.999 50.7903 269.882 50.7903C269.678 50.7903 269.444 51.1843 269.488 51.4616C269.488 51.5492 269.357 51.6951 269.182 51.7973C268.992 51.8849 268.963 51.9286 269.109 51.8995C269.459 51.7973 269.415 52.0016 268.992 52.5124C268.612 52.9649 268.51 53.213 268.773 53.0524C268.861 53.0086 268.919 53.0232 268.919 53.1108C268.919 53.1838 268.788 53.3005 268.627 53.3443C268.466 53.4027 268.364 53.5049 268.408 53.5778C268.466 53.6508 268.35 53.7676 268.16 53.8405C267.824 53.9865 267.824 53.9865 268.145 53.9865C268.321 54.0011 268.642 53.9281 268.861 53.8551C269.415 53.6362 269.474 53.7822 268.934 54.0595C268.656 54.2054 268.525 54.3659 268.569 54.4973C268.612 54.6141 268.525 54.833 268.364 54.9935L268.072 55.2854L268.583 55.2124C268.963 55.1541 269.079 55.1686 269.006 55.2854C268.948 55.3876 268.773 55.4605 268.612 55.4605C268.466 55.4605 268.335 55.5189 268.335 55.5773C268.335 55.6357 268.583 55.6649 268.89 55.6503L269.43 55.5919L268.7 55.9422C268.248 56.1611 267.343 56.3946 266.365 56.5405C264.351 56.8324 264.322 56.8324 264.292 56.4676C264.263 56.2195 264.336 56.1903 264.686 56.2486C265.168 56.3216 265.372 56.0151 265.037 55.7524C264.92 55.6503 264.832 55.4897 264.832 55.4022C264.832 55.3146 265.008 55.4314 265.197 55.6503C265.518 56.0151 265.562 56.0297 265.562 55.767C265.562 55.6065 265.489 55.4314 265.402 55.3876C265.314 55.3292 265.285 55.1978 265.329 55.0957C265.372 54.9789 265.285 54.6724 265.154 54.4097C265.022 54.147 264.905 53.8259 264.876 53.7092C264.832 53.4319 264.526 52.8189 264.263 52.5124C264.103 52.3081 264.015 52.2935 263.855 52.4249C263.679 52.5562 263.227 53.4319 263.169 53.7092C263.154 53.753 263.066 53.9865 262.95 54.2492C262.818 54.5703 262.804 54.7892 262.906 54.9789C263.023 55.1686 263.008 55.3 262.833 55.4897C262.658 55.6795 262.658 55.7816 262.789 56.0005C262.906 56.1903 262.935 56.1903 262.891 56.0297C262.848 55.8984 262.906 55.7962 263.023 55.7962C263.154 55.7962 263.198 55.8984 263.154 56.0443C263.052 56.3508 263.563 56.5259 263.811 56.2778C263.942 56.1611 263.971 56.2049 263.928 56.4822L263.884 56.847L260.6 57.1681C258.79 57.3432 256.397 57.5914 255.273 57.7081C254.149 57.8395 251.96 57.9854 250.428 58.0292L247.611 58.1314V57.2557C247.611 56.307 247.698 56.1027 248.005 56.3508C248.253 56.5551 248.253 56.3216 248.019 56.0443C247.917 55.9276 248.005 55.9859 248.224 56.1757C248.559 56.4676 248.632 56.4968 248.632 56.2924C248.632 56.0735 248.72 56.0151 249.012 56.0589C249.275 56.0881 249.304 55.6503 249.056 55.227C248.822 54.7892 248.808 54.7308 249.012 54.7308C249.202 54.7308 249.216 54.687 249.085 54.5411C248.968 54.3805 249.099 54.22 249.698 53.7968C251.916 52.2351 252.588 51.7535 253.449 51.0676C255.127 49.7541 258.615 46.6016 259.491 45.6092C260.498 44.4708 261.607 43.6097 262.424 43.347C263.767 42.9092 264.993 42.0919 266.525 40.6324L267.401 39.7714L267.824 38.093C268.729 34.4151 269.474 33.0578 270.772 32.7076C271.458 32.5178 272.422 32.4741 272.728 32.6054C272.903 32.6784 272.991 32.62 273.064 32.3573C273.137 32.0216 272.962 30.6351 272.801 30.3724C272.655 30.1389 273.385 26.2714 273.575 26.2714C273.721 26.2714 275.516 27.8476 275.954 28.3584C276.158 28.6211 276.377 28.7816 276.421 28.7378C276.537 28.6211 275.851 27.3514 275.399 26.8114C275.195 26.5632 274.83 25.9795 274.582 25.4978L274.144 24.6222L274.465 23.2211C274.888 21.3676 274.859 21.4551 275.195 21.4551C275.501 21.4551 276.172 22.2578 276.683 23.2795C276.858 23.6005 277.282 24.1843 277.632 24.5784C277.982 24.987 278.376 25.4978 278.493 25.7314C278.624 25.9649 278.756 26.1254 278.785 26.0816C278.902 25.9649 278.157 24.5784 277.69 24.0384C277.442 23.7757 277.034 23.0605 276.756 22.4622C276.479 21.8638 276.026 21.0611 275.735 20.667C275.414 20.2584 275.195 19.806 275.195 19.5724C275.195 19.047 276.216 16.9746 276.8 16.3032C277.428 15.5735 277.88 15.5735 278.186 16.3032C278.318 16.6097 278.551 17.0038 278.726 17.1789C279.077 17.5438 279.048 18.2589 278.639 19.1492C278.318 19.8789 278.537 19.8497 278.989 19.12C279.194 18.7989 279.398 18.5362 279.442 18.5362C279.558 18.5362 280.916 20.0978 281.529 20.9297L281.952 21.4989L281.499 22.3892C281.237 22.8708 280.93 23.4254 280.799 23.6005C280.668 23.7903 280.624 23.9362 280.711 23.9362C280.857 23.9362 281.616 23.1043 282.069 22.4622L282.302 22.1411L283.265 22.827C284.302 23.5714 284.462 23.8487 283.893 23.9946C283.572 24.0822 282.609 25.1768 281.368 26.9135C281.105 27.2784 280.449 27.9351 279.909 28.3584C279.354 28.7962 278.654 29.4238 278.332 29.7595C277.792 30.3287 277.763 30.3724 277.938 30.8395C278.143 31.3941 278.172 31.8173 278.011 31.8173C277.938 31.8173 277.705 31.6859 277.457 31.5254C277.223 31.3649 276.888 31.2335 276.727 31.2335C276.552 31.2335 275.91 31.7589 275.122 32.547C274.406 33.2768 272.932 34.6924 271.867 35.7287C270.539 36.9838 269.795 37.8157 269.546 38.3119C268.963 39.4649 268.51 39.9757 264.468 44.0476C261.14 47.4043 260.556 48.0611 259.768 49.36C258.615 51.2281 258.455 51.3886 256.951 52.2789C256.265 52.6876 255.375 53.2714 254.966 53.5778C254.558 53.8843 253.084 54.7016 251.683 55.373C249.815 56.2778 249.056 56.7157 248.808 57.0514L248.486 57.5038L248.881 57.3286C249.114 57.2265 250.398 56.6427 251.756 56.0151C253.128 55.3876 254.251 54.9059 254.295 54.9351C254.339 54.9935 254.032 55.1686 251.551 56.5405C250.34 57.2119 250.661 57.2119 252.179 56.5551C253.157 56.1319 253.478 56.0589 253.974 56.1319C254.485 56.2049 254.733 56.1319 255.579 55.6941C256.134 55.4022 256.805 54.9935 257.068 54.8038C257.345 54.6141 257.929 54.3514 258.382 54.22C261.359 53.3881 261.038 53.5778 262.337 51.8849C262.994 51.0384 263.723 50.2503 263.957 50.1335C264.19 50.0168 264.614 49.7103 264.891 49.4622C265.329 49.0827 265.694 48.9659 267.489 48.6011C268.642 48.3676 269.853 48.1632 270.203 48.1632H270.816V49.0827C270.816 49.6519 270.889 50.1189 271.021 50.2795C271.225 50.5568 271.239 50.5568 271.385 50.2065C271.458 50.0022 271.663 49.3308 271.838 48.7178C271.998 48.1049 272.334 47.1708 272.568 46.6454C272.816 46.12 273.005 45.5946 273.005 45.4778C273.005 45.0838 273.268 45.0838 274.246 45.4778C275.049 45.7989 275.355 46.0324 276.114 46.8935C276.61 47.4627 277.909 48.8054 278.989 49.8708L280.959 51.8119L280.638 52.0892C280.346 52.3227 280.332 52.3957 280.522 52.5416C280.638 52.6438 280.697 52.7751 280.653 52.8481C280.609 52.9211 280.668 52.9795 280.77 52.9795C280.916 52.9941 280.901 53.0378 280.741 53.1692C280.624 53.2714 280.522 53.4465 280.522 53.5632C280.522 53.68 280.624 53.8697 280.741 53.9573C280.93 54.1178 280.916 54.1616 280.624 54.2346C280.434 54.293 280.317 54.4097 280.361 54.5119C280.39 54.6141 280.346 54.7746 280.259 54.8622C280.142 54.9789 280.186 55.0227 280.419 55.0227C280.828 55.0227 280.828 55.2124 280.419 55.5043C280.142 55.6941 280.128 55.7378 280.346 55.7378C280.697 55.7524 280.653 56.0443 280.288 56.0443C280.128 56.0443 280.04 56.1027 280.084 56.1903C280.128 56.2632 280.361 56.3362 280.609 56.3362C281.062 56.3362 281.178 56.5405 280.814 56.6865C280.697 56.7303 280.595 56.847 280.595 56.9346C280.595 57.0514 280.77 57.0659 281.149 56.993C281.441 56.9346 281.762 56.8908 281.835 56.8762C281.923 56.8616 282.01 57.2411 282.054 57.7227C282.112 58.3649 282.185 58.5984 282.346 58.5984C282.521 58.5984 282.579 58.3649 282.609 57.533C282.652 56.5114 282.725 56.3362 283.003 56.6135C283.09 56.7011 283.411 56.8616 283.732 57.0076C284.316 57.2411 284.316 57.2411 284.054 56.9492C283.908 56.7886 283.63 56.6135 283.426 56.5697C282.813 56.4092 283.032 56.1757 283.689 56.2778C284.126 56.3508 284.258 56.3362 284.185 56.2195C284.126 56.1173 283.995 56.0443 283.893 56.0443C283.791 56.0443 283.586 55.9422 283.426 55.8254C283.178 55.6211 283.207 55.6065 283.805 55.6941C284.418 55.767 284.448 55.7524 284.185 55.5481C284.024 55.4168 283.937 55.2708 283.995 55.227C284.054 55.1686 284.024 55.0373 283.937 54.9205C283.805 54.7746 283.835 54.7308 284.039 54.7308C284.214 54.7308 284.097 54.5849 283.689 54.2784C283.003 53.7822 282.959 53.6216 283.572 53.8551C283.791 53.9281 284.112 54.0011 284.287 53.9865C284.608 53.9865 284.608 53.9865 284.272 53.8551C284.083 53.7676 283.951 53.6216 283.981 53.5049C284.01 53.4027 283.864 53.1546 283.659 52.9795C283.411 52.7605 283.368 52.6876 283.557 52.7459C283.951 52.8773 283.864 52.4249 283.411 52.0308C283.134 51.7973 283.076 51.6659 283.222 51.6659C283.411 51.6659 283.411 51.6514 283.222 51.52C283.105 51.447 283.003 51.1259 282.974 50.7903C282.93 50.1919 282.579 49.4914 282.375 49.6081C282.317 49.6519 282.229 49.4914 282.185 49.2432C282.127 49.0097 282.083 48.9368 282.069 49.0973C282.069 49.2432 281.908 49.4914 281.748 49.6373C281.558 49.7978 281.47 50.0022 281.529 50.1335C281.572 50.2649 281.514 50.3962 281.397 50.44C281.281 50.4984 281.222 50.5859 281.266 50.6589C281.31 50.7319 281.251 50.7903 281.12 50.7903C281.003 50.7903 280.886 50.8632 280.857 50.9654C280.784 51.1551 279.879 50.0022 278.741 48.3092C278.347 47.7108 277.311 46.2659 276.464 45.0984C275.501 43.7849 274.932 42.8946 274.99 42.7632C275.034 42.6465 275.195 41.9459 275.355 41.2308C275.516 40.5011 275.749 39.6108 275.881 39.2459C276.114 38.5892 276.099 38.5454 275.793 38.1222C275.618 37.8595 275.545 37.6405 275.618 37.5822C275.764 37.5092 276.129 37.9178 277.442 39.6546C277.749 40.0632 278.464 40.7492 279.018 41.1724C279.573 41.5957 280.288 42.2378 280.595 42.6027C280.916 42.9676 281.208 43.2157 281.266 43.1573C281.397 43.0405 279.106 38.3557 278.041 36.5605C277.15 35.0573 276.873 34.2254 277.092 33.6562C277.165 33.4519 277.311 33.2768 277.413 33.2914C277.836 33.3059 279.719 35.7287 281.864 38.9687C285.542 44.5146 288.33 48.0173 292.256 52.0016C294.737 54.5265 296.167 55.7962 294.941 54.3805C294.051 53.3735 294.168 52.9649 295.175 53.4757C295.394 53.5924 295.715 53.6654 295.875 53.6216C296.05 53.5778 296.605 53.753 297.232 54.0741C297.875 54.3951 298.94 54.76 299.903 54.9643C300.779 55.1686 301.83 55.4605 302.224 55.6211C302.632 55.7816 302.997 55.8692 303.056 55.8108C303.187 55.6795 302.224 54.9059 301.45 54.5265C300.75 54.1762 297.539 51.8265 296.663 51.0238C296.109 50.513 295.481 49.3016 295.481 48.7324C295.481 48.5281 295.744 48.0173 296.079 47.5649C296.401 47.127 296.838 46.4703 297.028 46.0762C297.554 45.0546 297.889 45.1276 298.852 46.4411C299.276 47.0249 299.641 47.5357 299.67 47.5649C299.699 47.5941 299.757 47.5941 299.801 47.5357C299.859 47.4919 299.67 47.0395 299.392 46.5287C299.115 46.0178 298.663 44.9816 298.4 44.2081L297.918 42.807L298.517 41.9022C298.838 41.4059 299.538 40.5303 300.064 39.9611C301.202 38.7205 300.983 38.6768 303.362 40.5157C306.194 42.7049 308.718 44.5146 309.974 45.2443C310.63 45.6238 311.55 46.1638 312.002 46.4265C312.455 46.7038 313.374 47.2146 314.031 47.5795C314.688 47.9297 315.315 48.3822 315.432 48.5573C316.016 49.433 314.965 50.7903 313.141 51.5346C311.9 52.0308 311.156 52.5562 310.908 53.0816C310.82 53.2714 309.725 54.1908 308.485 55.1249C307.23 56.0443 306.339 56.7741 306.5 56.7303C309.156 55.9714 310.557 55.7524 312.586 55.7524C313.71 55.7524 314.658 55.84 315.228 55.9859C316.162 56.2195 317.402 56.7886 317.869 57.1973C318.234 57.5038 318.19 57.4308 316.775 55.3146C315.578 53.5049 315.038 52.5416 315.038 52.1768C315.038 51.8119 315.943 51.4616 316.585 51.593C317.066 51.6805 317.417 51.9724 318.774 53.3735C320.088 54.7162 320.394 55.1103 320.321 55.3584C320.248 55.6503 320.263 55.6503 320.482 55.4751C320.628 55.3584 320.73 55.3438 320.73 55.4314C320.73 55.5189 320.657 55.6357 320.584 55.6795C320.496 55.7378 320.467 55.84 320.525 55.913C320.569 56.0005 320.452 56.2341 320.277 56.4384C320.088 56.6573 320.015 56.7741 320.131 56.7011C320.292 56.6135 320.321 56.6427 320.234 56.847C320.146 57.1097 320.146 57.1097 320.452 56.8324L320.774 56.5551L320.657 56.9054C320.569 57.1973 320.598 57.2411 320.788 57.1681C320.919 57.1097 321.022 57.1535 321.022 57.2411C321.022 57.3432 321.095 57.3286 321.241 57.2119C321.43 57.0514 321.459 57.1097 321.459 57.6351C321.459 58.073 321.518 58.2335 321.678 58.2335C321.839 58.2335 321.897 58.073 321.897 57.7081C321.897 57.4308 321.999 57.0951 322.116 56.9784C322.233 56.847 322.335 56.8178 322.335 56.8908C322.335 56.9784 322.423 57.0659 322.539 57.1097C322.656 57.1535 322.729 57.0951 322.715 56.9638C322.7 56.8178 322.846 56.7303 323.109 56.7011C323.561 56.6427 323.605 56.7303 323.255 57.0222C323.021 57.1973 323.079 57.2119 323.765 57.1389L324.524 57.0368V57.7081C324.524 58.2773 324.568 58.3795 324.816 58.3795C325.079 58.3795 325.108 58.2773 325.108 57.5768C325.108 57.1389 325.123 56.7741 325.152 56.7741C325.166 56.7741 325.531 56.9054 325.969 57.0805C326.582 57.2995 326.728 57.3286 326.582 57.1535C326.48 57.0368 326.203 56.8908 325.969 56.847C325.312 56.7011 325.473 56.4676 326.174 56.5551L326.786 56.6427L326.319 56.4238C325.677 56.1319 325.706 56.0151 326.392 56.1319C326.859 56.2049 326.903 56.1903 326.699 56.0297C326.378 55.7524 326.246 55.3438 326.465 55.2708C326.568 55.2416 326.392 55.0957 326.101 54.9497C325.342 54.5703 325.415 54.4243 326.232 54.6724C326.597 54.7892 326.947 54.8476 326.991 54.8038C327.035 54.76 326.918 54.687 326.728 54.6286C326.538 54.5849 326.436 54.4681 326.48 54.3514C326.524 54.2346 326.509 54.147 326.451 54.147C326.378 54.147 326.203 54.0449 326.042 53.9135C325.809 53.7238 325.809 53.6946 326.028 53.7676C326.392 53.8843 326.349 53.4611 325.969 53.2568C325.75 53.14 325.706 53.067 325.823 52.9795C325.955 52.9065 325.896 52.8481 325.677 52.7897C325.4 52.7168 325.385 52.673 325.546 52.4832C325.677 52.3081 325.677 52.2497 325.561 52.2497C325.458 52.2497 325.4 52.1622 325.415 52.06C325.473 51.7243 325.225 51.3741 324.933 51.3741C324.714 51.3741 324.656 51.3011 324.714 51.0822C324.758 50.9216 324.729 50.7903 324.656 50.7903C324.583 50.7903 324.524 50.8778 324.524 50.98C324.524 51.0822 324.393 51.2427 324.232 51.3449C324.072 51.447 323.984 51.6076 324.028 51.7389C324.086 51.8849 324.028 51.9578 323.868 51.9578C323.736 51.9578 323.678 52.0308 323.722 52.1038C323.765 52.1914 323.736 52.2497 323.649 52.2497C323.561 52.2497 323.386 52.3519 323.255 52.4686C323.094 52.6438 323.079 52.7459 323.211 52.8919C323.342 53.0524 323.313 53.14 323.123 53.2422C322.904 53.3735 322.89 53.4319 323.05 53.6216C323.152 53.753 323.196 53.8551 323.123 53.8551C323.05 53.8551 323.094 53.9281 323.211 54.0011C323.401 54.1324 323.401 54.147 323.211 54.147C323.079 54.147 322.977 54.2784 322.977 54.4389C322.977 54.5995 323.065 54.7308 323.182 54.7308C323.284 54.7308 323.328 54.7892 323.284 54.8768C323.152 55.0957 322.685 55.0519 322.481 54.8038C322.335 54.6286 322.335 54.5849 322.481 54.5849C322.612 54.5849 322.627 54.5411 322.496 54.3951C322.408 54.2784 322.364 54.1616 322.408 54.1178C322.452 54.0741 322.394 53.9573 322.262 53.8551C322.145 53.753 322.043 53.5924 322.043 53.4903C322.043 53.3881 321.941 53.2276 321.824 53.1254C321.635 52.9795 321.547 52.9795 321.343 53.1692C321.109 53.3881 321.007 53.3005 319.854 51.9724C318.672 50.6297 317.898 49.8854 314.848 47.2146C313.432 45.9741 312.323 44.5584 311.448 42.8654L310.937 41.8584L311.097 40.7492C311.331 39.1584 311.55 38.5308 312.002 38.1951C312.396 37.9032 312.411 37.9032 313.024 38.1659C313.374 38.3265 313.826 38.5892 314.045 38.7643C314.264 38.9395 314.673 39.1146 314.95 39.173C315.228 39.2314 315.563 39.4065 315.665 39.5524C315.782 39.713 316.381 40.2822 317.023 40.8076C318.745 42.267 319.65 43.1573 320.613 44.3687C321.489 45.4632 325.108 49.3892 325.108 49.2432C325.108 49.1119 323.182 46.6454 322.481 45.9011C322.116 45.4924 321.416 44.6459 320.949 44.0038C320.482 43.3616 319.869 42.5735 319.577 42.2378C319.285 41.9168 318.628 41.1287 318.103 40.4865C316.308 38.2973 315.257 37.1881 314.454 36.6335C314.002 36.327 313.549 35.9622 313.432 35.8308C313.316 35.6849 312.951 35.4514 312.63 35.32C312.25 35.1595 311.433 34.4589 310.441 33.4373C309.565 32.547 308.295 31.4232 307.609 30.9562C306.923 30.4746 305.902 29.6865 305.362 29.2049C304.763 28.6649 304.238 28.3146 304.034 28.3146C303.581 28.3146 302.545 27.6141 301.684 26.7238C300.706 25.7168 300.458 25.7314 299.349 26.8697C297.67 28.5919 293.029 32.4011 292.606 32.4011C292.533 32.4011 292.402 32.2551 292.314 32.0654C292.226 31.8903 291.774 31.3065 291.307 30.7811C288.198 27.3222 287.352 26.1546 286.359 24.0092C286.009 23.2649 285.746 22.9146 285.396 22.7103C284.637 22.2578 283.543 21.1924 282.813 20.1416C281.85 18.7989 278.843 15.1941 278.128 14.5519C277.369 13.866 276.742 13.8222 276.187 14.406ZM272.071 23.0897C271.721 25.5416 271.4 28.7524 271.473 29.1465C271.59 29.7887 271.312 29.7741 271.006 29.1173C270.875 28.84 270.714 28.6065 270.641 28.6065C270.51 28.6065 269.503 29.5989 269.503 29.7449C269.503 29.92 267.591 31.5692 267.503 31.467C267.459 31.4232 268.029 30.4454 268.788 29.307C269.605 28.0519 270.349 26.7238 270.641 25.9795C270.904 25.2935 271.254 24.4032 271.429 24.0092C271.59 23.6005 271.765 23.1043 271.794 22.8708C271.925 22.1995 272.174 22.4038 272.071 23.0897ZM285.586 26.6654C285.732 26.7968 285.965 27.2638 286.097 27.7016C286.316 28.373 286.476 28.5919 287.016 28.9568C287.366 29.2049 288.009 29.7303 288.417 30.1097C288.841 30.5038 289.891 31.3211 290.767 31.9487C291.628 32.5762 292.358 33.1892 292.387 33.3059C292.416 33.4373 292.095 33.9481 291.686 34.4443C291.263 34.9405 290.957 35.3638 291.001 35.4076C291.03 35.4368 291.409 35.2324 291.832 34.9551C292.606 34.4443 292.621 34.4297 292.942 34.6924C294.97 36.327 295.846 36.9546 296.605 37.3341C297.101 37.5968 297.539 37.8595 297.597 37.947C297.743 38.1951 298.108 38.1076 298.108 37.8303C298.108 37.6843 297.933 37.3341 297.729 37.0568C297.13 36.2687 296.853 35.6119 296.59 34.4589C296.328 33.2476 296.386 33.0724 297.101 33.0432C298.181 32.9995 298.108 33.0724 298.108 31.9924C298.123 31.4232 298.21 30.8687 298.327 30.6497C298.444 30.4454 298.531 30.0222 298.546 29.7011C298.546 29.0151 298.823 28.5189 299.816 27.4389L300.545 26.6508L301.261 27.7308C301.888 28.6795 302.078 28.8546 302.632 29.0443C302.997 29.1611 303.45 29.3654 303.654 29.4968C303.858 29.6281 304.179 29.7741 304.384 29.8324C304.588 29.8762 305.741 30.8687 306.967 32.0216C308.222 33.233 309.536 34.3422 310.003 34.6049C311.535 35.4659 311.564 36.4584 310.163 38.4287C309.74 39.0124 309.083 39.9757 308.704 40.5741C308.31 41.1724 307.916 41.7124 307.828 41.7708C307.405 42.0481 306.734 41.873 305.96 41.2746C305.055 40.5595 301.946 37.4654 301.567 36.8816C301.421 36.6627 301.188 36.4876 301.027 36.4876C300.866 36.4876 300.064 37.1589 299.174 38.0492C298.312 38.8957 296.853 40.1508 295.963 40.8222C294.97 41.5665 294.051 42.3984 293.642 42.9238C293.263 43.3908 292.898 43.7849 292.825 43.7849C292.752 43.7849 292.299 44.1643 291.847 44.6168C291.38 45.0838 290.592 45.6822 290.096 45.9449C289.205 46.4119 289.162 46.4119 288.884 46.1784C288.738 46.0324 288.374 45.9157 288.082 45.9157C287.6 45.9157 287.512 45.8427 286.943 44.9524C286.593 44.427 286.009 43.2449 285.63 42.3254C285.25 41.4059 284.783 40.2968 284.594 39.8735C284.404 39.4649 284.302 39.1146 284.36 39.1146C284.521 39.1146 285.863 40.9097 286.418 41.8438C287.162 43.1135 289.059 45.2881 289.059 44.8649C289.059 44.6897 287.731 42.2816 287.352 41.7708C287.031 41.3476 287.031 41.2308 287.337 41.2892C287.41 41.2892 287.848 41.1724 288.315 40.9973C289.118 40.72 289.22 40.72 289.629 40.9243C290.11 41.187 290.519 41.2308 290.519 41.0265C290.519 40.8805 289.103 39.9903 288.87 39.9903C288.782 39.9903 288.432 40.1362 288.067 40.2968C286.856 40.8951 286.462 40.3843 286.082 37.6989C285.878 36.2395 285.878 35.9768 286.082 35.2178C286.432 33.8751 286.593 33.8897 287.994 35.3638C288.49 35.8892 289.424 36.6335 290.066 37.0276C290.694 37.407 291.701 38.0638 292.299 38.4724C293.628 39.4065 295.043 40.2092 295.043 40.0341C295.043 39.9611 294.328 39.3481 293.452 38.6476C290.65 36.4146 289.162 34.9989 287.892 33.3935C287.206 32.5324 286.564 31.8027 286.462 31.7589C286.345 31.7005 285.907 31.6276 285.484 31.5838L284.696 31.4816L283.849 32.2843C282.39 33.6562 281.66 34.1816 281.295 34.1232C280.945 34.0795 280.799 33.4957 281.135 33.4957C281.397 33.4957 282.331 31.9924 282.434 31.3795C282.492 31.1022 282.711 30.4016 282.944 29.8324C283.163 29.2632 283.455 28.373 283.586 27.8622C283.937 26.4757 284.141 26.2276 284.798 26.3443C285.104 26.4027 285.455 26.5487 285.586 26.6654ZM261.651 27.9789C262.016 28.4022 262.132 29.453 261.855 29.7595C261.578 30.0514 261.505 30.1827 260.104 32.8681C259.126 34.7654 258.834 35.4951 259.535 34.2984C260.075 33.3789 260.337 33.0578 261.563 31.7881C262.614 30.7081 262.672 30.6789 263.125 30.8103C263.373 30.8832 263.767 30.9416 263.986 30.9416C264.205 30.9416 264.424 31.0146 264.468 31.0876C264.672 31.4087 261.972 35.6849 259.622 38.7935C258.075 40.8222 254.368 46.047 252.617 48.6741C251.566 50.2357 249.216 53.0086 248.691 53.3151C248.574 53.3881 248.443 53.3151 248.326 53.1108C248.18 52.8335 248.195 52.8043 248.428 52.8919C248.662 52.9795 248.676 52.9649 248.457 52.7314C248.341 52.5854 248.253 52.3957 248.297 52.3081C248.326 52.2205 248.253 52.06 248.122 51.9578C248.005 51.8557 247.903 51.6659 247.903 51.52C247.903 51.3886 247.771 51.1551 247.596 50.9946C247.29 50.7173 247.29 50.7173 246.954 51.1405C246.764 51.3886 246.618 51.6076 246.618 51.6514C246.633 51.6951 246.56 51.9286 246.458 52.1768C246.356 52.4103 246.254 52.7459 246.239 52.9065C246.21 53.067 246.122 53.3443 246.035 53.5195C245.932 53.6946 245.859 53.9865 245.859 54.1762C245.874 54.4681 245.889 54.4827 246.02 54.2492C246.093 54.1178 246.239 54.0011 246.326 54.0011C246.429 54.0011 246.414 54.0886 246.297 54.22C246.195 54.3514 246.108 54.5849 246.093 54.76C246.078 55.1541 243.889 56.5697 243.626 56.3654C243.524 56.2924 243.262 56.1903 243.043 56.1319C242.824 56.0735 242.678 55.9859 242.722 55.913C242.765 55.84 243.057 55.84 243.393 55.913C243.729 56.0005 244.021 56.0297 244.05 56.0151C244.152 55.8984 243.86 55.6649 243.466 55.5335C242.838 55.3146 242.78 54.9935 243.408 55.1832C243.67 55.2562 244.021 55.3146 244.181 55.3146C244.429 55.3146 244.415 55.2708 244.079 55.0519C243.656 54.8038 243.554 54.5849 243.845 54.5849C243.933 54.5849 243.889 54.4827 243.729 54.3659C243.466 54.1616 243.481 54.1616 243.962 54.1324C244.342 54.1178 244.4 54.0886 244.181 54.0303C243.772 53.8989 242.605 53.1254 242.692 53.0378C242.722 52.9941 242.911 53.0232 243.101 53.0962C243.291 53.1692 243.714 53.2714 244.035 53.3297L244.619 53.4319L244.123 53.1254C243.758 52.8919 243.67 52.7751 243.816 52.6876C243.948 52.6 243.875 52.5124 243.539 52.3373C243.028 52.0746 242.926 51.7973 243.378 51.9141C243.641 51.987 243.656 51.9578 243.539 51.6222C243.335 51.1114 243.51 50.9946 247.465 49.0243C251.289 47.1124 251.668 46.8059 252.121 45.2881C252.354 44.5292 252.617 44.033 253.084 43.4784C253.58 42.8946 253.755 42.5589 253.814 42.0481C253.916 41.2454 254.12 40.72 254.31 40.72C254.397 40.72 254.879 41.0119 255.404 41.3768C256.397 42.0773 256.689 42.0481 256.295 41.2892C256.149 41.0411 256.09 40.6908 256.134 40.5011C256.222 40.1508 255.959 38.8227 255.652 38.0492C255.506 37.6551 255.536 37.5676 256.09 36.9108C256.776 36.0789 257.477 35.5535 257.725 35.6557C257.827 35.6995 258.061 36.1665 258.25 36.6919C258.455 37.2173 258.703 37.6551 258.805 37.6551C259.053 37.6551 259.038 37.5676 258.746 36.0351C258.528 34.853 258.528 34.6778 258.761 33.2622C258.892 32.4303 259.141 31.467 259.286 31.1168C259.681 30.2557 261.184 27.7308 261.315 27.7308C261.388 27.7308 261.534 27.8476 261.651 27.9789ZM282.054 27.9497C282.054 27.9935 281.762 28.6357 281.412 29.38C281.076 30.1243 280.697 30.9124 280.609 31.1605L280.419 31.5984L279.85 30.9416C279.544 30.5768 279.281 30.2557 279.281 30.2119C279.281 30.1681 279.573 29.9638 279.909 29.7449C280.259 29.5259 280.828 29.0151 281.164 28.6065C281.704 27.9643 282.054 27.7162 282.054 27.9497ZM284.433 33.2914C284.418 33.4081 284.302 34.0065 284.185 34.6341C284.054 35.2616 283.951 36.0059 283.951 36.2832C283.951 36.9108 283.718 36.9254 283.572 36.3124C283.514 36.0351 283.222 35.5973 282.871 35.2762L282.273 34.7216L282.784 34.3276C283.061 34.1087 283.484 33.7146 283.732 33.4665C284.17 32.9849 284.491 32.9119 284.433 33.2914ZM264.322 36.6773C264.234 37.5238 264.249 37.6405 264.599 38.0492C265.11 38.6622 265.081 38.8227 264.482 38.7205C264.074 38.6622 263.957 38.7059 263.825 38.9541C263.679 39.2314 262.191 40.4281 261.986 40.4281C261.943 40.4281 261.914 40.2092 261.914 39.9319C261.914 39.5816 262.132 39.1 262.687 38.2681C263.125 37.6114 263.636 36.7795 263.825 36.4146C264.015 36.0497 264.234 35.7578 264.292 35.7578C264.365 35.7578 264.38 36.1665 264.322 36.6773ZM273.078 39.0708C273.02 39.3773 272.918 40.1362 272.874 40.7638C272.83 41.3768 272.728 41.8876 272.67 41.873C272.597 41.873 272.363 42.0189 272.159 42.2087C271.794 42.5297 270.743 43.2011 270.583 43.2011C270.408 43.2011 270.568 42.6319 270.875 42.1065C271.196 41.5957 271.196 41.5227 270.991 41.3622C270.802 41.2162 270.845 41.0995 271.415 40.4281C272.509 39.1146 273.035 38.5308 273.108 38.5308C273.151 38.5308 273.137 38.7789 273.078 39.0708ZM252.952 39.1876C252.85 39.6838 252.865 39.6984 253.215 39.6108C253.741 39.4795 253.711 39.8735 253.171 40.3114C252.938 40.5011 252.223 41.3038 251.581 42.1211C250.311 43.6973 248.165 45.7405 247.874 45.653C247.771 45.6092 247.99 45.2589 248.428 44.7919C249.537 43.6097 251.96 40.3551 252.398 39.4649C252.836 38.56 253.084 38.4432 252.952 39.1876ZM261.476 40.8659C261.826 41.0849 261.49 41.8 260.994 41.8584C260.658 41.9022 260.6 41.8584 260.6 41.5373C260.6 41.2016 260.936 40.72 261.155 40.72C261.213 40.72 261.359 40.7784 261.476 40.8659ZM268.525 44.7335C268.904 45.0838 269.211 45.4341 269.211 45.5216C269.211 45.7551 268.773 45.9303 267.926 46.0178C267.124 46.1054 263.738 47.6524 263.373 48.0903C263.139 48.3676 262.935 48.3676 262.935 48.1049C262.935 47.813 264.015 46.8643 265.504 45.8719C266.219 45.3757 266.992 44.7773 267.226 44.5292C267.474 44.2811 267.693 44.0768 267.737 44.0768C267.781 44.0914 268.131 44.3687 268.525 44.7335ZM294.897 44.9524C294.897 45.04 294.722 45.4341 294.518 45.8427C294.095 46.6892 294.022 48.0319 294.328 49.2432C294.416 49.6227 294.459 49.9584 294.416 50.0168C294.314 50.1043 294.241 49.9438 293.701 48.5281C293.423 47.813 293.306 47.667 293.073 47.7108C292.387 47.8276 291.789 47.7838 291.73 47.6087C291.686 47.5211 291.774 47.4335 291.905 47.4335C292.416 47.4335 292.985 46.9665 293.803 45.9011C294.591 44.8649 294.897 44.6022 294.897 44.9524ZM271.809 53.1546C271.779 53.2422 271.663 53.3589 271.575 53.3881C271.473 53.4173 271.429 53.3589 271.488 53.213C271.59 52.9503 271.896 52.8919 271.809 53.1546ZM248.924 55.7962C248.924 55.8838 248.764 55.7962 248.559 55.6065C248.355 55.4168 248.195 55.1978 248.195 55.1249C248.195 55.0373 248.355 55.1249 248.559 55.3146C248.764 55.5043 248.924 55.7232 248.924 55.7962ZM271.838 55.84C271.838 56.0005 271.925 56.0443 272.144 55.9714C272.378 55.8838 272.436 55.913 272.334 56.0589C272.246 56.2341 272.261 56.2341 272.465 56.0589C272.684 55.8838 272.714 55.8984 272.714 56.1465C272.714 56.3946 272.582 56.453 271.823 56.5405C270.378 56.6865 270.232 56.6719 270.232 56.3216C270.232 56.0589 270.291 56.0297 270.889 56.1319C271.327 56.1903 271.546 56.1757 271.546 56.0589C271.546 55.9714 271.429 55.8984 271.298 55.8838C271.079 55.8838 271.079 55.8546 271.327 55.7524C271.75 55.5627 271.838 55.5773 271.838 55.84ZM269.795 56.1757C269.795 56.5405 269.722 56.5989 269.328 56.6719C268.992 56.7157 268.788 56.6719 268.671 56.5114C268.51 56.3216 268.569 56.2486 269.036 56.0297C269.765 55.6795 269.795 55.6941 269.795 56.1757ZM276.479 57.5768C276.391 57.6643 275.632 57.4746 275.632 57.3432C275.632 57.1389 276.435 57.1243 276.479 57.3286C276.508 57.4454 276.508 57.5476 276.479 57.5768Z" fill="#A16BDD"/>
        <path d="M300.502 29.7303C300.458 29.993 300.181 30.46 299.918 30.7811C299.305 31.4963 299.29 31.5984 299.903 31.2773C300.195 31.1168 300.677 31.0292 301.217 31.0438C301.669 31.0584 302.049 31 302.049 30.9271C302.049 30.8687 301.844 30.6498 301.611 30.4746C301.363 30.2995 301.042 29.9492 300.881 29.7011L300.604 29.2633L300.502 29.7303Z" fill="#A16BDD"/>
        <path d="M288.622 31.4524C288.622 31.4816 288.914 31.8464 289.278 32.2551C289.643 32.6637 290.067 33.2475 290.227 33.5686C290.563 34.2108 290.636 34.2545 291.044 33.9335C291.322 33.7145 291.307 33.6999 290.957 33.4518C290.767 33.3205 290.198 32.7951 289.687 32.2843C288.855 31.4524 288.622 31.2626 288.622 31.4524Z" fill="#A16BDD"/>
        <path d="M301.742 31.934C299.684 33.2913 299.115 33.7438 299.261 33.9189C299.378 34.0503 299.597 34.0794 300.02 34.0065C300.793 33.8605 300.706 34.094 299.743 34.6632C298.779 35.2324 298.444 35.5535 299.042 35.32C299.276 35.2324 299.932 35.1303 300.502 35.0719L301.552 34.9843L302.399 36.1081C302.866 36.7211 303.275 37.2173 303.318 37.2173C303.347 37.2173 303.231 36.94 303.056 36.6043C302.88 36.254 302.662 35.6119 302.559 35.1449C302.384 34.2546 302.443 32.5908 302.647 32.4594C302.72 32.4157 303.289 32.8535 303.917 33.4227C306.033 35.393 308.806 37.0859 309.215 36.6773C309.317 36.5751 309.171 36.4292 308.733 36.1957C307.711 35.6703 306.354 34.6486 305.726 33.9335C305.405 33.5686 305.055 33.2767 304.938 33.2767C304.822 33.2767 304.573 33.1162 304.384 32.9119C304.194 32.7076 303.99 32.547 303.917 32.547C303.858 32.547 303.523 32.3427 303.187 32.1092C302.501 31.5984 302.267 31.5692 301.742 31.934Z" fill="#A16BDD"/>
        <path d="M303.333 35.3493C303.435 35.4806 303.742 35.6266 304.004 35.6703C304.282 35.7287 304.822 36.0206 305.216 36.3271C305.96 36.9255 306.967 37.4655 308.178 37.9471C309.331 38.3995 309.039 38.1514 307.697 37.5238C307.025 37.2174 306.208 36.7357 305.902 36.4584C305.23 35.8601 304.515 35.466 304.092 35.466C303.917 35.466 303.639 35.393 303.464 35.2909C303.187 35.1449 303.172 35.1595 303.333 35.3493Z" fill="#A16BDD"/>
        <path d="M292.095 36.0789C291.862 36.1519 291.687 36.2833 291.687 36.3562C291.687 36.4438 292.037 36.6627 292.475 36.8525C292.912 37.0422 293.307 37.2757 293.365 37.3633C293.482 37.5676 294.751 38.3849 294.927 38.3849C295.248 38.3849 294.97 38.0346 294.314 37.626C293.817 37.3195 293.496 36.9838 293.277 36.546C292.956 35.8746 292.796 35.8162 292.095 36.0789Z" fill="#A16BDD"/>
        <path d="M287.629 38.2097C287.381 39.4064 287.41 39.5524 287.79 39.0853L288.125 38.6767L289.789 39.348C290.709 39.6983 291.803 40.1361 292.197 40.2967C293.511 40.8367 293.525 40.7637 292.27 40.0048C291.584 39.5961 290.709 39.1583 290.329 39.0415C289.41 38.7642 288.709 38.3264 288.315 37.7864C288.155 37.5529 287.965 37.3632 287.907 37.3632C287.848 37.3632 287.731 37.7426 287.629 38.2097Z" fill="#A16BDD"/>
        <path d="M277.384 22.1119C277.384 22.2578 277.515 22.5935 277.69 22.8708C277.924 23.2357 278.04 23.3232 278.186 23.2065C278.303 23.1043 278.551 23.1189 278.989 23.2794C279.719 23.5421 279.763 23.5421 279.646 23.3524C279.588 23.2648 279.325 23.1043 279.033 22.9875C278.756 22.8708 278.274 22.5643 277.953 22.3162C277.5 21.9513 277.384 21.9221 277.384 22.1119Z" fill="#A16BDD"/>
        <path d="M280.317 26.7092C279.661 27.1616 278.873 27.4389 278.303 27.4389C278.114 27.4389 277.968 27.5119 277.968 27.5994C277.968 27.7016 278.099 27.7308 278.303 27.6724C278.478 27.6286 278.858 27.5848 279.135 27.5848C279.544 27.5848 279.807 27.4389 280.376 26.9281C281.222 26.1692 281.208 26.1108 280.317 26.7092Z" fill="#A16BDD"/>
        <path d="M274.012 28.3437C273.998 28.3729 273.969 29.2048 273.954 30.2118C273.91 31.9486 273.91 32.0216 274.144 31.6713C274.275 31.467 274.582 31.1021 274.844 30.8686L275.297 30.4308L274.771 29.3653C274.334 28.4751 274.1 28.1686 274.012 28.3437Z" fill="#A16BDD"/>
        <path d="M270.962 33.9189C270.364 34.0794 270.262 34.1816 269.838 34.9697C269.386 35.8308 268.992 37.3486 269.386 36.7065C269.488 36.5459 270.189 35.8016 270.933 35.0573C272.378 33.627 272.378 33.554 270.962 33.9189Z" fill="#A16BDD"/>
        <path d="M313.797 40.2822C313.943 40.4428 314.425 40.7784 314.863 41.0266C315.3 41.2747 315.986 41.7709 316.366 42.1357C317.315 43.026 317.271 42.7633 316.308 41.7271C315.768 41.1287 315.373 40.8514 314.95 40.7347C314.629 40.6471 314.235 40.4428 314.089 40.2822C313.943 40.1217 313.753 39.9903 313.68 39.9903C313.593 39.9903 313.651 40.1217 313.797 40.2822Z" fill="#A16BDD"/>
        <path d="M301.333 40.9974C301.946 41.4644 302.91 42.0336 303.099 42.0336C303.202 42.0336 302.837 41.7417 302.267 41.3768C301.231 40.7201 300.706 40.5011 301.333 40.9974Z" fill="#A16BDD"/>
        <path d="M277.311 42.6174C277.267 42.6904 277.019 42.7633 276.785 42.7633C276.537 42.7633 276.362 42.8217 276.391 42.8947C276.45 43.0844 278.026 44.6898 278.347 44.9087C279.004 45.3466 279.734 45.6823 280.011 45.6823C280.493 45.6823 280.274 45.3612 279.544 44.9963C278.843 44.646 278.347 44.106 277.836 43.0844C277.501 42.4277 277.457 42.3839 277.311 42.6174Z" fill="#A16BDD"/>
        <path d="M301.436 42.734C300.531 43.347 299.713 44.1351 299.83 44.2518C299.918 44.3394 300.093 44.3248 300.283 44.2226C300.545 44.0913 300.72 44.1205 301.275 44.3832C302.092 44.7772 304.063 46.6162 304.179 47.0832C304.296 47.5502 303.625 48.4843 302.253 49.7394C301.027 50.8778 300.91 51.3302 302.019 50.6589C302.764 50.1918 303.888 49.8124 304.033 49.9583C304.092 50.0167 303.727 50.5713 303.231 51.2135C302.413 52.2789 302.195 52.6875 302.428 52.6875C302.486 52.6875 303.041 52.2205 303.669 51.6513C304.311 51.0675 304.865 50.6443 304.909 50.6881C305.011 50.7902 304.457 51.8848 304.004 52.4978C303.8 52.7605 303.348 53.1691 302.997 53.4172C302.282 53.9135 302.151 54.3221 302.647 54.5848C303.026 54.7891 303.158 54.7016 304.924 53.1399L306.266 51.9432L307.04 52.4832C307.463 52.7897 308.076 53.3005 308.383 53.607C309.083 54.3075 309.215 54.1178 308.704 53.1691C307.93 51.7097 307.39 50.1481 307.317 49.1118C307.244 48.1778 307.2 48.0902 306.894 48.0464C306.442 47.9735 306.558 47.667 307.055 47.6086C307.332 47.5794 307.726 47.7545 308.368 48.1924C308.864 48.5426 309.769 49.0681 310.368 49.3599C310.966 49.6664 311.681 50.0459 311.944 50.221C312.192 50.3816 312.411 50.4837 312.411 50.4399C312.411 50.3816 311.856 49.9875 311.185 49.5497C310.513 49.1118 309.915 48.6886 309.857 48.6156C309.813 48.5281 309.331 48.1632 308.791 47.8129C308.251 47.4626 307.492 46.8643 307.084 46.4994C306.69 46.1345 306.062 45.6529 305.697 45.4486C304.603 44.7918 303.26 43.7702 302.939 43.3324C302.764 43.0989 302.443 42.8216 302.224 42.7048C301.859 42.5151 301.771 42.5151 301.436 42.734ZM302.049 42.9821C302.238 43.2156 303.362 45.361 303.362 45.507C303.362 45.7259 302.559 44.7918 302.151 44.1059C301.873 43.6535 301.582 43.347 301.436 43.347C301.129 43.347 301.1 43.1864 301.348 42.9383C301.582 42.7048 301.83 42.7194 302.049 42.9821Z" fill="#A16BDD"/>
        <path d="M313.608 43.1865C314.191 43.6973 314.323 43.9162 314.469 44.6313C314.673 45.6238 314.819 45.8427 314.965 45.3757C315.023 45.1859 315.169 44.9086 315.301 44.7627C315.519 44.5146 315.549 44.5292 315.899 44.8503C316.381 45.3027 319.27 47.6232 319.562 47.7984C319.81 47.9443 318.205 46.0908 317.592 45.5362C317.373 45.3319 316.862 44.7627 316.468 44.2519C315.665 43.2448 315.286 42.9967 314.308 42.8508C313.943 42.7924 313.491 42.7048 313.286 42.6611C312.98 42.5881 313.038 42.6757 313.608 43.1865Z" fill="#A16BDD"/>
        <path d="M306.792 44.8648C307.113 45.1567 307.609 45.4924 307.886 45.6238C308.164 45.7551 308.952 46.2659 309.638 46.7475C310.951 47.6816 312.965 48.8346 313.082 48.7032C313.213 48.5719 312.06 47.6816 311.331 47.3459C310.922 47.1708 310.09 46.6892 309.492 46.2805C308.893 45.8719 308.295 45.5362 308.164 45.5362C308.032 45.5362 307.551 45.2735 307.069 44.9378C306.208 44.354 306.208 44.354 306.792 44.8648Z" fill="#A16BDD"/>
        <path d="M281.777 45.6238C281.266 45.8136 280.799 46.0033 280.77 46.0471C280.595 46.2222 280.857 46.2368 281.499 46.0908L282.185 45.9303L283.003 46.6454C284.097 47.5941 284.345 47.7692 284.433 47.6233C284.535 47.4627 283.295 45.58 282.973 45.4195C282.784 45.3319 282.433 45.3903 281.777 45.6238Z" fill="#A16BDD"/>
        <path d="M284.681 45.3611C284.681 45.7989 286.914 48.3238 287.118 48.1195C287.162 48.0611 286.943 47.7838 286.607 47.5065C286.286 47.2146 285.717 46.5871 285.352 46.1054C284.987 45.6092 284.681 45.2735 284.681 45.3611Z" fill="#A16BDD"/>
        <path d="M318.687 45.3756C318.687 45.6091 319.708 46.3972 320.555 46.8351C321.007 47.0686 321.62 47.5064 321.897 47.7983C322.715 48.6594 324.145 49.8708 323.97 49.5497C323.678 48.9951 320.949 46.441 320.292 46.1199C319.927 45.9302 319.475 45.6675 319.285 45.5216C318.905 45.2151 318.687 45.1713 318.687 45.3756Z" fill="#A16BDD"/>
        <path d="M297.378 47.1416C297.378 47.2146 297.145 47.5356 296.868 47.8567C296.342 48.4259 296.225 48.9513 296.503 49.4621C296.649 49.7394 298.531 51.2281 299.451 51.7827C299.743 51.9724 300.181 52.3373 300.429 52.6146C300.677 52.8919 300.91 53.1254 300.954 53.1254C301.188 53.1254 300.341 51.8848 299.465 50.9216C298.429 49.7832 297.831 48.8346 298.006 48.6594C298.064 48.601 298.502 48.7324 298.984 48.9659C299.465 49.1994 299.889 49.3454 299.933 49.3016C300.064 49.1702 297.86 46.9956 297.597 46.9956C297.481 46.9956 297.378 47.054 297.378 47.1416Z" fill="#A16BDD"/>
        <path d="M285.382 49.287C284.987 49.7979 283.718 50.9654 283.44 51.0822C283.163 51.1843 283.163 51.1989 283.411 51.3011C283.586 51.3741 283.732 51.3303 283.849 51.1843C284.053 50.907 285.075 50.6589 285.936 50.6443C286.447 50.6443 286.695 50.7757 287.833 51.6806C289.643 53.14 289.629 53.1254 289.001 52.3957C288.432 51.7243 285.717 49.0389 285.63 49.0389C285.586 49.0389 285.484 49.1557 285.382 49.287Z" fill="#A16BDD"/>
        <path d="M287.25 52.8481C287.089 52.9941 287.016 53.1692 287.06 53.213C287.162 53.3151 286.622 53.8551 286.403 53.8551C286.345 53.8551 286.316 54.0157 286.374 54.22C286.433 54.4535 286.403 54.5849 286.301 54.5849C286.17 54.5849 286.17 54.6578 286.301 54.8913C286.389 55.0665 286.403 55.2416 286.345 55.3C286.111 55.4605 286.141 55.7524 286.403 55.767C286.622 55.767 286.622 55.7816 286.374 55.8838C286.024 56.0151 285.936 56.4822 286.257 56.4822C286.476 56.4968 286.462 56.5259 286.228 56.7011C286.068 56.8178 286.024 56.92 286.111 56.92C286.389 56.92 286.316 57.1827 286.038 57.2557C285.893 57.2995 285.995 57.3286 286.272 57.3432C286.754 57.3578 286.768 57.3724 286.491 57.5913C286.228 57.7957 286.257 57.8103 286.841 57.7373C287.308 57.6643 287.454 57.6935 287.454 57.854C287.454 58.0584 286.184 58.3357 283.733 58.6859C282.638 58.8319 281.791 59.0946 282.346 59.1092C282.682 59.1092 285.965 58.7005 286.768 58.54C287.323 58.4378 287.498 58.4524 287.556 58.613C287.658 58.8903 288.038 58.8757 288.038 58.5984C288.038 58.4816 288.228 58.3649 288.52 58.3065C294.168 57.3432 294.255 57.3432 295.087 57.9416C295.423 58.1751 296.167 58.54 296.722 58.7443L297.743 59.1238L297.014 58.4232C296.605 58.0438 296.138 57.6351 295.992 57.533C295.744 57.3724 295.934 57.3578 297.16 57.4308C297.962 57.46 298.853 57.5768 299.13 57.6643C300.458 58.0876 312.396 58.5108 316.789 58.2919L319.197 58.1751L314.367 58.073C311.564 58.0146 308.733 57.8686 307.653 57.7373C306.617 57.6205 304.705 57.4454 303.391 57.3578C301.421 57.2265 300.618 57.1097 298.765 56.6281C297.539 56.307 296.371 56.0443 296.182 56.0443C295.992 56.0443 295.423 55.9422 294.897 55.7962L293.949 55.5627L293 55.9713C292.475 56.1903 291.526 56.6135 290.898 56.8908C289.6 57.46 288.578 57.6497 288.403 57.3578C288.315 57.2119 288.403 57.1827 288.782 57.2557C289.22 57.3286 289.235 57.314 288.957 57.1827C288.505 56.9638 288.534 56.8032 289.03 56.8762C289.278 56.92 289.351 56.8908 289.249 56.8178C289.147 56.7449 289.045 56.5405 289.016 56.3508C288.987 56.1611 288.811 55.913 288.607 55.8108C288.271 55.6065 288.286 55.6065 288.841 55.694C289.278 55.7524 289.366 55.7378 289.205 55.6211C289.089 55.5335 289.06 55.4605 289.133 55.4605C289.22 55.4605 289.118 55.3146 288.914 55.154C288.709 54.9935 288.636 54.8913 288.738 54.9497C288.841 55.0081 288.914 54.9497 288.914 54.8184C288.914 54.687 288.855 54.5849 288.782 54.5849C288.709 54.5849 288.549 54.4243 288.417 54.22C288.169 53.8551 288.169 53.8405 288.578 53.9281L288.987 54.0011L288.578 53.8405C288.33 53.7384 288.198 53.5924 288.213 53.4465C288.242 53.3005 288.111 53.14 287.921 53.0524C287.746 52.9795 287.629 52.8189 287.673 52.7313C287.775 52.4541 287.571 52.5124 287.25 52.8481ZM288.476 57.6643C288.476 57.7373 288.344 57.7957 288.184 57.7957C287.907 57.7957 287.804 57.6351 287.98 57.46C288.096 57.3432 288.476 57.5038 288.476 57.6643Z" fill="#A16BDD"/>
        <path d="M17.7646 29.5635H15.2217L15.208 28.2373H17.3887C17.7624 28.2373 18.0745 28.1849 18.3252 28.0801C18.5758 27.9753 18.765 27.8226 18.8926 27.6221C19.0247 27.4215 19.0908 27.1777 19.0908 26.8906C19.0908 26.5716 19.0293 26.3118 18.9062 26.1113C18.7878 25.9108 18.6009 25.765 18.3457 25.6738C18.0905 25.5781 17.7669 25.5303 17.375 25.5303H15.8301V34H13.9502V24.0469H17.375C17.9401 24.0469 18.4437 24.1016 18.8857 24.2109C19.3324 24.3158 19.7106 24.4798 20.0205 24.7031C20.3304 24.9264 20.5651 25.2067 20.7246 25.5439C20.8887 25.8812 20.9707 26.2822 20.9707 26.7471C20.9707 27.1572 20.875 27.5355 20.6836 27.8818C20.4967 28.2236 20.2074 28.5016 19.8154 28.7158C19.4281 28.93 18.9359 29.0531 18.3389 29.085L17.7646 29.5635ZM17.6826 34H14.668L15.4541 32.5234H17.6826C18.0563 32.5234 18.3639 32.4619 18.6055 32.3389C18.8516 32.2158 19.0339 32.0472 19.1523 31.833C19.2754 31.6143 19.3369 31.3636 19.3369 31.0811C19.3369 30.7712 19.2822 30.5023 19.1729 30.2744C19.068 30.0465 18.8994 29.8711 18.667 29.748C18.4391 29.625 18.1383 29.5635 17.7646 29.5635H15.8096L15.8232 28.2373H18.3115L18.7422 28.75C19.3164 28.7546 19.7835 28.8685 20.1436 29.0918C20.5081 29.3151 20.777 29.6022 20.9502 29.9531C21.1234 30.304 21.21 30.6823 21.21 31.0879C21.21 31.7259 21.071 32.2614 20.793 32.6943C20.5195 33.1273 20.1185 33.4531 19.5898 33.6719C19.0658 33.8906 18.43 34 17.6826 34ZM27.1025 32.2432V26.6035H28.9209V34H27.2119L27.1025 32.2432ZM27.335 30.7119L27.8955 30.6982C27.8955 31.195 27.8408 31.653 27.7314 32.0723C27.6221 32.4915 27.4512 32.8561 27.2188 33.166C26.9909 33.4714 26.7015 33.7106 26.3506 33.8838C25.9997 34.0524 25.585 34.1367 25.1064 34.1367C24.7419 34.1367 24.4092 34.0866 24.1084 33.9863C23.8076 33.8815 23.5479 33.7197 23.3291 33.501C23.1149 33.2777 22.9486 32.9928 22.8301 32.6465C22.7116 32.2956 22.6523 31.874 22.6523 31.3818V26.6035H24.457V31.3955C24.457 31.6416 24.4844 31.8467 24.5391 32.0107C24.5983 32.1748 24.6781 32.3092 24.7783 32.4141C24.8831 32.5143 25.0039 32.5872 25.1406 32.6328C25.2819 32.6738 25.4323 32.6943 25.5918 32.6943C26.0293 32.6943 26.3734 32.6077 26.624 32.4346C26.8792 32.2568 27.0615 32.0199 27.1709 31.7236C27.2803 31.4229 27.335 31.0856 27.335 30.7119ZM34.957 32.4277V23.5H36.7754V34H35.1348L34.957 32.4277ZM30.2061 30.3906V30.2471C30.2061 29.682 30.2699 29.1693 30.3975 28.709C30.5296 28.2441 30.721 27.8454 30.9717 27.5127C31.2223 27.18 31.5254 26.9225 31.8809 26.7402C32.2409 26.5579 32.6488 26.4668 33.1045 26.4668C33.5465 26.4668 33.9316 26.5557 34.2598 26.7334C34.5924 26.9111 34.875 27.1641 35.1074 27.4922C35.3444 27.8203 35.5335 28.21 35.6748 28.6611C35.8161 29.1077 35.9186 29.5999 35.9824 30.1377V30.5273C35.9186 31.0514 35.8161 31.5322 35.6748 31.9697C35.5335 32.4072 35.3444 32.79 35.1074 33.1182C34.875 33.4417 34.5924 33.6924 34.2598 33.8701C33.9271 34.0479 33.5374 34.1367 33.0908 34.1367C32.6396 34.1367 32.234 34.0433 31.874 33.8564C31.5186 33.6696 31.2155 33.4076 30.9648 33.0703C30.7188 32.7331 30.5296 32.3366 30.3975 31.8809C30.2699 31.4251 30.2061 30.9284 30.2061 30.3906ZM32.0176 30.2471V30.3906C32.0176 30.7096 32.0449 31.0081 32.0996 31.2861C32.1543 31.5641 32.2432 31.8102 32.3662 32.0244C32.4893 32.234 32.6465 32.3981 32.8379 32.5166C33.0339 32.6351 33.2708 32.6943 33.5488 32.6943C33.9043 32.6943 34.196 32.6169 34.4238 32.4619C34.6562 32.3024 34.8363 32.0859 34.9639 31.8125C35.0915 31.5345 35.1735 31.2223 35.21 30.876V29.8027C35.1917 29.5293 35.1439 29.2764 35.0664 29.0439C34.9935 28.8115 34.8887 28.611 34.752 28.4424C34.6198 28.2738 34.4557 28.1416 34.2598 28.0459C34.0638 27.9502 33.8314 27.9023 33.5625 27.9023C33.2845 27.9023 33.0475 27.9639 32.8516 28.0869C32.6556 28.2054 32.4961 28.3717 32.373 28.5859C32.25 28.8001 32.1589 29.0485 32.0996 29.3311C32.0449 29.6136 32.0176 29.9189 32.0176 30.2471ZM43.1123 26.6035H44.7529V33.7744C44.7529 34.4443 44.6071 35.0117 44.3154 35.4766C44.0283 35.946 43.625 36.3014 43.1055 36.543C42.5859 36.7891 41.9821 36.9121 41.2939 36.9121C40.9977 36.9121 40.6764 36.8711 40.3301 36.7891C39.9883 36.707 39.6579 36.5771 39.3389 36.3994C39.0244 36.2262 38.7624 36.0007 38.5527 35.7227L39.3662 34.6562C39.6123 34.9434 39.8903 35.1598 40.2002 35.3057C40.5101 35.4561 40.8451 35.5312 41.2051 35.5312C41.5697 35.5312 41.8796 35.4629 42.1348 35.3262C42.3945 35.194 42.5928 34.998 42.7295 34.7383C42.8708 34.4831 42.9414 34.1686 42.9414 33.7949V28.292L43.1123 26.6035ZM38.1152 30.3906V30.2471C38.1152 29.682 38.1836 29.1693 38.3203 28.709C38.457 28.2441 38.653 27.8454 38.9082 27.5127C39.168 27.18 39.4801 26.9225 39.8447 26.7402C40.2139 26.5579 40.6286 26.4668 41.0889 26.4668C41.5765 26.4668 41.9867 26.5557 42.3193 26.7334C42.6566 26.9111 42.9346 27.1641 43.1533 27.4922C43.3766 27.8203 43.5498 28.21 43.6729 28.6611C43.8005 29.1077 43.8984 29.5999 43.9668 30.1377V30.5273C43.903 31.0514 43.8005 31.5322 43.6592 31.9697C43.5225 32.4072 43.3402 32.79 43.1123 33.1182C42.8844 33.4417 42.6019 33.6924 42.2646 33.8701C41.9274 34.0479 41.5309 34.1367 41.0752 34.1367C40.6195 34.1367 40.2093 34.0433 39.8447 33.8564C39.4801 33.6696 39.168 33.4076 38.9082 33.0703C38.653 32.7331 38.457 32.3366 38.3203 31.8809C38.1836 31.4251 38.1152 30.9284 38.1152 30.3906ZM39.9199 30.2471V30.3906C39.9199 30.7096 39.9518 31.0081 40.0156 31.2861C40.0794 31.5641 40.1774 31.8102 40.3096 32.0244C40.4417 32.234 40.6081 32.3981 40.8086 32.5166C41.0091 32.6351 41.2484 32.6943 41.5264 32.6943C41.9001 32.6943 42.2054 32.6169 42.4424 32.4619C42.6839 32.3024 42.8662 32.0859 42.9893 31.8125C43.1169 31.5345 43.1989 31.2223 43.2354 30.876V29.8027C43.2126 29.5293 43.1624 29.2764 43.085 29.0439C43.012 28.8115 42.9095 28.611 42.7773 28.4424C42.6452 28.2738 42.4766 28.1416 42.2715 28.0459C42.0664 27.9502 41.8226 27.9023 41.54 27.9023C41.2666 27.9023 41.0273 27.9639 40.8223 28.0869C40.6172 28.2054 40.4486 28.3717 40.3164 28.5859C40.1842 28.8001 40.084 29.0485 40.0156 29.3311C39.9518 29.6136 39.9199 29.9189 39.9199 30.2471ZM49.7021 34.1367C49.1416 34.1367 48.638 34.0456 48.1914 33.8633C47.7448 33.681 47.3643 33.4281 47.0498 33.1045C46.7399 32.7764 46.5007 32.3958 46.332 31.9629C46.168 31.5254 46.0859 31.056 46.0859 30.5547V30.2812C46.0859 29.7116 46.168 29.1943 46.332 28.7295C46.4961 28.2601 46.7285 27.8568 47.0293 27.5195C47.3301 27.1823 47.6901 26.9225 48.1094 26.7402C48.5286 26.5579 48.9912 26.4668 49.4971 26.4668C50.0212 26.4668 50.4837 26.5557 50.8848 26.7334C51.2858 26.9066 51.6208 27.1527 51.8896 27.4717C52.1585 27.7907 52.3613 28.1735 52.498 28.6201C52.6348 29.0622 52.7031 29.5521 52.7031 30.0898V30.8486H46.9062V29.6045H50.9258V29.4678C50.9167 29.1807 50.862 28.9186 50.7617 28.6816C50.6615 28.4401 50.5065 28.2487 50.2969 28.1074C50.0872 27.9616 49.8161 27.8887 49.4834 27.8887C49.2145 27.8887 48.9798 27.9479 48.7793 28.0664C48.5833 28.1803 48.4193 28.3444 48.2871 28.5586C48.1595 28.7682 48.0638 29.0189 48 29.3105C47.9362 29.6022 47.9043 29.9258 47.9043 30.2812V30.5547C47.9043 30.8646 47.9453 31.1517 48.0273 31.416C48.1139 31.6803 48.2393 31.9105 48.4033 32.1064C48.5719 32.2979 48.7725 32.4482 49.0049 32.5576C49.2419 32.6624 49.5107 32.7148 49.8115 32.7148C50.1898 32.7148 50.5316 32.6419 50.8369 32.4961C51.1468 32.3457 51.4157 32.1247 51.6436 31.833L52.5527 32.7764C52.3978 33.0042 52.1882 33.223 51.9238 33.4326C51.6641 33.6423 51.3496 33.8132 50.9805 33.9453C50.6113 34.0729 50.1852 34.1367 49.7021 34.1367ZM57.4131 26.6035V27.9023H53.1748V26.6035H57.4131ZM54.3096 24.7852H56.1211V31.8672C56.1211 32.0859 56.1507 32.2546 56.21 32.373C56.2692 32.4915 56.3581 32.5713 56.4766 32.6123C56.5951 32.6533 56.7363 32.6738 56.9004 32.6738C57.0189 32.6738 57.1283 32.667 57.2285 32.6533C57.3288 32.6396 57.4131 32.626 57.4814 32.6123L57.4883 33.9658C57.3379 34.016 57.167 34.057 56.9756 34.0889C56.7887 34.1208 56.5768 34.1367 56.3398 34.1367C55.9342 34.1367 55.5788 34.0684 55.2734 33.9316C54.9681 33.7904 54.7311 33.5648 54.5625 33.2549C54.3939 32.9404 54.3096 32.5257 54.3096 32.0107V24.7852Z" fill="white"/>
        <path d="M261.056 22.1553V24.7832H259.702V22.1553H261.056ZM260.889 36.5078V38.8633H259.544V36.5078H260.889ZM262.216 33.6689C262.216 33.3291 262.146 33.0332 262.005 32.7812C261.87 32.5234 261.647 32.292 261.337 32.0869C261.026 31.876 260.61 31.6797 260.089 31.498C259.339 31.2344 258.683 30.9385 258.12 30.6104C257.563 30.2764 257.13 29.8662 256.819 29.3799C256.515 28.8877 256.362 28.2754 256.362 27.543C256.362 26.8223 256.526 26.1982 256.854 25.6709C257.188 25.1436 257.651 24.7363 258.243 24.4492C258.835 24.1621 259.526 24.0186 260.317 24.0186C260.927 24.0186 261.475 24.1094 261.961 24.291C262.453 24.4727 262.872 24.7393 263.218 25.0908C263.563 25.4424 263.827 25.876 264.009 26.3916C264.196 26.9014 264.29 27.4873 264.29 28.1494H262.181C262.181 27.7744 262.137 27.4404 262.049 27.1475C261.967 26.8486 261.844 26.5967 261.68 26.3916C261.516 26.1807 261.316 26.0195 261.082 25.9082C260.854 25.7969 260.593 25.7412 260.3 25.7412C259.884 25.7412 259.541 25.8203 259.271 25.9785C259.002 26.1309 258.803 26.3418 258.674 26.6113C258.551 26.8809 258.489 27.1885 258.489 27.5342C258.489 27.8682 258.554 28.1611 258.683 28.4131C258.812 28.665 259.031 28.8936 259.342 29.0986C259.658 29.2979 260.092 29.5 260.643 29.7051C261.398 29.9746 262.052 30.2764 262.603 30.6104C263.159 30.9385 263.587 31.3457 263.886 31.832C264.19 32.3125 264.343 32.9189 264.343 33.6514C264.343 34.4072 264.167 35.0488 263.815 35.5762C263.47 36.1035 262.983 36.5049 262.356 36.7803C261.735 37.0498 261.012 37.1846 260.186 37.1846C259.664 37.1846 259.146 37.1172 258.63 36.9824C258.12 36.8418 257.657 36.6133 257.241 36.2969C256.825 35.9805 256.494 35.5615 256.248 35.04C256.002 34.5127 255.879 33.8682 255.879 33.1064H258.006C258.006 33.5635 258.067 33.9443 258.19 34.249C258.313 34.5537 258.48 34.7939 258.691 34.9697C258.902 35.1455 259.137 35.2715 259.395 35.3477C259.658 35.4238 259.922 35.4619 260.186 35.4619C260.625 35.4619 260.994 35.3887 261.293 35.2422C261.598 35.0898 261.826 34.8789 261.979 34.6094C262.137 34.334 262.216 34.0205 262.216 33.6689ZM268.421 31.0498L266.733 30.6367L267.428 24.2031H274.327V25.9961H269.186L268.834 29.1338C269.033 29.0166 269.309 28.9023 269.66 28.791C270.012 28.6738 270.413 28.6152 270.864 28.6152C271.468 28.6152 272.007 28.7148 272.481 28.9141C272.962 29.1074 273.369 29.3916 273.703 29.7666C274.037 30.1357 274.292 30.5869 274.468 31.1201C274.644 31.6475 274.731 32.2422 274.731 32.9043C274.731 33.4961 274.644 34.0498 274.468 34.5654C274.298 35.0811 274.04 35.5352 273.694 35.9277C273.349 36.3203 272.912 36.6279 272.385 36.8506C271.863 37.0674 271.245 37.1758 270.53 37.1758C269.997 37.1758 269.484 37.0996 268.992 36.9473C268.506 36.7891 268.069 36.5576 267.683 36.2529C267.296 35.9424 266.985 35.5615 266.751 35.1104C266.517 34.6533 266.382 34.1289 266.347 33.5371H268.421C268.474 33.9531 268.588 34.3076 268.764 34.6006C268.945 34.8877 269.186 35.1074 269.484 35.2598C269.783 35.4121 270.129 35.4883 270.521 35.4883C270.879 35.4883 271.187 35.4268 271.444 35.3037C271.702 35.1748 271.916 34.9932 272.086 34.7588C272.262 34.5186 272.391 34.2373 272.473 33.915C272.561 33.5928 272.604 33.2354 272.604 32.8428C272.604 32.4678 272.555 32.125 272.455 31.8145C272.361 31.5039 272.218 31.2344 272.024 31.0059C271.837 30.7773 271.6 30.6016 271.312 30.4785C271.025 30.3496 270.694 30.2852 270.319 30.2852C269.815 30.2852 269.429 30.3584 269.159 30.5049C268.896 30.6514 268.649 30.833 268.421 31.0498ZM284.769 29.5293V31.6211C284.769 32.623 284.669 33.4785 284.47 34.1875C284.276 34.8906 283.995 35.4619 283.626 35.9014C283.257 36.3408 282.814 36.6631 282.299 36.8682C281.789 37.0732 281.218 37.1758 280.585 37.1758C280.081 37.1758 279.612 37.1113 279.179 36.9824C278.751 36.8535 278.364 36.6514 278.019 36.376C277.673 36.1006 277.377 35.7461 277.131 35.3125C276.891 34.873 276.703 34.3486 276.568 33.7393C276.439 33.1299 276.375 32.4238 276.375 31.6211V29.5293C276.375 28.5215 276.475 27.6719 276.674 26.9805C276.873 26.2832 277.157 25.7178 277.526 25.2842C277.896 24.8447 278.335 24.5254 278.845 24.3262C279.36 24.127 279.935 24.0273 280.567 24.0273C281.077 24.0273 281.546 24.0918 281.974 24.2207C282.407 24.3438 282.794 24.54 283.134 24.8096C283.479 25.0791 283.772 25.4307 284.013 25.8643C284.259 26.292 284.446 26.8105 284.575 27.4199C284.704 28.0234 284.769 28.7266 284.769 29.5293ZM282.65 31.9199V29.2129C282.65 28.7031 282.621 28.2549 282.562 27.8682C282.504 27.4756 282.416 27.1445 282.299 26.875C282.188 26.5996 282.047 26.377 281.877 26.207C281.707 26.0312 281.514 25.9053 281.297 25.8291C281.08 25.7471 280.837 25.7061 280.567 25.7061C280.239 25.7061 279.946 25.7705 279.688 25.8994C279.431 26.0225 279.214 26.2217 279.038 26.4971C278.862 26.7725 278.728 27.1357 278.634 27.5869C278.546 28.0322 278.502 28.5742 278.502 29.2129V31.9199C278.502 32.4355 278.531 32.8896 278.59 33.2822C278.648 33.6748 278.736 34.0117 278.854 34.293C278.971 34.5684 279.111 34.7969 279.275 34.9785C279.445 35.1543 279.639 35.2832 279.855 35.3652C280.078 35.4473 280.321 35.4883 280.585 35.4883C280.919 35.4883 281.215 35.4238 281.473 35.2949C281.73 35.166 281.947 34.9609 282.123 34.6797C282.299 34.3926 282.431 34.0205 282.519 33.5635C282.606 33.1064 282.65 32.5586 282.65 31.9199ZM294.999 29.5293V31.6211C294.999 32.623 294.899 33.4785 294.7 34.1875C294.507 34.8906 294.226 35.4619 293.856 35.9014C293.487 36.3408 293.045 36.6631 292.529 36.8682C292.02 37.0732 291.448 37.1758 290.815 37.1758C290.312 37.1758 289.843 37.1113 289.409 36.9824C288.981 36.8535 288.595 36.6514 288.249 36.376C287.903 36.1006 287.607 35.7461 287.361 35.3125C287.121 34.873 286.934 34.3486 286.799 33.7393C286.67 33.1299 286.605 32.4238 286.605 31.6211V29.5293C286.605 28.5215 286.705 27.6719 286.904 26.9805C287.104 26.2832 287.388 25.7178 287.757 25.2842C288.126 24.8447 288.565 24.5254 289.075 24.3262C289.591 24.127 290.165 24.0273 290.798 24.0273C291.308 24.0273 291.776 24.0918 292.204 24.2207C292.638 24.3438 293.024 24.54 293.364 24.8096C293.71 25.0791 294.003 25.4307 294.243 25.8643C294.489 26.292 294.677 26.8105 294.806 27.4199C294.935 28.0234 294.999 28.7266 294.999 29.5293ZM292.881 31.9199V29.2129C292.881 28.7031 292.852 28.2549 292.793 27.8682C292.734 27.4756 292.646 27.1445 292.529 26.875C292.418 26.5996 292.277 26.377 292.107 26.207C291.938 26.0312 291.744 25.9053 291.527 25.8291C291.311 25.7471 291.067 25.7061 290.798 25.7061C290.47 25.7061 290.177 25.7705 289.919 25.8994C289.661 26.0225 289.444 26.2217 289.269 26.4971C289.093 26.7725 288.958 27.1357 288.864 27.5869C288.776 28.0322 288.732 28.5742 288.732 29.2129V31.9199C288.732 32.4355 288.762 32.8896 288.82 33.2822C288.879 33.6748 288.967 34.0117 289.084 34.293C289.201 34.5684 289.342 34.7969 289.506 34.9785C289.676 35.1543 289.869 35.2832 290.086 35.3652C290.309 35.4473 290.552 35.4883 290.815 35.4883C291.149 35.4883 291.445 35.4238 291.703 35.2949C291.961 35.166 292.178 34.9609 292.354 34.6797C292.529 34.3926 292.661 34.0205 292.749 33.5635C292.837 33.1064 292.881 32.5586 292.881 31.9199ZM305.229 29.5293V31.6211C305.229 32.623 305.13 33.4785 304.931 34.1875C304.737 34.8906 304.456 35.4619 304.087 35.9014C303.718 36.3408 303.275 36.6631 302.76 36.8682C302.25 37.0732 301.679 37.1758 301.046 37.1758C300.542 37.1758 300.073 37.1113 299.64 36.9824C299.212 36.8535 298.825 36.6514 298.479 36.376C298.134 36.1006 297.838 35.7461 297.592 35.3125C297.352 34.873 297.164 34.3486 297.029 33.7393C296.9 33.1299 296.836 32.4238 296.836 31.6211V29.5293C296.836 28.5215 296.936 27.6719 297.135 26.9805C297.334 26.2832 297.618 25.7178 297.987 25.2842C298.356 24.8447 298.796 24.5254 299.306 24.3262C299.821 24.127 300.396 24.0273 301.028 24.0273C301.538 24.0273 302.007 24.0918 302.435 24.2207C302.868 24.3438 303.255 24.54 303.595 24.8096C303.94 25.0791 304.233 25.4307 304.474 25.8643C304.72 26.292 304.907 26.8105 305.036 27.4199C305.165 28.0234 305.229 28.7266 305.229 29.5293ZM303.111 31.9199V29.2129C303.111 28.7031 303.082 28.2549 303.023 27.8682C302.965 27.4756 302.877 27.1445 302.76 26.875C302.648 26.5996 302.508 26.377 302.338 26.207C302.168 26.0312 301.975 25.9053 301.758 25.8291C301.541 25.7471 301.298 25.7061 301.028 25.7061C300.7 25.7061 300.407 25.7705 300.149 25.8994C299.892 26.0225 299.675 26.2217 299.499 26.4971C299.323 26.7725 299.188 27.1357 299.095 27.5869C299.007 28.0322 298.963 28.5742 298.963 29.2129V31.9199C298.963 32.4355 298.992 32.8896 299.051 33.2822C299.109 33.6748 299.197 34.0117 299.314 34.293C299.432 34.5684 299.572 34.7969 299.736 34.9785C299.906 35.1543 300.1 35.2832 300.316 35.3652C300.539 35.4473 300.782 35.4883 301.046 35.4883C301.38 35.4883 301.676 35.4238 301.934 35.2949C302.191 35.166 302.408 34.9609 302.584 34.6797C302.76 34.3926 302.892 34.0205 302.979 33.5635C303.067 33.1064 303.111 32.5586 303.111 31.9199Z" fill="white"/>
    </g>
    <defs>
        <clipPath id="clip0_132_6111">
            <rect width="328" height="58" fill="white"/>
        </clipPath>
    </defs>
</svg>
