<svg width="24" height="24" viewBox="0 0 24 24" fill="none" xmlns="http://www.w3.org/2000/svg">
    <path d="M5.833 19.708H18.167C18.9847 19.708 19.7688 19.3832 20.347 18.805C20.9252 18.2268 21.25 17.4427 21.25 16.625V9.43099C21.2501 9.02604 21.1705 8.62503 21.0156 8.25087C20.8607 7.87671 20.6337 7.53672 20.3474 7.25034C20.0611 6.96395 19.7212 6.73677 19.347 6.58177C18.9729 6.42677 18.5719 6.34699 18.167 6.34699H16.748C16.34 6.34699 15.948 6.18399 15.658 5.89499L14.508 4.74399C14.365 4.60069 14.195 4.48701 14.008 4.40945C13.821 4.33189 13.6205 4.29198 13.418 4.29199H10.582C10.172 4.29199 9.782 4.45499 9.492 4.74399L8.342 5.89499C8.052 6.18499 7.66 6.34699 7.252 6.34699H5.833C5.42805 6.34699 5.02707 6.42677 4.65296 6.58177C4.27884 6.73677 3.93893 6.96395 3.65264 7.25034C3.36634 7.53672 3.13927 7.87671 2.98439 8.25087C2.82952 8.62503 2.74987 9.02604 2.75 9.43099V16.625C2.75 17.4427 3.07482 18.2268 3.65299 18.805C4.23116 19.3832 5.01534 19.708 5.833 19.708Z" stroke="#79A78D" stroke-width="1.5" stroke-linecap="round" stroke-linejoin="round"/>
    <path d="M12 16.6248C13.0903 16.6248 14.136 16.1917 14.907 15.4207C15.6779 14.6498 16.111 13.6041 16.111 12.5138C16.111 11.4235 15.6779 10.3779 14.907 9.60692C14.136 8.83595 13.0903 8.40283 12 8.40283C10.9097 8.40283 9.86408 8.83595 9.09312 9.60692C8.32216 10.3779 7.88904 11.4235 7.88904 12.5138C7.88904 13.6041 8.32216 14.6498 9.09312 15.4207C9.86408 16.1917 10.9097 16.6248 12 16.6248Z" stroke="#79A78D" stroke-width="1.5" stroke-linecap="round" stroke-linejoin="round"/>
</svg>
