<svg width="50" height="42" viewBox="0 0 50 42" fill="none" xmlns="http://www.w3.org/2000/svg">
    <path d="M7.10547 35.7871H8.23047C8.17188 36.3262 8.01758 36.8086 7.76758 37.2344C7.51758 37.6602 7.16406 37.998 6.70703 38.248C6.25 38.4941 5.67969 38.6172 4.99609 38.6172C4.49609 38.6172 4.04102 38.5234 3.63086 38.3359C3.22461 38.1484 2.875 37.8828 2.58203 37.5391C2.28906 37.1914 2.0625 36.7754 1.90234 36.291C1.74609 35.8027 1.66797 35.2598 1.66797 34.6621V33.8125C1.66797 33.2148 1.74609 32.6738 1.90234 32.1895C2.0625 31.7012 2.29102 31.2832 2.58789 30.9355C2.88867 30.5879 3.25 30.3203 3.67188 30.1328C4.09375 29.9453 4.56836 29.8516 5.0957 29.8516C5.74023 29.8516 6.28516 29.9727 6.73047 30.2148C7.17578 30.457 7.52148 30.793 7.76758 31.2227C8.01758 31.6484 8.17188 32.1426 8.23047 32.7051H7.10547C7.05078 32.3066 6.94922 31.9648 6.80078 31.6797C6.65234 31.3906 6.44141 31.168 6.16797 31.0117C5.89453 30.8555 5.53711 30.7773 5.0957 30.7773C4.7168 30.7773 4.38281 30.8496 4.09375 30.9941C3.80859 31.1387 3.56836 31.3438 3.37305 31.6094C3.18164 31.875 3.03711 32.1934 2.93945 32.5645C2.8418 32.9355 2.79297 33.3477 2.79297 33.8008V34.6621C2.79297 35.0801 2.83594 35.4727 2.92188 35.8398C3.01172 36.207 3.14648 36.5293 3.32617 36.8066C3.50586 37.084 3.73438 37.3027 4.01172 37.4629C4.28906 37.6191 4.61719 37.6973 4.99609 37.6973C5.47656 37.6973 5.85938 37.6211 6.14453 37.4688C6.42969 37.3164 6.64453 37.0977 6.78906 36.8125C6.9375 36.5273 7.04297 36.1855 7.10547 35.7871ZM13.3457 37.416V34.1523C13.3457 33.9023 13.2949 33.6855 13.1934 33.502C13.0957 33.3145 12.9473 33.1699 12.748 33.0684C12.5488 32.9668 12.3027 32.916 12.0098 32.916C11.7363 32.916 11.4961 32.9629 11.2891 33.0566C11.0859 33.1504 10.9258 33.2734 10.8086 33.4258C10.6953 33.5781 10.6387 33.7422 10.6387 33.918H9.55469C9.55469 33.6914 9.61328 33.4668 9.73047 33.2441C9.84766 33.0215 10.0156 32.8203 10.2344 32.6406C10.457 32.457 10.7227 32.3125 11.0312 32.207C11.3438 32.0977 11.6914 32.043 12.0742 32.043C12.5352 32.043 12.9414 32.1211 13.293 32.2773C13.6484 32.4336 13.9258 32.6699 14.125 32.9863C14.3281 33.2988 14.4297 33.6914 14.4297 34.1641V37.1172C14.4297 37.3281 14.4473 37.5527 14.4824 37.791C14.5215 38.0293 14.5781 38.2344 14.6523 38.4062V38.5H13.5215C13.4668 38.375 13.4238 38.209 13.3926 38.002C13.3613 37.791 13.3457 37.5957 13.3457 37.416ZM13.5332 34.6562L13.5449 35.418H12.4492C12.1406 35.418 11.8652 35.4434 11.623 35.4941C11.3809 35.541 11.1777 35.6133 11.0137 35.7109C10.8496 35.8086 10.7246 35.9316 10.6387 36.0801C10.5527 36.2246 10.5098 36.3945 10.5098 36.5898C10.5098 36.7891 10.5547 36.9707 10.6445 37.1348C10.7344 37.2988 10.8691 37.4297 11.0488 37.5273C11.2324 37.6211 11.457 37.668 11.7227 37.668C12.0547 37.668 12.3477 37.5977 12.6016 37.457C12.8555 37.3164 13.0566 37.1445 13.2051 36.9414C13.3574 36.7383 13.4395 36.541 13.4512 36.3496L13.9141 36.8711C13.8867 37.0352 13.8125 37.2168 13.6914 37.416C13.5703 37.6152 13.4082 37.8066 13.2051 37.9902C13.0059 38.1699 12.7676 38.3203 12.4902 38.4414C12.2168 38.5586 11.9082 38.6172 11.5645 38.6172C11.1348 38.6172 10.7578 38.5332 10.4336 38.3652C10.1133 38.1973 9.86328 37.9727 9.68359 37.6914C9.50781 37.4062 9.41992 37.0879 9.41992 36.7363C9.41992 36.3965 9.48633 36.0977 9.61914 35.8398C9.75195 35.5781 9.94336 35.3613 10.1934 35.1895C10.4434 35.0137 10.7441 34.8809 11.0957 34.791C11.4473 34.7012 11.8398 34.6562 12.2734 34.6562H13.5332ZM18.7891 32.1602V32.9922H15.3613V32.1602H18.7891ZM16.5215 30.6191H17.6055V36.9297C17.6055 37.1445 17.6387 37.3066 17.7051 37.416C17.7715 37.5254 17.8574 37.5977 17.9629 37.6328C18.0684 37.668 18.1816 37.6855 18.3027 37.6855C18.3926 37.6855 18.4863 37.6777 18.584 37.6621C18.6855 37.6426 18.7617 37.627 18.8125 37.6152L18.8184 38.5C18.7324 38.5273 18.6191 38.5527 18.4785 38.5762C18.3418 38.6035 18.1758 38.6172 17.9805 38.6172C17.7148 38.6172 17.4707 38.5645 17.248 38.459C17.0254 38.3535 16.8477 38.1777 16.7148 37.9316C16.5859 37.6816 16.5215 37.3457 16.5215 36.9238V30.6191ZM22.6914 38.6172C22.25 38.6172 21.8496 38.543 21.4902 38.3945C21.1348 38.2422 20.8281 38.0293 20.5703 37.7559C20.3164 37.4824 20.1211 37.1582 19.9844 36.7832C19.8477 36.4082 19.7793 35.998 19.7793 35.5527V35.3066C19.7793 34.791 19.8555 34.332 20.0078 33.9297C20.1602 33.5234 20.3672 33.1797 20.6289 32.8984C20.8906 32.6172 21.1875 32.4043 21.5195 32.2598C21.8516 32.1152 22.1953 32.043 22.5508 32.043C23.0039 32.043 23.3945 32.1211 23.7227 32.2773C24.0547 32.4336 24.3262 32.6523 24.5371 32.9336C24.748 33.2109 24.9043 33.5391 25.0059 33.918C25.1074 34.293 25.1582 34.7031 25.1582 35.1484V35.6348H20.4238V34.75H24.0742V34.668C24.0586 34.3867 24 34.1133 23.8984 33.8477C23.8008 33.582 23.6445 33.3633 23.4297 33.1914C23.2148 33.0195 22.9219 32.9336 22.5508 32.9336C22.3047 32.9336 22.0781 32.9863 21.8711 33.0918C21.6641 33.1934 21.4863 33.3457 21.3379 33.5488C21.1895 33.752 21.0742 34 20.9922 34.293C20.9102 34.5859 20.8691 34.9238 20.8691 35.3066V35.5527C20.8691 35.8535 20.9102 36.1367 20.9922 36.4023C21.0781 36.6641 21.2012 36.8945 21.3613 37.0938C21.5254 37.293 21.7227 37.4492 21.9531 37.5625C22.1875 37.6758 22.4531 37.7324 22.75 37.7324C23.1328 37.7324 23.457 37.6543 23.7227 37.498C23.9883 37.3418 24.2207 37.1328 24.4199 36.8711L25.0762 37.3926C24.9395 37.5996 24.7656 37.7969 24.5547 37.9844C24.3438 38.1719 24.084 38.3242 23.7754 38.4414C23.4707 38.5586 23.1094 38.6172 22.6914 38.6172ZM30.5312 32.1602H31.5156V38.3652C31.5156 38.9238 31.4023 39.4004 31.1758 39.7949C30.9492 40.1895 30.6328 40.4883 30.2266 40.6914C29.8242 40.8984 29.3594 41.002 28.832 41.002C28.6133 41.002 28.3555 40.9668 28.0586 40.8965C27.7656 40.8301 27.4766 40.7148 27.1914 40.5508C26.9102 40.3906 26.6738 40.1738 26.4824 39.9004L27.0508 39.2559C27.3164 39.5762 27.5938 39.7988 27.8828 39.9238C28.1758 40.0488 28.4648 40.1113 28.75 40.1113C29.0938 40.1113 29.3906 40.0469 29.6406 39.918C29.8906 39.7891 30.084 39.5977 30.2207 39.3438C30.3613 39.0938 30.4316 38.7852 30.4316 38.418V33.5547L30.5312 32.1602ZM26.166 35.4004V35.2773C26.166 34.793 26.2227 34.3535 26.3359 33.959C26.4531 33.5605 26.6191 33.2188 26.834 32.9336C27.0527 32.6484 27.3164 32.4297 27.625 32.2773C27.9336 32.1211 28.2812 32.043 28.668 32.043C29.0664 32.043 29.4141 32.1133 29.7109 32.2539C30.0117 32.3906 30.2656 32.5918 30.4727 32.8574C30.6836 33.1191 30.8496 33.4355 30.9707 33.8066C31.0918 34.1777 31.1758 34.5977 31.2227 35.0664V35.6055C31.1797 36.0703 31.0957 36.4883 30.9707 36.8594C30.8496 37.2305 30.6836 37.5469 30.4727 37.8086C30.2656 38.0703 30.0117 38.2715 29.7109 38.4121C29.4102 38.5488 29.0586 38.6172 28.6562 38.6172C28.2773 38.6172 27.9336 38.5371 27.625 38.377C27.3203 38.2168 27.0586 37.9922 26.8398 37.7031C26.6211 37.4141 26.4531 37.0742 26.3359 36.6836C26.2227 36.2891 26.166 35.8613 26.166 35.4004ZM27.25 35.2773V35.4004C27.25 35.7168 27.2812 36.0137 27.3438 36.291C27.4102 36.5684 27.5098 36.8125 27.6426 37.0234C27.7793 37.2344 27.9531 37.4004 28.1641 37.5215C28.375 37.6387 28.627 37.6973 28.9199 37.6973C29.2793 37.6973 29.5762 37.6211 29.8105 37.4688C30.0449 37.3164 30.2305 37.1152 30.3672 36.8652C30.5078 36.6152 30.6172 36.3438 30.6953 36.0508V34.6387C30.6523 34.4238 30.5859 34.2168 30.4961 34.0176C30.4102 33.8145 30.2969 33.6348 30.1562 33.4785C30.0195 33.3184 29.8496 33.1914 29.6465 33.0977C29.4434 33.0039 29.2051 32.957 28.9316 32.957C28.6348 32.957 28.3789 33.0195 28.1641 33.1445C27.9531 33.2656 27.7793 33.4336 27.6426 33.6484C27.5098 33.8594 27.4102 34.1055 27.3438 34.3867C27.2812 34.6641 27.25 34.9609 27.25 35.2773ZM32.875 35.4004V35.2656C32.875 34.8086 32.9414 34.3848 33.0742 33.9941C33.207 33.5996 33.3984 33.2578 33.6484 32.9688C33.8984 32.6758 34.2012 32.4492 34.5566 32.2891C34.9121 32.125 35.3105 32.043 35.752 32.043C36.1973 32.043 36.5977 32.125 36.9531 32.2891C37.3125 32.4492 37.6172 32.6758 37.8672 32.9688C38.1211 33.2578 38.3145 33.5996 38.4473 33.9941C38.5801 34.3848 38.6465 34.8086 38.6465 35.2656V35.4004C38.6465 35.8574 38.5801 36.2812 38.4473 36.6719C38.3145 37.0625 38.1211 37.4043 37.8672 37.6973C37.6172 37.9863 37.3145 38.2129 36.959 38.377C36.6074 38.5371 36.209 38.6172 35.7637 38.6172C35.3184 38.6172 34.918 38.5371 34.5625 38.377C34.207 38.2129 33.9023 37.9863 33.6484 37.6973C33.3984 37.4043 33.207 37.0625 33.0742 36.6719C32.9414 36.2812 32.875 35.8574 32.875 35.4004ZM33.959 35.2656V35.4004C33.959 35.7168 33.9961 36.0156 34.0703 36.2969C34.1445 36.5742 34.2559 36.8203 34.4043 37.0352C34.5566 37.25 34.7461 37.4199 34.9727 37.5449C35.1992 37.666 35.4629 37.7266 35.7637 37.7266C36.0605 37.7266 36.3203 37.666 36.543 37.5449C36.7695 37.4199 36.957 37.25 37.1055 37.0352C37.2539 36.8203 37.3652 36.5742 37.4395 36.2969C37.5176 36.0156 37.5566 35.7168 37.5566 35.4004V35.2656C37.5566 34.9531 37.5176 34.6582 37.4395 34.3809C37.3652 34.0996 37.252 33.8516 37.0996 33.6367C36.9512 33.418 36.7637 33.2461 36.5371 33.1211C36.3145 32.9961 36.0527 32.9336 35.752 32.9336C35.4551 32.9336 35.1934 32.9961 34.9668 33.1211C34.7441 33.2461 34.5566 33.418 34.4043 33.6367C34.2559 33.8516 34.1445 34.0996 34.0703 34.3809C33.9961 34.6582 33.959 34.9531 33.959 35.2656ZM41.0898 33.1562V38.5H40.0059V32.1602H41.0605L41.0898 33.1562ZM43.0703 32.125L43.0645 33.1328C42.9746 33.1133 42.8887 33.1016 42.8066 33.0977C42.7285 33.0898 42.6387 33.0859 42.5371 33.0859C42.2871 33.0859 42.0664 33.125 41.875 33.2031C41.6836 33.2812 41.5215 33.3906 41.3887 33.5312C41.2559 33.6719 41.1504 33.8398 41.0723 34.0352C40.998 34.2266 40.9492 34.4375 40.9258 34.668L40.6211 34.8438C40.6211 34.4609 40.6582 34.1016 40.7324 33.7656C40.8105 33.4297 40.9297 33.1328 41.0898 32.875C41.25 32.6133 41.4531 32.4102 41.6992 32.2656C41.9492 32.1172 42.2461 32.043 42.5898 32.043C42.668 32.043 42.7578 32.0527 42.8594 32.0723C42.9609 32.0879 43.0312 32.1055 43.0703 32.125ZM45.959 37.8438L47.7227 32.1602H48.8828L46.3398 39.4785C46.2812 39.6348 46.2031 39.8027 46.1055 39.9824C46.0117 40.166 45.8906 40.3398 45.7422 40.5039C45.5938 40.668 45.4141 40.8008 45.2031 40.9023C44.9961 41.0078 44.748 41.0605 44.459 41.0605C44.373 41.0605 44.2637 41.0488 44.1309 41.0254C43.998 41.002 43.9043 40.9824 43.8496 40.9668L43.8438 40.0879C43.875 40.0918 43.9238 40.0957 43.9902 40.0996C44.0605 40.1074 44.1094 40.1113 44.1367 40.1113C44.3828 40.1113 44.5918 40.0781 44.7637 40.0117C44.9355 39.9492 45.0801 39.8418 45.1973 39.6895C45.3184 39.541 45.4219 39.3359 45.5078 39.0742L45.959 37.8438ZM44.6641 32.1602L46.3105 37.082L46.5918 38.2246L45.8125 38.623L43.4805 32.1602H44.6641Z" fill="#777E99"/>
    <g clip-path="url(#clip0_390_11049)">
        <path d="M22.9672 0.598436C22.7516 0.734375 22.625 1.02969 22.625 1.38125V1.66719L19.7797 1.68125C16.9953 1.69531 16.925 1.69531 16.7141 1.79375C16.4047 1.93906 16.1797 2.15937 16.0297 2.45937L15.8984 2.72656L15.8844 13.0156C15.875 22.0531 15.8844 23.3328 15.9453 23.5437C16.0344 23.8578 16.3766 24.2422 16.6953 24.3875C16.925 24.4953 16.9531 24.5 18.5094 24.5H20.0891L20.1828 24.3781C20.3047 24.2188 20.3094 24.0781 20.1875 23.9234L20.0938 23.8016L18.5938 23.7875C17.1641 23.7734 17.0938 23.7687 16.9672 23.675C16.8969 23.6234 16.7891 23.5062 16.7328 23.4219L16.625 23.2672V13.1141C16.625 3.31719 16.6297 2.95156 16.7141 2.79688C16.7609 2.70781 16.8828 2.58594 16.9813 2.52969L17.1641 2.42188H19.8969H22.625V2.86719V3.30781L20.3656 3.32187C17.8531 3.33594 17.9234 3.32656 17.6938 3.65L17.5859 3.80469L17.5719 13.0672L17.5625 22.3297L17.6703 22.4891C17.7266 22.5734 17.8484 22.6953 17.9328 22.7516L18.0922 22.8594H24.5H30.9078L31.0672 22.7516C31.1516 22.6953 31.2734 22.5734 31.3297 22.4891L31.4375 22.3297V14.8906V7.45156L31.3297 7.35312C31.1938 7.22656 30.9688 7.22187 30.8234 7.33906L30.7109 7.42812L30.6969 14.7687L30.6875 22.1094H24.5H18.3125V13.0859V4.0625H20.4641H22.6109L22.6344 4.43281C22.6531 4.75156 22.6766 4.83125 22.7891 4.97656C23.0094 5.26719 23.0797 5.28125 24.5 5.28125C25.9203 5.28125 25.9906 5.26719 26.2109 4.97656C26.3234 4.83125 26.3469 4.75156 26.3656 4.43281L26.3891 4.0625H28.5359H30.6828L30.6969 5.12187C30.7109 6.17188 30.7109 6.18125 30.8234 6.27031C30.9781 6.39687 31.2078 6.3875 31.3391 6.24687C31.4422 6.13906 31.4422 6.12031 31.4281 4.97187C31.4141 3.8375 31.4094 3.8 31.3063 3.65C31.0766 3.32656 31.1469 3.33594 28.6391 3.32187L26.375 3.30781V2.8625V2.42188L29.1547 2.43125L31.9297 2.44531L32.075 2.54844C32.3984 2.78281 32.375 1.88281 32.375 13.1234V23.2672L32.2719 23.4219C32.2109 23.5062 32.1031 23.6234 32.0328 23.675C31.9016 23.7734 31.8875 23.7734 26.6094 23.7969C21.3875 23.8203 21.3172 23.8203 21.2469 23.9141C21.1438 24.05 21.1531 24.275 21.2656 24.3969L21.3641 24.5H26.7172H32.0703L32.3047 24.3875C32.6234 24.2422 32.9656 23.8578 33.0547 23.5437C33.1156 23.3328 33.125 22.0531 33.1156 13.0156L33.1016 2.72656L33.0031 2.51094C32.8578 2.20156 32.6375 1.97656 32.3375 1.82656L32.0703 1.69531L29.225 1.68125L26.375 1.66719V1.38125C26.375 1.025 26.2438 0.729687 26.0281 0.59375C25.8781 0.504686 25.7984 0.5 24.4953 0.5C23.1875 0.5 23.1078 0.504686 22.9672 0.598436ZM25.625 2.86719V4.53125H24.5H23.375V2.86719V1.20312H24.5H25.625V2.86719Z" fill="#777E99"/>
        <path d="M19.5875 6.70168C19.3625 6.94074 19.5078 7.28293 19.8453 7.32981L20.0422 7.35324L20.0563 8.31418C20.0703 9.25637 20.0703 9.27512 20.1828 9.36418C20.3234 9.48137 20.5203 9.47668 20.675 9.35481L20.7969 9.26106V8.30012V7.34387H20.9375C21.2469 7.34387 21.4484 7.12356 21.3781 6.85637C21.3219 6.62199 21.2188 6.59387 20.4219 6.59387C19.7141 6.59387 19.6859 6.59856 19.5875 6.70168Z" fill="#777E99"/>
        <path d="M22.7234 6.67344C22.6156 6.76719 21.7812 8.91406 21.7812 9.10625C21.7812 9.26094 21.9781 9.45312 22.1328 9.45312C22.3297 9.45312 22.4375 9.36875 22.5312 9.14375L22.6203 8.9375H22.9953H23.3656L23.4359 9.12031C23.4781 9.22344 23.5578 9.33594 23.6188 9.37812C23.8391 9.53281 24.1297 9.425 24.1953 9.1625C24.2328 9.02187 23.4172 6.85625 23.2719 6.70156C23.15 6.57031 22.8688 6.55625 22.7234 6.67344ZM23.0234 8.17812C22.9203 8.20156 22.8969 8.17344 22.9344 8.07031C22.9672 7.99062 22.9719 7.99062 23.0328 8.075C23.0891 8.15469 23.0891 8.16406 23.0234 8.17812Z" fill="#777E99"/>
        <path d="M25.4938 6.65937C25.1234 6.79062 24.8797 7.20312 24.9453 7.58749C24.9969 7.88281 25.2172 8.08906 25.6906 8.27656C26.1641 8.46874 26.2531 8.53906 26.1172 8.64218C25.9859 8.74062 25.7047 8.68906 25.4984 8.53437C25.1703 8.28593 24.8281 8.41249 24.8281 8.78281C24.8281 9.19999 25.7094 9.58437 26.2625 9.40624C26.6609 9.27968 26.9375 8.93749 26.9375 8.56718C26.9375 8.09843 26.6891 7.84062 25.9766 7.57343C25.8313 7.51718 25.7234 7.45156 25.7328 7.42343C25.7609 7.32968 25.9859 7.33437 26.1828 7.43281C26.4266 7.55937 26.6609 7.55937 26.7734 7.43749C26.9 7.29687 26.8859 7.04374 26.75 6.89843C26.5109 6.64531 25.8688 6.51874 25.4938 6.65937Z" fill="#777E99"/>
        <path d="M27.6828 6.68289L27.5703 6.77195V8.02351V9.27507L27.6828 9.36414C27.8234 9.48132 28.0203 9.47664 28.175 9.35476C28.2781 9.27507 28.2969 9.22351 28.2969 9.02195V8.78289L28.6438 9.1157C29.0281 9.4907 29.1641 9.53289 29.3938 9.35476C29.4875 9.28445 29.5156 9.21882 29.5156 9.08757C29.5156 8.9282 29.4734 8.86726 29.0422 8.44539L28.5734 7.97664L29.0047 7.57351C29.3984 7.2032 29.4406 7.15164 29.4406 6.99695C29.4406 6.77195 29.2953 6.62195 29.0797 6.62195C28.9531 6.62195 28.8594 6.67351 28.6203 6.88914L28.3203 7.15632L28.3063 6.9782C28.2781 6.63601 27.9359 6.47664 27.6828 6.68289Z" fill="#777E99"/>
        <path d="M20.3844 10.2546C20.1219 10.3062 19.9062 10.4421 19.6812 10.6952C19.4656 10.939 19.3906 11.164 19.3906 11.5718C19.3906 12.2327 19.8781 12.753 20.5578 12.814C21.1062 12.8655 21.5656 12.6124 21.8234 12.1202C21.9687 11.839 21.9781 11.7968 21.9594 11.4687C21.9359 11.0702 21.8328 10.8265 21.5844 10.5921C21.2937 10.3108 20.7969 10.1702 20.3844 10.2546ZM20.8578 11.0187C21.0687 11.1077 21.1766 11.2437 21.2047 11.4593C21.2375 11.6937 21.1203 11.9046 20.9094 12.0077C20.7219 12.0968 20.5953 12.0968 20.4266 12.0124C20.0187 11.7968 20.0516 11.2108 20.4875 11.0187C20.6703 10.939 20.675 10.939 20.8578 11.0187Z" fill="#777E99"/>
        <path d="M23.0281 10.4891C22.9344 10.5641 22.9062 10.625 22.9062 10.7656C22.9062 10.9062 22.9344 10.9672 23.0281 11.0422C23.15 11.1406 23.1875 11.1406 26.2766 11.1406C29.3609 11.1406 29.4078 11.1406 29.5062 11.0469C29.6609 10.9016 29.6469 10.6156 29.4875 10.4891C29.3656 10.3906 29.3281 10.3906 26.2578 10.3906C23.1875 10.3906 23.15 10.3906 23.0281 10.4891Z" fill="#777E99"/>
        <path d="M23.1125 11.9563C22.8875 12.0594 22.8266 12.3734 23 12.5469C23.0891 12.6359 23.1547 12.6406 25.4047 12.6406C27.6781 12.6406 27.7203 12.6406 27.8047 12.5469C27.9266 12.4109 27.9219 12.1484 27.7906 12.0172L27.6828 11.9141L25.4703 11.9C23.6516 11.8906 23.2297 11.9 23.1125 11.9563Z" fill="#777E99"/>
        <path d="M20.1406 14.328C19.6578 14.553 19.3906 14.9796 19.3906 15.5233C19.3953 16.2499 19.8547 16.7515 20.5672 16.803C20.9844 16.8311 21.3125 16.7233 21.5656 16.4655C21.8234 16.2124 21.9359 15.964 21.9594 15.6077C21.9969 15.0874 21.7672 14.6468 21.3266 14.389C21.0266 14.2155 20.45 14.1827 20.1406 14.328ZM20.9375 15.0546C21.0125 15.0968 21.1063 15.1905 21.1484 15.2655C21.3453 15.6499 21.0828 16.0624 20.6281 16.0624C20.4969 16.0624 20.4219 16.0249 20.3 15.903C20.1641 15.7671 20.1406 15.7108 20.1406 15.5233C20.1406 15.3358 20.1641 15.2796 20.3 15.1436C20.4828 14.9608 20.7031 14.9327 20.9375 15.0546Z" fill="#777E99"/>
        <path d="M23.1078 14.4219C22.8875 14.5109 22.8359 14.8531 23.0141 15.0219L23.1219 15.125H26.2719C29.3609 15.125 29.4219 15.125 29.5156 15.0312C29.6469 14.9 29.6422 14.6094 29.5109 14.4875C29.4172 14.4031 29.2859 14.3984 26.3094 14.3891C24.5797 14.3844 23.1641 14.3984 23.1078 14.4219Z" fill="#777E99"/>
        <path d="M23 16.0156C22.8781 16.1375 22.8781 16.3906 22.9953 16.5359L23.0844 16.6484L25.3578 16.6625L27.6313 16.6765L27.7625 16.564C27.9313 16.4187 27.9406 16.1328 27.7813 16.0062C27.6828 15.9265 27.5141 15.9218 25.3859 15.9218C23.1547 15.9218 23.0891 15.9265 23 16.0156Z" fill="#777E99"/>
        <path d="M20.2063 18.2938C19.7234 18.472 19.3906 18.9548 19.3906 19.4751C19.3906 19.9345 19.4656 20.1266 19.7656 20.4266C19.9578 20.6188 20.0797 20.7032 20.2578 20.7501C21.1953 21.0126 22.0344 20.3563 21.9594 19.4188C21.9219 18.9454 21.6641 18.5657 21.2469 18.3501C20.9984 18.2235 20.4734 18.1907 20.2063 18.2938ZM20.9375 19.0438C21.2188 19.2126 21.2938 19.5454 21.1109 19.8173C20.8203 20.2485 20.1406 20.047 20.1406 19.5266C20.1406 19.2876 20.2016 19.1751 20.3891 19.0626C20.5719 18.9501 20.7641 18.9454 20.9375 19.0438Z" fill="#777E99"/>
        <path d="M23 18.5C22.8781 18.6219 22.8734 18.889 22.9953 19.0109C23.0469 19.0625 23.1594 19.1187 23.2438 19.1328C23.3281 19.1469 24.7531 19.1562 26.4031 19.1469C29.2859 19.1328 29.4172 19.1281 29.5109 19.0437C29.6422 18.9219 29.6469 18.6312 29.5156 18.5C29.4219 18.4062 29.3609 18.4062 26.2578 18.4062C23.1547 18.4062 23.0938 18.4062 23 18.5Z" fill="#777E99"/>
        <path d="M23.0281 20.0047C22.9344 20.0797 22.9062 20.1406 22.9062 20.2812C22.9062 20.4219 22.9344 20.4828 23.0281 20.5578C23.15 20.6562 23.1969 20.6562 25.4563 20.6562C27.7109 20.6562 27.7672 20.6562 27.8656 20.5625C27.9219 20.5109 27.9781 20.4172 27.9969 20.3562C28.0297 20.225 27.9125 19.9766 27.8047 19.9344C27.7625 19.9203 26.6984 19.9062 25.4422 19.9062C23.1969 19.9062 23.15 19.9062 23.0281 20.0047Z" fill="#777E99"/>
    </g>
    <defs>
        <clipPath id="clip0_390_11049">
            <rect width="24" height="24" fill="white" transform="translate(12.5 0.5)"/>
        </clipPath>
    </defs>
</svg>
