<svg width="17" height="17" viewBox="0 0 17 17" fill="none" xmlns="http://www.w3.org/2000/svg">
    <path d="M8.49999 0.583252C12.8724 0.583252 16.4167 4.12754 16.4167 8.49992C16.4167 12.8723 12.8724 16.4166 8.49999 16.4166C4.12762 16.4166 0.583328 12.8723 0.583328 8.49992C0.583328 4.12754 4.12762 0.583252 8.49999 0.583252ZM8.49999 2.16659C6.82029 2.16659 5.20938 2.83385 4.02165 4.02158C2.83392 5.20931 2.16666 6.82021 2.16666 8.49992C2.16666 10.1796 2.83392 11.7905 4.02165 12.9783C5.20938 14.166 6.82029 14.8333 8.49999 14.8333C10.1797 14.8333 11.7906 14.166 12.9783 12.9783C14.1661 11.7905 14.8333 10.1796 14.8333 8.49992C14.8333 6.82021 14.1661 5.20931 12.9783 4.02158C11.7906 2.83385 10.1797 2.16659 8.49999 2.16659ZM8.49999 3.74992C8.6939 3.74994 8.88105 3.82113 9.02596 3.94998C9.17086 4.07884 9.26343 4.25639 9.28612 4.44896L9.29166 4.54158V8.17217L11.4347 10.3152C11.5767 10.4577 11.6591 10.6488 11.6653 10.8499C11.6714 11.0509 11.6008 11.2468 11.4678 11.3976C11.3347 11.5485 11.1493 11.6431 10.949 11.6622C10.7488 11.6812 10.5488 11.6234 10.3897 11.5003L10.3153 11.4346L7.94029 9.05963C7.81725 8.93648 7.73822 8.77621 7.71545 8.60363L7.70833 8.49992V4.54158C7.70833 4.33162 7.79174 4.13026 7.9402 3.98179C8.08867 3.83333 8.29003 3.74992 8.49999 3.74992Z" fill="white" fill-opacity="0.3"/>
</svg>
