<svg width="328" height="58" viewBox="0 0 328 58" fill="none" xmlns="http://www.w3.org/2000/svg">
    <g clip-path="url(#clip0_211_4258)">
        <g clip-path="url(#clip1_211_4258)">
            <rect width="328" height="58" rx="10" fill="#5A90CE"/>
            <path d="M140.774 30.7256H142.654C142.604 31.391 142.42 31.9811 142.101 32.4961C141.782 33.0065 141.337 33.4076 140.768 33.6992C140.198 33.9909 139.507 34.1367 138.696 34.1367C138.072 34.1367 137.509 34.0273 137.008 33.8086C136.511 33.5853 136.085 33.2686 135.729 32.8584C135.379 32.4437 135.11 31.9469 134.923 31.3682C134.736 30.7848 134.643 30.1309 134.643 29.4062V28.6475C134.643 27.9229 134.738 27.2689 134.93 26.6855C135.121 26.1022 135.395 25.6055 135.75 25.1953C136.11 24.7806 136.541 24.4616 137.042 24.2383C137.548 24.015 138.113 23.9033 138.737 23.9033C139.549 23.9033 140.234 24.0537 140.795 24.3545C141.355 24.6507 141.791 25.0586 142.101 25.5781C142.41 26.0977 142.597 26.6947 142.661 27.3691H140.781C140.745 26.9499 140.654 26.5944 140.508 26.3027C140.367 26.0111 140.152 25.79 139.865 25.6396C139.583 25.4847 139.207 25.4072 138.737 25.4072C138.373 25.4072 138.051 25.4756 137.773 25.6123C137.5 25.749 137.272 25.9541 137.09 26.2275C136.908 26.4964 136.771 26.8337 136.68 27.2393C136.589 27.6403 136.543 28.1051 136.543 28.6338V29.4062C136.543 29.9121 136.584 30.3656 136.666 30.7666C136.748 31.1676 136.876 31.5072 137.049 31.7852C137.222 32.0632 137.445 32.2751 137.719 32.4209C137.992 32.5667 138.318 32.6396 138.696 32.6396C139.157 32.6396 139.53 32.5667 139.817 32.4209C140.109 32.2751 140.33 32.0609 140.48 31.7783C140.635 31.4958 140.733 31.1449 140.774 30.7256ZM145.778 28.1143V34H143.974V26.6035H145.683L145.778 28.1143ZM148.027 26.5557L148 28.2373C147.9 28.2191 147.786 28.2054 147.658 28.1963C147.535 28.1872 147.419 28.1826 147.31 28.1826C147.032 28.1826 146.788 28.2214 146.578 28.2988C146.368 28.3717 146.193 28.4788 146.052 28.6201C145.915 28.7614 145.81 28.9346 145.737 29.1396C145.664 29.3402 145.623 29.568 145.614 29.8232L145.225 29.7754C145.225 29.306 145.272 28.8708 145.368 28.4697C145.464 28.0687 145.603 27.7178 145.785 27.417C145.967 27.1162 146.195 26.8838 146.469 26.7197C146.747 26.5511 147.066 26.4668 147.426 26.4668C147.526 26.4668 147.633 26.4759 147.747 26.4941C147.866 26.5078 147.959 26.5283 148.027 26.5557ZM152.204 34.1367C151.644 34.1367 151.14 34.0456 150.693 33.8633C150.247 33.681 149.866 33.4281 149.552 33.1045C149.242 32.7764 149.003 32.3958 148.834 31.9629C148.67 31.5254 148.588 31.056 148.588 30.5547V30.2812C148.588 29.7116 148.67 29.1943 148.834 28.7295C148.998 28.2601 149.23 27.8568 149.531 27.5195C149.832 27.1823 150.192 26.9225 150.611 26.7402C151.031 26.5579 151.493 26.4668 151.999 26.4668C152.523 26.4668 152.986 26.5557 153.387 26.7334C153.788 26.9066 154.123 27.1527 154.392 27.4717C154.66 27.7907 154.863 28.1735 155 28.6201C155.137 29.0622 155.205 29.5521 155.205 30.0898V30.8486H149.408V29.6045H153.428V29.4678C153.419 29.1807 153.364 28.9186 153.264 28.6816C153.163 28.4401 153.008 28.2487 152.799 28.1074C152.589 27.9616 152.318 27.8887 151.985 27.8887C151.716 27.8887 151.482 27.9479 151.281 28.0664C151.085 28.1803 150.921 28.3444 150.789 28.5586C150.661 28.7682 150.566 29.0189 150.502 29.3105C150.438 29.6022 150.406 29.9258 150.406 30.2812V30.5547C150.406 30.8646 150.447 31.1517 150.529 31.416C150.616 31.6803 150.741 31.9105 150.905 32.1064C151.074 32.2979 151.274 32.4482 151.507 32.5576C151.744 32.6624 152.013 32.7148 152.313 32.7148C152.692 32.7148 153.034 32.6419 153.339 32.4961C153.649 32.3457 153.918 32.1247 154.146 31.833L155.055 32.7764C154.9 33.0042 154.69 33.223 154.426 33.4326C154.166 33.6423 153.852 33.8132 153.482 33.9453C153.113 34.0729 152.687 34.1367 152.204 34.1367ZM160.489 32.4277V29.0166C160.489 28.766 160.446 28.5495 160.359 28.3672C160.273 28.1849 160.141 28.0436 159.963 27.9434C159.785 27.8431 159.56 27.793 159.286 27.793C159.045 27.793 158.833 27.834 158.65 27.916C158.473 27.998 158.336 28.1143 158.24 28.2646C158.145 28.4105 158.097 28.5791 158.097 28.7705H156.285C156.285 28.4652 156.358 28.1758 156.504 27.9023C156.65 27.6243 156.857 27.3783 157.126 27.1641C157.399 26.9453 157.725 26.7744 158.104 26.6514C158.486 26.5283 158.915 26.4668 159.389 26.4668C159.949 26.4668 160.448 26.5625 160.886 26.7539C161.328 26.9408 161.674 27.2233 161.925 27.6016C162.18 27.9798 162.308 28.4561 162.308 29.0303V32.2568C162.308 32.626 162.33 32.9427 162.376 33.207C162.426 33.4668 162.499 33.6924 162.595 33.8838V34H160.756C160.669 33.8132 160.603 33.5762 160.558 33.2891C160.512 32.9974 160.489 32.7103 160.489 32.4277ZM160.742 29.4951L160.756 30.5684H159.614C159.332 30.5684 159.083 30.598 158.869 30.6572C158.655 30.7119 158.479 30.7939 158.343 30.9033C158.206 31.0081 158.104 31.1357 158.035 31.2861C157.967 31.432 157.933 31.5983 157.933 31.7852C157.933 31.9674 157.974 32.1315 158.056 32.2773C158.142 32.4232 158.265 32.5394 158.425 32.626C158.589 32.708 158.78 32.749 158.999 32.749C159.318 32.749 159.596 32.6852 159.833 32.5576C160.07 32.4255 160.255 32.266 160.387 32.0791C160.519 31.8923 160.59 31.7145 160.599 31.5459L161.118 32.3252C161.054 32.512 160.959 32.7103 160.831 32.9199C160.703 33.1296 160.539 33.3255 160.339 33.5078C160.138 33.6901 159.897 33.8405 159.614 33.959C159.332 34.0775 159.004 34.1367 158.63 34.1367C158.151 34.1367 157.723 34.041 157.345 33.8496C156.966 33.6582 156.668 33.3962 156.449 33.0635C156.23 32.7308 156.121 32.3525 156.121 31.9287C156.121 31.5368 156.194 31.1904 156.34 30.8896C156.486 30.5889 156.702 30.3359 156.989 30.1309C157.276 29.9212 157.632 29.764 158.056 29.6592C158.484 29.5498 158.974 29.4951 159.525 29.4951H160.742ZM167.435 26.6035V27.9023H163.196V26.6035H167.435ZM164.331 24.7852H166.143V31.8672C166.143 32.0859 166.172 32.2546 166.231 32.373C166.291 32.4915 166.38 32.5713 166.498 32.6123C166.617 32.6533 166.758 32.6738 166.922 32.6738C167.04 32.6738 167.15 32.667 167.25 32.6533C167.35 32.6396 167.435 32.626 167.503 32.6123L167.51 33.9658C167.359 34.016 167.188 34.057 166.997 34.0889C166.81 34.1208 166.598 34.1367 166.361 34.1367C165.956 34.1367 165.6 34.0684 165.295 33.9316C164.99 33.7904 164.753 33.5648 164.584 33.2549C164.415 32.9404 164.331 32.5257 164.331 32.0107V24.7852ZM170.552 26.6035V34H168.74V26.6035H170.552ZM168.617 24.6689C168.617 24.4001 168.708 24.1768 168.891 23.999C169.077 23.8213 169.328 23.7324 169.643 23.7324C169.957 23.7324 170.205 23.8213 170.388 23.999C170.575 24.1768 170.668 24.4001 170.668 24.6689C170.668 24.9333 170.575 25.1543 170.388 25.332C170.205 25.5098 169.957 25.5986 169.643 25.5986C169.328 25.5986 169.077 25.5098 168.891 25.332C168.708 25.1543 168.617 24.9333 168.617 24.6689ZM174.729 32.6328L176.451 26.6035H178.338L175.802 34H174.653L174.729 32.6328ZM173.471 26.6035L175.214 32.6465L175.275 34H174.12L171.577 26.6035H173.471ZM181.202 26.6035V34H179.391V26.6035H181.202ZM179.268 24.6689C179.268 24.4001 179.359 24.1768 179.541 23.999C179.728 23.8213 179.979 23.7324 180.293 23.7324C180.607 23.7324 180.856 23.8213 181.038 23.999C181.225 24.1768 181.318 24.4001 181.318 24.6689C181.318 24.9333 181.225 25.1543 181.038 25.332C180.856 25.5098 180.607 25.5986 180.293 25.5986C179.979 25.5986 179.728 25.5098 179.541 25.332C179.359 25.1543 179.268 24.9333 179.268 24.6689ZM186.425 26.6035V27.9023H182.187V26.6035H186.425ZM183.321 24.7852H185.133V31.8672C185.133 32.0859 185.162 32.2546 185.222 32.373C185.281 32.4915 185.37 32.5713 185.488 32.6123C185.607 32.6533 185.748 32.6738 185.912 32.6738C186.031 32.6738 186.14 32.667 186.24 32.6533C186.34 32.6396 186.425 32.626 186.493 32.6123L186.5 33.9658C186.35 34.016 186.179 34.057 185.987 34.0889C185.8 34.1208 185.589 34.1367 185.352 34.1367C184.946 34.1367 184.59 34.0684 184.285 33.9316C183.98 33.7904 183.743 33.5648 183.574 33.2549C183.406 32.9404 183.321 32.5257 183.321 32.0107V24.7852ZM189.795 33.1797L191.777 26.6035H193.712L190.745 35.1211C190.677 35.3034 190.588 35.5016 190.479 35.7158C190.374 35.93 190.232 36.1328 190.055 36.3242C189.877 36.5202 189.654 36.6797 189.385 36.8027C189.12 36.9258 188.799 36.9873 188.421 36.9873C188.257 36.9873 188.111 36.9759 187.983 36.9531C187.856 36.9303 187.721 36.9007 187.58 36.8643V35.5107C187.626 35.5153 187.678 35.5176 187.737 35.5176C187.801 35.5221 187.856 35.5244 187.901 35.5244C188.166 35.5244 188.384 35.4925 188.558 35.4287C188.731 35.3695 188.87 35.2715 188.975 35.1348C189.084 35.0026 189.175 34.8294 189.248 34.6152L189.795 33.1797ZM188.817 26.6035L190.492 32.0518L190.786 33.959L189.542 34.1846L186.869 26.6035H188.817Z" fill="white"/>
            <path d="M47.9442 14.1117C47.1394 14.3735 46.4897 14.7904 45.7237 15.5273L44.9383 16.2933L48.3126 19.6677L51.687 23.042L52.4627 22.2372C53.0445 21.636 53.3353 21.2482 53.5971 20.6858C53.9268 19.9973 53.9559 19.8616 53.985 18.9017C54.0238 18.0387 53.9947 17.7672 53.8105 17.2339C53.3741 15.9055 52.5596 14.9843 51.2894 14.3832C50.601 14.0535 50.4943 14.0341 49.4471 14.005C48.7102 13.9856 48.1963 14.0244 47.9442 14.1117Z" fill="#3B6DA7"/>
            <path d="M16.6251 17.2629C15.0155 17.7283 13.5707 18.8919 12.8241 20.3269C12.2714 21.3935 12.1163 22.0723 12.126 23.3425C12.1357 24.7 12.1841 24.8745 12.5526 24.9133C14.327 25.0878 15.956 26.4259 16.4893 28.1422C16.5863 28.4621 16.6735 28.8985 16.6735 29.1118V29.4899H15.9463H15.2191V29.1506C15.2191 28.5688 14.8506 27.7737 14.3464 27.2598C13.1441 26.0671 11.0884 26.0671 9.8861 27.2598C8.34439 28.8112 8.89708 31.6425 10.9042 32.3892C11.4375 32.5928 11.5248 32.5928 22.5689 32.5928C33.1961 32.5928 33.71 32.5831 34.0784 32.4085C34.922 32.0207 35.3874 31.245 35.3874 30.2463C35.3777 29.2572 34.8638 28.4427 34.0106 28.0937C33.5064 27.8804 32.527 27.8998 32.0422 28.1228C31.3247 28.4621 30.7332 29.2863 30.7332 29.9748V30.2657H29.9963H29.2497L29.3078 29.7227C29.4048 28.7433 30.1029 27.6476 30.9659 27.1047C31.4604 26.7944 31.5089 26.6489 31.5089 25.5145C31.5089 23.8564 30.6362 22.3631 29.1818 21.5196C27.8437 20.7439 25.7493 20.7633 24.4306 21.5681C23.9167 21.8783 23.2089 22.5668 22.8889 23.071C22.6174 23.4976 22.2004 24.5836 22.2004 24.8551C22.2004 24.923 22.4235 25.0878 22.695 25.2042C23.6258 25.6308 24.4306 26.7362 24.4306 27.5701V27.9385H23.7034H22.9761V27.667C22.9761 26.9689 22.2683 26.3871 21.4247 26.3871C20.5812 26.3871 19.8733 26.9689 19.8733 27.667V27.9385H19.1461H18.4189V27.5701C18.4189 26.7071 19.3594 25.4757 20.2515 25.1654L20.7072 25.0005L20.872 24.283C21.066 23.4007 21.4829 22.5377 22.055 21.8008C22.4428 21.3062 23.2089 20.6275 23.6355 20.3851C23.7906 20.2978 23.7809 20.259 23.6064 19.9197C23.4997 19.7257 23.1022 19.2506 22.724 18.8725C21.9483 18.0871 20.8526 17.4568 19.8636 17.2241C19.02 17.0302 17.3717 17.0496 16.6251 17.2629Z" fill="#3B6DA7"/>
            <path d="M43.2415 17.9999L42.6112 18.6302L45.9855 22.0045L49.3502 25.3691L49.9998 24.7098L50.6592 24.0601L47.3139 20.7149C45.4716 18.8726 43.9493 17.3697 43.9202 17.3697C43.8911 17.3697 43.5808 17.6509 43.2415 17.9999Z" fill="#3B6DA7"/>
            <path d="M39.4599 21.7813C38.3157 22.9255 37.4043 23.8758 37.4237 23.8951C37.4528 23.9048 37.8406 24.1376 38.2963 24.3897C38.7521 24.6515 39.4405 25.1072 39.8284 25.4078C40.2259 25.7084 40.6041 25.9896 40.6816 26.0477C40.7883 26.1253 41.2246 25.7374 42.6306 24.3315L44.4535 22.5086L43.0475 21.1026C42.2718 20.3269 41.6222 19.6966 41.5931 19.6966C41.564 19.6966 40.6041 20.6372 39.4599 21.7813Z" fill="#3B6DA7"/>
            <path d="M43.639 25.3592C42.4852 26.5228 41.8743 27.1918 41.9228 27.2791C41.9519 27.347 42.2137 27.7057 42.4949 28.0645C42.9506 28.6366 43.9202 30.1589 44.0463 30.4886C44.0754 30.5565 45.045 29.6547 46.2085 28.5008L48.332 26.387L46.9261 24.9811C46.1504 24.2054 45.5007 23.5751 45.4716 23.5751C45.4425 23.5751 44.6183 24.3799 43.639 25.3592Z" fill="#3B6DA7"/>
            <path d="M32.8955 24.419C32.9343 24.6226 32.9634 25.1656 32.9634 25.6214V26.4552L33.5354 26.5134C34.7378 26.6201 35.9886 27.5315 36.5316 28.6854C36.7643 29.1896 36.7934 29.3641 36.7934 30.2659C36.7934 31.1677 36.7643 31.3422 36.5316 31.8464C36.2019 32.5445 35.3584 33.3978 34.6796 33.7081C33.9621 34.0378 33.0991 34.1444 31.0047 34.1444H29.1818V35.4825C29.1818 36.4812 29.2206 36.8691 29.3175 37.0145C29.4533 37.1891 29.6375 37.1988 33.0312 37.2472C36.9776 37.3054 37.0261 37.3151 37.7049 37.9551C38.626 38.8277 38.626 40.321 37.7049 41.1937C37.0067 41.853 37.0649 41.8433 32.2555 41.9015C28.0958 41.95 27.9019 41.9597 27.7661 42.1342C27.5722 42.4057 27.5916 43.0263 27.8146 43.2493C27.9601 43.3947 28.1928 43.4335 29.1915 43.4723C30.549 43.5208 31.0532 43.6856 31.5768 44.2383C32.1683 44.8686 32.2264 45.1207 32.2652 47.4963L32.304 49.6585H33.7197C34.5051 49.6585 35.3002 49.6876 35.4941 49.7167L35.8529 49.7749L36.2989 48.9216C36.9583 47.6417 37.5497 46.9145 39.7508 44.6649C42.3688 41.9888 43.0475 41.0288 43.5905 39.2156C43.8039 38.5078 43.8523 38.1102 43.8911 36.8885C43.9202 35.9867 43.9008 35.1044 43.8233 34.6195C43.0863 29.5678 39.0139 25.2723 34.0591 24.293C33.6421 24.2154 33.1961 24.1281 33.07 24.099C32.847 24.0505 32.847 24.0699 32.8955 24.419Z" fill="#3B6DA7"/>
            <path d="M19.2237 34.4062C19.1752 34.5614 19.1461 35.5019 19.1558 36.52C19.1558 38.2363 19.1752 38.4205 19.4176 39.2156C19.98 41.0482 20.6587 42.0081 23.2185 44.6165C25.313 46.7496 26.1662 47.7969 26.7771 49.0089L27.1553 49.7749L27.514 49.7167C27.7079 49.6876 28.5127 49.6585 29.3078 49.6585H30.7332V47.5254C30.7332 44.8686 30.8399 45.0528 29.1721 44.9849C27.834 44.9267 27.3977 44.8007 26.8644 44.2965C25.9723 43.4529 25.9335 42.0275 26.7868 41.1452C26.9613 40.9609 27.2716 40.7282 27.4849 40.6119C27.8631 40.4082 27.9988 40.3986 32.2652 40.3501C36.4734 40.3016 36.6674 40.2919 36.8031 40.1174C36.9776 39.875 36.9776 39.2738 36.8031 39.0314C36.6674 38.8568 36.4831 38.8471 33.0894 38.7987C29.143 38.7405 29.0945 38.7308 28.4158 38.0908C27.834 37.5381 27.6983 37.0824 27.6498 35.5213L27.6013 34.1444H23.4513H19.2915L19.2237 34.4062Z" fill="#3B6DA7"/>
            <path d="M45.2874 38.1389C45.1904 38.8758 44.8026 40.2624 44.4632 41.0381C44.405 41.1738 44.502 41.2029 45.1516 41.2417C46.8097 41.3484 48.2739 42.2404 49.2435 43.7434C49.8156 44.6257 49.9804 45.256 49.9804 46.5553C49.9804 47.8546 49.8156 48.4849 49.2435 49.3672C48.5551 50.4435 47.4885 51.2871 46.3831 51.6556C45.5783 51.9174 43.8136 51.9174 42.9991 51.6459C41.3895 51.1223 40.0417 49.6969 39.5472 48.0097C39.4308 47.5831 39.2951 47.234 39.2563 47.234C39.0817 47.234 37.9667 48.8048 37.5594 49.6096L37.1328 50.4823L37.3752 50.9671C37.5788 51.355 37.6273 51.5683 37.6079 52.0628L37.5885 52.6737L38.1218 53.2167L38.6648 53.7597L39.0333 53.4591C40.1193 52.5864 41.7773 52.664 42.8827 53.6239C43.3287 54.0215 43.8232 55.0008 43.8232 55.4953V55.8638H44.6959H45.5686V55.4953C45.5686 55.2723 45.6849 54.8747 45.8595 54.5257C46.3637 53.5173 47.1976 52.9549 48.303 52.8773C49.1271 52.8191 49.7283 52.984 50.3004 53.4203L50.7367 53.75L51.3088 53.1682L51.8906 52.5961L51.5609 52.1598C50.7367 51.0738 50.824 49.4448 51.7645 48.3685C52.1427 47.9516 52.9281 47.5249 53.5002 47.4377L53.9559 47.3795V46.5553V45.7311L53.5002 45.6729C52.1621 45.479 51.1149 44.3348 51.0179 42.9483C50.9597 42.1241 51.1246 41.5229 51.5609 40.9508L51.8906 40.5145L51.3088 39.9424L50.7367 39.3606L50.3004 39.6903C49.2144 40.5242 47.5854 40.4272 46.4994 39.4673C46.0631 39.0891 45.5686 38.1098 45.5686 37.6153C45.5686 36.9365 45.4134 37.2371 45.2874 38.1389Z" fill="#3B6DA7"/>
            <path d="M16.0917 45.1495L13.1344 48.1069L14.5694 49.5322L15.9948 50.9673L18.8746 48.0875L21.7447 45.2174L20.9399 44.335C20.1351 43.4623 19.2915 42.4054 19.2915 42.26C19.2915 42.0079 18.7292 42.5121 16.0917 45.1495Z" fill="#3B6DA7"/>
            <path d="M43.5808 42.8032C43.4257 42.8808 43.096 43.1717 42.8536 43.4626C42.6112 43.7535 42.0488 44.374 41.6028 44.8394L40.798 45.6927L40.8368 46.6817C40.8659 47.535 40.9047 47.758 41.1568 48.2526C41.5155 48.9992 42.2524 49.7361 42.9991 50.1045C43.5421 50.3663 43.6584 50.3857 44.6959 50.3857C45.7334 50.3857 45.8498 50.3663 46.3928 50.1045C47.1394 49.7361 47.8763 48.9992 48.2448 48.2526C48.5066 47.7096 48.526 47.5932 48.526 46.5557C48.526 45.5182 48.5066 45.4018 48.2448 44.8588C47.8763 44.1122 47.1394 43.3753 46.3928 43.0165C45.8886 42.7644 45.6849 42.7256 44.8414 42.6966C44.1723 42.6869 43.7845 42.7159 43.5808 42.8032ZM45.5492 44.4807C47.0327 45.0915 47.4012 47.0696 46.2376 48.175C44.8123 49.5228 42.4658 48.524 42.4658 46.5557C42.4658 45.683 42.9603 44.917 43.7748 44.4904C44.1529 44.2868 45.0838 44.2868 45.5492 44.4807Z" fill="#3B6DA7"/>
            <path d="M44.1141 45.9736C43.9881 46.0996 43.9202 46.2935 43.9202 46.5553C43.9202 47.0693 44.182 47.3311 44.6959 47.3311C45.2098 47.3311 45.4716 47.0693 45.4716 46.5553C45.4716 46.2935 45.4037 46.0996 45.2777 45.9736C45.1516 45.8475 44.9577 45.7796 44.6959 45.7796C44.4341 45.7796 44.2402 45.8475 44.1141 45.9736Z" fill="#3B6DA7"/>
            <path d="M19.8733 49.1249L17.0129 51.9853L18.448 53.4106L19.8733 54.8457L22.5883 52.1307C24.0815 50.6375 25.3033 49.3673 25.3033 49.3091C25.3033 49.0085 23.044 46.2645 22.7919 46.2645C22.7628 46.2645 21.4441 47.5541 19.8733 49.1249Z" fill="#3B6DA7"/>
            <path d="M11.3696 52.0631L10.3709 54.6521L11.8545 56.1356L13.338 57.6191L15.8978 56.6301C17.3135 56.0871 18.4867 55.6217 18.5158 55.6023C18.5546 55.5635 12.4944 49.4645 12.4071 49.4645C12.3781 49.4645 11.9126 50.6281 11.3696 52.0631Z" fill="#3B6DA7"/>
            <path d="M27.0486 51.4037C26.9225 51.5298 26.8547 51.7237 26.8547 51.9855C26.8547 52.2473 26.9225 52.4413 27.0486 52.5673C27.2328 52.7515 27.3686 52.7612 31.5089 52.7612C35.6492 52.7612 35.785 52.7515 35.9692 52.5673C36.0953 52.4413 36.1631 52.2473 36.1631 51.9855C36.1631 51.7237 36.0953 51.5298 35.9692 51.4037C35.785 51.2195 35.6492 51.2098 31.5089 51.2098C27.3686 51.2098 27.2328 51.2195 27.0486 51.4037Z" fill="#3B6DA7"/>
            <path d="M27.0486 54.5063C26.9225 54.6323 26.8547 54.8263 26.8547 55.0881C26.8547 55.3499 26.9225 55.5438 27.0486 55.6698C27.2328 55.8541 27.3686 55.8638 31.5089 55.8638C35.6492 55.8638 35.785 55.8541 35.9692 55.6698C36.0953 55.5438 36.1631 55.3499 36.1631 55.0881C36.1631 54.8263 36.0953 54.6323 35.9692 54.5063C35.785 54.3221 35.6492 54.3124 31.5089 54.3124C27.3686 54.3124 27.2328 54.3221 27.0486 54.5063Z" fill="#3B6DA7"/>
            <path d="M9.69218 56.407C8.8389 58.5983 8.80981 58.9668 9.53704 58.9668C9.78914 58.9668 11.6411 58.3074 11.7769 58.1717C11.7963 58.1523 11.3599 57.6772 10.8073 57.1245L9.79884 56.1161L9.69218 56.407Z" fill="#3B6DA7"/>
            <path d="M28.8909 57.7063C30.0933 59.3935 32.9246 59.3935 34.1269 57.7063L34.3305 57.4154H31.5089H28.6873L28.8909 57.7063Z" fill="#3B6DA7"/>
        </g>
    </g>
    <defs>
        <clipPath id="clip0_211_4258">
            <rect width="328" height="58" rx="10" fill="white"/>
        </clipPath>
        <clipPath id="clip1_211_4258">
            <rect width="328" height="58" fill="white"/>
        </clipPath>
    </defs>
</svg>
