<svg width="24" height="25" viewBox="0 0 24 25" fill="none" xmlns="http://www.w3.org/2000/svg">
    <path d="M7 4.5C7 3.96957 7.21071 3.46086 7.58579 3.08579C7.96086 2.71071 8.46957 2.5 9 2.5H15C15.5304 2.5 16.0391 2.71071 16.4142 3.08579C16.7893 3.46086 17 3.96957 17 4.5V6.5H21C21.2652 6.5 21.5196 6.60536 21.7071 6.79289C21.8946 6.98043 22 7.23478 22 7.5C22 7.76522 21.8946 8.01957 21.7071 8.20711C21.5196 8.39464 21.2652 8.5 21 8.5H19.931L19.064 20.642C19.0281 21.1466 18.8023 21.6188 18.4321 21.9636C18.0619 22.3083 17.5749 22.5 17.069 22.5H6.93C6.42414 22.5 5.93707 22.3083 5.56688 21.9636C5.1967 21.6188 4.97092 21.1466 4.935 20.642L4.07 8.5H3C2.73478 8.5 2.48043 8.39464 2.29289 8.20711C2.10536 8.01957 2 7.76522 2 7.5C2 7.23478 2.10536 6.98043 2.29289 6.79289C2.48043 6.60536 2.73478 6.5 3 6.5H7V4.5ZM9 6.5H15V4.5H9V6.5ZM6.074 8.5L6.931 20.5H17.07L17.927 8.5H6.074ZM10 10.5C10.2652 10.5 10.5196 10.6054 10.7071 10.7929C10.8946 10.9804 11 11.2348 11 11.5V17.5C11 17.7652 10.8946 18.0196 10.7071 18.2071C10.5196 18.3946 10.2652 18.5 10 18.5C9.73478 18.5 9.48043 18.3946 9.29289 18.2071C9.10536 18.0196 9 17.7652 9 17.5V11.5C9 11.2348 9.10536 10.9804 9.29289 10.7929C9.48043 10.6054 9.73478 10.5 10 10.5ZM14 10.5C14.2652 10.5 14.5196 10.6054 14.7071 10.7929C14.8946 10.9804 15 11.2348 15 11.5V17.5C15 17.7652 14.8946 18.0196 14.7071 18.2071C14.5196 18.3946 14.2652 18.5 14 18.5C13.7348 18.5 13.4804 18.3946 13.2929 18.2071C13.1054 18.0196 13 17.7652 13 17.5V11.5C13 11.2348 13.1054 10.9804 13.2929 10.7929C13.4804 10.6054 13.7348 10.5 14 10.5Z" fill="white"/>
</svg>
