<svg width="17" height="17" viewBox="0 0 17 17" fill="none" xmlns="http://www.w3.org/2000/svg">
    <g clip-path="url(#clip0_3_3159)">
        <path d="M7.6044 9.38477C6.28665 9.38477 2.40833 9.38477 2.40833 9.38477C1.99663 9.38477 1.65974 9.72159 1.65974 10.1333V15.7518C1.65974 16.1635 1.99663 16.5003 2.40833 16.5003C2.40833 16.5003 6.3678 16.5003 7.69177 16.5003C7.86787 16.5003 7.86787 16.3112 7.86787 16.3112V9.63913C7.86787 9.63913 7.86781 9.38477 7.6044 9.38477Z" fill="#F9F9F9"/>
        <path d="M14.5917 9.38477C14.5917 9.38477 10.6986 9.38477 9.40094 9.38477C9.08478 9.38477 9.13212 9.71401 9.13212 9.71401V16.3173C9.13212 16.3173 9.12956 16.5002 9.31973 16.5002C10.6377 16.5002 14.5916 16.5002 14.5916 16.5002C15.0033 16.5002 15.3402 16.1634 15.3402 15.7516V10.1333C15.3403 9.72159 15.0034 9.38477 14.5917 9.38477Z" fill="#F9F9F9"/>
        <path d="M7.86782 4.96362C7.86782 4.96362 7.86782 4.70996 7.61716 4.70996C6.11622 4.70996 1.563 4.70996 1.563 4.70996C1.15129 4.70996 0.814407 5.04684 0.814407 5.4585V7.79518C0.814407 8.20689 1.15129 8.54372 1.563 8.54372C1.563 8.54372 6.13662 8.54372 7.63767 8.54372C7.86782 8.54372 7.86782 8.34411 7.86782 8.34411V4.96362Z" fill="#F9F9F9"/>
        <path d="M15.437 4.70996C15.437 4.70996 10.8819 4.70996 9.36353 4.70996C9.13223 4.70996 9.13223 4.93035 9.13223 4.93035V8.34874C9.13223 8.34874 9.13223 8.54372 9.41343 8.54372C10.9193 8.54372 15.437 8.54372 15.437 8.54372C15.8487 8.54372 16.1856 8.20689 16.1856 7.79518V5.4585C16.1856 5.04684 15.8487 4.70996 15.437 4.70996Z" fill="#F9F9F9"/>
        <path d="M5.32171 4.15623C4.97921 4.15623 4.66638 4.12907 4.39206 4.07546C3.69528 3.93934 3.21638 3.67439 2.92798 3.26557C2.66958 2.89918 2.5905 2.4475 2.69287 1.92301C2.87219 1.00535 3.48847 0.5 4.42805 0.5C4.6269 0.5 4.84527 0.522961 5.07716 0.568282C5.66705 0.683521 6.42153 1.02177 7.09545 1.47307C8.23885 2.23884 8.2954 2.7149 8.23846 3.00641C8.15475 3.43475 7.75438 3.74082 7.01447 3.94217C6.51457 4.07819 5.89758 4.15623 5.32171 4.15623ZM4.42811 1.69978C4.06423 1.69978 3.93917 1.80144 3.87051 2.15305C3.81433 2.44052 3.88518 2.54092 3.90841 2.57392C4.00571 2.7119 4.25915 2.82698 4.6221 2.89782C4.81794 2.93611 5.05993 2.95634 5.32166 2.95634C5.8972 2.95634 6.40424 2.86913 6.74068 2.77375C6.76517 2.76682 6.80319 2.73786 6.76245 2.71359C6.3226 2.35528 5.51789 1.87681 4.84712 1.74576C4.69087 1.71533 4.54984 1.69978 4.42811 1.69978Z" fill="#F9F9F9"/>
        <path d="M11.6956 4.15618C11.6956 4.15618 11.6956 4.15618 11.6955 4.15618C11.1197 4.15618 10.5027 4.07813 10.0028 3.94212C9.26285 3.74082 8.86254 3.43469 8.77882 3.00641C8.72194 2.7149 8.77839 2.23884 9.92189 1.47307C10.5957 1.02177 11.3502 0.683521 11.9402 0.568282C12.1721 0.522961 12.3904 0.5 12.5891 0.5C13.5289 0.5 14.1452 1.0054 14.3243 1.92306C14.4268 2.4475 14.3478 2.89918 14.0893 3.26557C13.8009 3.67444 13.3221 3.93933 12.6251 4.07546C12.3509 4.12896 12.0381 4.15618 11.6956 4.15618ZM10.2644 2.70612C10.2254 2.72875 10.2443 2.76448 10.2646 2.77031C10.6008 2.86701 11.1132 2.95634 11.6955 2.95634C11.9574 2.95634 12.1992 2.93611 12.3951 2.89782C12.758 2.82692 13.0116 2.7119 13.1088 2.57392C13.1322 2.54092 13.2031 2.44052 13.1467 2.15305C13.0781 1.80144 12.953 1.69978 12.5891 1.69978C12.4674 1.69978 12.3265 1.71527 12.1701 1.74581C11.4993 1.87681 10.7043 2.34775 10.2644 2.70612Z" fill="#F9F9F9"/>
    </g>
    <defs>
        <clipPath id="clip0_3_3159">
            <rect width="16" height="16" fill="white" transform="translate(0.5 0.5)"/>
        </clipPath>
    </defs>
</svg>
