<svg width="34" height="46" viewBox="0 0 34 46" fill="none" xmlns="http://www.w3.org/2000/svg">
    <path d="M17 6.69L22 11.19V19H20V13H14V19H12V11.19L17 6.69ZM17 4L7 13H10V21H16V15H18V21H24V13H27L17 4Z" fill="white"/>
    <path d="M7.41406 38.1367V39.0566H2.79688V38.1367H7.41406ZM2.97266 34.4688V43H1.8418V34.4688H2.97266ZM8.39844 34.4688V43H7.27344V34.4688H8.39844ZM9.95703 39.9004V39.7656C9.95703 39.3086 10.0234 38.8848 10.1562 38.4941C10.2891 38.0996 10.4805 37.7578 10.7305 37.4688C10.9805 37.1758 11.2832 36.9492 11.6387 36.7891C11.9941 36.625 12.3926 36.543 12.834 36.543C13.2793 36.543 13.6797 36.625 14.0352 36.7891C14.3945 36.9492 14.6992 37.1758 14.9492 37.4688C15.2031 37.7578 15.3965 38.0996 15.5293 38.4941C15.6621 38.8848 15.7285 39.3086 15.7285 39.7656V39.9004C15.7285 40.3574 15.6621 40.7812 15.5293 41.1719C15.3965 41.5625 15.2031 41.9043 14.9492 42.1973C14.6992 42.4863 14.3965 42.7129 14.041 42.877C13.6895 43.0371 13.291 43.1172 12.8457 43.1172C12.4004 43.1172 12 43.0371 11.6445 42.877C11.2891 42.7129 10.9844 42.4863 10.7305 42.1973C10.4805 41.9043 10.2891 41.5625 10.1562 41.1719C10.0234 40.7812 9.95703 40.3574 9.95703 39.9004ZM11.041 39.7656V39.9004C11.041 40.2168 11.0781 40.5156 11.1523 40.7969C11.2266 41.0742 11.3379 41.3203 11.4863 41.5352C11.6387 41.75 11.8281 41.9199 12.0547 42.0449C12.2812 42.166 12.5449 42.2266 12.8457 42.2266C13.1426 42.2266 13.4023 42.166 13.625 42.0449C13.8516 41.9199 14.0391 41.75 14.1875 41.5352C14.3359 41.3203 14.4473 41.0742 14.5215 40.7969C14.5996 40.5156 14.6387 40.2168 14.6387 39.9004V39.7656C14.6387 39.4531 14.5996 39.1582 14.5215 38.8809C14.4473 38.5996 14.334 38.3516 14.1816 38.1367C14.0332 37.918 13.8457 37.7461 13.6191 37.6211C13.3965 37.4961 13.1348 37.4336 12.834 37.4336C12.5371 37.4336 12.2754 37.4961 12.0488 37.6211C11.8262 37.7461 11.6387 37.918 11.4863 38.1367C11.3379 38.3516 11.2266 38.5996 11.1523 38.8809C11.0781 39.1582 11.041 39.4531 11.041 39.7656ZM18.166 37.9199V43H17.0762V36.6602H18.1074L18.166 37.9199ZM17.9434 39.5898L17.4395 39.5723C17.4434 39.1387 17.5 38.7383 17.6094 38.3711C17.7188 38 17.8809 37.6777 18.0957 37.4043C18.3105 37.1309 18.5781 36.9199 18.8984 36.7715C19.2188 36.6191 19.5898 36.543 20.0117 36.543C20.3086 36.543 20.582 36.5859 20.832 36.6719C21.082 36.7539 21.2988 36.8848 21.4824 37.0645C21.666 37.2441 21.8086 37.4746 21.9102 37.7559C22.0117 38.0371 22.0625 38.377 22.0625 38.7754V43H20.9785V38.8281C20.9785 38.4961 20.9219 38.2305 20.8086 38.0312C20.6992 37.832 20.543 37.6875 20.3398 37.5977C20.1367 37.5039 19.8984 37.457 19.625 37.457C19.3047 37.457 19.0371 37.5137 18.8223 37.627C18.6074 37.7402 18.4355 37.8965 18.3066 38.0957C18.1777 38.2949 18.084 38.5234 18.0254 38.7812C17.9707 39.0352 17.9434 39.3047 17.9434 39.5898ZM22.0508 38.9922L21.3242 39.2148C21.3281 38.8672 21.3848 38.5332 21.4941 38.2129C21.6074 37.8926 21.7695 37.6074 21.9805 37.3574C22.1953 37.1074 22.459 36.9102 22.7715 36.7656C23.084 36.6172 23.4414 36.543 23.8438 36.543C24.1836 36.543 24.4844 36.5879 24.7461 36.6777C25.0117 36.7676 25.2344 36.9062 25.4141 37.0938C25.5977 37.2773 25.7363 37.5137 25.8301 37.8027C25.9238 38.0918 25.9707 38.4355 25.9707 38.834V43H24.8809V38.8223C24.8809 38.4668 24.8242 38.1914 24.7109 37.9961C24.6016 37.7969 24.4453 37.6582 24.2422 37.5801C24.043 37.498 23.8047 37.457 23.5273 37.457C23.2891 37.457 23.0781 37.498 22.8945 37.5801C22.7109 37.6621 22.5566 37.7754 22.4316 37.9199C22.3066 38.0605 22.2109 38.2227 22.1445 38.4062C22.082 38.5898 22.0508 38.7852 22.0508 38.9922ZM30.2422 43.1172C29.8008 43.1172 29.4004 43.043 29.041 42.8945C28.6855 42.7422 28.3789 42.5293 28.1211 42.2559C27.8672 41.9824 27.6719 41.6582 27.5352 41.2832C27.3984 40.9082 27.3301 40.498 27.3301 40.0527V39.8066C27.3301 39.291 27.4062 38.832 27.5586 38.4297C27.7109 38.0234 27.918 37.6797 28.1797 37.3984C28.4414 37.1172 28.7383 36.9043 29.0703 36.7598C29.4023 36.6152 29.7461 36.543 30.1016 36.543C30.5547 36.543 30.9453 36.6211 31.2734 36.7773C31.6055 36.9336 31.877 37.1523 32.0879 37.4336C32.2988 37.7109 32.4551 38.0391 32.5566 38.418C32.6582 38.793 32.709 39.2031 32.709 39.6484V40.1348H27.9746V39.25H31.625V39.168C31.6094 38.8867 31.5508 38.6133 31.4492 38.3477C31.3516 38.082 31.1953 37.8633 30.9805 37.6914C30.7656 37.5195 30.4727 37.4336 30.1016 37.4336C29.8555 37.4336 29.6289 37.4863 29.4219 37.5918C29.2148 37.6934 29.0371 37.8457 28.8887 38.0488C28.7402 38.252 28.625 38.5 28.543 38.793C28.4609 39.0859 28.4199 39.4238 28.4199 39.8066V40.0527C28.4199 40.3535 28.4609 40.6367 28.543 40.9023C28.6289 41.1641 28.752 41.3945 28.9121 41.5938C29.0762 41.793 29.2734 41.9492 29.5039 42.0625C29.7383 42.1758 30.0039 42.2324 30.3008 42.2324C30.6836 42.2324 31.0078 42.1543 31.2734 41.998C31.5391 41.8418 31.7715 41.6328 31.9707 41.3711L32.627 41.8926C32.4902 42.0996 32.3164 42.2969 32.1055 42.4844C31.8945 42.6719 31.6348 42.8242 31.3262 42.9414C31.0215 43.0586 30.6602 43.1172 30.2422 43.1172Z" fill="white"/>
</svg>
