<svg width="328" height="58" viewBox="0 0 328 58" fill="none" xmlns="http://www.w3.org/2000/svg">
    <g clip-path="url(#clip0_211_4273)">
        <g clip-path="url(#clip1_211_4273)">
            <rect width="328" height="58" rx="10" fill="#A585C1"/>
            <path d="M143.267 32.5234V34H138.263V32.5234H143.267ZM138.83 24.0469V34H136.95V24.0469H138.83ZM147.71 34.1367C147.149 34.1367 146.646 34.0456 146.199 33.8633C145.753 33.681 145.372 33.4281 145.058 33.1045C144.748 32.7764 144.508 32.3958 144.34 31.9629C144.176 31.5254 144.094 31.056 144.094 30.5547V30.2812C144.094 29.7116 144.176 29.1943 144.34 28.7295C144.504 28.2601 144.736 27.8568 145.037 27.5195C145.338 27.1823 145.698 26.9225 146.117 26.7402C146.536 26.5579 146.999 26.4668 147.505 26.4668C148.029 26.4668 148.492 26.5557 148.893 26.7334C149.294 26.9066 149.629 27.1527 149.897 27.4717C150.166 27.7907 150.369 28.1735 150.506 28.6201C150.643 29.0622 150.711 29.5521 150.711 30.0898V30.8486H144.914V29.6045H148.934V29.4678C148.924 29.1807 148.87 28.9186 148.77 28.6816C148.669 28.4401 148.514 28.2487 148.305 28.1074C148.095 27.9616 147.824 27.8887 147.491 27.8887C147.222 27.8887 146.988 27.9479 146.787 28.0664C146.591 28.1803 146.427 28.3444 146.295 28.5586C146.167 28.7682 146.072 29.0189 146.008 29.3105C145.944 29.6022 145.912 29.9258 145.912 30.2812V30.5547C145.912 30.8646 145.953 31.1517 146.035 31.416C146.122 31.6803 146.247 31.9105 146.411 32.1064C146.58 32.2979 146.78 32.4482 147.013 32.5576C147.25 32.6624 147.519 32.7148 147.819 32.7148C148.198 32.7148 148.539 32.6419 148.845 32.4961C149.155 32.3457 149.424 32.1247 149.651 31.833L150.561 32.7764C150.406 33.0042 150.196 33.223 149.932 33.4326C149.672 33.6423 149.357 33.8132 148.988 33.9453C148.619 34.0729 148.193 34.1367 147.71 34.1367ZM155.995 32.4277V29.0166C155.995 28.766 155.952 28.5495 155.865 28.3672C155.779 28.1849 155.646 28.0436 155.469 27.9434C155.291 27.8431 155.065 27.793 154.792 27.793C154.55 27.793 154.339 27.834 154.156 27.916C153.979 27.998 153.842 28.1143 153.746 28.2646C153.65 28.4105 153.603 28.5791 153.603 28.7705H151.791C151.791 28.4652 151.864 28.1758 152.01 27.9023C152.156 27.6243 152.363 27.3783 152.632 27.1641C152.905 26.9453 153.231 26.7744 153.609 26.6514C153.992 26.5283 154.421 26.4668 154.895 26.4668C155.455 26.4668 155.954 26.5625 156.392 26.7539C156.834 26.9408 157.18 27.2233 157.431 27.6016C157.686 27.9798 157.813 28.4561 157.813 29.0303V32.2568C157.813 32.626 157.836 32.9427 157.882 33.207C157.932 33.4668 158.005 33.6924 158.101 33.8838V34H156.262C156.175 33.8132 156.109 33.5762 156.063 33.2891C156.018 32.9974 155.995 32.7103 155.995 32.4277ZM156.248 29.4951L156.262 30.5684H155.12C154.838 30.5684 154.589 30.598 154.375 30.6572C154.161 30.7119 153.985 30.7939 153.849 30.9033C153.712 31.0081 153.609 31.1357 153.541 31.2861C153.473 31.432 153.438 31.5983 153.438 31.7852C153.438 31.9674 153.479 32.1315 153.562 32.2773C153.648 32.4232 153.771 32.5394 153.931 32.626C154.095 32.708 154.286 32.749 154.505 32.749C154.824 32.749 155.102 32.6852 155.339 32.5576C155.576 32.4255 155.76 32.266 155.893 32.0791C156.025 31.8923 156.095 31.7145 156.104 31.5459L156.624 32.3252C156.56 32.512 156.465 32.7103 156.337 32.9199C156.209 33.1296 156.045 33.3255 155.845 33.5078C155.644 33.6901 155.403 33.8405 155.12 33.959C154.838 34.0775 154.509 34.1367 154.136 34.1367C153.657 34.1367 153.229 34.041 152.851 33.8496C152.472 33.6582 152.174 33.3962 151.955 33.0635C151.736 32.7308 151.627 32.3525 151.627 31.9287C151.627 31.5368 151.7 31.1904 151.846 30.8896C151.992 30.5889 152.208 30.3359 152.495 30.1309C152.782 29.9212 153.138 29.764 153.562 29.6592C153.99 29.5498 154.48 29.4951 155.031 29.4951H156.248ZM161.245 28.1143V34H159.44V26.6035H161.149L161.245 28.1143ZM163.494 26.5557L163.467 28.2373C163.367 28.2191 163.253 28.2054 163.125 28.1963C163.002 28.1872 162.886 28.1826 162.776 28.1826C162.498 28.1826 162.255 28.2214 162.045 28.2988C161.835 28.3717 161.66 28.4788 161.519 28.6201C161.382 28.7614 161.277 28.9346 161.204 29.1396C161.131 29.3402 161.09 29.568 161.081 29.8232L160.691 29.7754C160.691 29.306 160.739 28.8708 160.835 28.4697C160.931 28.0687 161.07 27.7178 161.252 27.417C161.434 27.1162 161.662 26.8838 161.936 26.7197C162.214 26.5511 162.533 26.4668 162.893 26.4668C162.993 26.4668 163.1 26.4759 163.214 26.4941C163.332 26.5078 163.426 26.5283 163.494 26.5557ZM166.256 28.1826V34H164.451V26.6035H166.146L166.256 28.1826ZM165.969 30.0352H165.436C165.44 29.4974 165.513 29.0098 165.654 28.5723C165.796 28.1348 165.994 27.7588 166.249 27.4443C166.509 27.1299 166.816 26.8883 167.172 26.7197C167.527 26.5511 167.924 26.4668 168.361 26.4668C168.717 26.4668 169.038 26.5169 169.325 26.6172C169.612 26.7174 169.858 26.877 170.063 27.0957C170.273 27.3145 170.433 27.6016 170.542 27.957C170.656 28.3079 170.713 28.7409 170.713 29.2559V34H168.895V29.2422C168.895 28.9049 168.844 28.6383 168.744 28.4424C168.648 28.2464 168.507 28.1074 168.32 28.0254C168.138 27.9434 167.912 27.9023 167.644 27.9023C167.366 27.9023 167.122 27.9593 166.912 28.0732C166.707 28.1826 166.534 28.3353 166.393 28.5312C166.256 28.7272 166.151 28.9528 166.078 29.208C166.005 29.4632 165.969 29.7389 165.969 30.0352ZM174.22 26.6035V34H172.408V26.6035H174.22ZM172.285 24.6689C172.285 24.4001 172.376 24.1768 172.559 23.999C172.745 23.8213 172.996 23.7324 173.311 23.7324C173.625 23.7324 173.873 23.8213 174.056 23.999C174.243 24.1768 174.336 24.4001 174.336 24.6689C174.336 24.9333 174.243 25.1543 174.056 25.332C173.873 25.5098 173.625 25.5986 173.311 25.5986C172.996 25.5986 172.745 25.5098 172.559 25.332C172.376 25.1543 172.285 24.9333 172.285 24.6689ZM177.713 28.1826V34H175.908V26.6035H177.604L177.713 28.1826ZM177.426 30.0352H176.893C176.897 29.4974 176.97 29.0098 177.111 28.5723C177.253 28.1348 177.451 27.7588 177.706 27.4443C177.966 27.1299 178.273 26.8883 178.629 26.7197C178.984 26.5511 179.381 26.4668 179.818 26.4668C180.174 26.4668 180.495 26.5169 180.782 26.6172C181.069 26.7174 181.315 26.877 181.521 27.0957C181.73 27.3145 181.89 27.6016 181.999 27.957C182.113 28.3079 182.17 28.7409 182.17 29.2559V34H180.352V29.2422C180.352 28.9049 180.301 28.6383 180.201 28.4424C180.105 28.2464 179.964 28.1074 179.777 28.0254C179.595 27.9434 179.369 27.9023 179.101 27.9023C178.823 27.9023 178.579 27.9593 178.369 28.0732C178.164 28.1826 177.991 28.3353 177.85 28.5312C177.713 28.7272 177.608 28.9528 177.535 29.208C177.462 29.4632 177.426 29.7389 177.426 30.0352ZM188.466 26.6035H190.106V33.7744C190.106 34.4443 189.961 35.0117 189.669 35.4766C189.382 35.946 188.979 36.3014 188.459 36.543C187.939 36.7891 187.336 36.9121 186.647 36.9121C186.351 36.9121 186.03 36.8711 185.684 36.7891C185.342 36.707 185.011 36.5771 184.692 36.3994C184.378 36.2262 184.116 36.0007 183.906 35.7227L184.72 34.6562C184.966 34.9434 185.244 35.1598 185.554 35.3057C185.864 35.4561 186.199 35.5312 186.559 35.5312C186.923 35.5312 187.233 35.4629 187.488 35.3262C187.748 35.194 187.946 34.998 188.083 34.7383C188.224 34.4831 188.295 34.1686 188.295 33.7949V28.292L188.466 26.6035ZM183.469 30.3906V30.2471C183.469 29.682 183.537 29.1693 183.674 28.709C183.811 28.2441 184.007 27.8454 184.262 27.5127C184.521 27.18 184.834 26.9225 185.198 26.7402C185.567 26.5579 185.982 26.4668 186.442 26.4668C186.93 26.4668 187.34 26.5557 187.673 26.7334C188.01 26.9111 188.288 27.1641 188.507 27.4922C188.73 27.8203 188.903 28.21 189.026 28.6611C189.154 29.1077 189.252 29.5999 189.32 30.1377V30.5273C189.257 31.0514 189.154 31.5322 189.013 31.9697C188.876 32.4072 188.694 32.79 188.466 33.1182C188.238 33.4417 187.955 33.6924 187.618 33.8701C187.281 34.0479 186.884 34.1367 186.429 34.1367C185.973 34.1367 185.563 34.0433 185.198 33.8564C184.834 33.6696 184.521 33.4076 184.262 33.0703C184.007 32.7331 183.811 32.3366 183.674 31.8809C183.537 31.4251 183.469 30.9284 183.469 30.3906ZM185.273 30.2471V30.3906C185.273 30.7096 185.305 31.0081 185.369 31.2861C185.433 31.5641 185.531 31.8102 185.663 32.0244C185.795 32.234 185.962 32.3981 186.162 32.5166C186.363 32.6351 186.602 32.6943 186.88 32.6943C187.254 32.6943 187.559 32.6169 187.796 32.4619C188.037 32.3024 188.22 32.0859 188.343 31.8125C188.47 31.5345 188.552 31.2223 188.589 30.876V29.8027C188.566 29.5293 188.516 29.2764 188.438 29.0439C188.366 28.8115 188.263 28.611 188.131 28.4424C187.999 28.2738 187.83 28.1416 187.625 28.0459C187.42 27.9502 187.176 27.9023 186.894 27.9023C186.62 27.9023 186.381 27.9639 186.176 28.0869C185.971 28.2054 185.802 28.3717 185.67 28.5859C185.538 28.8001 185.438 29.0485 185.369 29.3311C185.305 29.6136 185.273 29.9189 185.273 30.2471Z" fill="white"/>
        </g>
        <path d="M54.8794 4.8014C54.5472 5.13362 54.4833 5.28696 54.4833 5.79807C54.4833 6.56473 54.8156 7.02473 55.5056 7.22918C55.9144 7.35696 56.0678 7.34418 56.4894 7.13973C57.9589 6.4114 57.4861 4.40529 55.8506 4.40529C55.3778 4.40529 55.1989 4.46918 54.8794 4.8014ZM56.4767 5.4914C56.8983 6.13029 56.2211 6.82029 55.5694 6.39862C55.2244 6.16862 55.135 5.59362 55.4033 5.32529C55.6717 5.05696 56.2467 5.1464 56.4767 5.4914Z" fill="#BB95DD"/>
        <path d="M72.27 4.67407C70.4939 5.00629 69.4461 6.80796 69.9572 8.68629C70.1361 9.36351 71.2222 10.4241 71.9378 10.6413C73.995 11.2546 75.9628 9.83629 75.9628 7.72796C75.9756 5.73462 74.2506 4.31629 72.27 4.67407ZM72.7556 5.68351V6.45018L72.2189 6.37351C71.9122 6.3224 71.6439 6.27129 71.6311 6.24574C71.5289 6.16907 71.7717 5.65796 72.0783 5.30018C72.5767 4.69962 72.7556 4.78907 72.7556 5.68351ZM73.765 5.38962C74.2378 5.96462 74.2761 6.3224 73.88 6.3224C73.7139 6.3224 73.4583 6.36073 73.305 6.39907C73.0239 6.47574 73.0111 6.45018 73.0111 5.69629C73.0111 4.76351 73.19 4.68685 73.765 5.38962ZM71.695 5.4024C71.5672 5.53018 71.4778 5.70907 71.4778 5.78574C71.4778 6.00296 71.2478 6.0924 70.9539 6.00296C70.7367 5.92629 70.7239 5.88796 70.8644 5.72185C71.0689 5.46629 71.7717 5.03185 71.8483 5.10851C71.8739 5.14685 71.81 5.27462 71.695 5.4024ZM74.5317 5.38962C74.7872 5.56851 75.0172 5.7474 75.0556 5.77296C75.1322 5.83685 74.7744 6.06685 74.6083 6.06685C74.5444 6.06685 74.3528 5.83685 74.1867 5.55574C73.8417 4.95518 73.9056 4.92962 74.5317 5.38962ZM70.89 6.22018C71.1839 6.34796 71.2094 6.41185 71.1456 6.88462C71.0306 7.68962 71.005 7.72796 70.5194 7.72796C70.1233 7.72796 70.0722 7.68962 70.0722 7.40851C70.0722 7.11462 70.43 6.06685 70.5322 6.06685C70.5578 6.06685 70.7111 6.13073 70.89 6.22018ZM75.4772 6.51407C75.5922 6.76962 75.6944 7.14018 75.6944 7.34462C75.6944 7.7024 75.6561 7.72796 75.2472 7.72796C74.7617 7.72796 74.7361 7.68962 74.6211 6.88462C74.5572 6.42462 74.5828 6.34796 74.8383 6.22018C75.2472 6.02851 75.2472 6.02851 75.4772 6.51407ZM72.4361 6.64185C72.7172 6.70574 72.7556 6.7824 72.7556 7.21685V7.72796H72.0528H71.35V7.29351C71.35 6.62907 71.465 6.4374 71.81 6.51407C71.9761 6.5524 72.2572 6.60351 72.4361 6.64185ZM74.4167 7.16574V7.72796H73.7139H73.0111V7.21685C73.0111 6.74407 73.0367 6.71851 73.4967 6.64185C73.7522 6.59073 74.0333 6.53962 74.0972 6.52685C74.34 6.45018 74.4167 6.60351 74.4167 7.16574ZM70.775 7.98351C71.005 7.98351 71.0817 8.07296 71.1456 8.45629C71.1967 8.82685 71.1711 8.98018 71.005 9.09518C70.6472 9.36351 70.4939 9.28685 70.2767 8.75018C70.0083 8.08573 70.0083 7.80462 70.2767 7.90685C70.3917 7.94518 70.6089 7.98351 70.775 7.98351ZM72.7556 8.31573C72.7556 8.69907 72.73 8.72462 72.155 8.80129C71.5033 8.89073 71.35 8.78851 71.35 8.23907C71.35 7.9324 71.3883 7.91962 72.0528 7.91962C72.7556 7.91962 72.7556 7.91962 72.7556 8.31573ZM74.4167 8.32851C74.4167 8.83962 74.3656 8.86518 73.6117 8.78851C73.0622 8.72462 73.0111 8.68629 73.0111 8.36685C73.0111 8.17518 73.0367 7.99629 73.0622 7.97073C73.1006 7.94518 73.4072 7.91962 73.765 7.91962C74.4167 7.91962 74.4167 7.91962 74.4167 8.32851ZM75.5156 8.80129C75.3111 9.28685 75.1067 9.36351 74.7744 9.09518C74.6339 8.99296 74.5956 8.80129 74.6339 8.46907C74.6978 8.03462 74.7361 7.99629 75.1706 7.95796C75.72 7.90685 75.8094 8.11129 75.5156 8.80129ZM72.7556 9.7724V10.5391L72.4361 10.3857C72.1167 10.2452 71.6056 9.55518 71.6056 9.28685C71.6056 9.13351 71.8867 9.04407 72.4106 9.01851C72.7556 9.00573 72.7556 9.01851 72.7556 9.7724ZM74.0206 9.12073C74.1228 9.18462 74.1611 9.32518 74.0972 9.50407C74.0078 9.79796 73.3178 10.5391 73.1261 10.5391C73.0622 10.5391 73.0111 10.1941 73.0111 9.7724V9.00573H73.4328C73.65 9.00573 73.9183 9.05685 74.0206 9.12073ZM71.5672 9.7724C71.7206 10.0535 71.7972 10.2835 71.7461 10.2835C71.7078 10.2835 71.4394 10.1302 71.1711 9.95129C70.6983 9.63185 70.6856 9.59351 70.9028 9.44018C71.235 9.1974 71.2478 9.1974 71.5672 9.7724ZM74.8639 9.44018C75.0811 9.59351 75.0683 9.63185 74.5444 10.0152C74.2378 10.2324 73.9694 10.3985 73.9439 10.373C73.8928 10.3091 74.455 9.26129 74.5572 9.26129C74.5956 9.26129 74.7361 9.33796 74.8639 9.44018Z" fill="#BB95DD"/>
        <path d="M50.88 5.54285C50.5478 5.61952 50.5989 5.6834 51.9917 6.74396C52.7967 7.35729 53.4611 7.90674 53.4611 7.97063C53.4611 8.02174 53.0011 8.72452 52.4389 9.52952C51.8894 10.3217 51.4422 10.999 51.4678 11.0117C51.4806 11.0245 51.8511 10.9862 52.2983 10.9095L53.0906 10.769L53.9594 9.52952C54.4322 8.85229 54.9178 8.14952 55.0456 7.97063L55.25 7.63841L53.755 6.53952C52.1706 5.37674 51.9278 5.30007 50.88 5.54285ZM54.4578 7.45952C54.7133 7.61285 54.5856 8.04729 54.2789 8.08563C53.9594 8.13674 53.7678 7.77896 53.985 7.52341C54.1511 7.31896 54.2278 7.30618 54.4578 7.45952Z" fill="#BB95DD"/>
        <path d="M55.6589 7.93226C54.7644 8.55837 54.8156 9.98948 55.7611 10.475C57.0517 11.1395 58.4189 9.79782 57.7544 8.50726C57.3711 7.77893 56.2978 7.48504 55.6589 7.93226ZM56.9367 8.71171C57.2561 8.99282 57.2306 9.46559 56.8856 9.69559C56.515 9.95115 56.285 9.95115 55.9911 9.68282C55.71 9.42726 55.6972 9.03115 55.9783 8.72448C56.2339 8.44337 56.63 8.43059 56.9367 8.71171Z" fill="#BB95DD"/>
        <path d="M56.7194 15.8543C52.1578 19.5471 48.3117 22.6521 48.1711 22.7415C48.0306 22.8437 47.9794 22.9715 48.0433 23.0865C48.2478 23.4187 48.7972 24.0832 48.8867 24.0832C48.925 24.0832 49.5383 23.6232 50.2283 23.061C51.1994 22.2687 51.5061 22.0771 51.6083 22.2049C51.685 22.3071 52.375 23.1632 53.1417 24.1343C54.3428 25.6293 54.5856 25.8721 54.8411 25.8082C55.0456 25.7571 55.1222 25.7954 55.1222 25.9487C55.1222 26.1021 54.1639 31.2515 53.4483 34.906C53.3717 35.2765 53.2439 35.5832 53.1672 35.5832C52.8606 35.5832 38.6261 37.7171 38.575 37.7682C38.5494 37.8065 42.9833 39.4293 48.4267 41.3843L58.3294 44.9365L61.3578 44.5276C63.0189 44.2976 67.0311 43.761 70.2511 43.3265L76.1289 42.5471L78.8633 31.0087C80.3711 24.6582 81.5722 19.4449 81.5467 19.4065C81.5083 19.381 77.905 19.0104 73.5094 18.576C69.1267 18.1415 65.5106 17.771 65.485 17.7454C65.4594 17.7326 65.6128 17.4515 65.83 17.1321L66.2133 16.5699L64.6928 14.6787C63.8622 13.631 63.1722 12.7493 63.1722 12.6982C63.1722 12.5193 64.3478 11.6632 64.4372 11.7654C64.5778 11.9187 66.2517 14.0015 66.405 14.2187C66.4944 14.3337 66.4433 14.4743 66.2644 14.666L65.9833 14.9599L66.8906 16.0715C67.4528 16.7871 67.8361 17.1576 67.9383 17.0937C68.3344 16.851 69.6889 15.7137 69.6889 15.6243C69.6889 15.5604 69.3056 15.0365 68.8328 14.4615C68.36 13.8865 67.9639 13.3882 67.9383 13.3626C67.9256 13.3371 67.8106 13.3882 67.7083 13.4776C67.5933 13.5799 67.4656 13.5926 67.4017 13.5287C67.0056 13.1199 65.3444 11.0115 65.3444 10.9221C65.3444 10.8582 65.4978 10.7049 65.6894 10.5643L66.0344 10.3087L65.6 9.72097C65.3572 9.40152 65.1272 9.14597 65.0889 9.14597C65.0506 9.14597 61.2939 12.1615 56.7194 15.8543ZM72.2444 20.2626C76.0011 20.6971 79.0933 21.0676 79.1061 21.0676C79.1189 21.0804 78.8506 22.256 78.5056 23.6999C78.1606 25.1437 77.1256 29.5137 76.2056 33.411C75.2856 37.3082 74.5061 40.5154 74.4933 40.541C74.4422 40.5793 54.8411 35.0721 54.7517 34.9954C54.6878 34.9315 56.515 25.4632 56.6428 25.2332C56.6939 25.131 57.9206 24.556 59.3517 23.9554L61.9583 22.8693L63.1594 21.0932L64.3478 19.3299L64.8844 19.3937C65.1656 19.4321 68.4878 19.8282 72.2444 20.2626ZM53.3844 40.8221C54.8539 41.3076 56.0806 41.7293 56.1061 41.7549C56.1317 41.7804 55.5311 41.8826 54.7644 41.9721L53.3589 42.1254L51.4039 41.3971C50.3178 40.9882 49.2317 40.5665 48.9889 40.4515L48.5417 40.2599L49.5639 40.1065C50.1261 40.0299 50.6117 39.9532 50.65 39.9404C50.6883 39.9404 51.915 40.3237 53.3844 40.8221Z" fill="#BB95DD"/>
        <path d="M67.9511 23.4063C67.9767 23.5341 68.0789 23.9685 68.1683 24.3646C68.3217 25.0802 68.3344 25.093 68.7817 25.1313L69.2417 25.1696L69.4844 26.1791C69.6633 26.9202 69.6889 27.2141 69.5867 27.2524C69.51 27.278 69.3183 27.393 69.165 27.5207C68.8839 27.738 68.8839 27.7507 69.1011 28.7091L69.3183 29.6802L71.9633 28.0191C73.42 27.1118 74.7361 26.2813 74.8767 26.1918C75.145 26.0257 75.145 26.0002 74.9533 25.0546C74.8511 24.518 74.7233 24.0835 74.6722 24.0835C74.6211 24.0835 73.19 23.8791 71.4778 23.6363C67.8489 23.1124 67.8617 23.1124 67.9511 23.4063ZM72.3083 25.4635L72.8067 25.553L71.9122 26.0257L71.005 26.4985L70.8772 25.9363L70.7494 25.3613L71.2733 25.3741C71.5544 25.3741 72.0272 25.4124 72.3083 25.4635Z" fill="#BB95DD"/>
        <path d="M60.3611 32.6063V35.2002H62.1372C63.76 35.2002 63.9389 35.1746 64.335 34.9063C64.91 34.523 65.1144 34.1013 65.0378 33.4752C64.9994 33.1046 64.8717 32.8746 64.6033 32.6574L64.2328 32.3635L64.5394 32.0569C64.9994 31.5841 64.8717 30.6513 64.2967 30.3191C64.105 30.2169 63.3383 30.1274 62.1756 30.0891L60.3611 30.0252V32.6063ZM63.1467 31.3541C63.2489 31.418 63.3 31.5713 63.2744 31.6991C63.2489 31.8908 63.0956 31.9546 62.5589 31.9802L61.8944 32.0185V31.6352C61.8944 31.2519 61.92 31.2391 62.4439 31.2391C62.7378 31.2391 63.0572 31.2902 63.1467 31.3541ZM63.4022 33.4369C63.4406 33.718 63.3767 33.8202 63.1083 33.9224C62.9294 33.9863 62.5717 34.0502 62.3289 34.0502C61.9072 34.0502 61.8944 34.0374 61.8944 33.5391V33.0152L62.6356 33.0535C63.3256 33.0919 63.3639 33.1046 63.4022 33.4369Z" fill="#BB95DD"/>
        <path d="M79.9367 11.3055L79.3872 11.5483L79.5917 12.0211C79.6939 12.2766 79.7833 12.4938 79.7833 12.5194C79.7833 12.5322 78.8761 12.9027 77.7517 13.3372C75.9372 14.0655 75.7072 14.1933 75.5283 14.5511C75.3878 14.845 75.1961 15.0111 74.8128 15.1388C74.5189 15.2283 74.2506 15.3561 74.2122 15.42C74.1483 15.5222 74.6467 16.9277 74.7361 16.9277C74.7617 16.9277 75.03 16.8255 75.3367 16.6977C75.7583 16.5188 75.9883 16.4933 76.3717 16.5827C76.7933 16.685 77.0489 16.6211 78.7994 15.9183C79.86 15.4838 80.78 15.1388 80.8311 15.1388C80.8694 15.1388 80.9461 15.305 80.9972 15.5222C81.0994 15.9566 81.2272 15.9822 81.8917 15.7011C82.3772 15.4966 82.3772 15.5222 82.1344 14.7555C82.0833 14.615 82.3261 14.4616 83.0289 14.1933C83.5656 13.9888 84 13.8227 84 13.81C84 13.7077 83.0672 11.4716 82.9906 11.395C82.9394 11.3438 82.4794 11.4716 81.9556 11.6888C81.4444 11.8933 81.01 12.0722 80.9972 12.0722C80.9844 12.0722 80.895 11.8422 80.8056 11.5611C80.7161 11.28 80.6011 11.05 80.5628 11.0627C80.5244 11.0627 80.2433 11.1777 79.9367 11.3055ZM80.32 13.8355C80.4989 14.3083 80.6139 14.73 80.5756 14.7683C80.5244 14.8066 79.6556 15.1772 78.6461 15.5733C76.9978 16.225 76.7422 16.2888 76.3206 16.1866C75.9756 16.0972 75.7456 16.1227 75.4261 16.2505C75.0428 16.4166 74.9789 16.4038 74.8383 16.2122C74.5572 15.8288 74.6467 15.5861 75.1067 15.42C75.3622 15.3177 75.6433 15.0877 75.7839 14.8577C75.9756 14.5255 76.3206 14.3338 77.9306 13.6694C78.9911 13.235 79.8728 12.9027 79.9111 12.9283C79.9494 12.9666 80.1283 13.3755 80.32 13.8355Z" fill="#BB95DD"/>
        <path d="M43.9417 11.8676C43.1111 12.2509 42.1783 13.2732 41.9611 14.0526C41.3989 16.0587 43.2133 18.3843 45.3472 18.3843C47.0339 18.3715 48.6056 16.8509 48.6056 15.2409C48.6056 14.8321 48.12 13.6054 47.9667 13.6054C47.9156 13.6054 47.5706 13.8737 47.2128 14.1932C46.6122 14.7426 46.5611 14.8193 46.6378 15.2154C46.7528 15.8543 46.6122 16.2632 46.165 16.4804C45.6156 16.7743 45.0917 16.6209 44.4528 15.9693C43.7756 15.3048 43.5328 14.6404 43.75 14.1037C43.8394 13.8993 44.0183 13.6693 44.1461 13.6054C44.4272 13.4521 44.9767 13.4393 45.2578 13.5926C45.4239 13.6821 45.6411 13.5543 46.165 13.0815C46.9444 12.3787 46.9317 12.2765 45.9989 11.8293C45.2961 11.4843 44.7339 11.4971 43.9417 11.8676Z" fill="#BB95DD"/>
        <path d="M82.7222 20.1733C82.7222 20.1988 81.9172 23.6616 80.9333 27.8655C79.9494 32.0822 78.7228 37.2827 78.2244 39.4422L77.3044 43.3522L76.2822 43.5055C75.7072 43.5822 71.4267 44.2083 66.75 44.8983L58.2528 46.1377L57.4861 45.8566C55.7739 45.205 38.1406 38.7777 38.0767 38.7777C38.0383 38.7777 38 39.0333 38 39.34V39.8894L39.5589 40.4772C40.4278 40.7966 44.9511 42.5216 49.6278 44.3105L58.125 47.5688L68.0917 45.9844C73.5733 45.1155 78.1222 44.3744 78.1989 44.3488C78.2883 44.3105 78.5311 43.5566 78.7483 42.6494C79.4511 39.7488 81.5083 31.175 82.7094 26.1916C83.3611 23.5211 83.9106 21.2338 83.9489 21.1188C83.9872 20.9655 83.8467 20.7738 83.4761 20.5055C82.9906 20.1605 82.7222 20.0327 82.7222 20.1733Z" fill="#BB95DD"/>
        <path d="M43.6861 25.6421C43.0983 25.8594 42.2678 26.4983 41.91 27.0094C40.5811 28.9388 41.2072 31.4816 43.2644 32.5038C44.2611 33.0021 45.4622 33.0533 46.4461 32.6316C47.0594 32.3633 47.085 32.3633 47.3278 32.5805C47.5706 32.7977 47.5961 32.7977 47.8389 32.5805C48.0817 32.3633 48.1328 32.3888 49.5639 33.4621C50.3817 34.0627 51.0972 34.561 51.1483 34.561C51.1994 34.561 51.4294 34.3055 51.6594 33.986L52.0683 33.4238L50.5606 32.2994C49.73 31.686 49.04 31.1749 49.0144 31.1621C48.9889 31.1494 49.0272 31.0216 49.1039 30.881C49.2189 30.6766 49.1933 30.5871 48.9633 30.4466C48.7206 30.2805 48.6822 30.1399 48.6822 29.2455C48.6694 28.466 48.6056 28.0955 48.3756 27.6483C47.6983 26.2683 46.4589 25.4888 44.9639 25.5016C44.4783 25.5016 43.9033 25.5655 43.6861 25.6421ZM45.8328 27.201C46.7272 27.5716 47.2894 28.6833 47.0722 29.6288C46.7783 30.9321 45.4878 31.6605 44.2228 31.2516C43.2389 30.9194 42.5489 29.6416 42.8428 28.6833C43.2389 27.3544 44.5933 26.6771 45.8328 27.201Z" fill="#BB95DD"/>
    </g>
    <defs>
        <clipPath id="clip0_211_4273">
            <rect width="328" height="58" rx="10" fill="white"/>
        </clipPath>
        <clipPath id="clip1_211_4273">
            <rect width="328" height="58" fill="white"/>
        </clipPath>
    </defs>
</svg>
