<svg width="23" height="23" viewBox="0 0 23 23" fill="none" xmlns="http://www.w3.org/2000/svg">
    <path d="M15.4764 0.132915C15.18 0.296471 3.74132 12.4711 3.64932 12.7165C3.5471 12.972 3.66977 13.3809 3.88443 13.4934C3.99688 13.5547 5.15199 13.5956 6.59332 13.5956C8.94443 13.5956 9.10799 13.6058 9.05688 13.7694C9.02621 13.8716 8.4231 15.8342 7.72799 18.124C6.34799 22.6014 6.33777 22.6627 6.89999 22.9182C7.10443 23.0102 7.21688 23 7.45199 22.8876C7.76888 22.7342 19.2382 10.58 19.3507 10.2836C19.4529 10.028 19.3302 9.61914 19.1155 9.50669C19.0031 9.44536 17.848 9.40447 16.4169 9.40447C15.0369 9.40447 13.9022 9.38403 13.9022 9.36358C13.9022 9.34314 14.4951 7.39069 15.2311 5.01914C16.6213 0.480471 16.6418 0.368027 16.1613 0.112471C15.9058 -0.0306396 15.7422 -0.0306396 15.4764 0.132915Z" fill="#C8C8C8"/>
</svg>
