<svg width="19" height="23" viewBox="0 0 19 23" fill="none" xmlns="http://www.w3.org/2000/svg">
    <path d="M7.39348 0.0668588C6.91362 0.202667 6.35228 0.782115 6.21647 1.28008L6.10783 1.67845L5.02136 1.70561L3.92584 1.73277V3.04559V4.3584H7.95482H11.9838V3.04559V1.73277L10.8792 1.70561C9.93762 1.6875 9.7656 1.66034 9.7656 1.54264C9.7656 1.46116 9.65695 1.18954 9.52114 0.945085C9.11372 0.202667 8.22644 -0.159488 7.39348 0.0668588ZM8.52521 1.05373C8.86926 1.32535 8.99602 1.77804 8.83305 2.16736C8.66102 2.57478 8.36224 2.77397 7.90955 2.77397C7.16713 2.76492 6.72349 1.99534 7.08565 1.3344C7.34821 0.872654 8.09968 0.718738 8.52521 1.05373Z" fill="#79A78D"/>
    <path d="M1.11913 2.71966C0.766033 2.87357 0.403878 3.21762 0.195639 3.59789C0.0417225 3.88761 0.0326687 4.30409 0.00550702 11.1307C-0.0126007 16.0379 0.0145609 18.4734 0.0779381 18.7179C0.204692 19.1706 0.657386 19.6866 1.11913 19.8949C1.44507 20.0488 1.78912 20.0669 4.93082 20.0669H8.3894L8.24454 19.6323C8.17211 19.3969 8.09062 19.1525 8.08157 19.0891C8.05441 19.0076 7.32104 18.9804 4.78596 18.9804H1.51751L1.30021 18.7541L1.07387 18.5368V11.339V4.14112L1.29116 3.88761C1.48129 3.66126 1.57183 3.6341 2.19655 3.60694L2.88464 3.57072V3.08181V2.5929H2.14222C1.71669 2.60196 1.27305 2.65628 1.11913 2.71966Z" fill="#79A78D"/>
    <path d="M13.025 3.08171V3.57062L13.695 3.60684C14.2563 3.634 14.4102 3.67022 14.6004 3.85129L14.8358 4.06859V8.07946V12.0813L15.2341 12.1809C15.4514 12.2352 15.6959 12.3076 15.7774 12.3348C15.9222 12.3891 15.9313 12.0722 15.9041 8.08851L15.877 3.78792L15.6054 3.3986C15.1889 2.8101 14.7 2.5928 13.7765 2.5928H13.025V3.08171Z" fill="#79A78D"/>
    <path d="M3.53653 7.26462C3.40072 7.35516 3.33734 7.49096 3.33734 7.70826C3.33734 8.24244 3.82625 8.53216 4.23368 8.23338C4.90366 7.73542 4.22462 6.78476 3.53653 7.26462Z" fill="#79A78D"/>
    <path d="M5.3835 7.40959C5.19337 7.68121 5.20242 7.8985 5.41972 8.1158C5.59174 8.28782 5.71849 8.29688 8.93262 8.29688C12.0562 8.29688 12.2826 8.28782 12.4184 8.13391C12.5994 7.93472 12.6176 7.47297 12.4636 7.31906C12.3822 7.23757 11.4768 7.21041 8.94168 7.21041H5.51931L5.3835 7.40959Z" fill="#79A78D"/>
    <path d="M3.53653 10.7052C3.15627 10.9678 3.38262 11.8279 3.84437 11.8279C4.01639 11.8279 4.35138 11.6559 4.44192 11.52C4.56868 11.3299 4.51435 10.9225 4.33327 10.7414C4.11598 10.5241 3.8172 10.506 3.53653 10.7052Z" fill="#79A78D"/>
    <path d="M5.3835 10.85C5.19337 11.1216 5.20242 11.3389 5.41972 11.5562C5.59174 11.7283 5.71849 11.7373 8.93262 11.7373C12.0562 11.7373 12.2826 11.7283 12.4184 11.5743C12.6085 11.3661 12.6176 10.9768 12.4274 10.7957C12.3097 10.6689 11.857 10.6508 8.90546 10.6508H5.51931L5.3835 10.85Z" fill="#79A78D"/>
    <path d="M12.69 13.4484C12.3369 13.548 11.8842 13.711 11.685 13.8106C11.1871 14.0641 10.2998 14.9061 9.94668 15.4493C8.83305 17.1877 9.10466 19.5779 10.5895 21.0537C13.4234 23.8876 18.2672 21.9319 18.3034 17.9392C18.3125 17.0157 18.1404 16.3004 17.733 15.5852C16.7461 13.8649 14.5732 12.9414 12.69 13.4484ZM14.9263 16.6354C15.5148 17.1786 15.9494 17.6404 15.9766 17.7762C16.0309 17.9844 15.9313 18.1202 15.035 18.9985C14.4827 19.5417 13.9575 19.9763 13.867 19.9763C13.5863 19.9763 13.4777 19.7862 13.4777 19.3063V18.8446H12.7896C11.9295 18.8446 11.848 18.754 11.848 17.8667C11.848 16.9432 11.8933 16.898 12.7534 16.898H13.4777V16.4815C13.4777 16.0107 13.6044 15.721 13.8036 15.721C13.8761 15.721 14.3831 16.1284 14.9263 16.6354Z" fill="#79A78D"/>
    <path d="M3.51841 14.1819C3.2649 14.4354 3.27395 14.9424 3.53652 15.1235C3.81719 15.3227 4.11596 15.3045 4.33326 15.0873C4.70447 14.716 4.4419 14.0008 3.92583 14.0008C3.79908 14.0008 3.618 14.0823 3.51841 14.1819Z" fill="#79A78D"/>
    <path d="M5.41972 14.2723C5.20242 14.4896 5.19337 14.7069 5.3835 14.9785C5.51931 15.1687 5.57363 15.1777 7.04036 15.1777H8.55236L8.93262 14.6345L9.30383 14.0913H7.44779C5.71849 14.0913 5.59174 14.1003 5.41972 14.2723Z" fill="#79A78D"/>
</svg>
