<svg width="24" height="24" viewBox="0 0 24 24" fill="none" xmlns="http://www.w3.org/2000/svg">
    <path d="M9.34303 18.7819L7.41103 18.2639L8.19803 15.3249C7.02009 14.8902 5.92528 14.257 4.96103 13.4529L2.80803 15.6069L1.39403 14.1929L3.54703 12.0389C2.33122 10.5825 1.51424 8.83558 1.17603 6.96886L3.14403 6.60986C3.52148 8.68367 4.6147 10.5593 6.23315 11.9097C7.85161 13.2602 9.89265 13.9999 12.0005 13.9999C14.1084 13.9999 16.1494 13.2602 17.7679 11.9097C19.3863 10.5593 20.4796 8.68367 20.857 6.60986L22.825 6.96786C22.4867 8.83503 21.6693 10.5824 20.453 12.0389L22.607 14.1929L21.193 15.6069L19.039 13.4529C18.0748 14.257 16.98 14.8902 15.802 15.3249L16.59 18.2649L14.658 18.7819L13.87 15.8419C12.6325 16.0554 11.3676 16.0554 10.13 15.8419L9.34303 18.7819Z" fill="#79A78D"/>
</svg>
