<svg width="37" height="20" viewBox="0 0 37 20" fill="none" xmlns="http://www.w3.org/2000/svg">
    <rect x="0.5" width="36" height="20" rx="10" fill="#E7E7E7"/>
    <path d="M8.48887 14.5V6.5H11.3404C11.9628 6.5 12.4785 6.61328 12.8873 6.83984C13.2962 7.06641 13.6021 7.3763 13.8053 7.76953C14.0084 8.16016 14.11 8.60026 14.11 9.08984C14.11 9.58203 14.0071 10.0247 13.8014 10.418C13.5982 10.8086 13.291 11.1185 12.8795 11.3477C12.4706 11.5742 11.9563 11.6875 11.3365 11.6875H9.37559V10.6641H11.2271C11.6204 10.6641 11.9394 10.5964 12.1842 10.4609C12.429 10.3229 12.6087 10.1354 12.7232 9.89844C12.8378 9.66146 12.8951 9.39193 12.8951 9.08984C12.8951 8.78776 12.8378 8.51953 12.7232 8.28516C12.6087 8.05078 12.4277 7.86719 12.1803 7.73438C11.9355 7.60156 11.6126 7.53516 11.2115 7.53516H9.6959V14.5H8.48887ZM15.125 14.5V6.5H17.9766C18.5964 6.5 19.1107 6.60677 19.5195 6.82031C19.931 7.03385 20.2383 7.32943 20.4414 7.70703C20.6445 8.08203 20.7461 8.51562 20.7461 9.00781C20.7461 9.4974 20.6432 9.92839 20.4375 10.3008C20.2344 10.6706 19.9271 10.9583 19.5156 11.1641C19.1068 11.3698 18.5924 11.4727 17.9727 11.4727H15.8125V10.4336H17.8633C18.2539 10.4336 18.5716 10.3776 18.8164 10.2656C19.0638 10.1536 19.2448 9.99089 19.3594 9.77734C19.474 9.5638 19.5312 9.30729 19.5312 9.00781C19.5312 8.70573 19.4727 8.44401 19.3555 8.22266C19.2409 8.0013 19.0599 7.83203 18.8125 7.71484C18.5677 7.59505 18.2461 7.53516 17.8477 7.53516H16.332V14.5H15.125ZM19.0742 10.8906L21.0508 14.5H19.6758L17.7383 10.8906H19.0742ZM28.7641 10.5C28.7641 11.3542 28.6078 12.0885 28.2953 12.7031C27.9828 13.3151 27.5544 13.7865 27.0102 14.1172C26.4685 14.4453 25.8526 14.6094 25.1625 14.6094C24.4698 14.6094 23.8513 14.4453 23.307 14.1172C22.7654 13.7865 22.3383 13.3138 22.0258 12.6992C21.7133 12.0846 21.557 11.3516 21.557 10.5C21.557 9.64583 21.7133 8.91276 22.0258 8.30078C22.3383 7.6862 22.7654 7.21484 23.307 6.88672C23.8513 6.55599 24.4698 6.39062 25.1625 6.39062C25.8526 6.39062 26.4685 6.55599 27.0102 6.88672C27.5544 7.21484 27.9828 7.6862 28.2953 8.30078C28.6078 8.91276 28.7641 9.64583 28.7641 10.5ZM27.5687 10.5C27.5687 9.84896 27.4633 9.30078 27.2523 8.85547C27.044 8.40755 26.7576 8.06901 26.393 7.83984C26.031 7.60807 25.6208 7.49219 25.1625 7.49219C24.7016 7.49219 24.2901 7.60807 23.9281 7.83984C23.5661 8.06901 23.2797 8.40755 23.0687 8.85547C22.8604 9.30078 22.7562 9.84896 22.7562 10.5C22.7562 11.151 22.8604 11.7005 23.0687 12.1484C23.2797 12.5937 23.5661 12.9323 23.9281 13.1641C24.2901 13.3932 24.7016 13.5078 25.1625 13.5078C25.6208 13.5078 26.031 13.3932 26.393 13.1641C26.7576 12.9323 27.044 12.5937 27.2523 12.1484C27.4633 11.7005 27.5687 11.151 27.5687 10.5Z" fill="#242424"/>
</svg>
