<svg width="328" height="58" viewBox="0 0 328 58" fill="none" xmlns="http://www.w3.org/2000/svg">
    <g clip-path="url(#clip0_211_4288)">
        <g clip-path="url(#clip1_211_4288)">
            <rect width="328" height="58" rx="10" fill="#9459D5"/>
            <path d="M140.778 30.3701H138.215V28.8936H140.778C141.198 28.8936 141.537 28.8252 141.797 28.6885C142.061 28.5472 142.255 28.3558 142.378 28.1143C142.501 27.8682 142.562 27.5879 142.562 27.2734C142.562 26.9681 142.501 26.6833 142.378 26.4189C142.255 26.1546 142.061 25.9404 141.797 25.7764C141.537 25.6123 141.198 25.5303 140.778 25.5303H138.83V34H136.95V24.0469H140.778C141.553 24.0469 142.214 24.1859 142.761 24.4639C143.312 24.7373 143.731 25.1178 144.019 25.6055C144.31 26.0885 144.456 26.64 144.456 27.2598C144.456 27.9023 144.31 28.4561 144.019 28.9209C143.731 29.3857 143.312 29.7435 142.761 29.9941C142.214 30.2448 141.553 30.3701 140.778 30.3701ZM147.601 28.1143V34H145.796V26.6035H147.505L147.601 28.1143ZM149.85 26.5557L149.822 28.2373C149.722 28.2191 149.608 28.2054 149.48 28.1963C149.357 28.1872 149.241 28.1826 149.132 28.1826C148.854 28.1826 148.61 28.2214 148.4 28.2988C148.191 28.3717 148.015 28.4788 147.874 28.6201C147.737 28.7614 147.632 28.9346 147.56 29.1396C147.487 29.3402 147.446 29.568 147.437 29.8232L147.047 29.7754C147.047 29.306 147.095 28.8708 147.19 28.4697C147.286 28.0687 147.425 27.7178 147.607 27.417C147.79 27.1162 148.018 26.8838 148.291 26.7197C148.569 26.5511 148.888 26.4668 149.248 26.4668C149.348 26.4668 149.455 26.4759 149.569 26.4941C149.688 26.5078 149.781 26.5283 149.85 26.5557ZM150.328 30.377V30.2334C150.328 29.6911 150.406 29.1921 150.561 28.7363C150.715 28.276 150.941 27.8773 151.237 27.54C151.534 27.2028 151.896 26.9408 152.324 26.7539C152.753 26.5625 153.24 26.4668 153.787 26.4668C154.343 26.4668 154.835 26.5625 155.264 26.7539C155.697 26.9408 156.061 27.2028 156.357 27.54C156.654 27.8773 156.879 28.276 157.034 28.7363C157.189 29.1921 157.267 29.6911 157.267 30.2334V30.377C157.267 30.9147 157.189 31.4137 157.034 31.874C156.879 32.3298 156.654 32.7285 156.357 33.0703C156.061 33.4076 155.699 33.6696 155.271 33.8564C154.842 34.0433 154.352 34.1367 153.801 34.1367C153.254 34.1367 152.764 34.0433 152.331 33.8564C151.898 33.6696 151.534 33.4076 151.237 33.0703C150.941 32.7285 150.715 32.3298 150.561 31.874C150.406 31.4137 150.328 30.9147 150.328 30.377ZM152.133 30.2334V30.377C152.133 30.7005 152.165 31.0036 152.229 31.2861C152.292 31.5687 152.39 31.8171 152.522 32.0312C152.655 32.2454 152.826 32.4141 153.035 32.5371C153.249 32.6556 153.505 32.7148 153.801 32.7148C154.092 32.7148 154.343 32.6556 154.553 32.5371C154.762 32.4141 154.933 32.2454 155.065 32.0312C155.202 31.8171 155.302 31.5687 155.366 31.2861C155.43 31.0036 155.462 30.7005 155.462 30.377V30.2334C155.462 29.9144 155.43 29.6159 155.366 29.3379C155.302 29.0553 155.202 28.807 155.065 28.5928C154.933 28.374 154.76 28.2031 154.546 28.0801C154.336 27.9525 154.083 27.8887 153.787 27.8887C153.495 27.8887 153.245 27.9525 153.035 28.0801C152.826 28.2031 152.655 28.374 152.522 28.5928C152.39 28.807 152.292 29.0553 152.229 29.3379C152.165 29.6159 152.133 29.9144 152.133 30.2334ZM163.282 26.6035H164.923V33.7744C164.923 34.4443 164.777 35.0117 164.485 35.4766C164.198 35.946 163.795 36.3014 163.275 36.543C162.756 36.7891 162.152 36.9121 161.464 36.9121C161.168 36.9121 160.846 36.8711 160.5 36.7891C160.158 36.707 159.828 36.5771 159.509 36.3994C159.194 36.2262 158.932 36.0007 158.723 35.7227L159.536 34.6562C159.782 34.9434 160.06 35.1598 160.37 35.3057C160.68 35.4561 161.015 35.5312 161.375 35.5312C161.74 35.5312 162.049 35.4629 162.305 35.3262C162.564 35.194 162.763 34.998 162.899 34.7383C163.041 34.4831 163.111 34.1686 163.111 33.7949V28.292L163.282 26.6035ZM158.285 30.3906V30.2471C158.285 29.682 158.354 29.1693 158.49 28.709C158.627 28.2441 158.823 27.8454 159.078 27.5127C159.338 27.18 159.65 26.9225 160.015 26.7402C160.384 26.5579 160.799 26.4668 161.259 26.4668C161.746 26.4668 162.157 26.5557 162.489 26.7334C162.826 26.9111 163.104 27.1641 163.323 27.4922C163.547 27.8203 163.72 28.21 163.843 28.6611C163.97 29.1077 164.068 29.5999 164.137 30.1377V30.5273C164.073 31.0514 163.97 31.5322 163.829 31.9697C163.692 32.4072 163.51 32.79 163.282 33.1182C163.054 33.4417 162.772 33.6924 162.435 33.8701C162.097 34.0479 161.701 34.1367 161.245 34.1367C160.789 34.1367 160.379 34.0433 160.015 33.8564C159.65 33.6696 159.338 33.4076 159.078 33.0703C158.823 32.7331 158.627 32.3366 158.49 31.8809C158.354 31.4251 158.285 30.9284 158.285 30.3906ZM160.09 30.2471V30.3906C160.09 30.7096 160.122 31.0081 160.186 31.2861C160.249 31.5641 160.347 31.8102 160.479 32.0244C160.612 32.234 160.778 32.3981 160.979 32.5166C161.179 32.6351 161.418 32.6943 161.696 32.6943C162.07 32.6943 162.375 32.6169 162.612 32.4619C162.854 32.3024 163.036 32.0859 163.159 31.8125C163.287 31.5345 163.369 31.2223 163.405 30.876V29.8027C163.382 29.5293 163.332 29.2764 163.255 29.0439C163.182 28.8115 163.079 28.611 162.947 28.4424C162.815 28.2738 162.646 28.1416 162.441 28.0459C162.236 27.9502 161.993 27.9023 161.71 27.9023C161.437 27.9023 161.197 27.9639 160.992 28.0869C160.787 28.2054 160.618 28.3717 160.486 28.5859C160.354 28.8001 160.254 29.0485 160.186 29.3311C160.122 29.6136 160.09 29.9189 160.09 30.2471ZM168.354 28.1143V34H166.55V26.6035H168.259L168.354 28.1143ZM170.604 26.5557L170.576 28.2373C170.476 28.2191 170.362 28.2054 170.234 28.1963C170.111 28.1872 169.995 28.1826 169.886 28.1826C169.608 28.1826 169.364 28.2214 169.154 28.2988C168.945 28.3717 168.769 28.4788 168.628 28.6201C168.491 28.7614 168.386 28.9346 168.313 29.1396C168.241 29.3402 168.2 29.568 168.19 29.8232L167.801 29.7754C167.801 29.306 167.849 28.8708 167.944 28.4697C168.04 28.0687 168.179 27.7178 168.361 27.417C168.544 27.1162 168.771 26.8838 169.045 26.7197C169.323 26.5511 169.642 26.4668 170.002 26.4668C170.102 26.4668 170.209 26.4759 170.323 26.4941C170.442 26.5078 170.535 26.5283 170.604 26.5557ZM174.78 34.1367C174.22 34.1367 173.716 34.0456 173.27 33.8633C172.823 33.681 172.442 33.4281 172.128 33.1045C171.818 32.7764 171.579 32.3958 171.41 31.9629C171.246 31.5254 171.164 31.056 171.164 30.5547V30.2812C171.164 29.7116 171.246 29.1943 171.41 28.7295C171.574 28.2601 171.807 27.8568 172.107 27.5195C172.408 27.1823 172.768 26.9225 173.188 26.7402C173.607 26.5579 174.069 26.4668 174.575 26.4668C175.099 26.4668 175.562 26.5557 175.963 26.7334C176.364 26.9066 176.699 27.1527 176.968 27.4717C177.237 27.7907 177.439 28.1735 177.576 28.6201C177.713 29.0622 177.781 29.5521 177.781 30.0898V30.8486H171.984V29.6045H176.004V29.4678C175.995 29.1807 175.94 28.9186 175.84 28.6816C175.74 28.4401 175.585 28.2487 175.375 28.1074C175.165 27.9616 174.894 27.8887 174.562 27.8887C174.293 27.8887 174.058 27.9479 173.857 28.0664C173.661 28.1803 173.497 28.3444 173.365 28.5586C173.238 28.7682 173.142 29.0189 173.078 29.3105C173.014 29.6022 172.982 29.9258 172.982 30.2812V30.5547C172.982 30.8646 173.023 31.1517 173.105 31.416C173.192 31.6803 173.317 31.9105 173.481 32.1064C173.65 32.2979 173.851 32.4482 174.083 32.5576C174.32 32.6624 174.589 32.7148 174.89 32.7148C175.268 32.7148 175.61 32.6419 175.915 32.4961C176.225 32.3457 176.494 32.1247 176.722 31.833L177.631 32.7764C177.476 33.0042 177.266 33.223 177.002 33.4326C176.742 33.6423 176.428 33.8132 176.059 33.9453C175.689 34.0729 175.263 34.1367 174.78 34.1367ZM183.059 31.9766C183.059 31.8216 183.018 31.6826 182.936 31.5596C182.854 31.4365 182.699 31.3249 182.471 31.2246C182.247 31.1198 181.919 31.0218 181.486 30.9307C181.104 30.8486 180.75 30.7461 180.427 30.623C180.103 30.5 179.825 30.3519 179.593 30.1787C179.36 30.001 179.178 29.7936 179.046 29.5566C178.918 29.3151 178.854 29.0371 178.854 28.7227C178.854 28.4173 178.921 28.1302 179.053 27.8613C179.185 27.5879 179.376 27.3486 179.627 27.1436C179.878 26.9339 180.183 26.7699 180.543 26.6514C180.903 26.5283 181.309 26.4668 181.76 26.4668C182.389 26.4668 182.929 26.5693 183.38 26.7744C183.836 26.9795 184.184 27.262 184.426 27.6221C184.667 27.9775 184.788 28.3786 184.788 28.8252H182.983C182.983 28.6292 182.938 28.4515 182.847 28.292C182.76 28.1325 182.626 28.0049 182.443 27.9092C182.261 27.8089 182.031 27.7588 181.753 27.7588C181.502 27.7588 181.29 27.7998 181.117 27.8818C180.949 27.9639 180.821 28.071 180.734 28.2031C180.648 28.3353 180.604 28.4811 180.604 28.6406C180.604 28.7591 180.627 28.8662 180.673 28.9619C180.723 29.0531 180.803 29.1374 180.912 29.2148C181.021 29.2923 181.17 29.363 181.356 29.4268C181.548 29.4906 181.783 29.5521 182.061 29.6113C182.612 29.7207 183.093 29.8665 183.503 30.0488C183.918 30.2266 184.241 30.4635 184.474 30.7598C184.706 31.056 184.822 31.4342 184.822 31.8945C184.822 32.2227 184.752 32.5234 184.61 32.7969C184.469 33.0658 184.264 33.3005 183.995 33.501C183.726 33.7015 183.405 33.8587 183.031 33.9727C182.658 34.082 182.236 34.1367 181.767 34.1367C181.088 34.1367 180.513 34.016 180.044 33.7744C179.575 33.5283 179.219 33.2184 178.978 32.8447C178.736 32.4665 178.615 32.0745 178.615 31.6689H180.345C180.358 31.9561 180.436 32.1862 180.577 32.3594C180.718 32.5326 180.896 32.6579 181.11 32.7354C181.329 32.8083 181.559 32.8447 181.801 32.8447C182.074 32.8447 182.304 32.8083 182.491 32.7354C182.678 32.6579 182.819 32.5553 182.915 32.4277C183.011 32.2956 183.059 32.1452 183.059 31.9766ZM190.264 31.9766C190.264 31.8216 190.223 31.6826 190.141 31.5596C190.059 31.4365 189.904 31.3249 189.676 31.2246C189.452 31.1198 189.124 31.0218 188.691 30.9307C188.309 30.8486 187.955 30.7461 187.632 30.623C187.308 30.5 187.03 30.3519 186.798 30.1787C186.565 30.001 186.383 29.7936 186.251 29.5566C186.123 29.3151 186.06 29.0371 186.06 28.7227C186.06 28.4173 186.126 28.1302 186.258 27.8613C186.39 27.5879 186.581 27.3486 186.832 27.1436C187.083 26.9339 187.388 26.7699 187.748 26.6514C188.108 26.5283 188.514 26.4668 188.965 26.4668C189.594 26.4668 190.134 26.5693 190.585 26.7744C191.041 26.9795 191.389 27.262 191.631 27.6221C191.872 27.9775 191.993 28.3786 191.993 28.8252H190.188C190.188 28.6292 190.143 28.4515 190.052 28.292C189.965 28.1325 189.831 28.0049 189.648 27.9092C189.466 27.8089 189.236 27.7588 188.958 27.7588C188.707 27.7588 188.495 27.7998 188.322 27.8818C188.154 27.9639 188.026 28.071 187.939 28.2031C187.853 28.3353 187.81 28.4811 187.81 28.6406C187.81 28.7591 187.832 28.8662 187.878 28.9619C187.928 29.0531 188.008 29.1374 188.117 29.2148C188.227 29.2923 188.375 29.363 188.562 29.4268C188.753 29.4906 188.988 29.5521 189.266 29.6113C189.817 29.7207 190.298 29.8665 190.708 30.0488C191.123 30.2266 191.446 30.4635 191.679 30.7598C191.911 31.056 192.027 31.4342 192.027 31.8945C192.027 32.2227 191.957 32.5234 191.815 32.7969C191.674 33.0658 191.469 33.3005 191.2 33.501C190.931 33.7015 190.61 33.8587 190.236 33.9727C189.863 34.082 189.441 34.1367 188.972 34.1367C188.293 34.1367 187.718 34.016 187.249 33.7744C186.78 33.5283 186.424 33.2184 186.183 32.8447C185.941 32.4665 185.82 32.0745 185.82 31.6689H187.55C187.563 31.9561 187.641 32.1862 187.782 32.3594C187.924 32.5326 188.101 32.6579 188.315 32.7354C188.534 32.8083 188.764 32.8447 189.006 32.8447C189.279 32.8447 189.509 32.8083 189.696 32.7354C189.883 32.6579 190.024 32.5553 190.12 32.4277C190.216 32.2956 190.264 32.1452 190.264 31.9766Z" fill="white"/>
            <g clip-path="url(#clip2_211_4288)">
                <path d="M43.3522 10.7875C43.456 11.7844 43.5597 13.0906 43.5597 13.675V14.7406L47.4686 14.9125C49.5786 15.0156 51.827 15.2906 52.3805 15.5312C52.9686 15.7719 53.9025 16.1844 54.5252 16.425C55.1132 16.7 55.7013 16.9062 55.805 16.9062C56.2893 16.9062 59.0566 18.8656 60.6478 20.3438C62.4119 21.9594 64.9025 25.0875 65.6289 26.5312C67.3585 30.1063 67.8774 32.2031 67.9119 36.1562C67.9465 39.6625 67.8428 40.4531 66.9434 43.0312C64.7296 49.5969 60.1981 54.375 53.7641 56.9531C51.7579 57.7781 50.6855 57.95 47.4686 58.0875L43.5597 58.2594V61.1125V64H46.9843C50.6509 64 54.283 63.2781 57.1195 61.9719C58.0189 61.5938 58.8145 61.25 58.9182 61.25C59.1604 61.25 63.0346 58.8094 63.2767 58.5344C63.3805 58.4313 64.0723 57.8125 64.8333 57.1594C68.6384 53.8938 72.3396 47.7062 73.4465 42.7219C74.1384 39.5594 74.173 33.475 73.4811 30.5875C72.6164 26.875 70.5063 22.3719 68.3616 19.7594C67.4623 18.6594 63.588 14.8438 63.3459 14.8438C63.2075 14.8438 62.6541 14.4656 62.1006 13.9844C61.5472 13.5031 60.8899 13.125 60.6132 13.125C60.3711 13.125 60.1635 13.0219 60.1635 12.85C60.1635 12.7125 59.6447 12.4031 59.0566 12.1281C56.8774 11.2344 55.8396 10.7875 54.8019 10.4094C53.0723 9.75625 48.022 9 45.4969 9H43.1101L43.3522 10.7875Z" fill="#A16BDD"/>
                <path d="M34.3931 11.4749C33.6321 11.853 32.6635 12.3687 32.2484 12.6437L31.4874 13.1249L32.9057 15.3593C33.6667 16.5968 34.4277 17.6624 34.5314 17.7655C34.739 17.8687 36.9874 16.9405 37.9906 16.3218C38.1289 16.253 36.2956 11.3718 35.9843 10.9937C35.8805 10.8905 35.1541 11.0968 34.3931 11.4749Z" fill="#A16BDD"/>
                <path d="M24.7421 19.0377C24.3962 19.4502 23.8082 20.2752 23.4277 20.894L22.7704 22.0283L24.0849 22.8533C24.8113 23.3002 25.8836 23.919 26.5063 24.2283C27.5786 24.8127 27.5786 24.8127 28.6509 23.5752C29.239 22.9221 29.7233 22.269 29.7233 22.0971C29.7233 21.5815 26.195 18.2815 25.6415 18.2815C25.5031 18.2815 25.088 18.6252 24.7421 19.0377Z" fill="#A16BDD"/>
                <path d="M54.7327 27.4937C53.695 28.5594 53.4528 28.8344 48.2296 34.7812C43.0409 40.6594 42.8679 40.8312 42.5912 40.4187C42.0723 39.6969 35.8459 35.0906 35.4654 35.2281C34.8428 35.4344 32.4906 39.5594 32.6981 40.1094C32.8365 40.3844 33.044 40.625 33.1824 40.625C33.3553 40.625 34.0818 41.1406 34.8082 41.725C35.5692 42.3438 36.6069 43.1687 37.1258 43.5469C37.9906 44.1312 39.5126 45.3344 41.5189 46.95C41.7956 47.1906 42.5566 47.6719 43.1792 48.05L44.2862 48.7031L45.3585 47.5C47.434 45.1281 50.6855 41.4844 52.0346 39.9375C58.5377 32.6844 60.1635 30.7594 60.1635 30.45C60.1635 30.1406 57.0503 27.3219 56.1509 26.7719C55.8396 26.6 55.3553 26.8406 54.7327 27.4937Z" fill="#A16BDD"/>
                <path d="M19.3805 29.2126C19.1384 29.7626 19 30.8282 19.0692 31.5501C19.173 32.8563 19.2075 32.8907 20.7296 33.097C21.5943 33.2001 22.8396 33.4063 23.5314 33.5438L24.7767 33.8188L24.9497 32.3063C25.0535 31.5157 25.261 30.5876 25.3648 30.3126C25.5377 29.9001 25.1226 29.6595 23.6006 29.2126C19.761 28.1126 19.8302 28.0782 19.3805 29.2126Z" fill="#A16BDD"/>
                <path d="M19.7956 39.4907C18.8616 39.6626 18.7579 40.9001 19.4151 43.0657C19.8648 44.5782 19.6572 44.5439 23.2547 43.3064C24.673 42.7907 25.1918 42.447 25.0535 42.1032C24.9497 41.8282 24.8805 41.072 24.8805 40.4189V39.2501L22.7358 39.2845C21.5252 39.3189 20.2107 39.422 19.7956 39.4907Z" fill="#A16BDD"/>
                <path d="M26.8868 48.1189C26.8522 48.2908 25.8836 48.9783 24.7767 49.6658C22.805 50.9377 22.805 50.9377 23.2893 51.9002C23.566 52.4158 24.1541 53.2752 24.6384 53.8252C25.4685 54.7877 25.5723 54.7877 26.3333 54.3064C27.4402 53.5502 29.7233 51.3502 29.7233 51.0064C29.7233 50.6283 27.544 47.8439 27.2673 47.8439C27.1289 47.8439 26.956 47.9814 26.8868 48.1189Z" fill="#A16BDD"/>
                <path d="M33.044 57.3656C32.2138 58.6719 31.6258 59.8062 31.695 59.9781C31.7641 60.1156 32.7673 60.7 33.9088 61.25L35.9497 62.2812L36.9874 60.0125C37.5409 58.7406 38.0251 57.5031 38.0251 57.2625C38.0251 56.9875 37.2641 56.4031 36.2956 55.9219L34.566 55.0625L33.044 57.3656Z" fill="#A16BDD"/>
            </g>
        </g>
    </g>
    <defs>
        <clipPath id="clip0_211_4288">
            <rect width="328" height="58" rx="10" fill="white"/>
        </clipPath>
        <clipPath id="clip1_211_4288">
            <rect width="328" height="58" fill="white"/>
        </clipPath>
        <clipPath id="clip2_211_4288">
            <rect width="55" height="55" fill="white" transform="translate(19 9)"/>
        </clipPath>
    </defs>
</svg>
