<svg width="14" height="15" viewBox="0 0 14 15" fill="none" xmlns="http://www.w3.org/2000/svg">
    <path fill-rule="evenodd" clip-rule="evenodd" d="M1.75007 5.75C1.75007 4.35761 2.30319 3.02226 3.28776 2.03769C4.27233 1.05312 5.60768 0.5 7.00007 0.5C8.39246 0.5 9.72781 1.05312 10.7124 2.03769C11.6969 3.02226 12.2501 4.35761 12.2501 5.75V8.573L13.6166 11.306C13.6795 11.4318 13.7092 11.5716 13.7029 11.7121C13.6965 11.8526 13.6544 11.9891 13.5805 12.1088C13.5065 12.2284 13.4032 12.3271 13.2804 12.3956C13.1575 12.4641 13.0192 12.5 12.8786 12.5H9.90557C9.73874 13.1437 9.36289 13.7137 8.83702 14.1207C8.31114 14.5276 7.66502 14.7485 7.00007 14.7485C6.33512 14.7485 5.689 14.5276 5.16312 14.1207C4.63725 13.7137 4.2614 13.1437 4.09457 12.5H1.12157C0.980928 12.5 0.842616 12.4641 0.71977 12.3956C0.596924 12.3271 0.493623 12.2284 0.419679 12.1088C0.345734 11.9891 0.303601 11.8526 0.297281 11.7121C0.290961 11.5716 0.320665 11.4318 0.38357 11.306L1.75007 8.573V5.75ZM5.70107 12.5C5.83273 12.728 6.02208 12.9174 6.2501 13.049C6.47812 13.1806 6.73678 13.2499 7.00007 13.2499C7.26336 13.2499 7.52202 13.1806 7.75004 13.049C7.97806 12.9174 8.16741 12.728 8.29907 12.5H5.70107ZM7.00007 2C6.00551 2 5.05168 2.39509 4.34842 3.09835C3.64516 3.80161 3.25007 4.75544 3.25007 5.75V8.573C3.25005 8.80575 3.19588 9.0353 3.09182 9.2435L2.21432 11H11.7866L10.9091 9.2435C10.8048 9.03537 10.7503 8.80581 10.7501 8.573V5.75C10.7501 4.75544 10.355 3.80161 9.65172 3.09835C8.94846 2.39509 7.99463 2 7.00007 2Z" fill="white" fill-opacity="0.3"/>
</svg>
