<svg width="24" height="25" viewBox="0 0 24 25" fill="none" xmlns="http://www.w3.org/2000/svg">
    <path d="M8.439 0.678123C8.12962 0.889061 8.01712 1.06719 7.98431 1.40937C7.94681 1.76562 8.03587 2.05625 8.24681 2.2625C8.54681 2.5625 8.62181 2.58125 9.83587 2.6L10.9234 2.61875V12.5281V22.4375H9.8265C9.16556 22.4375 8.67337 22.4562 8.59368 22.4891C8.26087 22.6109 7.97493 23.0469 7.97025 23.4219C7.97025 23.8812 8.13431 24.1672 8.51868 24.3781L8.73431 24.5H12.0015H15.2687L15.4843 24.3781C15.8687 24.1672 16.0327 23.8812 16.0327 23.4219C16.0281 23.0469 15.7421 22.6109 15.4093 22.4891C15.3296 22.4562 14.8374 22.4375 14.1765 22.4375H13.0796V12.5281V2.61875L14.1718 2.6C15.3765 2.58125 15.4562 2.5625 15.7562 2.26719C15.9343 2.08437 16.0327 1.83594 16.0327 1.55C16.0327 1.11875 15.8593 0.828125 15.4843 0.621874L15.2687 0.5H11.9827L8.69681 0.504686L8.439 0.678123Z" fill="white"/>
    <path d="M3.39994 4.53125C2.84213 4.61562 2.56088 4.71406 1.99369 5.02344C1.36557 5.36094 0.807754 5.94687 0.437442 6.65469C0.310879 6.88437 0.0952544 7.55937 0.0952544 7.70937C0.0952544 7.76562 0.0765044 7.8125 0.0483794 7.8125C-0.00318313 7.8125 -0.0219331 17.1031 0.0343169 17.1547C0.0483794 17.1734 0.109317 17.3703 0.170254 17.5953C0.296817 18.0969 0.446817 18.425 0.742129 18.8375C1.07963 19.3156 1.6515 19.8219 2.05463 20C2.17182 20.0562 2.28432 20.1125 2.29838 20.1359C2.33588 20.1922 2.85619 20.3656 3.189 20.4312C3.41869 20.4781 4.19682 20.4922 6.28275 20.4922H9.07182L9.08588 19.4703L9.09525 18.4531H6.57807C5.19057 18.4531 3.93432 18.4344 3.77963 18.4062C3.25932 18.3219 2.80463 18.0453 2.48119 17.6141C2.08744 17.0984 2.11088 17.3984 2.11088 12.5C2.11088 7.65312 2.09213 7.93437 2.44369 7.41875C2.65932 7.10469 2.89838 6.91719 3.35307 6.70156L3.63432 6.57031L6.36713 6.55625L9.09525 6.54219L9.08588 5.525L9.07182 4.50781L6.35307 4.50312C4.85775 4.49844 3.53119 4.5125 3.39994 4.53125Z" fill="white"/>
    <path d="M14.9406 4.5125C14.9218 4.53125 14.9077 4.99531 14.9077 5.54375V6.54219L17.6406 6.55625L20.3687 6.57031L20.6452 6.70156C21.0812 6.90781 21.3156 7.09531 21.5452 7.40469C21.9343 7.94375 21.9156 7.65781 21.9156 12.5C21.9156 17.3703 21.939 17.0656 21.5265 17.6141C21.1984 18.0453 20.7437 18.3219 20.2234 18.4063C20.0687 18.4344 18.8124 18.4531 17.4249 18.4531H14.9077L14.9171 19.4703L14.9312 20.4922H17.7671C20.3171 20.4922 20.6359 20.4828 20.9452 20.4078C21.3062 20.3234 21.6671 20.1922 21.7046 20.1359C21.7187 20.1172 21.8452 20.0469 21.9859 19.9813C22.5343 19.7188 23.2046 19.0297 23.5656 18.3453C23.6921 18.1156 23.9077 17.4406 23.9077 17.2906C23.9077 17.2344 23.9312 17.1875 23.9546 17.1875C23.9874 17.1875 24.0015 15.5938 24.0015 12.5C24.0015 9.40625 23.9874 7.8125 23.9546 7.8125C23.9312 7.8125 23.9077 7.75625 23.9077 7.68125C23.9077 7.46094 23.6031 6.65469 23.4109 6.37344C22.989 5.75 22.5202 5.29063 22.0234 5.02813C21.5171 4.75625 21.414 4.71406 21.0577 4.61563C20.7109 4.51719 20.589 4.5125 17.8374 4.49844C16.2624 4.48906 14.9593 4.49375 14.9406 4.5125Z" fill="white"/>
</svg>
