<svg width="24" height="24" viewBox="0 0 24 24" fill="none" xmlns="http://www.w3.org/2000/svg">
    <path d="M8.5 3.75001V5.64701C8.5 6.10701 8.875 6.48501 9.344 6.48501H14.656C14.7665 6.48553 14.876 6.46426 14.9782 6.42241C15.0805 6.38056 15.1735 6.31894 15.2518 6.2411C15.3302 6.16326 15.3925 6.07072 15.4351 5.96877C15.4777 5.86683 15.4997 5.75749 15.5 5.64701V3.81701C15.3132 3.77287 15.1219 3.75039 14.93 3.75001H8.5ZM17.313 21.75H6.688C6.17148 21.7511 5.65983 21.6503 5.18229 21.4534C4.70475 21.2566 4.2707 20.9676 3.90496 20.6028C3.53922 20.2381 3.24896 19.8049 3.05078 19.3279C2.8526 18.8509 2.75039 18.3395 2.75 17.823V6.17601C2.75052 5.65958 2.85283 5.14831 3.05107 4.67144C3.2493 4.19457 3.53958 3.76145 3.90531 3.39683C4.27104 3.03222 4.70505 2.74326 5.18252 2.54648C5.65999 2.3497 6.17157 2.24896 6.688 2.25001H14.93C15.9731 2.25083 16.9736 2.66424 17.713 3.40001L20.096 5.77401C20.4616 6.13802 20.7517 6.57062 20.9497 7.04698C21.1477 7.52335 21.2498 8.03412 21.25 8.55001V17.822C21.2496 18.3384 21.1474 18.8497 20.9493 19.3267C20.7512 19.8036 20.461 20.2368 20.0954 20.6015C19.7298 20.9662 19.2958 21.2553 18.8184 21.4522C18.341 21.6491 17.8294 21.7509 17.313 21.75ZM15.5 20.249V16.234C15.4997 16.1235 15.4777 16.0142 15.4351 15.9122C15.3925 15.8103 15.3302 15.7178 15.2518 15.6399C15.1735 15.5621 15.0805 15.5005 14.9782 15.4586C14.876 15.4168 14.7665 15.3955 14.656 15.396H9.344C9.23352 15.3955 9.12402 15.4168 9.02178 15.4586C8.91953 15.5005 8.82655 15.5621 8.74815 15.6399C8.66975 15.7178 8.60748 15.8103 8.5649 15.9122C8.52232 16.0142 8.50026 16.1235 8.5 16.234V20.249H15.5Z" fill="#79A78D"/>
</svg>
