<svg width="22" height="23" viewBox="0 0 22 23" fill="none" xmlns="http://www.w3.org/2000/svg">
    <path d="M11 2.33301C5.94917 2.33301 1.83334 6.44884 1.83334 11.4997C1.83334 16.5505 5.94917 20.6663 11 20.6663C16.0508 20.6663 20.1667 16.5505 20.1667 11.4997C20.1667 6.44884 16.0508 2.33301 11 2.33301ZM15.3817 9.39134L10.1842 14.5888C10.0558 14.7172 9.88167 14.7905 9.69834 14.7905C9.515 14.7905 9.34084 14.7172 9.2125 14.5888L6.61834 11.9947C6.3525 11.7288 6.3525 11.2888 6.61834 11.023C6.88417 10.7572 7.32417 10.7572 7.59 11.023L9.69834 13.1313L14.41 8.41967C14.6758 8.15384 15.1158 8.15384 15.3817 8.41967C15.6475 8.68551 15.6475 9.11634 15.3817 9.39134Z" fill="white"/>
</svg>
