<svg width="26" height="26" viewBox="0 0 26 26" fill="none" xmlns="http://www.w3.org/2000/svg">
    <path d="M16.9813 18.2272L18.2 17.0084L13.8938 12.6751V7.23133H12.2688V13.3251L16.9813 18.2272ZM13 23.8334C11.5195 23.8334 10.1202 23.549 8.8021 22.9803C7.48405 22.4115 6.33301 21.6351 5.34898 20.6511C4.36495 19.6671 3.58856 18.5161 3.01981 17.198C2.45106 15.8799 2.16669 14.4806 2.16669 13.0001C2.16669 11.5195 2.45106 10.1202 3.01981 8.80216C3.58856 7.48411 4.36495 6.33307 5.34898 5.34904C6.33301 4.36501 7.48405 3.58862 8.8021 3.01987C10.1202 2.45112 11.5195 2.16675 13 2.16675C14.4806 2.16675 15.8799 2.45112 17.1979 3.01987C18.516 3.58862 19.667 4.36501 20.6511 5.34904C21.6351 6.33307 22.4115 7.48411 22.9802 8.80216C23.549 10.1202 23.8334 11.5195 23.8334 13.0001C23.8334 14.4806 23.549 15.8799 22.9802 17.198C22.4115 18.5161 21.6351 19.6671 20.6511 20.6511C19.667 21.6351 18.516 22.4115 17.1979 22.9803C15.8799 23.549 14.4806 23.8334 13 23.8334ZM13 22.2084C15.5278 22.2084 17.6945 21.3056 19.5 19.5001C21.3056 17.6945 22.2084 15.5279 22.2084 13.0001C22.2084 10.4723 21.3056 8.30564 19.5 6.50008C17.6945 4.69453 15.5278 3.79175 13 3.79175C10.4722 3.79175 8.30558 4.69453 6.50002 6.50008C4.69446 8.30564 3.79169 10.4723 3.79169 13.0001C3.79169 15.5279 4.69446 17.6945 6.50002 19.5001C8.30558 21.3056 10.4722 22.2084 13 22.2084Z" fill="white"/>
</svg>
