<svg width="49" height="46" viewBox="0 0 49 46" fill="none" xmlns="http://www.w3.org/2000/svg">
    <path d="M8.12305 40.3438C8.12305 40.1445 8.0918 39.9688 8.0293 39.8164C7.9707 39.6602 7.86523 39.5195 7.71289 39.3945C7.56445 39.2695 7.35742 39.1504 7.0918 39.0371C6.83008 38.9238 6.49805 38.8086 6.0957 38.6914C5.67383 38.5664 5.29297 38.4277 4.95312 38.2754C4.61328 38.1191 4.32227 37.9414 4.08008 37.7422C3.83789 37.543 3.65234 37.3145 3.52344 37.0566C3.39453 36.7988 3.33008 36.5039 3.33008 36.1719C3.33008 35.8398 3.39844 35.5332 3.53516 35.252C3.67188 34.9707 3.86719 34.7266 4.12109 34.5195C4.37891 34.3086 4.68555 34.1445 5.04102 34.0273C5.39648 33.9102 5.79297 33.8516 6.23047 33.8516C6.87109 33.8516 7.41406 33.9746 7.85938 34.2207C8.30859 34.4629 8.65039 34.7812 8.88477 35.1758C9.11914 35.5664 9.23633 35.9844 9.23633 36.4297H8.11133C8.11133 36.1094 8.04297 35.8262 7.90625 35.5801C7.76953 35.3301 7.5625 35.1348 7.28516 34.9941C7.00781 34.8496 6.65625 34.7773 6.23047 34.7773C5.82812 34.7773 5.49609 34.8379 5.23438 34.959C4.97266 35.0801 4.77734 35.2441 4.64844 35.4512C4.52344 35.6582 4.46094 35.8945 4.46094 36.1602C4.46094 36.3398 4.49805 36.5039 4.57227 36.6523C4.65039 36.7969 4.76953 36.9316 4.92969 37.0566C5.09375 37.1816 5.30078 37.2969 5.55078 37.4023C5.80469 37.5078 6.10742 37.6094 6.45898 37.707C6.94336 37.8438 7.36133 37.9961 7.71289 38.1641C8.06445 38.332 8.35352 38.5215 8.58008 38.7324C8.81055 38.9395 8.98047 39.1758 9.08984 39.4414C9.20312 39.7031 9.25977 40 9.25977 40.332C9.25977 40.6797 9.18945 40.9941 9.04883 41.2754C8.9082 41.5566 8.70703 41.7969 8.44531 41.9961C8.18359 42.1953 7.86914 42.3496 7.50195 42.459C7.13867 42.5645 6.73242 42.6172 6.2832 42.6172C5.88867 42.6172 5.5 42.5625 5.11719 42.4531C4.73828 42.3438 4.39258 42.1797 4.08008 41.9609C3.77148 41.7422 3.52344 41.4727 3.33594 41.1523C3.15234 40.8281 3.06055 40.4531 3.06055 40.0273H4.18555C4.18555 40.3203 4.24219 40.5723 4.35547 40.7832C4.46875 40.9902 4.62305 41.1621 4.81836 41.2988C5.01758 41.4355 5.24219 41.5371 5.49219 41.6035C5.74609 41.666 6.00977 41.6973 6.2832 41.6973C6.67773 41.6973 7.01172 41.6426 7.28516 41.5332C7.55859 41.4238 7.76562 41.2676 7.90625 41.0645C8.05078 40.8613 8.12305 40.6211 8.12305 40.3438ZM13.168 42.6172C12.7266 42.6172 12.3262 42.543 11.9668 42.3945C11.6113 42.2422 11.3047 42.0293 11.0469 41.7559C10.793 41.4824 10.5977 41.1582 10.4609 40.7832C10.3242 40.4082 10.2559 39.998 10.2559 39.5527V39.3066C10.2559 38.791 10.332 38.332 10.4844 37.9297C10.6367 37.5234 10.8438 37.1797 11.1055 36.8984C11.3672 36.6172 11.6641 36.4043 11.9961 36.2598C12.3281 36.1152 12.6719 36.043 13.0273 36.043C13.4805 36.043 13.8711 36.1211 14.1992 36.2773C14.5312 36.4336 14.8027 36.6523 15.0137 36.9336C15.2246 37.2109 15.3809 37.5391 15.4824 37.918C15.584 38.293 15.6348 38.7031 15.6348 39.1484V39.6348H10.9004V38.75H14.5508V38.668C14.5352 38.3867 14.4766 38.1133 14.375 37.8477C14.2773 37.582 14.1211 37.3633 13.9062 37.1914C13.6914 37.0195 13.3984 36.9336 13.0273 36.9336C12.7812 36.9336 12.5547 36.9863 12.3477 37.0918C12.1406 37.1934 11.9629 37.3457 11.8145 37.5488C11.666 37.752 11.5508 38 11.4688 38.293C11.3867 38.5859 11.3457 38.9238 11.3457 39.3066V39.5527C11.3457 39.8535 11.3867 40.1367 11.4688 40.4023C11.5547 40.6641 11.6777 40.8945 11.8379 41.0938C12.002 41.293 12.1992 41.4492 12.4297 41.5625C12.6641 41.6758 12.9297 41.7324 13.2266 41.7324C13.6094 41.7324 13.9336 41.6543 14.1992 41.498C14.4648 41.3418 14.6973 41.1328 14.8965 40.8711L15.5527 41.3926C15.416 41.5996 15.2422 41.7969 15.0312 41.9844C14.8203 42.1719 14.5605 42.3242 14.252 42.4414C13.9473 42.5586 13.5859 42.6172 13.168 42.6172ZM19.5547 36.1602V36.9922H16.127V36.1602H19.5547ZM17.2871 34.6191H18.3711V40.9297C18.3711 41.1445 18.4043 41.3066 18.4707 41.416C18.5371 41.5254 18.623 41.5977 18.7285 41.6328C18.834 41.668 18.9473 41.6855 19.0684 41.6855C19.1582 41.6855 19.252 41.6777 19.3496 41.6621C19.4512 41.6426 19.5273 41.627 19.5781 41.6152L19.584 42.5C19.498 42.5273 19.3848 42.5527 19.2441 42.5762C19.1074 42.6035 18.9414 42.6172 18.7461 42.6172C18.4805 42.6172 18.2363 42.5645 18.0137 42.459C17.791 42.3535 17.6133 42.1777 17.4805 41.9316C17.3516 41.6816 17.2871 41.3457 17.2871 40.9238V34.6191ZM23.4805 36.1602V36.9922H20.0527V36.1602H23.4805ZM21.2129 34.6191H22.2969V40.9297C22.2969 41.1445 22.3301 41.3066 22.3965 41.416C22.4629 41.5254 22.5488 41.5977 22.6543 41.6328C22.7598 41.668 22.873 41.6855 22.9941 41.6855C23.084 41.6855 23.1777 41.6777 23.2754 41.6621C23.377 41.6426 23.4531 41.627 23.5039 41.6152L23.5098 42.5C23.4238 42.5273 23.3105 42.5527 23.1699 42.5762C23.0332 42.6035 22.8672 42.6172 22.6719 42.6172C22.4062 42.6172 22.1621 42.5645 21.9395 42.459C21.7168 42.3535 21.5391 42.1777 21.4062 41.9316C21.2773 41.6816 21.2129 41.3457 21.2129 40.9238V34.6191ZM25.9297 36.1602V42.5H24.8398V36.1602H25.9297ZM24.7578 34.4785C24.7578 34.3027 24.8105 34.1543 24.916 34.0332C25.0254 33.9121 25.1855 33.8516 25.3965 33.8516C25.6035 33.8516 25.7617 33.9121 25.8711 34.0332C25.9844 34.1543 26.041 34.3027 26.041 34.4785C26.041 34.6465 25.9844 34.791 25.8711 34.9121C25.7617 35.0293 25.6035 35.0879 25.3965 35.0879C25.1855 35.0879 25.0254 35.0293 24.916 34.9121C24.8105 34.791 24.7578 34.6465 24.7578 34.4785ZM28.7539 37.5137V42.5H27.6699V36.1602H28.6953L28.7539 37.5137ZM28.4961 39.0898L28.0449 39.0723C28.0488 38.6387 28.1133 38.2383 28.2383 37.8711C28.3633 37.5 28.5391 37.1777 28.7656 36.9043C28.9922 36.6309 29.2617 36.4199 29.5742 36.2715C29.8906 36.1191 30.2402 36.043 30.623 36.043C30.9355 36.043 31.2168 36.0859 31.4668 36.1719C31.7168 36.2539 31.9297 36.3867 32.1055 36.5703C32.2852 36.7539 32.4219 36.9922 32.5156 37.2852C32.6094 37.5742 32.6562 37.9277 32.6562 38.3457V42.5H31.5664V38.334C31.5664 38.002 31.5176 37.7363 31.4199 37.5371C31.3223 37.334 31.1797 37.1875 30.9922 37.0977C30.8047 37.0039 30.5742 36.957 30.3008 36.957C30.0312 36.957 29.7852 37.0137 29.5625 37.127C29.3438 37.2402 29.1543 37.3965 28.9941 37.5957C28.8379 37.7949 28.7148 38.0234 28.625 38.2812C28.5391 38.5352 28.4961 38.8047 28.4961 39.0898ZM38.4102 36.1602H39.3945V42.3652C39.3945 42.9238 39.2812 43.4004 39.0547 43.7949C38.8281 44.1895 38.5117 44.4883 38.1055 44.6914C37.7031 44.8984 37.2383 45.002 36.7109 45.002C36.4922 45.002 36.2344 44.9668 35.9375 44.8965C35.6445 44.8301 35.3555 44.7148 35.0703 44.5508C34.7891 44.3906 34.5527 44.1738 34.3613 43.9004L34.9297 43.2559C35.1953 43.5762 35.4727 43.7988 35.7617 43.9238C36.0547 44.0488 36.3438 44.1113 36.6289 44.1113C36.9727 44.1113 37.2695 44.0469 37.5195 43.918C37.7695 43.7891 37.9629 43.5977 38.0996 43.3438C38.2402 43.0938 38.3105 42.7852 38.3105 42.418V37.5547L38.4102 36.1602ZM34.0449 39.4004V39.2773C34.0449 38.793 34.1016 38.3535 34.2148 37.959C34.332 37.5605 34.498 37.2188 34.7129 36.9336C34.9316 36.6484 35.1953 36.4297 35.5039 36.2773C35.8125 36.1211 36.1602 36.043 36.5469 36.043C36.9453 36.043 37.293 36.1133 37.5898 36.2539C37.8906 36.3906 38.1445 36.5918 38.3516 36.8574C38.5625 37.1191 38.7285 37.4355 38.8496 37.8066C38.9707 38.1777 39.0547 38.5977 39.1016 39.0664V39.6055C39.0586 40.0703 38.9746 40.4883 38.8496 40.8594C38.7285 41.2305 38.5625 41.5469 38.3516 41.8086C38.1445 42.0703 37.8906 42.2715 37.5898 42.4121C37.2891 42.5488 36.9375 42.6172 36.5352 42.6172C36.1562 42.6172 35.8125 42.5371 35.5039 42.377C35.1992 42.2168 34.9375 41.9922 34.7188 41.7031C34.5 41.4141 34.332 41.0742 34.2148 40.6836C34.1016 40.2891 34.0449 39.8613 34.0449 39.4004ZM35.1289 39.2773V39.4004C35.1289 39.7168 35.1602 40.0137 35.2227 40.291C35.2891 40.5684 35.3887 40.8125 35.5215 41.0234C35.6582 41.2344 35.832 41.4004 36.043 41.5215C36.2539 41.6387 36.5059 41.6973 36.7988 41.6973C37.1582 41.6973 37.4551 41.6211 37.6895 41.4688C37.9238 41.3164 38.1094 41.1152 38.2461 40.8652C38.3867 40.6152 38.4961 40.3438 38.5742 40.0508V38.6387C38.5312 38.4238 38.4648 38.2168 38.375 38.0176C38.2891 37.8145 38.1758 37.6348 38.0352 37.4785C37.8984 37.3184 37.7285 37.1914 37.5254 37.0977C37.3223 37.0039 37.084 36.957 36.8105 36.957C36.5137 36.957 36.2578 37.0195 36.043 37.1445C35.832 37.2656 35.6582 37.4336 35.5215 37.6484C35.3887 37.8594 35.2891 38.1055 35.2227 38.3867C35.1602 38.6641 35.1289 38.9609 35.1289 39.2773ZM44.7324 40.8184C44.7324 40.6621 44.6973 40.5176 44.627 40.3848C44.5605 40.248 44.4219 40.125 44.2109 40.0156C44.0039 39.9023 43.6914 39.8047 43.2734 39.7227C42.9219 39.6484 42.6035 39.5605 42.3184 39.459C42.0371 39.3574 41.7969 39.2344 41.5977 39.0898C41.4023 38.9453 41.252 38.7754 41.1465 38.5801C41.041 38.3848 40.9883 38.1562 40.9883 37.8945C40.9883 37.6445 41.043 37.4082 41.1523 37.1855C41.2656 36.9629 41.4238 36.7656 41.627 36.5938C41.834 36.4219 42.082 36.2871 42.3711 36.1895C42.6602 36.0918 42.9824 36.043 43.3379 36.043C43.8457 36.043 44.2793 36.1328 44.6387 36.3125C44.998 36.4922 45.2734 36.7324 45.4648 37.0332C45.6562 37.3301 45.752 37.6602 45.752 38.0234H44.668C44.668 37.8477 44.6152 37.6777 44.5098 37.5137C44.4082 37.3457 44.2578 37.207 44.0586 37.0977C43.8633 36.9883 43.623 36.9336 43.3379 36.9336C43.0371 36.9336 42.793 36.9805 42.6055 37.0742C42.4219 37.1641 42.2871 37.2793 42.2012 37.4199C42.1191 37.5605 42.0781 37.709 42.0781 37.8652C42.0781 37.9824 42.0977 38.0879 42.1367 38.1816C42.1797 38.2715 42.2539 38.3555 42.3594 38.4336C42.4648 38.5078 42.6133 38.5781 42.8047 38.6445C42.9961 38.7109 43.2402 38.7773 43.5371 38.8438C44.0566 38.9609 44.4844 39.1016 44.8203 39.2656C45.1562 39.4297 45.4062 39.6309 45.5703 39.8691C45.7344 40.1074 45.8164 40.3965 45.8164 40.7363C45.8164 41.0137 45.7578 41.2676 45.6406 41.498C45.5273 41.7285 45.3613 41.9277 45.1426 42.0957C44.9277 42.2598 44.6699 42.3887 44.3691 42.4824C44.0723 42.5723 43.7383 42.6172 43.3672 42.6172C42.8086 42.6172 42.3359 42.5176 41.9492 42.3184C41.5625 42.1191 41.2695 41.8613 41.0703 41.5449C40.8711 41.2285 40.7715 40.8945 40.7715 40.543H41.8613C41.877 40.8398 41.9629 41.0762 42.1191 41.252C42.2754 41.4238 42.4668 41.5469 42.6934 41.6211C42.9199 41.6914 43.1445 41.7266 43.3672 41.7266C43.6641 41.7266 43.9121 41.6875 44.1113 41.6094C44.3145 41.5312 44.4688 41.4238 44.5742 41.2871C44.6797 41.1504 44.7324 40.9941 44.7324 40.8184Z" fill="#777E99"/>
    <path d="M33.138 14.636L33.039 13.641L33.006 13.644L32.974 13.65L33.138 14.636ZM33.138 14.636L33.238 15.631L33.271 15.628L33.303 15.623L33.138 14.636ZM29.098 20.118L29.731 19.344L29.723 19.338L29.098 20.118ZM29.098 20.118L28.465 20.892L28.473 20.899L29.098 20.118ZM19.902 20.118L19.269 19.345L19.253 19.358L19.238 19.371L19.902 20.118ZM19.902 20.118L20.535 20.893L20.551 20.88L20.566 20.866L19.902 20.118ZM15.861 10.364V9.36402H15.811L15.762 9.36902L15.861 10.364ZM15.861 10.364V11.364H15.911L15.961 11.359L15.861 10.364ZM27.631 3.76102C27.6145 3.56867 27.5908 3.37691 27.562 3.18602C27.5311 2.97588 27.467 2.77199 27.372 2.58202L25.595 3.50002C25.572 3.45502 25.577 3.43902 25.59 3.51802C25.605 3.60702 25.618 3.73102 25.641 3.96102L27.631 3.76102ZM27.726 4.71102C27.789 4.79302 27.768 4.83002 27.733 4.63502C27.7 4.44902 27.674 4.18802 27.631 3.76102L25.64 3.96002C25.68 4.35402 25.714 4.70802 25.765 4.99002C25.814 5.26002 25.9 5.61502 26.135 5.92302L27.726 4.71102ZM27.726 4.71102L26.135 5.92302C26.349 6.20387 26.6335 6.42305 26.9597 6.55829C27.2859 6.69354 27.642 6.74002 27.992 6.69302L27.726 4.71102ZM28.464 4.10602C28.2399 4.29543 28.0094 4.4772 27.773 4.65102C27.61 4.76402 27.623 4.72402 27.726 4.71102L27.992 6.69302C28.376 6.64102 28.688 6.45102 28.914 6.29302C29.149 6.13102 29.424 5.90502 29.73 5.65402L28.464 4.10602ZM29.48 3.45602C29.2787 3.52298 29.0893 3.62155 28.919 3.74802C28.779 3.84802 28.622 3.97702 28.464 4.10602L29.73 5.65402C29.909 5.50802 30.006 5.42902 30.08 5.37702C30.145 5.33002 30.136 5.34602 30.089 5.36102L29.48 3.45602ZM30.884 3.52602C30.4399 3.33357 29.941 3.30869 29.48 3.45602L30.089 5.36102L30.884 3.52602ZM31.83 4.27402C31.6953 4.13558 31.5563 4.00151 31.413 3.87202C31.2558 3.72929 31.0769 3.61249 30.883 3.52602L30.089 5.36102C30.043 5.34102 30.036 5.32502 30.096 5.37802C30.164 5.43802 30.253 5.52502 30.416 5.68802L31.83 4.27402ZM32.724 5.16802L31.83 4.27402L30.416 5.68802L31.31 6.58202L32.724 5.16802ZM33.472 6.11402C33.3855 5.92011 33.2687 5.7412 33.126 5.58402C32.9965 5.44108 32.8624 5.30234 32.724 5.16802L31.31 6.58302C31.473 6.74602 31.56 6.83502 31.62 6.90302C31.673 6.96302 31.657 6.95602 31.637 6.91002L33.472 6.11402ZM33.542 7.51802C33.6893 7.05697 33.6644 6.55813 33.472 6.11402L31.637 6.91002L33.542 7.51802ZM32.892 8.53402C33.0162 8.38623 33.1356 8.23449 33.25 8.07902C33.356 7.93102 33.47 7.74702 33.542 7.51802L31.637 6.91002C31.652 6.86302 31.667 6.85302 31.621 6.91902C31.569 6.99202 31.491 7.08902 31.344 7.26802L32.892 8.53402ZM32.287 9.27302C32.274 9.37602 32.234 9.38802 32.347 9.22502C32.454 9.07002 32.62 8.86602 32.892 8.53402L31.344 7.26802C31.094 7.57402 30.867 7.84902 30.704 8.08402C30.547 8.31002 30.357 8.62202 30.305 9.00602L32.287 9.27302ZM32.287 9.27302L30.305 9.00602C30.258 9.35597 30.3045 9.71213 30.4397 10.0383C30.575 10.3645 30.7941 10.649 31.075 10.863L32.287 9.27302ZM33.237 9.36802C32.9446 9.34356 32.6531 9.30921 32.363 9.26502C32.168 9.23002 32.205 9.21002 32.287 9.27302L31.075 10.863C31.383 11.098 31.737 11.184 32.009 11.233C32.29 11.283 32.644 11.318 33.038 11.358L33.237 9.36802ZM34.416 9.62602C34.226 9.53102 34.0221 9.46688 33.812 9.43602C33.6211 9.40719 33.4293 9.38451 33.237 9.36802L33.038 11.358C33.186 11.371 33.3338 11.3877 33.481 11.408C33.561 11.422 33.544 11.427 33.499 11.404L34.416 9.62602ZM35.359 10.669C35.1813 10.2187 34.8462 9.84809 34.416 9.62602L33.5 11.406L35.359 10.669ZM35.499 11.867C35.499 11.663 35.499 11.46 35.488 11.288C35.4779 11.0758 35.434 10.8665 35.358 10.668L33.5 11.406C33.482 11.359 33.488 11.343 33.494 11.423C33.5 11.513 33.5 11.638 33.5 11.869L35.499 11.867ZM35.499 13.131V11.867H33.499V13.131H35.499ZM35.359 14.329C35.447 14.106 35.476 13.892 35.488 13.709C35.499 13.538 35.499 13.335 35.499 13.131H33.499C33.499 13.362 33.499 13.487 33.493 13.577C33.487 13.657 33.481 13.641 33.499 13.594L35.359 14.329ZM34.416 15.372C34.8462 15.15 35.1813 14.7794 35.359 14.329L33.5 13.595L34.416 15.372ZM33.237 15.63C33.441 15.61 33.642 15.59 33.812 15.562C33.992 15.532 34.202 15.482 34.416 15.372L33.5 13.595C33.544 13.572 33.561 13.577 33.482 13.59C33.3348 13.6111 33.1871 13.6281 33.039 13.641L33.237 15.63ZM32.288 15.725C32.205 15.788 32.168 15.768 32.363 15.733C32.549 15.7 32.81 15.673 33.237 15.63L33.038 13.64C32.645 13.68 32.29 13.714 32.009 13.765C31.738 13.814 31.383 13.9 31.075 14.135L32.288 15.725ZM32.288 15.725L31.075 14.135C30.7941 14.349 30.575 14.6336 30.4397 14.9597C30.3045 15.2859 30.258 15.6421 30.305 15.992L32.288 15.725ZM32.892 16.463C32.7026 16.2392 32.5208 16.0091 32.347 15.773C32.234 15.61 32.275 15.622 32.288 15.725L30.305 15.992C30.357 16.376 30.547 16.688 30.705 16.914C30.868 17.149 31.094 17.424 31.344 17.73L32.892 16.463ZM33.542 17.479C33.4749 17.2781 33.3764 17.089 33.25 16.919C33.15 16.778 33.021 16.622 32.892 16.463L31.344 17.73C31.49 17.909 31.569 18.005 31.621 18.079C31.668 18.144 31.653 18.136 31.637 18.089L33.542 17.479ZM33.472 18.884C33.6647 18.4396 33.6896 17.9404 33.542 17.479L31.637 18.089L33.472 18.884ZM32.724 19.83C32.869 19.685 33.012 19.543 33.126 19.413C33.246 19.275 33.376 19.104 33.472 18.883L31.637 18.088C31.657 18.042 31.673 18.036 31.62 18.096C31.56 18.164 31.473 18.252 31.31 18.416L32.724 19.83ZM31.83 20.723L32.724 19.83L31.31 18.416L30.416 19.309L31.83 20.723ZM30.884 21.472C31.078 21.3852 31.2569 21.2681 31.414 21.125C31.543 21.012 31.686 20.868 31.83 20.723L30.416 19.309C30.3122 19.4153 30.2055 19.5187 30.096 19.619C30.036 19.673 30.043 19.657 30.089 19.637L30.884 21.472ZM29.48 21.542C29.941 21.6893 30.4399 21.6645 30.884 21.472L30.089 19.637L29.48 21.542ZM28.464 20.892C28.622 21.021 28.778 21.15 28.919 21.25C29.067 21.355 29.251 21.469 29.48 21.542L30.089 19.637C30.136 19.652 30.145 19.667 30.079 19.621C29.9601 19.5319 29.8437 19.4396 29.73 19.344L28.464 20.892ZM27.726 20.288C27.623 20.273 27.61 20.233 27.773 20.346C27.928 20.454 28.131 20.619 28.463 20.891L29.73 19.344C29.424 19.093 29.149 18.867 28.914 18.704C28.688 18.546 28.376 18.357 27.992 18.305L27.726 20.288ZM27.726 20.288L27.992 18.305C27.642 18.258 27.2859 18.3045 26.9597 18.4397C26.6335 18.575 26.349 18.7942 26.135 19.075L27.726 20.288ZM27.63 21.237C27.673 20.81 27.7 20.548 27.733 20.363C27.768 20.168 27.788 20.204 27.725 20.287L26.135 19.074C25.9 19.382 25.814 19.737 25.765 20.008C25.715 20.29 25.681 20.644 25.641 21.038L27.63 21.237ZM27.371 22.416C27.481 22.202 27.531 21.992 27.561 21.812C27.591 21.642 27.609 21.441 27.63 21.237L25.641 21.038C25.6278 21.1865 25.6105 21.3335 25.589 21.481C25.576 21.561 25.571 21.544 25.594 21.499L27.371 22.416ZM26.33 23.359C26.7796 23.1809 27.1494 22.8459 27.371 22.416L25.595 21.5L26.33 23.359ZM25.13 23.499C25.335 23.499 25.538 23.499 25.71 23.488C25.892 23.476 26.106 23.449 26.33 23.359L25.595 21.5C25.642 21.482 25.658 21.488 25.578 21.494C25.4294 21.5002 25.2807 21.5022 25.132 21.5L25.13 23.499ZM23.867 23.499H25.13L25.131 21.499H23.867V23.499ZM22.669 23.359C22.892 23.447 23.106 23.476 23.289 23.488C23.46 23.499 23.663 23.499 23.867 23.499V21.499C23.636 21.499 23.511 21.499 23.421 21.493C23.341 21.487 23.357 21.481 23.404 21.499L22.669 23.359ZM21.626 22.416C21.8481 22.8462 22.2186 23.1813 22.669 23.359L23.404 21.499L21.626 22.416ZM21.368 21.237C21.388 21.441 21.408 21.642 21.436 21.812C21.466 21.992 21.516 22.202 21.626 22.416L23.406 21.5C23.429 21.544 23.424 21.561 23.411 21.482C23.3899 21.3349 23.3729 21.1871 23.36 21.039L21.368 21.237ZM21.273 20.287C21.21 20.205 21.23 20.167 21.265 20.363C21.298 20.548 21.325 20.81 21.368 21.237L23.358 21.038C23.318 20.644 23.284 20.29 23.233 20.008C23.184 19.738 23.098 19.383 22.863 19.075L21.273 20.287ZM21.273 20.287L22.863 19.075C22.649 18.7942 22.3644 18.575 22.0383 18.4397C21.7121 18.3045 21.3559 18.258 21.006 18.305L21.273 20.287ZM20.534 20.892C20.867 20.62 21.07 20.454 21.225 20.347C21.388 20.234 21.376 20.274 21.273 20.287L21.006 18.305C20.622 18.357 20.31 18.547 20.084 18.705C19.849 18.867 19.574 19.093 19.268 19.344L20.534 20.892ZM19.518 21.542C19.7193 21.4751 19.9087 21.3765 20.079 21.25C20.219 21.15 20.376 21.021 20.534 20.892L19.269 19.345C19.1549 19.4406 19.0392 19.533 18.92 19.622C18.855 19.669 18.864 19.654 18.911 19.638L19.518 21.542ZM18.114 21.472C18.5581 21.6645 19.0569 21.6893 19.518 21.542L18.909 19.637L18.114 21.472ZM17.167 20.724C17.312 20.869 17.455 21.012 17.585 21.126C17.722 21.246 17.893 21.377 18.115 21.473L18.909 19.637C18.955 19.657 18.962 19.673 18.902 19.62C18.7925 19.5197 18.6858 19.4163 18.582 19.31L17.167 20.724ZM16.274 19.83L17.168 20.724L18.582 19.31L17.688 18.416L16.274 19.83ZM15.526 18.884C15.621 19.104 15.752 19.276 15.872 19.414C15.986 19.543 16.129 19.686 16.274 19.83L17.688 18.416C17.5817 18.3123 17.4783 18.2055 17.378 18.096C17.325 18.036 17.341 18.043 17.361 18.089L15.526 18.884ZM15.456 17.48C15.3087 17.9411 15.3335 18.4399 15.526 18.884L17.361 18.089L15.456 17.48ZM16.106 16.464C15.9818 16.6118 15.8624 16.7636 15.748 16.919C15.6215 17.0894 15.523 17.2787 15.456 17.48L17.361 18.089C17.345 18.136 17.331 18.145 17.377 18.079C17.429 18.006 17.507 17.909 17.654 17.73L16.106 16.464ZM16.71 15.725C16.724 15.622 16.764 15.61 16.651 15.773C16.544 15.928 16.378 16.132 16.106 16.464L17.654 17.73C17.904 17.424 18.131 17.149 18.294 16.914C18.451 16.688 18.641 16.376 18.693 15.992L16.71 15.725ZM16.71 15.725L18.693 15.992C18.74 15.6421 18.6935 15.2859 18.5583 14.9597C18.423 14.6336 18.2038 14.349 17.923 14.135L16.71 15.725ZM15.76 15.63C16.188 15.673 16.45 15.7 16.635 15.733C16.83 15.768 16.793 15.788 16.71 15.725L17.923 14.135C17.615 13.9 17.261 13.814 16.989 13.765C16.708 13.715 16.354 13.68 15.959 13.64L15.76 15.63ZM14.582 15.372C14.796 15.482 15.006 15.532 15.186 15.562C15.356 15.59 15.557 15.611 15.761 15.631L15.959 13.64C15.8109 13.6275 15.6642 13.6108 15.517 13.59C15.437 13.576 15.454 13.571 15.499 13.594L14.582 15.372ZM13.64 14.33C13.8177 14.7804 14.1528 15.151 14.583 15.373L15.5 13.595L13.64 14.33ZM13.5 13.132C13.5 13.336 13.5 13.539 13.511 13.711C13.523 13.893 13.551 14.107 13.641 14.331L15.5 13.594C15.518 13.641 15.512 13.657 15.507 13.577C15.5005 13.4288 15.4982 13.2804 15.5 13.132H13.5ZM13.5 11.868V13.132H15.5V11.868H13.5ZM13.64 10.669C13.5643 10.8675 13.5208 11.0768 13.511 11.289C13.499 11.461 13.5 11.664 13.5 11.869H15.5C15.5 11.637 15.5 11.512 15.507 11.422C15.512 11.342 15.518 11.358 15.5 11.405L13.64 10.669ZM14.583 9.62802C14.1531 9.8496 13.8181 10.2194 13.64 10.669L15.5 11.405L14.583 9.62802ZM15.762 9.36802C15.558 9.38902 15.357 9.40802 15.187 9.43802C15.007 9.46802 14.797 9.51802 14.583 9.62802L15.5 11.405C15.455 11.428 15.439 11.423 15.518 11.41C15.6652 11.3889 15.8129 11.3719 15.961 11.359L15.762 9.36802ZM16.712 9.27402C16.795 9.21102 16.832 9.23102 16.636 9.26602C16.451 9.29902 16.189 9.32602 15.762 9.36902L15.961 11.359C16.354 11.319 16.709 11.285 16.991 11.234C17.262 11.185 17.617 11.099 17.925 10.864L16.712 9.27402ZM16.712 9.27402L17.925 10.864C18.2057 10.6499 18.4246 10.3653 18.5597 10.0391C18.6948 9.71298 18.7411 9.35688 18.694 9.00702L16.712 9.27402ZM16.107 8.53502C16.379 8.86702 16.545 9.07102 16.653 9.22602C16.766 9.38902 16.726 9.37702 16.712 9.27402L18.694 9.00702C18.642 8.62302 18.453 8.31202 18.295 8.08502C18.132 7.85002 17.905 7.57502 17.655 7.26902L16.107 8.53502ZM15.457 7.51802C15.53 7.74802 15.643 7.93102 15.749 8.08002C15.849 8.22002 15.978 8.37702 16.107 8.53502L17.655 7.26902C17.5594 7.15495 17.467 7.03924 17.378 6.92002C17.331 6.85502 17.347 6.86302 17.362 6.91002L15.457 7.51802ZM15.527 6.11502C15.3348 6.55884 15.3099 7.05727 15.457 7.51802L17.362 6.91002L15.527 6.11502ZM16.275 5.16802C16.13 5.31302 15.987 5.45502 15.873 5.58502C15.7303 5.7422 15.6135 5.92111 15.527 6.11502L17.362 6.91002C17.342 6.95602 17.326 6.96302 17.379 6.90202C17.439 6.83402 17.526 6.74602 17.689 6.58202L16.275 5.16802ZM17.169 4.27502L16.275 5.16802L17.689 6.58202L18.584 5.68902L17.169 4.27502ZM18.115 3.52602C17.921 3.6128 17.7421 3.72993 17.585 3.87302C17.4421 4.00253 17.3033 4.1366 17.169 4.27502L18.584 5.68902C18.747 5.52502 18.835 5.43802 18.903 5.37902C18.963 5.32502 18.956 5.34102 18.91 5.36102L18.115 3.52602ZM19.519 3.45602C19.0579 3.30869 18.5591 3.33357 18.115 3.52602L18.91 5.36102L19.519 3.45602ZM20.534 4.10602C20.376 3.97702 20.221 3.84902 20.08 3.74902C19.9097 3.6222 19.7204 3.52329 19.519 3.45602L18.91 5.36102C18.863 5.34602 18.854 5.33102 18.92 5.37702C18.993 5.43002 19.09 5.50802 19.269 5.65502L20.534 4.10602ZM21.274 4.71102C21.377 4.72502 21.389 4.76502 21.226 4.65202C20.9899 4.47819 20.7598 4.29642 20.536 4.10702L19.269 5.65502C19.575 5.90502 19.849 6.13102 20.084 6.29502C20.31 6.45202 20.622 6.64102 21.006 6.69302L21.274 4.71102ZM21.274 4.71102L21.007 6.69302C21.3569 6.74002 21.7131 6.69354 22.0393 6.55829C22.3654 6.42305 22.65 6.20387 22.864 5.92302L21.274 4.71102ZM21.369 3.76102C21.326 4.18902 21.299 4.45102 21.266 4.63602C21.231 4.83102 21.211 4.79402 21.274 4.71102L22.864 5.92302C23.099 5.61502 23.185 5.26102 23.234 4.99002C23.284 4.70902 23.32 4.35402 23.359 3.96002L21.369 3.76102ZM21.627 2.58302C21.532 2.77299 21.4678 2.97688 21.437 3.18702C21.409 3.35702 21.389 3.55802 21.369 3.76202L23.359 3.96002C23.372 3.81196 23.3887 3.66525 23.409 3.51802C23.423 3.43802 23.428 3.45602 23.405 3.50002L21.627 2.58302ZM22.67 1.64002C22.2196 1.81775 21.8491 2.15281 21.627 2.58302L23.405 3.50002L22.67 1.64002ZM23.868 1.50002C23.664 1.50002 23.461 1.50002 23.289 1.51102C23.0768 1.52082 22.8675 1.56437 22.669 1.64002L23.406 3.50002C23.359 3.51802 23.343 3.51202 23.423 3.50702C23.513 3.50102 23.638 3.50002 23.869 3.50002L23.868 1.50002ZM25.132 1.50002H23.868V3.50002H25.132V1.50002ZM26.33 1.64002C26.1315 1.56437 25.9222 1.52082 25.71 1.51102C25.54 1.49902 25.337 1.50002 25.133 1.50002V3.50002C25.364 3.50002 25.489 3.50002 25.579 3.50702C25.659 3.51202 25.642 3.51802 25.595 3.50002L26.33 1.64002ZM27.373 2.58302C27.1509 2.15281 26.7803 1.81775 26.33 1.64002L25.595 3.50002L27.373 2.58302ZM27.5 12.5C27.5 13.2957 27.1839 14.0587 26.6213 14.6213C26.0587 15.1839 25.2956 15.5 24.5 15.5V17.5C25.8261 17.5 27.0978 16.9732 28.0355 16.0356C28.9732 15.0979 29.5 13.8261 29.5 12.5H27.5ZM24.5 9.50002C25.2956 9.50002 26.0587 9.81609 26.6213 10.3787C27.1839 10.9413 27.5 11.7044 27.5 12.5H29.5C29.5 11.1739 28.9732 9.90217 28.0355 8.96449C27.0978 8.0268 25.8261 7.50002 24.5 7.50002V9.50002ZM21.5 12.5C21.5 11.7044 21.8161 10.9413 22.3787 10.3787C22.9413 9.81609 23.7043 9.50002 24.5 9.50002V7.50002C23.1739 7.50002 21.9021 8.0268 20.9645 8.96449C20.0268 9.90217 19.5 11.1739 19.5 12.5H21.5ZM24.5 15.5C23.7043 15.5 22.9413 15.1839 22.3787 14.6213C21.8161 14.0587 21.5 13.2957 21.5 12.5H19.5C19.5 13.8261 20.0268 15.0979 20.9645 16.0356C21.9021 16.9732 23.1739 17.5 24.5 17.5V15.5Z" fill="#777E99"/>
</svg>
