<svg width="16" height="16" viewBox="0 0 16 16" fill="none" xmlns="http://www.w3.org/2000/svg">
    <path d="M3.82665 10.6666C3.89999 10.3399 3.76665 9.87325 3.53332 9.63992L1.91332 8.01992C1.40665 7.51325 1.20665 6.97325 1.35332 6.50659C1.50665 6.03992 1.97999 5.71992 2.68665 5.59992L4.76665 5.25325C5.06665 5.19992 5.43332 4.93325 5.57332 4.65992L6.71999 2.35992C7.05332 1.69992 7.50665 1.33325 7.99999 1.33325C8.49332 1.33325 8.94665 1.69992 9.27999 2.35992L10.4267 4.65992C10.5133 4.83325 10.6933 4.99992 10.8867 5.11325L3.70665 12.2933C3.61332 12.3866 3.45332 12.2999 3.47999 12.1666L3.82665 10.6666Z" fill="#FFB063"/>
    <path d="M12.4666 9.64001C12.2266 9.88001 12.0933 10.34 12.1733 10.6667L12.6333 12.6733C12.8266 13.5067 12.7066 14.1333 12.2933 14.4333C12.1266 14.5533 11.9266 14.6133 11.6933 14.6133C11.3533 14.6133 10.9533 14.4867 10.5133 14.2267L8.55997 13.0667C8.2533 12.8867 7.74664 12.8867 7.43997 13.0667L5.48664 14.2267C4.74664 14.66 4.1133 14.7333 3.70664 14.4333C3.5533 14.32 3.43997 14.1667 3.36664 13.9667L11.4733 5.86001C11.78 5.55335 12.2133 5.41335 12.6333 5.48668L13.3066 5.60001C14.0133 5.72001 14.4866 6.04001 14.64 6.50668C14.7866 6.97335 14.5866 7.51335 14.08 8.02001L12.4666 9.64001Z" fill="#FFB063"/>
</svg>
