<svg width="25" height="24" viewBox="0 0 25 24" fill="none" xmlns="http://www.w3.org/2000/svg">
    <path d="M7.29163 7.5H6.24996C5.69743 7.5 5.16752 7.71071 4.77682 8.08579C4.38612 8.46086 4.16663 8.96957 4.16663 9.5V18.5C4.16663 19.0304 4.38612 19.5391 4.77682 19.9142C5.16752 20.2893 5.69743 20.5 6.24996 20.5H15.625C16.1775 20.5 16.7074 20.2893 17.0981 19.9142C17.4888 19.5391 17.7083 19.0304 17.7083 18.5V17.5" stroke="white" stroke-width="2" stroke-linecap="round" stroke-linejoin="round"/>
    <path d="M16.6667 5.50011L19.7917 8.50011M21.2344 7.08511C21.6446 6.69126 21.8751 6.15709 21.8751 5.60011C21.8751 5.04312 21.6446 4.50895 21.2344 4.11511C20.8241 3.72126 20.2677 3.5 19.6875 3.5C19.1073 3.5 18.5509 3.72126 18.1406 4.11511L9.375 12.5001V15.5001H12.5L21.2344 7.08511Z" stroke="white" stroke-width="2" stroke-linecap="round" stroke-linejoin="round"/>
</svg>
