<svg width="49" height="48" viewBox="0 0 49 48" fill="none" xmlns="http://www.w3.org/2000/svg">
    <g clip-path="url(#clip0_3_3290)">
        <path d="M6.0371 31.9961L0.829577 44.0686C0.37987 45.1119 0.582751 46.2754 1.35912 47.1049C1.90624 47.689 2.63683 47.9999 3.39562 47.9999C3.71385 47.9999 4.03758 47.9449 4.35399 47.8325L12.2817 45.0145L6.0371 31.9961Z" fill="#79A78D"/>
        <path d="M10.978 20.541L7.51404 28.5724L14.9467 44.0671L21.1975 41.8453L10.978 20.541Z" fill="#79A78D"/>
        <path d="M45.8318 9.39331C45.0627 9.50354 44.5288 10.2158 44.639 10.9845C44.6793 11.2676 44.7123 11.5426 44.7416 11.814C45.0759 14.9165 44.6753 17.2683 43.5195 18.9811C42.2619 20.844 39.9306 21.9368 37.7184 21.6998C37.2013 21.6442 36.6922 21.5164 36.2059 21.3263C36.2949 21.1729 36.3773 21.0157 36.4527 20.8557C36.8596 19.9944 37.0284 19.0031 36.9625 18.019C36.912 17.2683 36.7252 16.5223 36.4011 15.8408C35.7547 14.4814 34.6664 13.552 33.3359 13.2235C31.8681 12.8613 30.2499 13.8369 29.728 15.3981C29.3874 16.4169 29.4772 17.5822 29.9946 18.8613C30.4245 19.9244 31.0541 20.8843 31.8293 21.6995C31.1291 22.0726 30.3059 22.3436 29.401 22.4865C28.6338 22.6077 28.1101 23.3276 28.2313 24.0949C28.3404 24.7877 28.9385 25.2817 29.6185 25.2817C29.6914 25.2817 29.7654 25.2762 29.8393 25.2645C31.5199 24.999 33.0217 24.3842 34.2134 23.5078C35.2036 24.0319 36.2901 24.375 37.4188 24.4959C37.7261 24.5288 38.0329 24.5449 38.3398 24.5449C41.297 24.5449 44.1721 23.0409 45.8504 20.5543C47.5156 18.0872 48.0298 14.8264 47.423 10.5861C47.3127 9.81738 46.5997 9.28308 45.8318 9.39331ZM32.3955 16.2894C32.4526 16.1188 32.6105 15.9858 32.6877 15.9609C33.3407 16.1349 33.7025 16.715 33.8611 17.0486C34.2511 17.8685 34.2701 18.8917 33.9098 19.6553C33.8951 19.6864 33.8797 19.7175 33.864 19.7483C33.3282 19.1854 32.8932 18.5277 32.602 17.807C32.3464 17.1749 32.275 16.6501 32.3955 16.2894Z" fill="#79A78D"/>
        <path d="M38.3065 29.8752C38.3065 28.8982 37.5236 28.1064 36.5579 28.1064C35.5918 28.1064 34.8088 28.8982 34.8088 29.8752C34.8088 30.8519 35.5918 31.6437 36.5579 31.6437C37.5236 31.6437 38.3065 30.8519 38.3065 29.8752Z" fill="#79A78D"/>
        <path d="M40.9183 10.8016C40.9183 9.82495 40.1354 9.0332 39.1693 9.0332C38.2036 9.0332 37.4207 9.82495 37.4207 10.8016C37.4207 11.7783 38.2036 12.5701 39.1693 12.5701C40.1354 12.5701 40.9183 11.7783 40.9183 10.8016Z" fill="#79A78D"/>
        <path d="M44.4395 8.00574C46.629 8.00574 48.4106 6.21021 48.4106 4.00305C48.4106 1.79553 46.6294 0 44.4395 0C42.2495 0 40.4683 1.79553 40.4683 4.00305C40.4683 6.21021 42.2499 8.00574 44.4395 8.00574Z" fill="#79A78D"/>
        <path d="M25.8077 16.8446C25.8077 15.8679 25.0248 15.0762 24.0587 15.0762C23.093 15.0762 22.3101 15.8679 22.3101 16.8446C22.3101 17.8213 23.093 18.613 24.0587 18.613C25.0248 18.613 25.8077 17.8213 25.8077 16.8446Z" fill="#79A78D"/>
        <path d="M34.9216 3.77722C34.9216 2.80054 34.1383 2.00879 33.1726 2.00879C32.2065 2.00879 31.4236 2.80054 31.4236 3.77722C31.4236 4.75427 32.2065 5.54602 33.1726 5.54602C34.1383 5.54602 34.9216 4.75427 34.9216 3.77722Z" fill="#79A78D"/>
        <path d="M23.4098 9.58728H24.0671V10.2699C24.0671 11.0466 24.6967 11.6761 25.4734 11.6761C26.2501 11.6761 26.8796 11.0466 26.8796 10.2699V9.58728H27.537C28.3137 9.58728 28.9432 8.9574 28.9432 8.18103C28.9432 7.4043 28.3137 6.77478 27.537 6.77478H26.8796V6.0918C26.8796 5.31543 26.2501 4.68555 25.4734 4.68555C24.6967 4.68555 24.0671 5.31543 24.0671 6.0918V6.77478H23.4098C22.6331 6.77478 22.0035 7.4043 22.0035 8.18103C22.0035 8.9574 22.6331 9.58728 23.4098 9.58728Z" fill="#79A78D"/>
        <path d="M14.6801 12.9831C14.1549 12.4107 13.2654 12.3723 12.693 12.8971C12.1206 13.4222 12.0825 14.3117 12.6073 14.8841L13.1588 15.4855L12.455 17.1177L23.8625 40.8987L33.3697 37.5193L33.7721 37.958C34.0497 38.2605 34.4287 38.4136 34.8089 38.4136C35.1487 38.4136 35.4889 38.2912 35.7592 38.0437C36.3316 37.5185 36.3697 36.629 35.8449 36.057L14.6801 12.9831Z" fill="#79A78D"/>
    </g>
    <defs>
        <clipPath id="clip0_3_3290">
            <rect width="48" height="48" fill="white" transform="translate(0.5)"/>
        </clipPath>
    </defs>
</svg>
