<svg width="79" height="79" viewBox="0 0 79 79" fill="none" xmlns="http://www.w3.org/2000/svg">
<path d="M55.5216 32.3225H57.3599V35.9387H60.9753V39.4977C60.9692 39.5055 60.9626 39.5131 60.9556 39.5202C60.9511 39.5246 60.9457 39.5279 60.9398 39.5301C60.9269 39.5337 60.9137 39.5364 60.9003 39.538C60.8871 39.5388 60.874 39.5388 60.8608 39.538L57.4049 39.5451C57.3943 39.5475 57.3839 39.5513 57.3741 39.5561V43.174C57.4531 43.1771 57.5278 43.1826 57.604 43.1826C58.6442 43.1826 59.6844 43.1826 60.7245 43.1826C60.8035 43.1826 60.879 43.1901 60.9809 43.1957C60.9959 44.385 60.975 45.5594 60.9809 46.7163C60.9619 46.7388 60.9584 46.7444 60.9536 46.7487C60.9493 46.7536 60.9437 46.7572 60.9374 46.759C60.9055 46.7656 60.8732 46.7697 60.8407 46.7712C59.702 46.7712 58.5632 46.7703 57.4243 46.7685C57.3992 46.7642 57.3747 46.757 57.3512 46.7471C57.3481 46.6804 57.3417 46.6105 57.3417 46.5405C57.3417 46.0993 57.3417 45.6581 57.3417 45.2173C57.3367 45.1297 57.3271 45.0424 57.3129 44.9558H55.55C55.5407 44.9066 55.5341 44.8568 55.5303 44.8069C55.5196 43.8194 55.503 42.8319 55.5014 41.8475C55.4975 39.3527 55.4975 36.8579 55.5014 34.3631C55.5014 33.7508 55.5046 33.1386 55.5078 32.5263C55.5066 32.4651 55.5157 32.4011 55.5216 32.3225Z" fill="white"/>
<path d="M43.4061 59.5704H49.7573C50.0888 59.5704 50.0888 59.5704 50.0888 59.8919V63.7013C50.0888 63.7341 50.0888 63.7673 50.0888 63.8C50.0864 64.0141 50.0769 64.0256 49.8676 64.0256C49.2948 64.0256 48.7223 64.0256 48.1501 64.0256C47.8906 64.0256 47.8791 64.0141 47.8787 63.7613C47.8787 63.1888 47.8787 62.6164 47.8787 62.0439C47.8787 61.9981 47.8787 61.9518 47.8787 61.906C47.8797 61.8894 47.8772 61.8728 47.8713 61.8573C47.8654 61.8417 47.8563 61.8276 47.8446 61.8158C47.8329 61.804 47.8189 61.7947 47.8034 61.7887C47.7879 61.7827 47.7713 61.78 47.7547 61.7808C47.6958 61.7765 47.6362 61.778 47.5773 61.778C45.5497 61.778 43.5232 61.7788 41.4979 61.7804C41.1914 61.7804 41.1969 61.7954 41.1969 61.4763C41.1969 60.1933 41.1969 58.9103 41.1969 57.6274C41.1969 57.3552 41.1969 57.3552 41.4683 57.3552H43.1273H43.2655C43.3548 57.3552 43.3978 57.4042 43.405 57.4875C43.4097 57.5401 43.4085 57.593 43.4085 57.6455C43.4085 58.2049 43.4085 58.7641 43.4085 59.3231L43.4061 59.5704Z" fill="#82A78E"/>
<path d="M56.7658 52.911C56.6643 52.9023 56.5822 52.8893 56.5 52.8889C55.2297 52.8889 53.9595 52.8889 52.6894 52.8889C52.6436 52.8889 52.5974 52.8889 52.5512 52.8889C52.3454 52.8865 52.3004 52.8434 52.3035 52.6301C52.3102 52.2095 52.3264 51.7888 52.3284 51.3661C52.3284 51.0501 52.3126 50.7341 52.311 50.4181C52.311 50.2277 52.33 50.0374 52.3288 49.847C52.3256 49.4591 52.315 49.0712 52.3071 48.6833C52.3043 48.6506 52.3035 48.6177 52.3047 48.5849C52.3162 48.4629 52.3525 48.4269 52.4809 48.4269C52.6977 48.4238 52.9154 48.4269 53.1322 48.4269C53.5336 48.4269 53.9353 48.4269 54.3366 48.4269C54.5341 48.4269 54.5519 48.4435 54.5519 48.6406C54.5519 49.2 54.5519 49.7593 54.5519 50.3186C54.5519 50.3518 54.5519 50.3846 54.5519 50.4173C54.5546 50.6283 54.5661 50.6413 54.7774 50.6413C56.0804 50.6413 57.3839 50.6413 58.6879 50.6413C59.0134 50.6413 59.0134 50.6413 59.0134 50.9731V54.8259C59.0134 55.1084 59.0134 55.1084 58.7298 55.1084H57.0313C56.9787 55.1084 56.9258 55.1084 56.8733 55.1044C56.8465 55.1041 56.8208 55.0932 56.802 55.0742C56.7831 55.0551 56.7726 55.0293 56.7726 55.0025C56.7682 54.95 56.7686 54.8974 56.7686 54.8445C56.7686 54.272 56.7686 53.6995 56.7686 53.127L56.7658 52.911Z" fill="#658EC7"/>
<path d="M12.2588 61.7728C12.2505 61.699 12.2399 61.6488 12.2399 61.5986C12.2399 60.9935 12.2399 60.3884 12.2375 59.7816C12.2375 59.6236 12.2671 59.5802 12.4216 59.5751C12.4875 59.5727 12.5535 59.5751 12.6191 59.5751H18.6231C18.928 59.5751 18.9284 59.5751 18.928 59.2662C18.928 58.6934 18.928 58.1207 18.928 57.5479C18.928 57.4962 18.9343 57.444 18.9379 57.3816C18.9825 57.3719 19.0278 57.3654 19.0734 57.3623C19.699 57.3602 20.3245 57.3594 20.9496 57.3599C21.1076 57.3599 21.1195 57.3773 21.125 57.5278C21.125 57.5673 21.125 57.6068 21.125 57.6463V61.4778C21.125 61.5303 21.125 61.5832 21.125 61.6358C21.127 61.725 21.0855 61.7713 20.9954 61.7701C20.9429 61.7701 20.89 61.7701 20.8374 61.7701H12.2588V61.7728Z" fill="#7D5FA3"/>
<path d="M63.4726 12.7941V13.056C63.4726 14.3255 63.4726 15.595 63.4726 16.8645C63.4726 16.9171 63.4726 16.97 63.4726 17.0225C63.465 17.1999 63.441 17.2232 63.2612 17.2295C63.2217 17.2295 63.1822 17.2295 63.1427 17.2295L61.4268 17.2453C61.2862 17.2453 61.2384 17.2035 61.2293 17.062C61.2266 17.0162 61.2293 16.97 61.2293 16.9238V10.8657C61.2293 10.5497 61.2293 10.5497 61.5513 10.5497C62.8416 10.5497 64.1308 10.5497 65.4187 10.5497C65.6853 10.5497 65.6877 10.5521 65.6877 10.8096C65.6877 11.3889 65.6877 11.9683 65.6877 12.5476C65.6877 12.7731 65.6676 12.7941 65.4381 12.7945C64.8531 12.7945 64.2677 12.7945 63.6823 12.7945L63.4726 12.7941Z" fill="#9F86B9"/>
<path d="M52.332 57.3595H56.7654C56.7818 57.4226 56.7928 57.4869 56.7982 57.5519C56.8006 58.8554 56.8014 60.1589 56.8006 61.4624C56.8006 61.8009 56.7939 61.8092 56.4621 61.8076C55.5342 61.8025 54.6056 61.7934 53.6785 61.791C53.3297 61.791 52.9813 61.8025 52.6326 61.808C52.5799 61.8104 52.5271 61.8096 52.4746 61.8056C52.3561 61.7934 52.3248 61.7633 52.3106 61.6476C52.3067 61.6018 52.3055 61.5557 52.3071 61.5098C52.3071 60.2131 52.3071 58.9163 52.3071 57.6194C52.3083 57.5369 52.3233 57.4543 52.332 57.3595Z" fill="#75ABDA"/>
<path d="M38.9573 57.3437V59.2792C38.9573 59.3317 38.9573 59.3843 38.9573 59.4372C38.9573 59.5257 38.9178 59.5711 38.8253 59.5699C38.7266 59.5699 38.6278 59.5699 38.5295 59.5699H37.0079C36.9554 59.5699 36.9025 59.5699 36.8499 59.5699C36.835 59.5703 36.8201 59.5677 36.8062 59.5623C36.7923 59.5568 36.7796 59.5486 36.769 59.5381C36.7583 59.5277 36.7499 59.5151 36.7442 59.5013C36.7385 59.4875 36.7356 59.4727 36.7358 59.4577C36.7314 59.4056 36.733 59.3527 36.733 59.2997C36.733 58.7404 36.733 58.181 36.733 57.6214C36.733 57.5752 36.733 57.5293 36.733 57.4831C36.733 57.395 36.6907 57.3488 36.6019 57.3473C36.5557 57.3473 36.5098 57.3473 36.4636 57.3473L34.7462 57.3508C34.5261 57.3508 34.4914 57.322 34.491 57.1043C34.4894 55.7753 34.4894 54.4455 34.491 53.1148C34.491 52.9138 34.5155 52.8909 34.7221 52.8905C35.3209 52.8889 35.9198 52.8889 36.5189 52.8905C36.7097 52.8905 36.7326 52.9154 36.7334 53.1101C36.7334 53.676 36.7334 54.2422 36.7334 54.8086C36.7334 54.8481 36.7334 54.8876 36.7334 54.9271C36.7378 55.0934 36.746 55.1044 36.9163 55.1048C37.4886 55.1048 38.0618 55.1048 38.6341 55.1048C38.6736 55.1048 38.7131 55.1048 38.7526 55.1048C38.9336 55.1092 38.9549 55.1277 38.9553 55.3122C38.9569 55.99 38.9569 56.6679 38.9553 57.3457L38.9573 57.3437Z" fill="#75ABDA"/>
<path d="M63.4433 61.774C63.3465 61.7788 63.2818 61.7851 63.2166 61.7851C61.8999 61.7851 60.5832 61.7851 59.2666 61.7851C59.2271 61.7851 59.1876 61.7851 59.1481 61.7851C59.0616 61.7851 59.0122 61.7456 59.013 61.6536C59.013 61.6141 59.013 61.5746 59.013 61.5351C59.013 60.9623 59.013 60.3896 59.013 59.8168C59.013 59.7773 59.013 59.7378 59.013 59.6983C59.0118 59.6818 59.0141 59.6652 59.0198 59.6496C59.0254 59.6341 59.0342 59.6199 59.0457 59.6079C59.0572 59.596 59.071 59.5866 59.0863 59.5803C59.1016 59.574 59.1181 59.571 59.1346 59.5715C59.1872 59.5683 59.2401 59.5691 59.2926 59.5691H60.9714H61.2084C61.2171 59.4803 61.2305 59.4052 61.2305 59.3321C61.2305 58.5749 61.2266 57.8181 61.225 57.0613C61.225 56.5212 61.225 55.9814 61.225 55.4418C61.225 55.3892 61.2222 55.3359 61.225 55.2838C61.2364 55.1582 61.2732 55.1218 61.3944 55.1092C61.4208 55.1078 61.4471 55.1078 61.4734 55.1092C62.0591 55.1092 62.645 55.1092 63.2312 55.1092C63.4287 55.1092 63.4682 55.1522 63.4682 55.3541C63.4658 56.3021 63.4662 57.2501 63.4599 58.1981C63.4571 58.6117 63.4113 59.0276 63.4366 59.4384C63.4789 60.1356 63.4469 60.832 63.4619 61.5283C63.4603 61.6105 63.4541 61.6925 63.4433 61.774Z" fill="#E9A66D"/>
<path d="M50.0805 55.0957H49.8356H48.1766C48.1308 55.0957 48.0845 55.0957 48.0387 55.0957C47.8953 55.1032 47.8653 55.1301 47.8633 55.2731C47.8598 55.5168 47.8633 55.7601 47.8633 56.0038C47.8633 56.3724 47.8633 56.7409 47.8633 57.1098C47.8633 57.314 47.8361 57.3421 47.6386 57.3429C47.0529 57.3429 46.4672 57.3429 45.8812 57.3429C45.6837 57.3429 45.6375 57.2943 45.6359 57.0972C45.6336 56.7682 45.6312 56.4391 45.6359 56.1097C45.6399 55.8604 45.6608 55.6116 45.6652 55.3624C45.6691 55.1329 45.6296 55.0961 45.4045 55.0957C44.8254 55.0957 44.2463 55.0957 43.6665 55.0957C43.422 55.0957 43.4216 55.0957 43.4212 54.8587C43.4212 54.2928 43.4212 53.7267 43.4212 53.1602C43.4212 53.1144 43.4212 53.0682 43.4243 53.0224C43.431 52.9477 43.4638 52.8987 43.5488 52.8999C43.6013 52.8999 43.6538 52.8999 43.7068 52.8999H49.8293C50.0813 52.8999 50.0817 52.8999 50.0821 53.1504C50.0821 53.7231 50.0821 54.2957 50.0821 54.8682L50.0805 55.0957Z" fill="#7D5FA3"/>
<path d="M63.4402 28.3942C63.4402 29.0328 63.4402 29.6714 63.4402 30.31C63.4402 30.3562 63.4378 30.4024 63.4402 30.4482C63.4457 30.5486 63.3896 30.5964 63.2996 30.6007C63.1747 30.6066 63.0495 30.6054 62.9247 30.6007C62.8062 30.5967 62.6877 30.5786 62.5716 30.5786C61.7289 30.5762 60.8862 30.5762 60.0436 30.5786C59.8006 30.5786 59.5581 30.5967 59.3152 30.6046C59.2623 30.6068 59.2094 30.6035 59.1572 30.5948C59.0699 30.5794 59.0138 30.532 59.0185 30.434C59.0185 30.4012 59.0185 30.368 59.0185 30.3353V26.4255C59.0166 26.3861 59.0166 26.3465 59.0185 26.307C59.0288 26.2051 59.0636 26.1688 59.1659 26.1573C59.2119 26.1541 59.258 26.1534 59.3041 26.1554H63.234C63.4192 26.1593 63.437 26.1739 63.4374 26.36C63.44 27.0381 63.441 27.7161 63.4402 28.3942Z" fill="#69B562"/>
<path d="M67.8946 43.9532H61.5525C61.5525 43.7557 61.5434 43.5744 61.5552 43.3927C61.5643 43.2474 61.5252 43.1344 61.4087 43.0491C61.2629 42.9428 61.223 42.8042 61.225 42.6233C61.2345 41.7614 61.2313 40.8991 61.225 40.0372C61.225 39.9152 61.2689 39.8342 61.3435 39.7421C61.5015 39.5529 61.6789 39.4858 61.9253 39.4984C62.3389 39.5198 62.7548 39.504 63.1688 39.5044C63.2148 39.502 63.2609 39.5036 63.3067 39.5091C63.4113 39.5281 63.4548 39.5731 63.4647 39.6797C63.4699 39.7586 63.4713 39.8377 63.4686 39.9167C63.4666 40.3576 63.4651 40.7984 63.4611 41.2392C63.4611 41.3245 63.4489 41.4098 63.4437 41.4948C63.4315 41.7013 63.4789 41.7539 63.6859 41.7539C64.9823 41.7539 66.2785 41.7539 67.5746 41.7539C67.9112 41.7539 67.9053 41.7262 67.9045 42.0904C67.9045 42.63 67.9045 43.1696 67.9045 43.7099C67.9072 43.7842 67.9005 43.8612 67.8946 43.9532Z" fill="#82A78E"/>
<path d="M34.5151 61.8223C34.6174 61.8179 34.6818 61.8124 34.7466 61.8124C35.3259 61.8124 35.9052 61.8124 36.4846 61.8124C36.5308 61.8124 36.577 61.8124 36.6228 61.8163C36.6496 61.8166 36.6752 61.8273 36.6943 61.8461C36.7133 61.8648 36.7244 61.8903 36.7251 61.9171C36.7302 61.976 36.7323 62.0352 36.7314 62.0944C36.7314 62.6543 36.7314 63.2138 36.7314 63.7732C36.7314 63.8194 36.7314 63.8652 36.7314 63.9114C36.7314 63.9936 36.7788 64.0299 36.8563 64.0299C36.9092 64.0299 36.9617 64.0299 37.0143 64.0299H38.6733C38.7195 64.0299 38.7653 64.0299 38.8115 64.0299C38.8992 64.0299 38.9478 64.0659 38.9454 64.1591C38.9454 64.2116 38.9502 64.2641 38.9502 64.3171C38.9502 64.8635 38.9502 65.4099 38.9502 65.9563C38.9502 65.9891 38.9502 66.0223 38.9502 66.0551C38.9502 66.1455 38.8976 66.185 38.8162 66.1937C38.7702 66.1971 38.7241 66.1982 38.678 66.1969H32.5555C32.5357 66.1969 32.516 66.1969 32.4962 66.1969C32.3102 66.1917 32.2758 66.1613 32.2747 65.9773C32.2727 65.5692 32.2747 65.1608 32.2747 64.7528C32.2747 64.5948 32.2747 64.4368 32.2747 64.2788C32.2747 64.0457 32.292 64.0295 32.5192 64.0295C33.0856 64.0295 33.6518 64.0295 34.2177 64.0295C34.2639 64.0295 34.3101 64.0295 34.3559 64.0295C34.4744 64.0224 34.5025 63.9963 34.5139 63.8751C34.519 63.8229 34.5159 63.7696 34.5159 63.7171L34.5135 62.0581C34.5147 61.9893 34.5151 61.9186 34.5151 61.8223Z" fill="#9F86B9"/>
<path d="M16.669 52.8866C16.6838 52.9628 16.6939 53.0398 16.699 53.1173C16.7006 54.4524 16.7006 55.7873 16.699 57.1222C16.699 57.3197 16.6662 57.3529 16.4695 57.3529C15.1281 57.3529 13.7866 57.3529 12.4449 57.3529C12.2474 57.3529 12.2142 57.3197 12.2138 57.1238C12.2122 56.5252 12.2122 55.9268 12.2138 55.3285C12.2138 55.1239 12.2363 55.1033 12.4409 55.1029C13.006 55.1029 13.5722 55.1029 14.1394 55.1029H14.2378C14.4475 55.1029 14.4554 55.0939 14.4554 54.8758C14.4554 54.3039 14.4554 53.7318 14.4554 53.1595C14.4554 52.8866 14.4554 52.8866 14.73 52.8866H16.669Z" fill="#75ABDA"/>
<path d="M56.7579 19.4948V19.7713C56.7579 21.6982 56.7579 23.625 56.7579 25.5518C56.7579 25.6561 56.7801 25.7599 56.7809 25.8642C56.7773 25.9523 56.7689 26.0401 56.756 26.1273C56.6837 26.1328 56.6264 26.1407 56.5691 26.1407C55.9774 26.1407 55.3849 26.1407 54.7916 26.1407C54.5685 26.1407 54.5582 26.1316 54.5578 25.9073C54.5578 24.3486 54.5578 22.7901 54.5578 21.2317C54.5578 20.7382 54.5578 20.2449 54.5578 19.752C54.5562 19.6993 54.5578 19.6465 54.5625 19.594C54.5625 19.5791 54.5654 19.5643 54.5713 19.5505C54.5771 19.5368 54.5857 19.5244 54.5965 19.5141C54.6073 19.5037 54.6201 19.4957 54.6341 19.4905C54.6481 19.4853 54.663 19.483 54.6779 19.4838C54.7107 19.4838 54.7438 19.4838 54.7766 19.4838C55.3752 19.4838 55.9736 19.4838 56.5719 19.4838C56.6264 19.483 56.6774 19.4893 56.7579 19.4948Z" fill="#7D5FA3"/>
<path d="M27.7922 61.7575C27.5971 61.7993 25.7655 61.7926 25.6043 61.7472C25.6011 61.6828 25.5948 61.6125 25.5948 61.5418C25.5948 60.9759 25.5948 60.4097 25.5948 59.8433C25.5948 59.7904 25.5948 59.7378 25.5921 59.6853C25.5926 59.6551 25.5811 59.6259 25.5602 59.6041C25.5392 59.5824 25.5105 59.5698 25.4803 59.5692C25.4281 59.564 25.3752 59.5656 25.3223 59.5656H23.6238H23.3868C23.3675 59.4877 23.3543 59.4085 23.3473 59.3286C23.3445 58.7495 23.3473 58.1701 23.3473 57.5906C23.3466 57.5447 23.3499 57.4989 23.3571 57.4535C23.3581 57.4386 23.3621 57.4241 23.3687 57.4107C23.3754 57.3973 23.3846 57.3854 23.3959 57.3756C23.4071 57.3658 23.4202 57.3583 23.4344 57.3536C23.4486 57.3489 23.4635 57.347 23.4784 57.3481C23.5309 57.3481 23.5835 57.3481 23.6364 57.3481H27.7732C27.8222 57.512 27.8349 61.5157 27.7922 61.7575Z" fill="#9F86B9"/>
<path d="M56.406 31.7279C56.2448 31.7279 56.1078 31.7279 55.9715 31.7279C55.4355 31.7362 55.6136 31.6627 55.221 32.0415C55.1546 32.1055 55.093 32.1747 55.0235 32.2359C54.9935 32.2615 54.9701 32.2939 54.9551 32.3304C54.9401 32.3668 54.9341 32.4063 54.9374 32.4456C54.9417 32.5641 54.9374 32.6803 54.9374 32.792C54.7766 32.8351 52.2063 32.843 51.9958 32.8031C51.9847 32.7558 51.9774 32.7078 51.9741 32.6593C51.9725 31.2974 51.9725 29.9354 51.9741 28.5735C51.9741 28.3949 52.0006 28.37 52.1819 28.3696C52.7412 28.3696 53.3005 28.3696 53.8598 28.3696C53.9116 28.3696 53.9633 28.3831 54.015 28.3874C54.1802 28.4016 54.1885 28.4072 54.1908 28.5715C54.1932 28.7623 54.1908 28.953 54.1908 29.1438C54.1908 29.5649 54.1908 29.986 54.1908 30.4078C54.1908 30.5935 54.2102 30.6132 54.3935 30.6132C54.9658 30.6132 55.539 30.6132 56.1109 30.6132C56.1635 30.6132 56.2164 30.6156 56.2689 30.6132C56.3673 30.6093 56.4131 30.6618 56.4269 30.7523C56.4294 30.7653 56.4308 30.7785 56.4313 30.7918C56.4238 31.0916 56.4147 31.393 56.406 31.7279Z" fill="#E9A66D"/>
<path d="M63.4449 37.2757H61.5623C61.5588 37.1995 61.5529 37.1351 61.5529 37.0711C61.5529 36.7488 61.5489 36.4265 61.5529 36.1041C61.5571 36.0521 61.5491 35.9998 61.5295 35.9514C61.51 35.903 61.4794 35.8598 61.4403 35.8253C61.3278 35.7241 61.2206 35.6172 61.1191 35.5049C61.074 35.4531 61.0176 35.4124 60.9543 35.3858C60.8909 35.3593 60.8223 35.3476 60.7538 35.3517C59.8986 35.3568 59.0434 35.354 58.1882 35.354H57.9591V35.0843C58.031 35.0815 58.1069 35.076 58.1827 35.076H60.9082C60.954 35.076 61.0002 35.076 61.0461 35.076C61.2041 35.0704 61.2282 35.0511 61.2289 34.8911C61.2289 34.3251 61.2289 33.7594 61.2289 33.1926C61.2289 33.1401 61.2289 33.0871 61.2289 33.0346C61.2345 32.8628 61.2657 32.8288 61.4415 32.8284C62.0471 32.8266 62.6528 32.8266 63.2585 32.8284C63.437 32.8284 63.4714 32.8651 63.4722 33.0544C63.4722 33.3439 63.4674 33.633 63.4678 33.9234C63.4678 34.9504 63.4691 35.9766 63.4718 37.002C63.471 37.0905 63.4548 37.1789 63.4449 37.2757Z" fill="#82A78E"/>
<path d="M67.8894 52.8905C67.9045 52.9582 67.9149 53.0268 67.9206 53.0959C67.9175 54.4302 67.9134 55.7647 67.9084 57.0992C67.9084 57.1253 67.9084 57.1518 67.9084 57.1782C67.9005 57.322 67.8788 57.3429 67.7295 57.3497C67.703 57.3497 67.6765 57.3497 67.6505 57.3497H65.9729C65.9201 57.3519 65.8673 57.3499 65.8149 57.3437C65.7815 57.3414 65.7503 57.3264 65.7276 57.3018C65.7049 57.2772 65.6924 57.2449 65.6928 57.2114C65.6909 57.1656 65.6909 57.1194 65.6909 57.0732C65.6909 55.7649 65.6909 54.4565 65.6909 53.148C65.6909 53.135 65.6909 53.122 65.6909 53.1085C65.6932 52.902 65.6991 52.8937 65.9002 52.8917C66.1435 52.8917 66.3868 52.8917 66.6298 52.8917H67.6753L67.8894 52.8905Z" fill="#82A78E"/>
<path d="M67.9056 37.2741C67.8089 37.2797 67.7445 37.2864 67.6805 37.2868C67.0946 37.2868 66.5088 37.2868 65.9231 37.2868C65.8971 37.2868 65.8706 37.2868 65.8441 37.2868C65.7256 37.2785 65.7015 37.2552 65.6936 37.1288C65.6913 37.096 65.6936 37.0628 65.6936 37.03V33.101C65.6916 33.0615 65.6916 33.0219 65.6936 32.9825C65.7043 32.8802 65.7398 32.8422 65.8398 32.8296C65.8792 32.8262 65.9188 32.8254 65.9583 32.8272H67.6761C67.6959 32.8272 67.7156 32.8272 67.7354 32.8272C67.8827 32.8336 67.8985 32.8497 67.9048 33.0038C67.9048 33.0366 67.9048 33.0698 67.9048 33.1025V37.2741H67.9056Z" fill="#658EC7"/>
<path d="M23.3477 55.0938C23.2608 55.0985 23.1897 55.1052 23.1186 55.1052H19.1686C19.1291 55.1052 19.0896 55.1052 19.0501 55.1052C19.0319 55.1068 19.0136 55.1043 18.9965 55.098C18.9793 55.0917 18.9638 55.0817 18.9509 55.0687C18.938 55.0558 18.9282 55.0402 18.9219 55.023C18.9157 55.0059 18.9134 54.9875 18.915 54.9694C18.915 54.9299 18.915 54.8904 18.915 54.8509V53.133C18.915 53.0935 18.915 53.054 18.915 53.0145C18.9177 52.9355 18.9565 52.8929 19.0374 52.8925H19.1757H23.1652C23.3461 52.8964 23.3726 52.9169 23.3718 53.0982C23.3718 53.3613 23.354 53.6244 23.3544 53.8882C23.3544 54.2106 23.3682 54.5329 23.3718 54.8548C23.3683 54.9349 23.3602 55.0147 23.3477 55.0938Z" fill="#E9A66D"/>
<path d="M56.8136 46.8285C56.9515 46.9687 57.0901 47.105 57.226 47.2495C57.2575 47.2866 57.2969 47.3161 57.3414 47.3358C57.3858 47.3555 57.4342 47.3649 57.4828 47.3633C58.6009 47.3594 59.719 47.3594 60.8371 47.3633C60.8825 47.3654 60.9277 47.3572 60.9695 47.3393C61.0112 47.3213 61.0483 47.2942 61.0781 47.2598C61.1966 47.1346 61.3151 47.0122 61.4411 46.8972C61.4804 46.8634 61.5111 46.8206 61.5305 46.7725C61.55 46.7244 61.5576 46.6724 61.5528 46.6207C61.5469 46.4911 61.5556 46.3612 61.558 46.2257H63.4394C63.4531 46.298 63.4625 46.3711 63.4674 46.4445C63.4698 47.0299 63.4674 47.6153 63.4674 48.2007C63.4674 48.2335 63.4674 48.2663 63.4642 48.2991C63.4556 48.3812 63.4172 48.4342 63.3264 48.4334C63.2869 48.4334 63.2474 48.4334 63.2079 48.4334H57.034C57.008 48.4334 56.9815 48.4334 56.955 48.4334C56.8065 48.4278 56.7726 48.4049 56.7714 48.2651C56.767 47.7911 56.7714 47.3191 56.7714 46.8459L56.8136 46.8285Z" fill="#75ABDA"/>
<path d="M27.8281 64.0244H29.783C29.8355 64.0244 29.8881 64.0244 29.941 64.0244C29.9559 64.024 29.9707 64.0265 29.9847 64.0319C29.9986 64.0372 30.0113 64.0453 30.0221 64.0555C30.0329 64.0658 30.0415 64.0781 30.0476 64.0918C30.0536 64.1054 30.0568 64.1201 30.0571 64.135C30.0609 64.1744 30.0621 64.214 30.0607 64.2535V65.9698C30.0607 66.0026 30.0607 66.0358 30.0583 66.0685C30.0585 66.1019 30.0456 66.134 30.0223 66.1579C29.999 66.1818 29.9672 66.1955 29.9339 66.1961C29.888 66.1999 29.842 66.2011 29.796 66.1997H25.85C25.8172 66.1997 25.784 66.1997 25.7512 66.1997C25.6161 66.1918 25.5932 66.1728 25.5932 66.033C25.5909 65.4147 25.5909 64.7959 25.5932 64.1765C25.5932 64.0382 25.6118 64.0228 25.7595 64.022C26.1605 64.0197 26.5618 64.022 26.9631 64.022H27.8321L27.8281 64.0244Z" fill="#75ABDA"/>
<path d="M61.2294 51.7644C61.2294 51.4551 61.2294 51.1458 61.2294 50.8361C61.2294 50.6781 61.2582 50.6457 61.4111 50.6449C62.0362 50.6418 62.6614 50.6418 63.2865 50.6449C63.4248 50.6449 63.4607 50.6844 63.4714 50.8199C63.4714 50.8393 63.4714 50.8594 63.4714 50.8792C63.4714 51.4717 63.4714 52.0642 63.4714 52.6567C63.4714 52.8779 63.4568 52.8897 63.2344 52.8901C62.6421 52.8901 62.0496 52.8901 61.4569 52.8901C61.2309 52.8901 61.2305 52.8901 61.2297 52.6531C61.2286 52.3565 61.2294 52.061 61.2294 51.7644Z" fill="#82A78E"/>
<path d="M65.3421 28.3705C65.3377 28.2773 65.333 28.2192 65.333 28.1607C65.333 27.5696 65.333 26.9784 65.333 26.3872C65.333 26.354 65.333 26.3212 65.333 26.2884C65.3425 26.1786 65.3646 26.1577 65.4799 26.149C65.5127 26.1466 65.5455 26.149 65.5787 26.149H67.3325C67.3783 26.149 67.4245 26.149 67.4704 26.149C67.4836 26.1485 67.4967 26.1507 67.5091 26.1554C67.5215 26.1601 67.5328 26.1672 67.5423 26.1763C67.5519 26.1855 67.5596 26.1964 67.5648 26.2085C67.5701 26.2207 67.5729 26.2337 67.5731 26.247C67.5796 26.2994 67.5824 26.3522 67.5813 26.405C67.5754 26.9236 67.5675 27.4422 67.5632 27.9605C67.5632 28.0509 67.5825 28.1414 67.5786 28.2314C67.5742 28.3444 67.5336 28.3815 67.4206 28.3894C67.3416 28.395 67.2626 28.3894 67.1836 28.3894C66.6582 28.3894 66.1329 28.3894 65.6071 28.3894C65.5238 28.3898 65.4404 28.378 65.3421 28.3705Z" fill="#E9A66D"/>
<path d="M65.7055 61.759C65.7007 61.6942 65.6928 61.6366 65.6928 61.5793C65.6928 60.9805 65.6928 60.3819 65.6928 59.7836C65.6928 59.7571 65.6928 59.7311 65.6928 59.7046C65.6928 59.6173 65.7323 59.5687 65.8228 59.5687H65.9413H67.6793C67.7121 59.5687 67.7449 59.5687 67.7777 59.5687C67.8898 59.5762 67.9218 59.5987 67.9266 59.7086C67.9333 59.8594 67.9266 60.0107 67.9266 60.162C67.9266 60.4904 67.9266 60.8185 67.9266 61.1464C67.9266 61.3044 67.9337 61.4624 67.9285 61.6204C67.9238 61.7578 67.8985 61.7827 67.7626 61.7831C67.118 61.7855 66.4734 61.7831 65.8271 61.7831C65.7859 61.7787 65.7452 61.7707 65.7055 61.759Z" fill="#658EC7"/>
<path d="M67.8954 50.643H65.9358C65.8963 50.643 65.8568 50.643 65.8173 50.643C65.8008 50.6447 65.7841 50.6427 65.7684 50.6372C65.7528 50.6317 65.7386 50.6228 65.7268 50.6111C65.715 50.5995 65.7059 50.5853 65.7003 50.5697C65.6946 50.5541 65.6925 50.5375 65.694 50.521C65.694 50.4815 65.694 50.442 65.694 50.4025C65.694 49.8231 65.694 49.2447 65.694 48.6672C65.694 48.6344 65.694 48.6013 65.694 48.5685C65.694 48.4808 65.7379 48.433 65.8264 48.433C66.4773 48.433 67.128 48.433 67.7784 48.433C67.8574 48.433 67.9017 48.4701 67.9052 48.5515C67.9072 48.5977 67.9072 48.6435 67.9072 48.6897C67.9072 49.2614 67.9072 49.8331 67.9072 50.4048C67.906 50.4724 67.9005 50.5427 67.8954 50.643Z" fill="#82A78E"/>
<path d="M56.8081 17.222C56.8034 17.124 56.7971 17.0537 56.7967 16.985C56.7967 16.4715 56.7967 15.96 56.7967 15.4473C56.7967 15.3556 56.786 15.264 56.7844 15.1708C56.7844 15.0712 56.8239 15.027 56.9203 15.0167C56.9531 15.0149 56.9859 15.0149 57.0187 15.0167H58.7535C58.793 15.0167 58.8325 15.0167 58.872 15.0191C58.9053 15.0195 58.9373 15.0325 58.9615 15.0554C58.9857 15.0783 59.0005 15.1095 59.0027 15.1427C59.0075 15.182 59.0091 15.2217 59.0075 15.2612C59.0075 15.8406 59.0075 16.4188 59.0075 16.9961C59.0075 17.029 59.0075 17.0618 59.0075 17.0944C59.0075 17.1849 58.9573 17.224 58.87 17.2236C58.8242 17.2236 58.778 17.2236 58.7322 17.2236H56.8105L56.8081 17.222Z" fill="#69B562"/>
<path d="M67.874 17.2038C67.8167 17.2082 67.7654 17.2153 67.716 17.2153C67.118 17.2153 66.5198 17.2153 65.9215 17.2153C65.7209 17.2153 65.7031 17.2003 65.7023 17.0063C65.7005 16.4146 65.7005 15.8231 65.7023 15.2316C65.7023 15.0531 65.7323 15.0227 65.9081 15.0223C66.5138 15.0204 67.1184 15.0204 67.7219 15.0223C67.8724 15.0223 67.8946 15.0392 67.8946 15.1704C67.8946 15.8277 67.8946 16.4849 67.8946 17.1418C67.8896 17.1631 67.8828 17.1838 67.874 17.2038Z" fill="#7D5FA3"/>
<path d="M62.3567 64.0295C62.6659 64.0295 62.9752 64.0295 63.2845 64.0295C63.4508 64.0295 63.4706 64.0477 63.4714 64.2077C63.4737 64.7999 63.4737 65.3924 63.4714 65.9852C63.4714 66.1629 63.4374 66.1965 63.266 66.1969C62.6474 66.199 62.0286 66.199 61.4095 66.1969C61.2515 66.1969 61.2297 66.1728 61.2293 66.0105C61.2272 65.4116 61.2272 64.813 61.2293 64.2144C61.2293 64.0465 61.2447 64.0319 61.4087 64.0307C61.7251 64.0295 62.0411 64.0295 62.3567 64.0295Z" fill="#82A78E"/>
<path d="M67.8894 64.0559C67.895 64.1105 67.9041 64.1614 67.9041 64.2139C67.9041 64.8057 67.9041 65.3974 67.9041 65.9891C67.9041 66.0219 67.9041 66.055 67.9013 66.0874C67.9017 66.1024 67.8989 66.1172 67.8932 66.131C67.8874 66.1448 67.8788 66.1572 67.8679 66.1674C67.857 66.1776 67.8441 66.1854 67.83 66.1903C67.8158 66.1952 67.8008 66.197 67.786 66.1957C67.7465 66.1957 67.707 66.1957 67.6675 66.1957H65.9318C65.8923 66.1957 65.8528 66.1957 65.8133 66.1957C65.7968 66.1968 65.7803 66.1944 65.7649 66.1884C65.7495 66.1824 65.7356 66.173 65.7242 66.161C65.7129 66.149 65.7044 66.1346 65.6993 66.1188C65.6942 66.1031 65.6927 66.0864 65.6948 66.07C65.6948 65.4323 65.6948 64.7945 65.6948 64.1567C65.6948 64.0757 65.7343 64.0358 65.8133 64.0354H65.8331L67.844 64.0441C67.8595 64.0467 67.8747 64.0506 67.8894 64.0559Z" fill="#69B562"/>
<path d="M18.9478 64.0338H20.8927C20.9255 64.0338 20.9583 64.0338 20.9911 64.0338C21.0784 64.0338 21.127 64.0733 21.1274 64.163C21.1274 64.2025 21.1274 64.242 21.1274 64.2815C21.1274 64.8345 21.1274 65.3864 21.1274 65.9373C21.1274 65.9768 21.1274 66.0163 21.1274 66.0558C21.1274 66.1467 21.0768 66.1854 20.9943 66.1933C20.9615 66.1964 20.9283 66.1956 20.8955 66.1956H19.1417C19.1089 66.1956 19.0757 66.1956 19.043 66.1956C18.964 66.1929 18.9221 66.153 18.9221 66.0724C18.9221 66.0594 18.9221 66.0459 18.9221 66.0329C18.9221 65.4154 18.9221 64.7979 18.9221 64.1804C18.927 64.1309 18.9356 64.082 18.9478 64.0338Z" fill="#69B562"/>
<path d="M56.7568 64.0508V65.9421C56.7568 65.9879 56.7567 66.0341 56.7548 66.0799C56.7558 66.0949 56.7536 66.1098 56.7483 66.1238C56.7429 66.1377 56.7346 66.1504 56.7239 66.1608C56.7132 66.1712 56.7003 66.1792 56.6862 66.1841C56.6721 66.189 56.6571 66.1908 56.6422 66.1894C56.6094 66.1894 56.5766 66.1894 56.5435 66.1894H54.8055C54.7659 66.1905 54.7264 66.1894 54.687 66.1862C54.6535 66.1856 54.6217 66.1719 54.5981 66.1482C54.5746 66.1244 54.5613 66.0924 54.5609 66.059C54.557 66.0065 54.5582 65.9535 54.5582 65.901V64.306C54.5582 64.2732 54.5582 64.24 54.5582 64.2072C54.5637 64.0631 54.5779 64.0492 54.7162 64.0406C54.7292 64.0406 54.7426 64.0406 54.7557 64.0406C55.3671 64.0406 55.9787 64.0406 56.5905 64.0406C56.6367 64.0394 56.6825 64.0453 56.7568 64.0508Z" fill="#7D5FA3"/>
<path d="M15.576 64.0315C15.8723 64.0315 16.1685 64.0315 16.4648 64.0315C16.6623 64.0315 16.6725 64.0418 16.6729 64.229C16.6748 64.821 16.6748 65.4135 16.6729 66.0065C16.6729 66.1842 16.6575 66.1989 16.4814 66.1993C15.8825 66.2008 15.2837 66.2008 14.6849 66.1993C14.4811 66.1993 14.4609 66.1767 14.4609 65.9702C14.4609 65.3974 14.4609 64.8248 14.4609 64.2523C14.4609 64.2325 14.4609 64.2128 14.4609 64.193C14.4688 64.0584 14.4878 64.035 14.6284 64.035C14.8982 64.0319 15.168 64.035 15.4382 64.035H15.576V64.0315Z" fill="#658EC7"/>
<path d="M25.1587 41.3593C25.1587 40.7625 25.1556 40.1656 25.154 39.5494C24.5414 39.5265 23.9524 39.5526 23.3477 39.5336V34.128C23.4887 34.1257 23.6372 34.1221 23.7853 34.1209C23.9334 34.1198 24.0749 34.1209 24.2198 34.1209H25.1283V33.891C25.1283 33.4435 25.1283 32.9956 25.1283 32.548C25.1283 32.4722 25.1421 32.3964 25.1504 32.3142H30.6125V34.1178C31.2232 34.1249 31.818 34.1178 32.4232 34.1229V37.7123H30.5805V35.9154C29.9647 35.8965 29.369 35.9091 28.7734 35.9067C28.1777 35.9044 27.5884 35.9067 26.9959 35.9067H25.1888V37.749H30.6188C30.6224 38.3577 30.6188 38.9474 30.6212 39.5451C30.7725 39.5929 30.9234 39.5617 31.0711 39.5672C31.2188 39.5727 31.3737 39.5672 31.5253 39.5672H32.4212V44.957H30.6164C30.6097 45.2793 30.6137 45.5803 30.6133 45.8805C30.6129 46.1807 30.6133 46.473 30.6133 46.7633C30.4553 46.8064 25.3795 46.8131 25.1623 46.7704C25.1595 46.7056 25.1536 46.6357 25.1532 46.5658C25.1532 46.1179 25.1532 45.6703 25.1532 45.2228C25.1532 45.1521 25.1437 45.0818 25.137 44.9894H23.3615C23.3516 44.9254 23.3449 44.8819 23.339 44.8385C23.338 44.8253 23.338 44.8121 23.339 44.799C23.3353 43.7264 23.3316 42.6539 23.3279 41.5813V41.3688L25.1615 41.3565C25.1658 41.4355 25.1741 41.5145 25.1745 41.5935C25.1745 42.0474 25.1745 42.502 25.1745 42.9555C25.1745 43.0246 25.182 43.0938 25.186 43.1653H30.554V41.351H25.3748C25.3029 41.3486 25.231 41.3565 25.1587 41.3593Z" fill="white"/>
<path d="M43.1992 44.9612H41.4031C41.3865 45.5691 41.4059 46.1585 41.392 46.7431C41.2293 46.7826 36.3191 46.7948 35.9493 46.7597C35.9458 46.6953 35.9383 46.6261 35.9383 46.5574C35.9383 46.1229 35.9383 45.6884 35.9383 45.2539C35.9383 45.2081 35.941 45.1615 35.9383 45.1161C35.9272 44.9837 35.9047 44.9608 35.7657 44.9604C35.2984 44.9604 34.8307 44.9604 34.3634 44.9604H34.1426C34.1351 44.8953 34.126 44.851 34.1256 44.8072C34.1161 43.8272 34.1059 42.8472 34.0999 41.8672C34.096 41.2024 34.0972 40.5372 34.0999 39.8724C34.1023 39.2211 34.1094 38.5689 34.115 37.9184C34.115 37.8733 34.1201 37.8279 34.1244 37.7604C34.3219 37.7477 34.5194 37.756 34.713 37.7544C34.9065 37.7529 35.108 37.7544 35.3055 37.7544H35.9134V35.9702C36.0864 35.9307 41.1827 35.9244 41.3924 35.9639V37.7489H43.2043C43.2201 40.1553 43.2205 42.5414 43.1992 44.9612ZM41.3332 43.1734C41.3727 42.7875 41.3569 39.6868 41.319 39.5501H35.9675V43.1734H41.3332Z" fill="white"/>
<path d="M48.585 39.5529V40.3034C48.585 40.5799 48.585 40.8564 48.585 41.1329C48.585 41.353 48.5811 41.3569 48.3674 41.3573C47.9064 41.3573 47.4454 41.3573 46.9849 41.3573C46.9209 41.3573 46.8569 41.3632 46.7716 41.3672V46.7538C46.5824 46.8158 45.0833 46.813 44.919 46.7538V35.9505H46.7664V37.719C46.9268 37.7585 48.1023 37.7695 48.4598 37.7367C48.4598 37.1442 48.4598 36.5517 48.4598 35.9474H52.1289C52.1459 36.1449 52.1349 36.3424 52.1368 36.5371C52.1368 36.7409 52.1368 36.9452 52.1368 37.149V37.7506H53.9361C53.9594 37.9587 53.9452 38.1543 53.9475 38.3486C53.9499 38.5524 53.9475 38.7566 53.9475 38.9608C53.9475 39.1583 53.9503 39.3558 53.9507 39.5533C53.9511 39.7508 53.9483 39.9483 53.9479 40.1458C53.9479 40.3497 53.9503 40.5539 53.9479 40.7577C53.9448 40.952 53.9657 41.1484 53.9301 41.3502H52.1084C52.1048 41.2807 52.0985 41.2116 52.0985 41.1424C52.0985 40.6882 52.0985 40.2341 52.0985 39.7801V39.5553L48.585 39.5529Z" fill="white"/>
<path d="M20.5195 40.1008C20.2268 39.9329 19.9364 39.767 19.6473 39.5995C18.7678 39.0889 17.8871 38.5784 17.0051 38.0681C16.8965 38.0053 16.8266 37.9448 16.8274 37.7971C16.8337 36.0797 16.8313 34.3606 16.8313 32.6451C16.8313 32.6191 16.8345 32.593 16.8365 32.5578C17.1193 32.3947 17.4045 32.2328 17.6861 32.0653C17.7675 32.0171 17.8307 32.0356 17.9046 32.0787C18.3079 32.3157 18.7127 32.546 19.1172 32.7786L21.3383 34.058C21.3837 34.0841 21.4276 34.1126 21.4797 34.1445V37.3942L20.5586 37.9243L21.0199 38.1941C21.1673 38.281 21.3138 38.3683 21.4754 38.4643V39.5308L20.5195 40.1008ZM17.8386 36.4122V37.3914C18.1123 37.2204 18.3707 37.0593 18.6503 36.8839L17.8386 36.4122ZM17.8212 35.2221L18.6677 34.7284C18.5097 34.6359 18.3892 34.5625 18.2656 34.4914C18.142 34.4203 18.0096 34.344 17.8686 34.263C17.854 34.5866 17.8378 34.8872 17.8212 35.2221Z" fill="white"/>
<path d="M52.3087 15.01V14.762C52.3087 13.4716 52.3087 12.1813 52.3087 10.891C52.3087 10.5481 52.311 10.5457 52.644 10.5457H56.4755C56.5281 10.5457 56.581 10.5434 56.6335 10.5457C56.752 10.5536 56.7828 10.5852 56.7939 10.701C56.7959 10.7404 56.7959 10.78 56.7939 10.8195C56.7939 11.3856 56.7939 11.9518 56.7939 12.518C56.7939 12.5642 56.7939 12.6104 56.7911 12.6562C56.7908 12.693 56.7759 12.7282 56.7497 12.754C56.7235 12.7799 56.6881 12.7943 56.6513 12.7941C56.6184 12.7965 56.5855 12.7972 56.5525 12.796C55.954 12.7897 55.3556 12.783 54.7573 12.7759C54.6242 12.7759 54.5641 12.8237 54.5558 12.9556C54.5527 13.0082 54.5558 13.0611 54.5558 13.1136C54.5558 14.3971 54.557 15.6805 54.5594 16.9637C54.5594 17.2366 54.5475 17.2516 54.2679 17.2497C53.6955 17.2457 53.1224 17.2323 52.5508 17.2327C51.8536 17.2327 51.1565 17.2453 50.4573 17.2501C50.0876 17.2528 50.0876 17.2501 50.0876 16.8768V15.2968C50.0876 15.2443 50.0876 15.1913 50.0907 15.1388C50.0899 15.1206 50.0931 15.1024 50.1 15.0855C50.1069 15.0686 50.1174 15.0534 50.1307 15.041C50.144 15.0285 50.1599 15.0191 50.1772 15.0133C50.1945 15.0076 50.2128 15.0056 50.231 15.0077H50.3692H52.0677L52.3087 15.01Z" fill="#75ABDA"/>
<path d="M32.2755 23.9413C32.1799 23.9346 32.1175 23.9267 32.0519 23.9267C31.4602 23.9267 30.8677 23.9267 30.2744 23.9267C30.2416 23.9267 30.2088 23.9267 30.1756 23.9267C30.0966 23.9267 30.0532 23.9662 30.0548 24.048C30.0548 24.0938 30.0548 24.14 30.0548 24.1862C30.0548 24.7392 30.0548 25.2922 30.0548 25.8452C30.0548 25.8847 30.0548 25.9242 30.0548 25.9637C30.0496 26.1304 30.035 26.1454 29.875 26.1514C29.8423 26.1514 29.8095 26.1514 29.7763 26.1514H28.0383H27.812V21.9845C27.8094 21.9386 27.8094 21.8926 27.812 21.8466C27.8238 21.7341 27.8605 21.6993 27.9747 21.6886C28.0205 21.6847 28.0667 21.6886 28.1129 21.6886H34.2117C34.51 21.6886 34.5171 21.6961 34.5171 22.0019C34.5171 23.2783 34.5171 24.5545 34.5171 25.8306C34.5171 25.8764 34.5195 25.9226 34.5171 25.9685C34.5064 26.1221 34.4803 26.1498 34.3239 26.1502C33.7059 26.1518 33.0871 26.1518 32.4674 26.1502C32.2865 26.1502 32.2735 26.1348 32.2731 25.9396C32.2731 25.3542 32.2731 24.7687 32.2731 24.1831L32.2755 23.9413Z" fill="#9F86B9"/>
<path d="M25.592 20.5795V25.8725C25.592 26.149 25.592 26.149 25.323 26.149C24.7437 26.149 24.1644 26.149 23.585 26.149C23.3749 26.149 23.3556 26.1324 23.3552 25.9278C23.3552 25.0325 23.3552 24.1371 23.3552 23.2418C23.3603 21.5638 23.3717 19.8843 23.3733 18.2075C23.3733 17.2536 23.3603 16.2993 23.3532 15.3453V15.3058C23.3532 15.027 23.3694 15.012 23.6392 15.012H25.3195C25.372 15.012 25.425 15.012 25.4775 15.0151C25.4925 15.0146 25.5074 15.0172 25.5213 15.0227C25.5352 15.0282 25.5479 15.0365 25.5585 15.0471C25.5691 15.0577 25.5774 15.0704 25.5829 15.0843C25.5884 15.0982 25.591 15.1131 25.5905 15.1281C25.5936 15.1873 25.5928 15.2466 25.5928 15.3058V20.5795H25.592Z" fill="#82A78E"/>
<path d="M47.8858 19.4735H52.0503C52.3229 19.4735 52.3323 19.4822 52.3327 19.7473C52.3327 20.3066 52.3327 20.8658 52.3327 21.4248C52.3343 21.4643 52.3332 21.5039 52.3296 21.5433C52.315 21.6539 52.2901 21.6784 52.1803 21.6867C52.1281 21.691 52.0752 21.6887 52.0223 21.6887L50.3238 21.6863C50.1211 21.6863 50.0935 21.7041 50.0903 21.9083C50.0836 22.323 50.0884 22.7378 50.0884 23.1518C50.0884 23.3493 50.0915 23.5468 50.0884 23.7443C50.086 23.8983 50.0583 23.9275 49.9019 23.9311C49.7455 23.9346 49.5993 23.9267 49.4481 23.9271C49.0333 23.9271 48.6186 23.9307 48.2046 23.9327C48.1584 23.9327 48.1126 23.9327 48.0663 23.9327C47.9008 23.9244 47.8744 23.8995 47.874 23.7308C47.874 23.2963 47.874 22.8618 47.874 22.4273C47.874 22.2496 47.874 22.0718 47.874 21.8945C47.874 21.6993 47.8633 21.6914 47.6765 21.6883C47.637 21.6883 47.5975 21.6883 47.558 21.6883H43.6894C43.4129 21.6883 43.4129 21.6883 43.4129 21.4173C43.4129 20.8643 43.4129 20.3113 43.4129 19.7583C43.4111 19.7122 43.4118 19.6661 43.4148 19.6201C43.4259 19.513 43.4567 19.4818 43.5614 19.4731C43.6139 19.4688 43.6668 19.4731 43.7194 19.4731L47.8858 19.4735Z" fill="#658EC7"/>
<path d="M47.8507 48.427C47.8611 48.3636 47.8683 48.2998 47.872 48.2358C47.872 46.2157 47.872 44.1958 47.872 42.1761V41.9181C48.0557 41.9181 48.218 41.9142 48.3804 41.9181C48.4989 41.9217 48.5988 41.9071 48.6818 41.8107C48.7183 41.774 48.7675 41.7528 48.8192 41.7515C49.2328 41.7471 49.6464 41.7487 50.0832 41.7487C50.088 41.8925 50.0967 42.0208 50.0967 42.1496C50.0967 44.6434 50.0976 47.137 50.0994 49.6305C50.0994 49.8541 50.1101 50.0773 50.1156 50.302C50.1156 50.3415 50.1156 50.381 50.1156 50.4205C50.1065 50.639 50.0785 50.6706 49.8581 50.6694C49.0681 50.665 48.2781 50.654 47.4905 50.6524C46.9904 50.6524 46.4907 50.6631 45.9895 50.669C45.9432 50.669 45.8974 50.669 45.8512 50.669C45.6573 50.6611 45.6245 50.6295 45.6241 50.432C45.622 49.8332 45.622 49.2345 45.6241 48.6359C45.6241 48.4471 45.6466 48.4277 45.8472 48.4274C46.4397 48.4274 47.0322 48.4274 47.6247 48.4274L47.8507 48.427Z" fill="#75ABDA"/>
<path d="M45.6166 28.3543H41.2104C41.2048 28.2753 41.1957 28.1991 41.1954 28.1237C41.1954 27.5838 41.1954 27.044 41.1954 26.5042C41.1954 26.4647 41.1954 26.4252 41.1954 26.3857C41.1918 26.1688 41.1717 26.1487 40.9584 26.1487C40.2015 26.1487 39.4448 26.1487 38.6883 26.1487H37.0293C36.9764 26.1487 36.9238 26.1487 36.8713 26.1487C36.8531 26.1506 36.8346 26.1483 36.8174 26.1422C36.8001 26.136 36.7845 26.126 36.7716 26.1129C36.7588 26.0999 36.749 26.0841 36.7431 26.0668C36.7372 26.0494 36.7352 26.031 36.7374 26.0128C36.7374 25.3745 36.735 24.7361 36.7374 24.0978C36.7374 23.9793 36.7769 23.9497 36.8954 23.9398C36.961 23.9355 37.0269 23.937 37.0929 23.937H43.1143C43.4058 23.937 43.4058 23.937 43.4058 24.2349V25.8733C43.4058 25.9196 43.4034 25.9658 43.4058 26.0116C43.4153 26.1194 43.4413 26.1443 43.5539 26.1526C43.5997 26.1562 43.6459 26.1526 43.6921 26.1526H45.3701C45.4159 26.1526 45.4621 26.1526 45.508 26.1526C45.5228 26.1512 45.5378 26.153 45.5519 26.1578C45.5661 26.1626 45.5791 26.1703 45.59 26.1804C45.601 26.1905 45.6097 26.2029 45.6155 26.2166C45.6214 26.2303 45.6243 26.2451 45.6241 26.26C45.6276 26.2995 45.6273 26.339 45.6273 26.3785C45.6273 26.9708 45.6273 27.5633 45.6273 28.156C45.6284 28.2149 45.6225 28.273 45.6166 28.3543Z" fill="#82A78E"/>
<path d="M34.523 46.2201H35.3434C35.3522 46.3252 35.3536 46.4308 35.3478 46.5361C35.3257 46.7178 35.3873 46.8521 35.5279 46.9647C35.6241 47.0448 35.7129 47.1334 35.7933 47.2293C35.8318 47.278 35.8819 47.3162 35.9389 47.3405C35.996 47.3648 36.0583 47.3744 36.12 47.3684C36.3175 47.3585 36.5122 47.366 36.7326 47.366V47.7329C36.7326 47.917 36.7295 48.1015 36.7346 48.2859C36.7378 48.4005 36.7635 48.423 36.8756 48.4313C36.9282 48.4353 36.9807 48.4313 37.0336 48.4313H40.8047H40.9429C41.1689 48.4313 41.1957 48.4574 41.1957 48.679C41.1957 50.0022 41.1957 51.3252 41.1957 52.6479C41.197 52.6939 41.1934 52.7398 41.1851 52.785C41.1815 52.8149 41.1667 52.8424 41.1435 52.8618C41.1204 52.8812 41.0908 52.891 41.0607 52.8893C41.0148 52.8893 40.9686 52.8893 40.9228 52.8893H39.2235C38.9668 52.8893 38.9521 52.8766 38.9525 52.6254C38.9525 52.0858 38.9557 51.5463 38.9577 51.0059C38.9577 50.9467 38.9604 50.8874 38.9577 50.8282C38.9518 50.6883 38.9209 50.6552 38.7831 50.6441C38.7309 50.6397 38.678 50.6441 38.6251 50.6441L34.7746 50.6465C34.7418 50.6465 34.7087 50.6465 34.6759 50.6465C34.5278 50.6405 34.4989 50.6208 34.4973 50.475C34.493 50.1527 34.4973 49.83 34.4973 49.5077C34.4973 49.3761 34.5131 49.245 34.5135 49.1127C34.5135 48.5071 34.5163 47.9016 34.5135 47.2957C34.5135 47.0192 34.4989 46.7427 34.4954 46.4662C34.5002 46.3837 34.5094 46.3016 34.523 46.2201Z" fill="#82A78E"/>
<path d="M34.523 37.1738C34.4069 37.1738 34.3219 37.1699 34.2374 37.1738C34.1868 37.177 34.1189 37.1786 34.0905 37.2094C34.0059 37.2998 33.9036 37.2923 33.7986 37.2919H32.9457C32.9414 37.2031 32.9347 37.1276 32.9347 37.0518C32.9347 36.1504 32.9299 35.2486 32.9347 34.3468C32.9347 34.2038 32.9062 34.0932 32.7925 34.0012C32.7111 33.9356 32.6463 33.8495 32.5669 33.7808C32.4875 33.712 32.3927 33.6492 32.2715 33.5588V33.4071C32.2715 31.8271 32.2715 30.2471 32.2715 28.6671C32.2715 28.3705 32.2833 28.3594 32.5855 28.359H34.2248C34.5013 28.359 34.5238 28.3827 34.523 28.6671C34.523 29.2004 34.5182 29.7336 34.5159 30.2665C34.5159 30.3127 34.5159 30.3585 34.5159 30.4047C34.519 30.5939 34.5289 30.6066 34.7177 30.607C35.277 30.607 35.8368 30.607 36.3961 30.607C36.4423 30.607 36.4881 30.607 36.5343 30.607C36.7164 30.6113 36.7354 30.6275 36.7358 30.8151C36.7358 31.3547 36.7358 31.8947 36.7358 32.4346C36.7358 32.5069 36.7378 32.5796 36.7358 32.6519C36.731 32.8099 36.7137 32.8272 36.5489 32.8336C36.5027 32.8336 36.4569 32.8336 36.4107 32.8336L34.7912 32.8304C34.7517 32.8304 34.7122 32.8304 34.6727 32.8304C34.5459 32.8387 34.5234 32.8596 34.5147 32.9817C34.5107 33.0342 34.5147 33.0872 34.5147 33.1397C34.5171 34.3966 34.5197 35.6537 34.5226 36.9112L34.523 37.1738Z" fill="#658EC7"/>
<path d="M31.1655 19.4692H28.1635C28.124 19.4692 28.0845 19.4692 28.045 19.4692C27.8562 19.4656 27.8175 19.4297 27.8116 19.235C27.8072 19.0967 27.8116 18.9585 27.8116 18.8202V15.405C27.8116 15.3592 27.8116 15.313 27.8116 15.2668C27.8155 15.0408 27.84 15.0152 28.0604 15.0148C28.6463 15.0148 29.232 15.0148 29.8174 15.0148C30.0259 15.0148 30.0544 15.0424 30.0544 15.2577C30.0544 15.8107 30.0508 16.3637 30.0484 16.9167C30.0484 16.9692 30.0465 17.0222 30.0484 17.0747C30.0552 17.2126 30.0848 17.243 30.227 17.254C30.2791 17.2584 30.3321 17.254 30.385 17.254C31.4179 17.2465 32.4508 17.2347 33.4838 17.2347C33.731 17.2347 33.9779 17.2232 34.2248 17.2256C34.4811 17.2284 34.5167 17.2671 34.5116 17.5293C34.504 17.9303 34.4946 18.3312 34.4914 18.7325C34.4914 18.8905 34.51 19.0485 34.5112 19.2065C34.5112 19.4305 34.4717 19.4692 34.2461 19.4696C33.2194 19.4698 32.1925 19.4697 31.1655 19.4692Z" fill="#658EC7"/>
<path d="M38.9431 21.6689H36.754C36.7492 21.5951 36.7421 21.5315 36.7421 21.4679C36.7421 19.3944 36.7421 17.3212 36.7421 15.2482C36.7421 15.2087 36.7421 15.1692 36.7445 15.1297C36.7436 15.1148 36.7459 15.0999 36.7513 15.086C36.7567 15.0721 36.7651 15.0596 36.7758 15.0492C36.7866 15.0389 36.7994 15.031 36.8135 15.0261C36.8276 15.0213 36.8426 15.0196 36.8575 15.0211C36.897 15.0211 36.9365 15.0211 36.976 15.0211H38.714C38.7596 15.0152 38.8059 15.0176 38.8506 15.0282C38.8897 15.0451 38.9205 15.0768 38.9364 15.1163C38.9466 15.1683 38.949 15.2216 38.9435 15.2743C38.9435 15.8336 38.9435 16.393 38.9435 16.9526C38.9411 17.0053 38.9422 17.0581 38.9466 17.1106C38.9632 17.2461 39.0047 17.273 39.1441 17.2524C39.2024 17.243 39.2613 17.2378 39.3203 17.237C39.8599 17.237 40.3997 17.237 40.9398 17.237C40.9793 17.236 41.0189 17.2369 41.0583 17.2398C41.0917 17.2406 41.1236 17.2541 41.1474 17.2776C41.1712 17.3011 41.1851 17.3328 41.1863 17.3662C41.1897 17.4122 41.1908 17.4583 41.1894 17.5044V19.2029C41.1914 19.2424 41.1914 19.282 41.1894 19.3214C41.1772 19.4455 41.1535 19.4672 41.0073 19.468C40.6258 19.468 40.2442 19.468 39.8618 19.468C39.6248 19.468 39.3878 19.4656 39.1508 19.468C38.9735 19.47 38.9458 19.4968 38.9454 19.6769C38.9454 20.2627 38.9454 20.8481 38.9454 21.4339L38.9431 21.6689Z" fill="#7D5FA3"/>
<path d="M12.2387 50.6318V48.6711C12.2387 48.6513 12.2387 48.6316 12.2387 48.6118C12.245 48.4471 12.2572 48.4313 12.4235 48.4309C12.9959 48.4309 13.569 48.4309 14.141 48.4309C14.1872 48.4309 14.2334 48.4309 14.2792 48.4309C14.4353 48.425 14.4594 48.404 14.4598 48.2425C14.4598 47.6765 14.4598 47.1104 14.4598 46.544C14.4598 46.1834 14.4448 46.2138 14.7931 46.2138C15.3327 46.2138 15.8725 46.2138 16.4126 46.2138C16.4893 46.2138 16.5663 46.2205 16.6599 46.2248C16.6658 46.318 16.6749 46.3947 16.6749 46.4713C16.6749 47.0306 16.6749 47.5899 16.6749 48.1497C16.6749 48.2022 16.6749 48.2551 16.6773 48.3077C16.6824 48.3839 16.7211 48.4297 16.8025 48.4301C16.8483 48.4301 16.8945 48.4301 16.9404 48.4301H18.6163C18.6626 48.4301 18.7088 48.4273 18.7546 48.4301C18.8664 48.4392 18.9027 48.4755 18.9146 48.5881C18.9164 48.621 18.9164 48.654 18.9146 48.6869V50.4047C18.9146 50.4375 18.9146 50.4703 18.9126 50.5035C18.9098 50.5888 18.8707 50.6393 18.7799 50.6393C18.7404 50.6393 18.7009 50.6393 18.6614 50.6393C16.6013 50.6393 14.5413 50.6393 12.4812 50.6393C12.4125 50.6433 12.3418 50.639 12.2387 50.6318Z" fill="#82A78E"/>
<path d="M16.6595 21.6709H12.2568C12.2521 21.5978 12.2442 21.5342 12.2442 21.4706C12.2442 19.3982 12.2442 17.3257 12.2442 15.2533C12.2442 15.2336 12.2442 15.2138 12.2442 15.1941C12.2505 15.04 12.2663 15.0183 12.4137 15.0175C13.0322 15.0157 13.6511 15.0157 14.2702 15.0175C14.406 15.0175 14.4436 15.0602 14.4519 15.1945C14.455 15.247 14.4519 15.2995 14.4519 15.3525C14.4519 16.6354 14.4519 17.9182 14.4519 19.2009C14.4519 19.4774 14.4519 19.4794 14.7228 19.4794H16.4008C16.4466 19.4794 16.4928 19.4794 16.5386 19.4794C16.6295 19.4794 16.671 19.5241 16.6706 19.6125C16.6706 19.652 16.6706 19.6915 16.6706 19.731C16.6706 20.3035 16.6706 20.8759 16.6706 21.4481C16.669 21.518 16.6635 21.5883 16.6595 21.6709Z" fill="#69B562"/>
<path d="M47.8641 37.1636H47.3408C47.336 37.0972 47.3285 37.0399 47.3285 36.9827C47.3285 36.6797 47.3253 36.3771 47.3285 36.0742C47.3309 36.0318 47.3237 35.9894 47.3075 35.9502C47.2913 35.9109 47.2665 35.8758 47.2349 35.8474C47.1057 35.7254 46.9805 35.599 46.8577 35.471C46.8219 35.4325 46.778 35.4023 46.7291 35.3828C46.6803 35.3633 46.6277 35.3548 46.5752 35.358C46.3319 35.362 46.0882 35.358 45.8445 35.358H45.6332C45.6288 35.279 45.6225 35.2146 45.6225 35.1511C45.6243 34.4664 45.6268 33.7817 45.63 33.0971C45.63 33.0576 45.63 33.0181 45.63 32.9786C45.6205 32.8766 45.5854 32.8403 45.4831 32.8288C45.4436 32.8267 45.404 32.8267 45.3646 32.8288L43.6661 32.832C43.6396 32.832 43.6135 32.832 43.5871 32.832C43.433 32.8253 43.4117 32.8103 43.4113 32.6618C43.4089 32.0361 43.4089 31.4107 43.4113 30.7855C43.4113 30.6275 43.4263 30.6157 43.578 30.6082C43.6305 30.6054 43.6831 30.6062 43.736 30.6062H47.6465C47.861 30.6086 47.8732 30.618 47.8732 30.8278C47.8732 32.8884 47.8732 34.9489 47.8732 37.0095C47.874 37.0565 47.8681 37.1012 47.8641 37.1636Z" fill="#658EC7"/>
<path d="M12.2355 30.607C12.2214 30.5336 12.2119 30.4595 12.2071 30.385C12.2071 28.8258 12.2084 27.2667 12.211 25.7078C12.211 25.2298 12.2079 24.7519 12.2059 24.2739C12.2059 24.2277 12.2059 24.1815 12.2059 24.1357C12.2114 23.9382 12.2391 23.9062 12.4366 23.9054C13.0354 23.9054 13.6341 23.9054 14.2326 23.9054C14.2723 23.9046 14.3119 23.9073 14.3511 23.9133C14.381 23.9151 14.4089 23.9286 14.429 23.9507C14.449 23.9728 14.4597 24.0019 14.4586 24.0318C14.4586 24.0843 14.4586 24.1373 14.4586 24.1898C14.4586 26.2356 14.4586 28.2816 14.4586 30.3277V30.3475C14.4586 30.6129 14.4558 30.6161 14.1983 30.6161C13.6129 30.6161 13.0275 30.6161 12.4421 30.6161C12.3789 30.6161 12.3145 30.6125 12.2355 30.607Z" fill="#75ABDA"/>
<path d="M20.0265 30.6157H16.9455C16.6824 30.6157 16.669 30.6023 16.669 30.3356C16.669 29.7763 16.669 29.2171 16.669 28.6581C16.669 28.6383 16.669 28.6186 16.669 28.5988C16.6749 28.4013 16.7057 28.3681 16.8973 28.3618C16.9305 28.3618 16.9633 28.3618 16.9961 28.3618H23.0759C23.3682 28.3618 23.3789 28.3772 23.3781 28.6778C23.3781 29.244 23.3791 29.8101 23.3812 30.3763C23.3812 30.5845 23.3556 30.6133 23.1442 30.6157C22.1049 30.6162 21.0656 30.6162 20.0265 30.6157Z" fill="#75ABDA"/>
<path d="M17.4519 10.5488H20.4721C20.5246 10.5488 20.5779 10.5457 20.6301 10.5508C20.7351 10.5615 20.7679 10.5947 20.7762 10.6982C20.7805 10.7507 20.7762 10.8036 20.7762 10.8562C20.7762 11.4223 20.7762 11.9885 20.7762 12.5547C20.7762 12.7691 20.7576 12.7885 20.5392 12.7889C18.4797 12.7889 16.4201 12.7889 14.3606 12.7889C14.3343 12.7896 14.3079 12.7889 14.2816 12.7869C14.1287 12.7723 14.1047 12.7474 14.1043 12.5894C14.1043 12.1944 14.1043 11.7994 14.1043 11.4044C14.1043 11.1808 14.1015 10.9569 14.1043 10.7329C14.1062 10.5876 14.1343 10.5595 14.2749 10.5492C14.327 10.5453 14.38 10.5492 14.4329 10.5492L17.4519 10.5488Z" fill="#E9A66D"/>
<path d="M22.8188 41.7613V43.9524C22.7556 43.9579 22.7003 43.967 22.6426 43.967C20.7271 43.967 18.8119 43.967 16.8969 43.967C16.8637 43.967 16.8309 43.967 16.7982 43.967C16.7164 43.967 16.6797 43.9184 16.6757 43.8422C16.6737 43.8094 16.673 43.7766 16.673 43.7438C16.673 43.1513 16.673 42.5588 16.673 41.9663C16.6728 41.9267 16.6754 41.8871 16.6808 41.8478C16.6823 41.8209 16.6943 41.7957 16.7143 41.7776C16.7343 41.7596 16.7606 41.7502 16.7875 41.7515C16.8333 41.7515 16.8795 41.7515 16.9254 41.7515H22.6134C22.6766 41.7515 22.7409 41.7574 22.8188 41.7613Z" fill="#9F86B9"/>
<path d="M27.808 31.7864H25.6126C25.6086 31.7114 25.6027 31.6474 25.6023 31.5834C25.6023 30.6025 25.6023 29.6217 25.6023 28.641V28.6213C25.6043 28.402 25.6079 28.3961 25.8219 28.3961C27.1578 28.3961 28.494 28.3961 29.8304 28.3961C30.0338 28.3961 30.0552 28.4155 30.0524 28.6268C30.0492 28.8638 30.0271 29.1008 30.0279 29.3358C30.0279 29.6447 30.0445 29.9536 30.0536 30.2625C30.0536 30.3083 30.0536 30.3545 30.0536 30.4007C30.0433 30.5639 30.0022 30.605 29.8344 30.6054C29.2881 30.6054 28.7414 30.6054 28.1951 30.6054C28.1228 30.6054 28.0501 30.603 27.9783 30.6054C27.8443 30.6113 27.8139 30.6362 27.8116 30.7693C27.8068 31.0323 27.8116 31.2958 27.8116 31.5593L27.808 31.7864Z" fill="#69B562"/>
<path d="M12.2395 43.9504C12.2316 43.8584 12.2174 43.7699 12.2178 43.681C12.2225 42.5505 12.2304 41.4197 12.2347 40.2892C12.2347 40.1055 12.2181 39.9214 12.2185 39.7362C12.2185 39.5288 12.2509 39.5015 12.463 39.5012C13.0484 39.5012 13.6337 39.5012 14.2188 39.5012C14.2516 39.4998 14.2845 39.5006 14.3172 39.5035C14.4183 39.517 14.4475 39.5497 14.455 39.6588C14.4578 39.6983 14.455 39.7378 14.455 39.7773C14.455 41.086 14.455 42.3945 14.455 43.7028C14.455 43.7292 14.455 43.7553 14.455 43.7818C14.4495 43.9398 14.4294 43.967 14.2714 43.9674C13.6394 43.9695 13.008 43.9695 12.3773 43.9674C12.3311 43.9642 12.2851 43.9585 12.2395 43.9504Z" fill="#E9A66D"/>
<path d="M45.6407 15.0131H47.5734H47.7314C47.8179 15.0131 47.8689 15.0526 47.8689 15.1435C47.8689 15.7945 47.8689 16.4453 47.8689 17.096C47.8689 17.188 47.8187 17.2251 47.733 17.2263C47.6872 17.2263 47.641 17.2263 47.5951 17.2263H43.6902C43.4137 17.2263 43.4137 17.2263 43.4137 16.9589C43.4137 16.4004 43.4137 15.8416 43.4137 15.2825C43.4137 15.23 43.4137 15.1775 43.416 15.1245C43.4157 15.1096 43.4184 15.0948 43.4241 15.0809C43.4297 15.0671 43.4381 15.0546 43.4488 15.0442C43.4594 15.0337 43.4721 15.0256 43.4861 15.0202C43.5 15.0149 43.5149 15.0125 43.5298 15.0131C43.5823 15.0104 43.6349 15.0104 43.6878 15.0104L45.6407 15.0131Z" fill="#82A78E"/>
<path d="M16.7207 23.9437H20.922C21.1143 23.9473 21.1242 23.9544 21.1246 24.1444C21.1246 24.7427 21.1246 25.3414 21.1246 25.9405C21.1246 26.1308 21.1135 26.1415 20.9235 26.1415C19.5805 26.1415 18.2385 26.1415 16.8973 26.1415C16.8456 26.1415 16.7942 26.1356 16.7196 26.1308C16.701 26.0492 16.6886 25.9663 16.6824 25.8828C16.6793 25.324 16.6793 24.7648 16.6824 24.2052C16.6893 24.1173 16.7021 24.0299 16.7207 23.9437Z" fill="#7D5FA3"/>
<path d="M29.7147 47.2851C29.8979 47.2851 30.0757 47.2685 30.2487 47.2891C30.5157 47.321 30.6994 47.2187 30.8854 47.0307C31.0628 46.8522 31.1619 46.6752 31.1224 46.4272C31.1183 46.3705 31.1183 46.3136 31.1224 46.2569C31.2014 46.1898 31.2832 46.2174 31.3594 46.2147C31.4843 46.2099 31.6095 46.2107 31.7343 46.2147C31.8923 46.2182 31.9097 46.2372 31.9148 46.4019C31.9148 46.4283 31.9148 46.4544 31.9148 46.4809V50.3681C31.9148 50.4076 31.9148 50.4471 31.9148 50.4866C31.9073 50.6157 31.8879 50.6446 31.7667 50.6446C31.1023 50.6446 30.4379 50.6446 29.7739 50.6406C29.754 50.6359 29.7347 50.6292 29.7162 50.6205C29.7077 50.5682 29.7022 50.5154 29.6996 50.4625C29.6996 49.4566 29.6996 48.4504 29.6996 47.4439C29.6996 47.3965 29.7079 47.3523 29.7147 47.2851Z" fill="#E9A66D"/>
<path d="M25.5916 11.6667C25.5916 11.3574 25.5916 11.0481 25.5916 10.7388C25.5916 10.5694 25.6146 10.548 25.7891 10.5476C26.4077 10.5458 27.0265 10.5458 27.6456 10.5476C27.8123 10.5476 27.8384 10.5725 27.8392 10.7451C27.8416 11.3635 27.8416 11.9823 27.8392 12.6016C27.8392 12.7628 27.8029 12.7991 27.6385 12.7991C27.02 12.8015 26.4011 12.8015 25.782 12.7991C25.6149 12.7991 25.5952 12.7751 25.5936 12.5969C25.5909 12.2876 25.5936 11.9783 25.5936 11.6694L25.5916 11.6667Z" fill="#75ABDA"/>
<path d="M47.5252 28.3697V26.1715C47.575 26.1604 47.6256 26.1529 47.6765 26.149C48.3016 26.1474 48.9268 26.1474 49.5519 26.149C49.7352 26.149 49.7577 26.1699 49.7574 26.3536C49.7574 26.5965 49.7404 26.8399 49.7408 27.0828C49.7408 27.4051 49.7554 27.727 49.7577 28.0494C49.7605 28.391 49.7577 28.3914 49.4224 28.3914C48.8567 28.3914 48.2907 28.3914 47.7239 28.3914C47.6573 28.3877 47.591 28.3804 47.5252 28.3697Z" fill="#E9A66D"/>
<path d="M38.9723 32.8099C38.9644 32.7368 38.9545 32.6858 38.9545 32.6349C38.9545 32.0292 38.9545 31.4236 38.9545 30.8179C38.9535 30.7851 38.9547 30.7522 38.9581 30.7195C38.9589 30.6928 38.9699 30.6674 38.9888 30.6485C39.0078 30.6296 39.0332 30.6187 39.06 30.618C39.0995 30.6153 39.139 30.6157 39.1785 30.6157H40.956C40.9888 30.6157 41.0215 30.6157 41.0543 30.6157C41.1464 30.6137 41.1835 30.6674 41.1902 30.7503C41.1934 30.7898 41.1926 30.8293 41.1926 30.8688V32.5875C41.1926 32.627 41.1926 32.6665 41.1926 32.706C41.1898 32.785 41.1456 32.8245 41.0666 32.8245H40.9876C40.3753 32.8245 39.7631 32.8245 39.1508 32.8245C39.0967 32.8245 39.0454 32.8162 38.9723 32.8099Z" fill="#69B562"/>
<path d="M38.9292 12.7419C38.804 12.8185 38.6634 12.7814 38.5291 12.7814C38.0828 12.7842 37.6364 12.7814 37.1901 12.7814C37.1047 12.7814 37.019 12.7857 36.9337 12.7834C36.7619 12.7778 36.739 12.7565 36.7382 12.5878C36.7362 12.1928 36.7382 11.7978 36.7382 11.4028C36.7382 11.1793 36.7358 10.9557 36.7382 10.7313C36.7405 10.5733 36.7635 10.5469 36.9218 10.5461C37.5396 10.5437 38.1577 10.5437 38.776 10.5461C38.9209 10.5461 38.9478 10.5702 38.9482 10.7001C38.9482 11.3574 38.9482 12.0151 38.9482 12.6724C38.9447 12.6962 38.9383 12.7196 38.9292 12.7419Z" fill="#9F86B9"/>
<path d="M25.5988 51.7679C25.5988 51.4653 25.5988 51.1631 25.5988 50.8594C25.5988 50.6808 25.6485 50.6413 25.8168 50.6453C26.3481 50.6571 26.8793 50.6646 27.4102 50.6706C27.4817 50.6706 27.5532 50.6484 27.6247 50.6461C27.7634 50.6421 27.8088 50.6804 27.8092 50.8136C27.8115 51.4511 27.8115 52.0886 27.8092 52.7261C27.8092 52.8632 27.7863 52.8841 27.6433 52.8841C27.0113 52.8862 26.3803 52.8862 25.7504 52.8841C25.6209 52.8841 25.6019 52.8636 25.6003 52.7336C25.5972 52.4113 25.6003 52.0894 25.6003 51.7675L25.5988 51.7679Z" fill="#69B562"/>
<path d="M34.4724 12.7526C34.4025 12.7675 34.3316 12.7775 34.2603 12.7826C33.6757 12.7826 33.0911 12.7771 32.5061 12.7782C32.3165 12.7782 32.2766 12.7486 32.2762 12.5531C32.2762 11.9609 32.2762 11.3684 32.2762 10.7756C32.2762 10.5781 32.3027 10.55 32.5065 10.5496C33.1048 10.5481 33.7032 10.5481 34.3018 10.5496C34.4701 10.5496 34.4894 10.5666 34.4898 10.7266C34.4918 11.3709 34.4898 12.0155 34.4898 12.6601C34.4862 12.6913 34.4804 12.7222 34.4724 12.7526Z" fill="#82A78E"/>
<path d="M12.2656 35.0962C12.3307 35.0914 12.3841 35.0847 12.4334 35.0847C13.0323 35.0847 13.6311 35.0847 14.2299 35.0847C14.4274 35.0847 14.4444 35.0993 14.4448 35.2984C14.4466 35.8906 14.4466 36.4831 14.4448 37.0759C14.4448 37.2624 14.4258 37.2789 14.2402 37.2793C13.6345 37.2793 13.0288 37.2793 12.4232 37.2793C12.2671 37.2793 12.2513 37.2643 12.2509 37.1111C12.2494 36.4727 12.2494 35.8344 12.2509 35.1961C12.2539 35.1625 12.2588 35.1292 12.2656 35.0962Z" fill="#7D5FA3"/>
<path d="M52.7068 37.1948C52.7033 37.1205 52.6973 37.0565 52.6973 36.9925C52.6973 36.6967 52.6934 36.4 52.6973 36.105C52.7019 36.0531 52.6942 36.0009 52.675 35.9524C52.6558 35.904 52.6256 35.8608 52.5867 35.8261C52.4603 35.7112 52.3387 35.5891 52.2245 35.4635C52.1455 35.377 52.0582 35.3521 51.9456 35.3529C51.4065 35.3568 50.8673 35.3529 50.3281 35.3529H50.0911C50.0986 35.2526 50.1046 35.1736 50.1117 35.0811C50.2025 35.0768 50.2736 35.0705 50.3443 35.0701H54.2892C54.322 35.0701 54.3548 35.0701 54.3875 35.0701C54.5254 35.0784 54.5455 35.0946 54.5455 35.236C54.5479 35.868 54.5479 36.4992 54.5455 37.1296C54.5455 37.2603 54.5226 37.2876 54.3978 37.2836C54.2461 37.2793 54.0818 37.3382 53.9491 37.2019C53.9337 37.1861 53.8867 37.2019 53.8543 37.2019C53.5191 37.2019 53.1838 37.2019 52.8486 37.2019C52.8067 37.2046 52.7625 37.1987 52.7068 37.1948Z" fill="#9F86B9"/>
<path d="M43.8094 41.7716H44.3067C44.3225 42.2646 44.3115 42.7548 44.3135 43.245C44.3154 43.7352 44.3135 44.2182 44.3135 44.7065V46.1928H42.0304C41.9849 46.0664 41.9778 45.8531 42.0138 45.6035C42.0615 45.5944 42.1098 45.5884 42.1583 45.5857C42.4214 45.5857 42.6845 45.581 42.9483 45.5857C43.1229 45.5893 43.2671 45.5411 43.3828 45.4024C43.4678 45.3025 43.5602 45.2091 43.6593 45.1232C43.7719 45.0236 43.811 44.9055 43.8102 44.7562C43.8059 43.8477 43.8079 42.9392 43.8079 42.0335L43.8094 41.7716Z" fill="#7D5FA3"/>
<path d="M22.8144 35.0305H22.0161C22.0102 34.9685 22.0015 34.918 22.0011 34.867C22.0011 34.6896 21.9964 34.5115 22.0011 34.3345C22.0051 34.2046 21.9754 34.1011 21.8431 34.047C21.8023 34.0323 21.7684 34.0031 21.7478 33.965C21.7271 33.9269 21.7213 33.8825 21.7313 33.8404C21.7463 33.7322 21.6954 33.6694 21.6045 33.6212C21.4769 33.5536 21.3549 33.4754 21.2273 33.4071C21.197 33.3947 21.1714 33.3729 21.1545 33.3449C21.1375 33.3168 21.1301 33.2841 21.1333 33.2514C21.138 33.1661 21.1305 33.0804 21.1361 32.9951C21.144 32.8715 21.1803 32.8371 21.3083 32.8296C21.328 32.8296 21.3478 32.8296 21.3675 32.8296C21.9598 32.8296 22.5523 32.8296 23.145 32.8296C23.3492 32.8296 23.382 32.8722 23.367 33.0776C23.3553 33.209 23.3503 33.3408 23.352 33.4726C23.3555 33.5183 23.3483 33.564 23.331 33.6064C23.3136 33.6487 23.2866 33.6864 23.2521 33.7164C23.1454 33.8139 23.0518 33.9261 22.9424 34.0205C22.8997 34.056 22.8666 34.1016 22.8459 34.1531C22.8252 34.2046 22.8176 34.2604 22.8239 34.3156C22.8322 34.4925 22.827 34.6711 22.8239 34.848C22.8255 34.9037 22.8191 34.961 22.8144 35.0305Z" fill="#658EC7"/>
<path d="M32.9663 41.7629H33.5193V43.9453C33.34 43.9848 33.1591 43.9591 32.9821 43.9623C32.9316 43.8169 32.9205 42.0055 32.9663 41.7629Z" fill="#658EC7"/>
<path d="M18.4157 39.5001C18.3841 39.5028 18.3521 39.5084 18.3201 39.5084C17.8409 39.5084 17.3618 39.5107 16.8827 39.5084C16.6954 39.5084 16.6749 39.4898 16.6725 39.3109C16.669 39.0371 16.6725 38.7634 16.6725 38.4525L18.4287 39.4708L18.4157 39.5001Z" fill="#E9A66D"/>
<path d="M17.8386 36.4122L18.6503 36.8839C18.3707 37.0592 18.1123 37.2204 17.8386 37.3914V36.4122Z" fill="#6A666B"/>
<path d="M17.8212 35.2222C17.8378 34.8872 17.8524 34.5866 17.8686 34.2623C18.0096 34.3433 18.138 34.416 18.2656 34.4906C18.3932 34.5653 18.5117 34.636 18.6677 34.7276L17.8212 35.2222Z" fill="#6A666B"/>
<path d="M38.96 42.5968C38.96 42.3681 38.9549 42.1524 38.9624 41.9371C38.9667 41.8099 39.0137 41.7625 39.1275 41.7621C39.6592 41.759 40.1912 41.7621 40.7194 41.7621C40.7672 41.9083 40.7751 42.37 40.7348 42.5984L38.96 42.5968Z" fill="#7D5FA3"/>
<path d="M36.7081 42.6039H36.5501V40.1462L36.6904 40.13C36.7429 40.1944 36.7508 42.344 36.7081 42.6039Z" fill="#658EC7"/>
<path d="M16.827 32.548L17.775 31.995L21.488 34.128L20.5795 34.681L16.827 32.548Z" fill="#A8B5BB"/>
<path d="M20.5795 34.6811L21.488 34.1281L21.5275 37.4066L20.5795 37.9177V34.6811Z" fill="#A8B5BB"/>
<path d="M17.7355 35.234L18.644 34.7205L19.5525 35.234V36.3052L17.7355 35.234Z" fill="#A8B5BB"/>
<path d="M17.7355 37.4018L18.644 36.863L21.4485 38.4731L20.5005 38.9866L17.7355 37.4018Z" fill="#A8B5BB"/>
<path d="M20.5005 38.9865L21.4485 38.473V39.5814L20.5005 40.1111V38.9865Z" fill="#A8B5BB"/>
<path d="M30.573 34.0885H25.1615V35.9055H30.573V34.0885Z" fill="#A8B5BB"/>
<path d="M25.201 37.762H23.3445V39.5395H25.201V37.762Z" fill="#A8B5BB"/>
<path d="M32.4295 35.9055H30.573V37.7225H32.4295V35.9055Z" fill="#A8B5BB"/>
<path d="M30.6125 39.5396H25.1615V41.3566H30.6125V39.5396Z" fill="#A8B5BB"/>
<path d="M25.1615 43.134H23.305V44.9905H25.1615V43.134Z" fill="#A8B5BB"/>
<path d="M32.4295 43.134H30.573V44.9905H32.4295V43.134Z" fill="#A8B5BB"/>
<path d="M30.6125 44.9905H25.1615V46.768H30.6125V44.9905Z" fill="#A8B5BB"/>
<path d="M41.3565 37.7225H35.945V39.5395H41.3565V37.7225Z" fill="#A8B5BB"/>
<path d="M35.945 43.1735H34.0885V45.03H35.945V43.1735Z" fill="#A8B5BB"/>
<path d="M43.1735 43.1735H41.396V44.951H43.1735V43.1735Z" fill="#A8B5BB"/>
<path d="M41.396 45.03H35.945V46.768H41.396V45.03Z" fill="#A8B5BB"/>
<path d="M52.1005 37.8015H48.5455V39.5395H52.1005V37.8015Z" fill="#A8B5BB"/>
<path d="M48.585 39.5396H46.8075V41.3566H48.585V39.5396Z" fill="#A8B5BB"/>
<path d="M53.957 39.5396H52.1005V41.3171H53.957V39.5396Z" fill="#A8B5BB"/>
<path d="M46.768 45.03H44.9115V46.768H46.768V45.03Z" fill="#A8B5BB"/>
<path d="M60.988 37.762H57.3145V39.5395H60.988V37.762Z" fill="#A8B5BB"/>
<path d="M57.3145 43.134H55.537V44.9115H57.3145V43.134Z" fill="#A8B5BB"/>
<path d="M60.988 44.9115H57.3145V46.768H60.988V44.9115Z" fill="#A8B5BB"/>
</svg>
